<svg version="1.1" id="Layer_1" xmlns="http://www.w3.org/2000/svg" xmlns:xlink="http://www.w3.org/1999/xlink" x="0px" y="0px"
	 width="100%" viewBox="0 0 512 512" enable-background="new 0 0 512 512" xml:space="preserve">
<path fill="#020301" opacity="1.000000" stroke="none" 
	d="
M353.000000,513.000000 
	C289.312439,513.000000 225.624878,513.000000 161.372375,512.651611 
	C152.663910,509.062561 148.816681,503.083466 148.963074,494.300964 
	C149.113007,485.305634 148.996307,476.305817 148.996307,467.307983 
	C148.996307,463.226868 148.996307,459.145752 148.996307,455.003662 
	C137.120789,455.003662 125.958458,455.098419 114.799355,454.950500 
	C111.059914,454.900940 107.244514,454.605499 103.607666,453.784943 
	C83.749542,449.304657 66.650429,440.111298 52.974129,424.641296 
	C45.462460,416.144440 40.057949,406.610229 35.985462,396.175690 
	C31.422295,384.483887 30.268063,372.151489 30.099380,359.823090 
	C29.755182,334.667145 29.996290,309.503235 29.996290,284.342590 
	C29.996290,282.593445 29.996290,280.844330 29.996290,279.003540 
	C24.479708,279.003540 19.652754,279.055084 14.827446,278.988068 
	C10.577395,278.929016 8.367276,276.789948 7.952041,272.448029 
	C7.371899,266.381714 9.645880,263.752136 16.915436,263.068909 
	C21.153553,262.670563 25.459728,262.996368 29.996292,262.996368 
	C29.996292,242.852371 29.719461,223.214996 30.116962,203.591263 
	C30.306271,194.245529 31.458118,184.843216 36.804100,176.639069 
	C38.800594,173.575165 40.820843,170.526749 42.961380,167.271881 
	C38.645054,163.020935 34.350918,158.841049 30.115601,154.602402 
	C27.535986,152.020752 27.128366,145.751328 29.295845,143.350494 
	C31.800402,140.576294 36.728191,139.864075 39.872383,142.439224 
	C44.325695,146.086548 48.572029,150.030151 52.574207,154.168777 
	C55.074833,156.754669 57.139538,157.502335 60.662922,155.895172 
	C70.443977,151.433716 80.696793,151.301086 90.967674,154.047882 
	C100.528549,156.604782 108.539497,161.550781 114.946739,169.320862 
	C121.661087,177.463364 125.940117,186.469238 125.960007,197.057983 
	C126.056694,248.545456 126.003487,300.033203 126.004745,351.520874 
	C126.004784,353.020416 125.679924,354.633972 126.132378,355.984741 
	C126.520020,357.142029 127.776100,358.822540 128.699493,358.856110 
	C135.439056,359.100800 142.191620,358.987854 148.650269,358.987854 
	C148.650269,285.554962 148.650269,212.828888 148.650269,140.003693 
	C145.311111,140.003693 142.317657,140.003693 139.324219,140.003693 
	C128.034073,140.003693 124.915359,138.233170 124.996407,131.869629 
	C125.074196,125.761940 128.233643,123.996300 139.085083,123.996300 
	C142.345383,123.996292 145.605682,123.996300 149.340256,123.996300 
	C146.239044,85.344025 157.516602,52.642696 186.169342,26.496336 
	C182.709686,23.094433 179.364868,19.842340 176.061066,16.549070 
	C169.344742,9.854126 169.237076,8.126526 175.000000,1.000000 
	C177.370560,1.000000 179.741104,1.000000 182.635056,1.339762 
	C188.631882,6.645668 194.105301,11.611813 199.059662,16.107002 
	C207.348648,12.610896 215.405487,8.841787 223.734924,5.825368 
	C229.632339,3.689679 235.898468,2.572069 242.000000,0.999999 
	C251.354233,1.000000 260.708466,1.000000 270.676941,1.390505 
	C299.198303,5.105007 321.763397,18.374893 340.141022,39.543571 
	C344.683075,34.933235 348.765533,30.776585 352.863068,26.634855 
	C355.614075,23.854168 359.102142,23.765682 361.916656,25.675262 
	C363.836487,26.977804 365.416748,29.728792 365.858917,32.075245 
	C366.977356,38.010040 361.579742,40.464165 358.419495,44.033043 
	C355.781433,47.012222 351.297302,49.430134 350.593140,52.728973 
	C349.962097,55.685078 353.372253,59.503056 354.995514,62.942673 
	C355.129730,63.227036 355.233215,63.525856 355.351837,63.817604 
	C361.317352,78.491974 365.119202,93.579926 365.045868,109.579826 
	C364.902313,140.908264 365.003662,172.237823 365.003662,203.566910 
	C365.003662,205.324692 365.003662,207.082458 365.003662,208.996292 
	C371.115021,208.996292 376.614716,208.747131 382.079346,209.077545 
	C386.223389,209.328094 387.101318,207.677872 387.072327,203.858047 
	C386.913086,182.862091 386.898926,161.863525 387.071289,140.867767 
	C387.109833,136.172195 387.530823,131.327927 388.779510,126.830849 
	C390.512299,120.590462 393.193512,114.613419 395.627960,108.097198 
	C391.604492,104.085052 387.073822,99.676712 382.672119,95.143173 
	C379.141510,91.506828 379.050323,87.926308 382.160339,84.350769 
	C384.659271,81.477768 389.545624,80.693794 392.717529,83.299408 
	C397.293701,87.058548 401.381866,91.408226 405.904572,95.238731 
	C406.917847,96.096954 409.283600,96.586334 410.324799,95.999725 
	C426.373993,86.957573 442.539825,86.418869 458.699585,95.329659 
	C474.662537,104.131950 482.723785,117.893219 482.981781,136.121338 
	C483.108032,145.040482 483.003662,153.962906 483.003662,162.468597 
	C489.073212,163.002090 494.505646,163.153427 499.815704,164.038849 
	C505.036713,164.909470 507.010254,167.875076 505.905609,173.084869 
	C505.098602,176.891083 502.535217,179.201523 498.171631,179.044678 
	C493.229279,178.867065 488.275665,179.003693 483.003662,179.003693 
	C483.003662,193.418488 483.076904,207.379593 482.956604,221.339020 
	C482.922821,225.255310 482.833313,229.295837 481.887238,233.057526 
	C478.160400,247.875778 472.224823,261.787811 462.028931,273.347168 
	C444.270172,293.480865 421.788391,304.099030 394.905457,304.952850 
	C384.993134,305.267670 375.062408,305.003662 365.329102,305.003662 
	C365.329102,326.053101 365.329102,346.457520 365.329102,366.482544 
	C371.225800,367.006012 376.839935,367.111359 382.286865,368.119812 
	C386.214996,368.847107 388.559540,372.221893 387.812317,376.126617 
	C387.082794,379.938995 385.295868,383.503204 379.981262,383.085632 
	C375.080994,382.700562 370.126648,383.003662 365.003662,383.003662 
	C365.003662,385.236877 365.003662,386.883331 365.003662,388.529816 
	C365.003662,424.024994 365.014526,459.520203 364.971191,495.015350 
	C364.969055,496.764160 364.526825,498.517853 364.234253,500.259949 
	C363.131134,506.828552 357.850342,509.727448 353.000000,513.000000 
M78.719437,329.993927 
	C83.975716,330.757935 85.984276,334.090118 85.974091,339.081757 
	C85.957443,347.243134 85.845253,355.407379 86.016632,363.565338 
	C86.341522,379.030487 95.641884,392.411713 109.793831,397.293762 
	C122.527542,401.686584 135.710327,399.352142 148.847290,399.916443 
	C148.847290,391.236298 148.847290,383.335022 148.847290,374.896698 
	C143.730057,374.896698 138.909180,374.545715 134.155914,374.963745 
	C120.914116,376.128235 110.521439,369.639587 110.740059,351.984833 
	C111.356651,302.191071 110.941437,252.384689 110.969833,202.583328 
	C110.974220,194.889557 109.434616,187.658722 104.703499,181.450989 
	C100.026680,175.314484 94.367134,170.535522 85.970337,169.170242 
	C85.970337,171.716278 85.970345,173.704529 85.970337,175.692764 
	C85.970055,219.664566 85.975677,263.636353 85.963509,307.608154 
	C85.961548,314.696045 84.435204,316.652100 77.289940,317.889008 
	C71.828300,316.461670 70.899216,312.438354 70.907379,307.485474 
	C70.980164,263.319214 70.949402,219.152756 70.949150,174.986374 
	C70.949142,173.082428 70.949158,171.178497 70.949158,169.151688 
	C56.483879,172.053207 46.069721,184.903763 46.037121,200.096329 
	C45.917320,255.928772 45.668316,311.764771 46.180515,367.592896 
	C46.392712,390.721863 56.923519,409.465302 74.918999,423.972473 
	C96.892784,441.686768 122.775154,440.518829 148.803070,439.548096 
	C148.803070,431.217560 148.803070,423.194489 148.803070,414.850372 
	C139.548752,414.850372 130.728027,415.012268 121.915077,414.819153 
	C98.207520,414.299713 76.599266,397.739227 72.561203,375.017365 
	C70.344513,362.544189 71.264771,349.484436 71.141418,336.685577 
	C71.102989,332.697754 74.160271,330.612976 78.719437,329.993927 
M212.096939,27.926884 
	C205.193024,33.086391 197.598511,37.544437 191.513123,43.535374 
	C172.336746,62.414013 164.274353,85.964622 164.284225,112.607101 
	C164.320618,210.893066 164.298645,309.179077 164.298645,407.465057 
	C164.298645,435.618164 164.358566,463.771515 164.236862,491.924103 
	C164.217743,496.343201 165.524979,498.195221 170.246765,498.085785 
	C181.901550,497.815643 193.566833,498.008301 205.227829,497.980835 
	C206.492264,497.977844 207.756165,497.751709 208.854309,497.645203 
	C208.854309,422.832855 208.854309,348.437469 208.854309,273.600098 
	C204.383575,273.600098 200.224121,273.879730 196.126572,273.496918 
	C193.604431,273.261230 190.489288,272.675964 188.904572,271.030273 
	C187.389496,269.456940 186.461380,265.915771 187.193863,263.957001 
	C188.001160,261.798187 190.830643,259.308350 193.067291,258.990631 
	C198.212433,258.259827 203.532303,258.759003 209.196838,258.759003 
	C209.196838,255.695724 209.196838,253.728607 209.196838,251.761505 
	C209.196854,185.626694 209.040924,119.491058 209.393600,53.358131 
	C209.437866,45.060349 212.164536,36.776863 213.918228,28.041117 
	C213.858276,27.798830 213.798325,27.556543 213.738388,27.314262 
	C213.418503,27.466381 213.098618,27.618500 212.096939,27.926884 
M297.771271,272.570648 
	C303.555725,274.482422 304.602051,276.176086 304.604492,284.071259 
	C304.618042,327.888641 304.611053,371.705994 304.611053,415.523376 
	C304.611053,417.471985 304.611023,419.420593 304.611023,421.906464 
	C309.479126,421.906464 313.770142,421.865662 318.060089,421.916290 
	C324.088470,421.987427 327.207886,424.569214 327.196320,429.382294 
	C327.185089,434.063324 323.877380,436.806763 317.964325,436.906250 
	C313.679138,436.978363 309.391754,436.920319 304.957794,436.920319 
	C304.957794,457.528900 304.957794,477.563110 304.957794,497.993683 
	C317.767273,497.993683 330.233765,497.999023 342.700256,497.991547 
	C349.262482,497.987579 349.280060,497.976227 349.280212,491.236145 
	C349.283234,364.615570 349.238617,237.994995 349.322388,111.374496 
	C349.337250,88.936279 343.182709,68.692162 329.152710,51.082664 
	C321.250671,41.164539 311.840515,32.964863 300.148499,27.134331 
	C308.775940,53.788708 302.341248,80.973274 305.211609,107.944656 
	C310.239563,107.944656 315.052155,107.792313 319.850555,107.987946 
	C324.550110,108.179550 327.341095,111.285835 327.180298,115.674507 
	C327.021729,120.003677 323.919098,122.737946 318.670013,122.888756 
	C314.070190,123.020920 309.463623,122.916367 304.611023,122.916367 
	C304.611023,128.830368 304.611084,133.986847 304.611053,139.143341 
	C304.611023,175.463455 304.621887,211.783554 304.602295,248.103668 
	C304.598083,255.930008 303.412872,257.665161 296.345764,259.326721 
	C290.500793,257.574951 289.333435,255.654449 289.332306,247.464493 
	C289.323425,182.986282 289.330872,118.508080 289.316315,54.029873 
	C289.315643,51.033585 289.252960,48.030643 289.051025,45.042164 
	C287.894196,27.923143 270.420502,13.843149 253.444565,16.306017 
	C235.511185,18.907791 224.275818,32.026657 224.223831,50.992481 
	C224.110565,92.311546 224.184875,133.631134 224.204315,174.950485 
	C224.204910,176.224548 224.445892,177.498505 224.605713,179.077866 
	C229.586243,179.077866 234.240677,178.954895 238.885788,179.110703 
	C244.060287,179.284271 247.138153,182.172791 247.173401,186.548370 
	C247.211624,191.292999 244.243942,193.962906 238.623444,194.064072 
	C234.004318,194.147186 229.382507,194.081009 224.503265,194.081009 
	C224.503265,259.005371 224.503265,323.379211 224.503265,387.958374 
	C230.412323,388.285461 236.044968,388.367584 241.617798,388.987579 
	C245.248428,389.391449 246.974838,392.134735 247.127563,395.676697 
	C247.280228,399.217743 245.729294,401.934113 242.244873,402.907898 
	C240.040756,403.523926 237.645508,403.569916 235.328781,403.642883 
	C231.750031,403.755615 228.165115,403.672577 224.567108,403.672577 
	C224.567108,435.586945 224.567108,466.638855 224.567108,497.724365 
	C246.214783,497.724365 267.481812,497.724365 288.842590,497.724365 
	C288.842590,448.959198 288.842590,400.465851 288.842590,352.002930 
	C283.053223,351.685883 277.676361,351.837616 272.463745,350.985107 
	C266.841278,350.065582 264.635742,342.712891 268.869171,339.025116 
	C270.778625,337.361755 273.934357,336.717621 276.610291,336.441681 
	C280.658478,336.024231 284.781494,336.332703 289.327332,336.332703 
	C289.327332,333.726074 289.327271,331.925995 289.327332,330.125885 
	C289.327698,314.464508 289.277771,298.802887 289.351135,283.141846 
	C289.384583,276.000336 290.689911,274.313293 297.771271,272.570648 
M398.327301,264.007019 
	C387.103729,264.353973 375.880157,264.700928 364.599792,265.049622 
	C364.599792,273.323425 364.599792,281.073090 364.599792,288.773346 
	C377.727539,288.773346 390.732788,290.289764 403.262146,288.491089 
	C441.970551,282.934296 467.824646,252.124039 467.935699,213.063034 
	C468.005798,188.406464 467.983734,163.749435 467.906128,139.092911 
	C467.896240,135.951935 467.568054,132.756760 466.927002,129.682693 
	C464.421814,117.669136 453.778870,107.207619 442.961761,106.242302 
	C442.961761,108.086876 442.961792,109.897697 442.961761,111.708511 
	C442.961304,144.861862 442.997406,178.015274 442.948944,211.168549 
	C442.909210,238.342819 425.910370,258.789337 398.327301,264.007019 
M425.085449,106.190437 
	C410.011963,112.540009 403.000000,123.061272 402.977112,139.516739 
	C402.946289,161.656326 403.013550,183.796143 402.945221,205.935577 
	C402.914124,216.016861 397.162720,222.972122 387.406647,224.080185 
	C380.992523,224.808655 374.460999,224.453140 367.997955,224.844940 
	C366.711029,224.922958 364.441071,226.149887 364.412109,226.914749 
	C364.136963,234.176392 364.248108,241.452667 364.248108,249.091537 
	C374.680847,249.091537 384.477417,249.414429 394.244049,249.011581 
	C407.074738,248.482361 416.964325,242.106110 422.747040,230.928772 
	C425.761261,225.102631 427.635559,218.014359 427.730255,211.463028 
	C428.216064,177.844421 427.982941,144.214951 427.869507,110.589729 
	C427.864380,109.073982 426.583893,107.562538 425.085449,106.190437 
z"/>
<path fill="#FFFFFF" opacity="1.000000" stroke="none" 
	d="
M353.468658,513.000000 
	C357.850342,509.727448 363.131134,506.828552 364.234253,500.259949 
	C364.526825,498.517853 364.969055,496.764160 364.971191,495.015350 
	C365.014526,459.520203 365.003662,424.024994 365.003662,388.529816 
	C365.003662,386.883331 365.003662,385.236877 365.003662,383.003662 
	C370.126648,383.003662 375.080994,382.700562 379.981262,383.085632 
	C385.295868,383.503204 387.082794,379.938995 387.812317,376.126617 
	C388.559540,372.221893 386.214996,368.847107 382.286865,368.119812 
	C376.839935,367.111359 371.225800,367.006012 365.329102,366.482544 
	C365.329102,346.457520 365.329102,326.053101 365.329102,305.003662 
	C375.062408,305.003662 384.993134,305.267670 394.905457,304.952850 
	C421.788391,304.099030 444.270172,293.480865 462.028931,273.347168 
	C472.224823,261.787811 478.160400,247.875778 481.887238,233.057526 
	C482.833313,229.295837 482.922821,225.255310 482.956604,221.339020 
	C483.076904,207.379593 483.003662,193.418488 483.003662,179.003693 
	C488.275665,179.003693 493.229279,178.867065 498.171631,179.044678 
	C502.535217,179.201523 505.098602,176.891083 505.905609,173.084869 
	C507.010254,167.875076 505.036713,164.909470 499.815704,164.038849 
	C494.505646,163.153427 489.073212,163.002090 483.003662,162.468597 
	C483.003662,153.962906 483.108032,145.040482 482.981781,136.121338 
	C482.723785,117.893219 474.662537,104.131950 458.699585,95.329659 
	C442.539825,86.418869 426.373993,86.957573 410.324799,95.999725 
	C409.283600,96.586334 406.917847,96.096954 405.904572,95.238731 
	C401.381866,91.408226 397.293701,87.058548 392.717529,83.299408 
	C389.545624,80.693794 384.659271,81.477768 382.160339,84.350769 
	C379.050323,87.926308 379.141510,91.506828 382.672119,95.143173 
	C387.073822,99.676712 391.604492,104.085052 395.627960,108.097198 
	C393.193512,114.613419 390.512299,120.590462 388.779510,126.830849 
	C387.530823,131.327927 387.109833,136.172195 387.071289,140.867767 
	C386.898926,161.863525 386.913086,182.862091 387.072327,203.858047 
	C387.101318,207.677872 386.223389,209.328094 382.079346,209.077545 
	C376.614716,208.747131 371.115021,208.996292 365.003662,208.996292 
	C365.003662,207.082458 365.003662,205.324692 365.003662,203.566910 
	C365.003662,172.237823 364.902313,140.908264 365.045868,109.579826 
	C365.119202,93.579926 361.317352,78.491974 355.351837,63.817604 
	C355.233215,63.525856 355.129730,63.227036 354.995514,62.942673 
	C353.372253,59.503056 349.962097,55.685078 350.593140,52.728973 
	C351.297302,49.430134 355.781433,47.012222 358.419495,44.033043 
	C361.579742,40.464165 366.977356,38.010040 365.858917,32.075245 
	C365.416748,29.728792 363.836487,26.977804 361.916656,25.675262 
	C359.102142,23.765682 355.614075,23.854168 352.863068,26.634855 
	C348.765533,30.776585 344.683075,34.933235 340.141022,39.543571 
	C321.763397,18.374893 299.198303,5.105007 271.145599,1.390505 
	C351.628052,1.000000 432.256104,1.000000 512.942078,1.000000 
	C512.942078,171.546310 512.942078,342.092651 512.942078,513.000000 
	C459.979645,513.000000 406.958496,513.000000 353.468658,513.000000 
z"/>
<path fill="#FFFFFF" opacity="1.000000" stroke="none" 
	d="
M174.531342,1.000000 
	C169.237076,8.126526 169.344742,9.854126 176.061066,16.549070 
	C179.364868,19.842340 182.709686,23.094433 186.169342,26.496336 
	C157.516602,52.642696 146.239044,85.344025 149.340256,123.996300 
	C145.605682,123.996300 142.345383,123.996292 139.085083,123.996300 
	C128.233643,123.996300 125.074196,125.761940 124.996407,131.869629 
	C124.915359,138.233170 128.034073,140.003693 139.324219,140.003693 
	C142.317657,140.003693 145.311111,140.003693 148.650269,140.003693 
	C148.650269,212.828888 148.650269,285.554962 148.650269,358.987854 
	C142.191620,358.987854 135.439056,359.100800 128.699493,358.856110 
	C127.776100,358.822540 126.520020,357.142029 126.132378,355.984741 
	C125.679924,354.633972 126.004784,353.020416 126.004745,351.520874 
	C126.003487,300.033203 126.056694,248.545456 125.960007,197.057983 
	C125.940117,186.469238 121.661087,177.463364 114.946739,169.320862 
	C108.539497,161.550781 100.528549,156.604782 90.967674,154.047882 
	C80.696793,151.301086 70.443977,151.433716 60.662922,155.895172 
	C57.139538,157.502335 55.074833,156.754669 52.574207,154.168777 
	C48.572029,150.030151 44.325695,146.086548 39.872383,142.439224 
	C36.728191,139.864075 31.800402,140.576294 29.295845,143.350494 
	C27.128366,145.751328 27.535986,152.020752 30.115601,154.602402 
	C34.350918,158.841049 38.645054,163.020935 42.961380,167.271881 
	C40.820843,170.526749 38.800594,173.575165 36.804100,176.639069 
	C31.458118,184.843216 30.306271,194.245529 30.116962,203.591263 
	C29.719461,223.214996 29.996292,242.852371 29.996292,262.996368 
	C25.459728,262.996368 21.153553,262.670563 16.915436,263.068909 
	C9.645880,263.752136 7.371899,266.381714 7.952041,272.448029 
	C8.367276,276.789948 10.577395,278.929016 14.827446,278.988068 
	C19.652754,279.055084 24.479708,279.003540 29.996290,279.003540 
	C29.996290,280.844330 29.996290,282.593445 29.996290,284.342590 
	C29.996290,309.503235 29.755182,334.667145 30.099380,359.823090 
	C30.268063,372.151489 31.422295,384.483887 35.985462,396.175690 
	C40.057949,406.610229 45.462460,416.144440 52.974129,424.641296 
	C66.650429,440.111298 83.749542,449.304657 103.607666,453.784943 
	C107.244514,454.605499 111.059914,454.900940 114.799355,454.950500 
	C125.958458,455.098419 137.120789,455.003662 148.996307,455.003662 
	C148.996307,459.145752 148.996307,463.226868 148.996307,467.307983 
	C148.996307,476.305817 149.113007,485.305634 148.963074,494.300964 
	C148.816681,503.083466 152.663910,509.062561 160.903717,512.651611 
	C107.694260,513.000000 54.388512,513.000000 1.041385,513.000000 
	C1.041385,342.449219 1.041385,171.898422 1.041385,1.000000 
	C58.687096,1.000000 116.374886,1.000000 174.531342,1.000000 
z"/>
<path fill="#FFFFFF" opacity="1.000000" stroke="none" 
	d="
M241.531342,0.999999 
	C235.898468,2.572069 229.632339,3.689679 223.734924,5.825368 
	C215.405487,8.841787 207.348648,12.610896 199.059662,16.107002 
	C194.105301,11.611813 188.631882,6.645668 183.079224,1.339762 
	C202.354233,1.000000 221.708450,1.000000 241.531342,0.999999 
z"/>
<path fill="#6FAA2A" opacity="1.000000" stroke="none" 
	d="
M297.077393,272.198120 
	C290.689911,274.313293 289.384583,276.000336 289.351135,283.141846 
	C289.277771,298.802887 289.327698,314.464508 289.327332,330.125885 
	C289.327271,331.925995 289.327332,333.726074 289.327332,336.332703 
	C284.781494,336.332703 280.658478,336.024231 276.610291,336.441681 
	C273.934357,336.717621 270.778625,337.361755 268.869171,339.025116 
	C264.635742,342.712891 266.841278,350.065582 272.463745,350.985107 
	C277.676361,351.837616 283.053223,351.685883 288.842590,352.002930 
	C288.842590,400.465851 288.842590,448.959198 288.842590,497.724365 
	C267.481812,497.724365 246.214783,497.724365 224.567108,497.724365 
	C224.567108,466.638855 224.567108,435.586945 224.567108,403.672577 
	C228.165115,403.672577 231.750031,403.755615 235.328781,403.642883 
	C237.645508,403.569916 240.040756,403.523926 242.244873,402.907898 
	C245.729294,401.934113 247.280228,399.217743 247.127563,395.676697 
	C246.974838,392.134735 245.248428,389.391449 241.617798,388.987579 
	C236.044968,388.367584 230.412323,388.285461 224.503265,387.958374 
	C224.503265,323.379211 224.503265,259.005371 224.503265,194.081009 
	C229.382507,194.081009 234.004318,194.147186 238.623444,194.064072 
	C244.243942,193.962906 247.211624,191.292999 247.173401,186.548370 
	C247.138153,182.172791 244.060287,179.284271 238.885788,179.110703 
	C234.240677,178.954895 229.586243,179.077866 224.605713,179.077866 
	C224.445892,177.498505 224.204910,176.224548 224.204315,174.950485 
	C224.184875,133.631134 224.110565,92.311546 224.223831,50.992481 
	C224.275818,32.026657 235.511185,18.907791 253.444565,16.306017 
	C270.420502,13.843149 287.894196,27.923143 289.051025,45.042164 
	C289.252960,48.030643 289.315643,51.033585 289.316315,54.029873 
	C289.330872,118.508080 289.323425,182.986282 289.332306,247.464493 
	C289.333435,255.654449 290.500793,257.574951 296.691345,259.889465 
	C297.050415,264.367523 297.063904,268.282837 297.077393,272.198120 
z"/>
<path fill="#95BF33" opacity="1.000000" stroke="none" 
	d="
M213.648346,28.486753 
	C212.164536,36.776863 209.437866,45.060349 209.393600,53.358131 
	C209.040924,119.491058 209.196854,185.626694 209.196838,251.761505 
	C209.196838,253.728607 209.196838,255.695724 209.196838,258.759003 
	C203.532303,258.759003 198.212433,258.259827 193.067291,258.990631 
	C190.830643,259.308350 188.001160,261.798187 187.193863,263.957001 
	C186.461380,265.915771 187.389496,269.456940 188.904572,271.030273 
	C190.489288,272.675964 193.604431,273.261230 196.126572,273.496918 
	C200.224121,273.879730 204.383575,273.600098 208.854309,273.600098 
	C208.854309,348.437469 208.854309,422.832855 208.854309,497.645203 
	C207.756165,497.751709 206.492264,497.977844 205.227829,497.980835 
	C193.566833,498.008301 181.901550,497.815643 170.246765,498.085785 
	C165.524979,498.195221 164.217743,496.343201 164.236862,491.924103 
	C164.358566,463.771515 164.298645,435.618164 164.298645,407.465057 
	C164.298645,309.179077 164.320618,210.893066 164.284225,112.607101 
	C164.274353,85.964622 172.336746,62.414013 191.513123,43.535374 
	C197.598511,37.544437 205.193024,33.086391 212.644257,28.041122 
	C213.343826,28.265823 213.496078,28.376287 213.648346,28.486753 
z"/>
<path fill="#96C133" opacity="1.000000" stroke="none" 
	d="
M297.424316,272.384399 
	C297.063904,268.282837 297.050415,264.367523 297.056946,260.039062 
	C303.412872,257.665161 304.598083,255.930008 304.602295,248.103668 
	C304.621887,211.783554 304.611023,175.463455 304.611053,139.143341 
	C304.611084,133.986847 304.611023,128.830368 304.611023,122.916367 
	C309.463623,122.916367 314.070190,123.020920 318.670013,122.888756 
	C323.919098,122.737946 327.021729,120.003677 327.180298,115.674507 
	C327.341095,111.285835 324.550110,108.179550 319.850555,107.987946 
	C315.052155,107.792313 310.239563,107.944656 305.211609,107.944656 
	C302.341248,80.973274 308.775940,53.788708 300.148499,27.134331 
	C311.840515,32.964863 321.250671,41.164539 329.152710,51.082664 
	C343.182709,68.692162 349.337250,88.936279 349.322388,111.374496 
	C349.238617,237.994995 349.283234,364.615570 349.280212,491.236145 
	C349.280060,497.976227 349.262482,497.987579 342.700256,497.991547 
	C330.233765,497.999023 317.767273,497.993683 304.957794,497.993683 
	C304.957794,477.563110 304.957794,457.528900 304.957794,436.920319 
	C309.391754,436.920319 313.679138,436.978363 317.964325,436.906250 
	C323.877380,436.806763 327.185089,434.063324 327.196320,429.382294 
	C327.207886,424.569214 324.088470,421.987427 318.060089,421.916290 
	C313.770142,421.865662 309.479126,421.906464 304.611023,421.906464 
	C304.611023,419.420593 304.611053,417.471985 304.611053,415.523376 
	C304.611053,371.705994 304.618042,327.888641 304.604492,284.071259 
	C304.602051,276.176086 303.555725,274.482422 297.424316,272.384399 
z"/>
<path fill="#6FAA2A" opacity="1.000000" stroke="none" 
	d="
M77.975517,329.870697 
	C74.160271,330.612976 71.102989,332.697754 71.141418,336.685577 
	C71.264771,349.484436 70.344513,362.544189 72.561203,375.017365 
	C76.599266,397.739227 98.207520,414.299713 121.915077,414.819153 
	C130.728027,415.012268 139.548752,414.850372 148.803070,414.850372 
	C148.803070,423.194489 148.803070,431.217560 148.803070,439.548096 
	C122.775154,440.518829 96.892784,441.686768 74.918999,423.972473 
	C56.923519,409.465302 46.392712,390.721863 46.180515,367.592896 
	C45.668316,311.764771 45.917320,255.928772 46.037121,200.096329 
	C46.069721,184.903763 56.483879,172.053207 70.949158,169.151688 
	C70.949158,171.178497 70.949142,173.082428 70.949150,174.986374 
	C70.949402,219.152756 70.980164,263.319214 70.907379,307.485474 
	C70.899216,312.438354 71.828300,316.461670 77.650955,318.442444 
	C77.999817,322.620819 77.987671,326.245758 77.975517,329.870697 
z"/>
<path fill="#499321" opacity="1.000000" stroke="none" 
	d="
M78.347473,329.932312 
	C77.987671,326.245758 77.999817,322.620819 77.998665,318.543762 
	C84.435204,316.652100 85.961548,314.696045 85.963509,307.608154 
	C85.975677,263.636353 85.970055,219.664566 85.970337,175.692764 
	C85.970345,173.704529 85.970337,171.716278 85.970337,169.170242 
	C94.367134,170.535522 100.026680,175.314484 104.703499,181.450989 
	C109.434616,187.658722 110.974220,194.889557 110.969833,202.583328 
	C110.941437,252.384689 111.356651,302.191071 110.740059,351.984833 
	C110.521439,369.639587 120.914116,376.128235 134.155914,374.963745 
	C138.909180,374.545715 143.730057,374.896698 148.847290,374.896698 
	C148.847290,383.335022 148.847290,391.236298 148.847290,399.916443 
	C135.710327,399.352142 122.527542,401.686584 109.793831,397.293762 
	C95.641884,392.411713 86.341522,379.030487 86.016632,363.565338 
	C85.845253,355.407379 85.957443,347.243134 85.974091,339.081757 
	C85.984276,334.090118 83.975716,330.757935 78.347473,329.932312 
z"/>
<path fill="#6FAA2A" opacity="1.000000" stroke="none" 
	d="
M398.766724,263.971252 
	C425.910370,258.789337 442.909210,238.342819 442.948944,211.168549 
	C442.997406,178.015274 442.961304,144.861862 442.961761,111.708511 
	C442.961792,109.897697 442.961761,108.086876 442.961761,106.242302 
	C453.778870,107.207619 464.421814,117.669136 466.927002,129.682693 
	C467.568054,132.756760 467.896240,135.951935 467.906128,139.092911 
	C467.983734,163.749435 468.005798,188.406464 467.935699,213.063034 
	C467.824646,252.124039 441.970551,282.934296 403.262146,288.491089 
	C390.732788,290.289764 377.727539,288.773346 364.599792,288.773346 
	C364.599792,281.073090 364.599792,273.323425 364.599792,265.049622 
	C375.880157,264.700928 387.103729,264.353973 398.766724,263.971252 
z"/>
<path fill="#489321" opacity="1.000000" stroke="none" 
	d="
M425.491455,106.119766 
	C426.583893,107.562538 427.864380,109.073982 427.869507,110.589729 
	C427.982941,144.214951 428.216064,177.844421 427.730255,211.463028 
	C427.635559,218.014359 425.761261,225.102631 422.747040,230.928772 
	C416.964325,242.106110 407.074738,248.482361 394.244049,249.011581 
	C384.477417,249.414429 374.680847,249.091537 364.248108,249.091537 
	C364.248108,241.452667 364.136963,234.176392 364.412109,226.914749 
	C364.441071,226.149887 366.711029,224.922958 367.997955,224.844940 
	C374.460999,224.453140 380.992523,224.808655 387.406647,224.080185 
	C397.162720,222.972122 402.914124,216.016861 402.945221,205.935577 
	C403.013550,183.796143 402.946289,161.656326 402.977112,139.516739 
	C403.000000,123.061272 410.011963,112.540009 425.491455,106.119766 
z"/>
<path fill="#95BF33" opacity="1.000000" stroke="none" 
	d="
M212.985138,27.962990 
	C213.098618,27.618500 213.418503,27.466381 213.738388,27.314259 
	C213.798325,27.556543 213.858276,27.798830 213.783295,28.263935 
	C213.496078,28.376287 213.343826,28.265823 212.985138,27.962990 
z"/>
</svg>