<svg xmlns="http://www.w3.org/2000/svg" viewBox="8 328 118 92">
  <path fill="#DCE8EF" d="M109.13,375.24c-0.37,2.91-2.28,5.4-5,6.51c-1.44,0.59-2.99,0.74-4.47,0.48
    c-1,1.79-2.76,3.1-4.86,3.51c-2.26,0.43-4.52-0.25-6.15-1.73c-2.19,2.99-5.61,4.9-9.37,5.15
    c-3.86,0.25-7.59-1.27-10.17-4.08c-3.26,5.99-9.45,9.82-16.29,10.06c-6.82,0.24-13.23-3.11-16.92-8.79
    c-2.4,0.56-4.94,0.31-7.23-0.77c-2.97-1.39-5.16-4.02-6-7.14c1.42,2.68,4.22,4.33,7.25,4.27
    c2.4-0.06,4.62-1.18,6.08-3.01c2.72,3.13,6.9,4.7,11.1,4.02c3.95-0.64,7.25-3.17,8.94-6.66
    c1.27,1.43,3.17,2.24,5.18,2.07c1.98-0.17,3.7-1.26,4.7-2.86c2.13,3.22,6.11,4.86,10.02,3.9
    c3.4-0.84,5.94-3.44,6.8-6.64c1.08,1.28,2.71,2.06,4.49,2.04c1.69-0.02,3.24-0.76,4.3-1.96
    c2.31,3.49,6.65,5.2,10.81,4.06c3.05-0.84,5.4-3.05,6.51-5.82C109.18,372.93,109.28,374.08,109.13,375.24z"/>
  <path fill="#F9FBFC" d="M108.85,371.85c-1.11,2.77-3.46,4.98-6.51,5.82c-4.16,1.14-8.5-0.57-10.81-4.06
    c-1.06,1.2-2.61,1.94-4.3,1.96c-1.78,0.02-3.41-0.76-4.49-2.04c-0.86,3.2-3.4,5.8-6.8,6.64
    c-3.91,0.96-7.89-0.68-10.02-3.9c-1,1.6-2.72,2.69-4.7,2.86c-2.01,0.17-3.91-0.64-5.18-2.07
    c-1.69,3.49-4.99,6.02-8.94,6.66c-4.2,0.68-8.38-0.89-11.1-4.02c-1.46,1.83-3.68,2.95-6.08,3.01
    c-3.03,0.06-5.83-1.59-7.25-4.27c-0.82-0.02-1.65-0.23-2.4-0.61c-1.71-0.86-2.88-2.53-3.1-4.44
    c-0.22-1.9,0.53-3.79,2-5.03c0.48-0.4,1.02-0.72,1.59-0.94c-0.29-2.24,0.38-4.56,1.98-6.33
    c1.68-1.85,4.06-2.76,6.42-2.6c-0.5-3.62,0.28-7.34,2.24-10.48c2.4-3.85,6.34-6.48,10.82-7.22
    c4.47-0.75,9.05,0.47,12.56,3.34c1.65,1.34,2.99,2.98,3.96,4.81c3.03-1.78,6.83-1.88,10-0.12
    c2.37,1.32,4.06,3.49,4.79,5.97c3.9-1.94,8.56-1.99,12.56,0.07c3.21,1.64,5.57,4.4,6.74,7.65
    c1.66-0.54,3.53-0.36,5.09,0.63c1.14,0.71,1.96,1.76,2.42,2.93c1.98-0.17,3.98,0.38,5.61,1.61
    C107.36,368.74,108.36,370.21,108.85,371.85z"/>
  <path fill="#DCE8EF" d="M59.042,371.597c1.022,1.323,2.116,2.239,3.297,2.842c1.176,0.602,2.407,0.878,3.637,0.866
    c1.23-0.019,2.453-0.322,3.614-0.949c1.165-0.629,2.239-1.566,3.236-2.91c0.226,1.673-0.491,3.479-1.78,4.767
    c-1.285,1.299-3.153,2.082-5.037,2.092c-1.884,0.028-3.766-0.713-5.079-1.984
    C59.613,375.061,58.857,373.274,59.042,371.597z"/>
  <path fill="#DCE8EF" d="M44.989,376.857c-0.575,1.674-1.847,3.091-3.413,4.052c-1.571,0.96-3.459,1.457-5.335,1.408
    c-1.876-0.042-3.737-0.634-5.259-1.672c-1.516-1.038-2.715-2.519-3.202-4.223c1.487,0.942,2.868,1.65,4.286,2.128
    c1.41,0.48,2.827,0.729,4.251,0.769c1.424,0.036,2.853-0.142,4.286-0.55
    C42.044,378.364,43.459,377.725,44.989,376.857z"/>
</svg>
