<svg xmlns="http://www.w3.org/2000/svg" viewBox="148 123 120 72">
  <path fill="#DCE8EF" d="M257.02,178.06c-2.01,4.1-6.16,6.73-10.73,6.78c-3.35,0.04-6.51-1.3-8.78-3.63
    c-2.01,2.51-5.23,3.87-8.54,3.45c-2.95-0.37-5.49-2.09-6.95-4.54c-5.13,2.47-11.14,2.69-16.53,0.47
    c-0.41-0.17-0.81-0.35-1.2-0.54c-3.84,2.55-8.37,4.04-13.15,4.17c-8.51,0.23-16.49-3.89-21.25-10.81
    c-2.48,2.34-6.02,3.33-9.43,2.46c-4.29-1.09-7.36-4.85-7.58-9.27c-0.07-1.47,0.18-2.9,0.7-4.2
    c0.57,2.4,2.26,4.43,4.63,5.4c2.66,1.09,5.66,0.62,7.84-1.12c2.39,2.28,5.51,3.67,8.83,3.9
    c3.12,0.22,6.2-0.59,8.78-2.28c4.17,3.14,9.57,4.28,14.71,3.04c4.5-1.09,8.34-3.89,10.74-7.73
    c1.66,3.1,4.85,5.14,8.43,5.29c2.54,0.11,4.96-0.76,6.83-2.33c0.57,2.31,2.35,4.22,4.76,4.85
    c1.98,0.52,4.03,0.09,5.59-1.07c1.1,1.46,2.66,2.53,4.45,3.02c2.18,0.6,4.5,0.29,6.45-0.86
    c1.95-1.14,3.35-3.02,3.88-5.22c0.54-2.19,0.17-4.51-1.03-6.42c2.86,0.55,5.48,2.14,7.31,4.55
    C258.54,169.06,259.02,173.95,257.02,178.06z"/>
  <path fill="#F9FBFC" d="M249.5,167.29c-0.53,2.2-1.93,4.08-3.88,5.22c-1.95,1.15-4.27,1.46-6.45,0.86
    c-1.79-0.49-3.35-1.56-4.45-3.02c-1.56,1.16-3.61,1.59-5.59,1.07c-2.41-0.63-4.19-2.54-4.76-4.85
    c-1.87,1.57-4.29,2.44-6.83,2.33c-3.58-0.15-6.77-2.19-8.43-5.29c-2.4,3.84-6.24,6.64-10.74,7.73
    c-5.14,1.24-10.54,0.1-14.71-3.04c-2.58,1.69-5.66,2.5-8.78,2.28c-3.32-0.23-6.44-1.62-8.83-3.9
    c-2.18,1.74-5.18,2.21-7.84,1.12c-2.37-0.97-4.06-3-4.63-5.4c1.04-2.63,3.16-4.77,5.94-5.77
    c1.87-0.67,3.83-0.76,5.67-0.34c0.23-0.82,0.58-1.61,1.05-2.33c1.25-1.94,3.22-3.31,5.49-3.78
    c2.03-0.42,4.14-0.09,5.93,0.9c1.64-4.32,4.92-7.92,9.25-9.93c4.78-2.23,10.23-2.22,14.93-0.13
    c2.76-4.18,7.76-6.59,12.99-5.83c5.54,0.8,9.83,4.94,11.03,10.15c5.19-1.57,10.87-0.67,15.35,2.56
    c4.26,3.06,6.88,7.84,7.26,12.97C249.67,162.78,250.04,165.1,249.5,167.29z"/>
  <path fill="#DCE8EF" d="M176.723,164.178c1.022,1.323,2.116,2.239,3.297,2.842c1.176,0.602,2.406,0.878,3.637,0.866
    c1.23-0.019,2.453-0.322,3.614-0.949c1.165-0.629,2.239-1.566,3.236-2.91c0.227,1.673-0.491,3.479-1.78,4.766
    c-1.285,1.299-3.153,2.082-5.037,2.092c-1.884,0.028-3.766-0.713-5.079-1.984C177.294,167.641,176.538,165.855,176.723,164.178z"/>
  <path fill="#DCE8EF" d="M221.563,158.085c-0.815,2.29-2.572,4.226-4.727,5.537c-2.163,1.312-4.755,1.989-7.331,1.922
    c-2.576-0.057-5.132-0.866-7.227-2.285c-2.087-1.418-3.745-3.442-4.438-5.774c2.027,1.316,3.927,2.31,5.883,2.98
    c1.946,0.674,3.909,1.025,5.882,1.081c1.974,0.05,3.954-0.202,5.932-0.777C217.528,160.199,219.476,159.3,221.563,158.085z"/>
</svg>
