<svg xmlns="http://www.w3.org/2000/svg" viewBox="183 14 322 135">
  <path fill="#DCE8EF" d="M486.42,85.24c-0.84,2.82-2.54,5.28-4.84,7.05c0.17,3.1-0.39,6.24-1.68,9.14
    c-2.38,5.34-6.99,9.36-12.61,10.99c-5.61,1.63-11.65,0.7-16.52-2.53c-1.1-0.74-2.12-1.57-3.05-2.52
    c-2.34,3.32-5.9,5.71-10.03,6.53c-3.96,0.78-7.97,0.05-11.33-1.93c-3.2,8.34-10.32,14.69-19.17,16.82
    c-8.92,2.16-18.23-0.31-24.9-6.38c-7.37,3.04-15.67,3.4-23.39,0.85c-6.41-2.11-11.96-6.06-16.02-11.25
    c-2.95,2.17-6.64,3.21-10.39,2.82c-3.92-0.41-7.45-2.34-9.89-5.26c-1.68,3.85-4.75,6.98-8.66,8.73
    c-4.27,1.92-9.12,1.98-13.39,0.22c-3.63,3.97-8.61,6.56-14.08,7.16c-5.98,0.66-11.92-1.1-16.53-4.81
    c-6.54,5.38-15.73,6.66-23.63,2.95c-6.29-2.94-10.66-8.53-12.22-14.96c-5.15,2.55-11.52,2.04-16.27-1.82
    c-4.05-3.29-5.96-8.24-5.52-13.08c-1.59-1.19-2.88-2.8-3.68-4.72c-0.71-1.7-0.99-3.49-0.86-5.25
    c5.7,11.57,18.25,17.89,30.74,15.85c1.72,4.35,5.11,7.88,9.47,9.78c3.68,1.6,7.74,1.9,11.55,0.92
    c5.38,5.18,13.32,6.91,20.47,4.27c5.81-2.16,10.13-6.86,11.91-12.54c4.57,2.91,10.08,4.13,15.54,3.32
    c5.53-0.82,10.51-3.63,14.03-7.84c3.11,4.07,8.27,6.21,13.49,5.38c4.03-0.64,7.48-2.96,9.61-6.22
    c6.88,7.9,17.62,11.49,28,9.13c8.7-1.98,15.81-7.83,19.52-15.61c2.99,3.31,7.24,5.37,11.87,5.51
    c4.9,0.15,9.51-1.85,12.74-5.32c4.16,4.75,10.49,7.18,16.9,6.26c4.38-0.62,8.29-2.74,11.17-5.84
    c2.28,2.39,5.25,4.05,8.55,4.73c4.64,0.95,9.45-0.15,13.21-3.01c3.77-2.87,6.11-7.22,6.43-11.93
    c0.32-4.72-1.41-9.34-4.75-12.69c2.72-1.01,5.7-1.14,8.54-0.37c3.62,1,6.68,3.42,8.5,6.7
    C487.08,77.76,487.5,81.64,486.42,85.24z"/>
  <path fill="#F9FBFC" d="M472.96,80.83c-0.32,4.71-2.66,9.06-6.43,11.93c-3.76,2.86-8.57,3.96-13.21,3.01
    c-3.3-0.68-6.27-2.34-8.55-4.73c-2.88,3.1-6.79,5.22-11.17,5.84c-6.41,0.92-12.74-1.51-16.9-6.26
    c-3.23,3.47-7.84,5.47-12.74,5.32c-4.63-0.14-8.88-2.2-11.87-5.51c-3.71,7.78-10.82,13.63-19.52,15.61
    c-10.38,2.36-21.12-1.23-28-9.13c-2.13,3.26-5.58,5.58-9.61,6.22c-5.22,0.83-10.38-1.31-13.49-5.38
    c-3.52,4.21-8.5,7.02-14.03,7.84c-5.46,0.81-10.97-0.41-15.54-3.32c-1.78,5.68-6.1,10.38-11.91,12.54
    c-7.15,2.64-15.09,0.91-20.47-4.27c-3.81,0.98-7.87,0.68-11.55-0.92c-4.36-1.9-7.75-5.43-9.47-9.78
    c-12.49,2.04-25.04-4.28-30.74-15.85c-2.92-0.08-5.71-1.38-7.65-3.67c-2.5-2.94-3.17-7.03-1.73-10.62
    c1.44-3.59,4.74-6.08,8.58-6.49c2.1-0.22,4.16,0.2,5.95,1.15c1.81-2.76,4.74-4.67,8.1-5.17
    c4.1-0.61,8.2,0.99,10.8,4.16c3.74-5.05,9.5-8.38,15.92-9c5.41-0.52,10.72,0.94,15.04,3.95
    c1.73-3.23,4.83-5.64,8.6-6.4c3.41-0.68,6.84,0.09,9.57,1.96c1.45-2.62,3.69-4.78,6.47-6.13
    c2.52-1.23,5.29-1.69,7.99-1.41c4.82-12.07,16.99-19.95,30.37-18.99c12.56,0.9,22.94,9.38,26.67,20.86
    c4.04-2.69,9.08-3.68,13.98-2.58c4.64,1.05,8.59,3.86,11.12,7.71c2.15-2.53,4.94-4.5,8.13-5.69
    c3.36-1.26,6.95-1.57,10.4-0.97c4.52-9.05,14.3-14.8,24.93-13.72c10.35,1.05,18.61,8.27,21.44,17.68
    c6-1.09,12.29,0.33,17.31,4.1c4.44,3.34,7.4,8.15,8.46,13.42C471.55,71.49,473.28,76.11,472.96,80.83z"/>
  <path fill="#DCE8EF" d="M286.694,96.977c1.224,1.263,2.375,2.034,3.531,2.528c1.153,0.49,2.275,0.689,3.396,0.68
    c1.121-0.021,2.236-0.243,3.377-0.759c1.144-0.519,2.277-1.312,3.478-2.601c0.431,1.728-0.227,3.678-1.538,5.076
    c-1.306,1.411-3.281,2.274-5.274,2.282c-1.993,0.03-3.984-0.788-5.32-2.17C287.006,100.645,286.306,98.713,286.694,96.977z"/>
  <path fill="#DCE8EF" d="M438.385,87.565c1.224,1.264,2.374,2.034,3.532,2.528c1.153,0.49,2.275,0.689,3.396,0.68
    c1.121-0.021,2.236-0.243,3.377-0.759c1.144-0.519,2.277-1.312,3.478-2.601c0.431,1.729-0.227,3.678-1.538,5.076
    c-1.306,1.412-3.281,2.274-5.274,2.282c-1.993,0.03-3.984-0.788-5.32-2.17C438.698,91.233,437.998,89.302,438.385,87.565z"/>
  <path fill="#DCE8EF" d="M371.66,76.658c2.44,4.058,5.5,7.163,9.035,9.247c3.524,2.086,7.452,3.117,11.38,3.075
    c3.927-0.052,7.828-1.169,11.304-3.331c3.486-2.161,6.477-5.328,8.835-9.437c0.09,4.769-2.188,9.671-5.924,13.149
    c-3.723,3.507-8.914,5.583-14.149,5.616c-5.235,0.074-10.467-1.887-14.265-5.31C374.068,86.272,371.682,81.426,371.66,76.658z"/>
  <path fill="#DCE8EF" d="M333.563,87.68c1.944,2.279,3.906,3.781,5.961,4.76c2.048,0.975,4.13,1.404,6.21,1.385
    c2.08-0.035,4.149-0.508,6.173-1.527c2.031-1.025,3.959-2.565,5.86-4.884c0.548,2.979-0.669,6.255-2.949,8.597
    c-2.272,2.364-5.63,3.797-9.019,3.813c-3.388,0.051-6.773-1.307-9.096-3.62C334.377,93.912,333.089,90.669,333.563,87.68z"/>
  <path fill="#DCE8EF" d="M251.834,97.592c-1.23,2.097-3.319,3.668-5.681,4.552c-2.371,0.882-5.044,1.062-7.561,0.513
    c-2.52-0.54-4.878-1.813-6.67-3.6c-1.784-1.784-3.032-4.084-3.276-6.504c1.744,1.673,3.424,3.006,5.22,4.031
    c1.785,1.027,3.648,1.74,5.575,2.165c1.929,0.419,3.921,0.543,5.972,0.349C247.474,98.912,249.556,98.395,251.834,97.592z"/>
</svg>
