<svg xmlns="http://www.w3.org/2000/svg" viewBox="230 118 265 178">
  <path fill="#DCE8EF" d="M476.25,206.76c-1.59,1.73-3.74,2.75-5.99,2.93c-0.94,3.05-2.93,5.75-5.71,7.55
    c-3.48,2.26-7.72,2.82-11.58,1.65c-2.91,3.24-6.96,5.38-11.46,5.87c-5.1,0.54-10.07-1.12-13.78-4.39
    c-1.17,1.7-2.65,3.19-4.39,4.4c-1.92,1.33-4.07,2.23-6.29,2.7c-0.37,4.85-2.32,9.57-5.74,13.35
    c-5.55,6.14-13.97,8.65-21.85,6.77c-2.38,3.59-6.2,6.09-10.6,6.76c-5.5,0.84-10.98-1.31-14.43-5.55
    c-4.87,3.93-11.26,5.59-17.52,4.4c-7.41-1.4-13.53-6.54-16.19-13.56c-6.57,4.06-14.22,6.22-22.09,6.11
    c-10.89-0.16-21.25-4.66-28.8-12.47c-2.9,1.9-6.38,2.88-9.96,2.67c-4.2-0.24-8.06-2.08-10.88-5.01
    c-2.56,0.47-5.24,0.07-7.61-1.23c-3.93-2.16-6.27-6.4-5.98-10.88c0.05-0.82,0.19-1.61,0.4-2.38
    c0.8,2.93,2.74,5.49,5.46,7.04c3.28,1.86,7.2,2.02,10.56,0.5c2.42,3.2,6.26,5.05,10.31,4.91
    c3.5-0.13,6.74-1.72,8.97-4.31c4,5.2,10.71,7.66,17.19,6.18c5.36-1.22,9.7-4.93,11.81-9.81
    c2.14,3.5,5.93,5.79,10.18,5.93c3.72,0.13,7.2-1.4,9.61-4.02c4.68,5.07,12.31,6.62,18.75,3.4
    c5.41-2.7,8.64-8.09,8.78-13.79c5.88,8.26,16.09,12.62,26.37,10.81c10.45-1.84,18.65-9.64,21.21-19.64
    c2.68,3.5,7.02,5.45,11.54,5.01c4.42-0.43,8.23-3.07,10.23-6.87c1.94,2.89,5.05,4.83,8.58,5.27
    c2.86,0.36,5.71-0.3,8.08-1.81c1.97,1.96,4.77,2.92,7.59,2.51c2.17-0.31,4.11-1.4,5.49-3.01
    c2.18,1.45,4.89,1.93,7.46,1.26c1.94-0.51,3.64-1.63,4.86-3.15c1.19,0.27,2.45,0.19,3.62-0.23
    c1.74-0.64,3.13-1.99,3.8-3.72c0.57-1.45,0.58-3.04,0.07-4.49c0.57,0.63,1.06,1.35,1.44,2.15
    C479.39,199.95,478.79,203.99,476.25,206.76z"/>
  <path fill="#F9FBFC" d="M476.25,198.91c-0.67,1.73-2.06,3.08-3.8,3.72c-1.17,0.42-2.43,0.5-3.62,0.23
    c-1.22,1.52-2.92,2.64-4.86,3.15c-2.57,0.67-5.28,0.19-7.46-1.26c-1.38,1.61-3.32,2.7-5.49,3.01
    c-2.82,0.41-5.62-0.55-7.59-2.51c-2.37,1.51-5.22,2.17-8.08,1.81c-3.53-0.44-6.64-2.38-8.58-5.27
    c-2,3.8-5.81,6.44-10.23,6.87c-4.52,0.44-8.86-1.51-11.54-5.01c-2.56,10-10.76,17.8-21.21,19.64
    c-10.28,1.81-20.49-2.55-26.37-10.81c-0.14,5.7-3.37,11.09-8.78,13.79c-6.44,3.22-14.07,1.67-18.75-3.4
    c-2.41,2.62-5.89,4.15-9.61,4.02c-4.25-0.14-8.04-2.43-10.18-5.93c-2.11,4.88-6.45,8.59-11.81,9.81
    c-6.48,1.48-13.19-0.98-17.19-6.18c-2.23,2.59-5.47,4.18-8.97,4.31c-4.05,0.14-7.89-1.71-10.31-4.91
    c-3.36,1.52-7.28,1.36-10.56-0.5c-2.72-1.55-4.66-4.11-5.46-7.04c0.96-3.45,3.5-6.31,6.92-7.65
    c3.71-1.46,7.87-0.9,11.03,1.41c1.09-3.66,3.91-6.69,7.72-7.96c1.62-0.54,3.28-0.71,4.89-0.55
    c0.34-6.74,4.24-13,10.54-16.19c5.09-2.57,10.87-2.68,15.88-0.67c0.7-2.99,2.43-5.69,4.98-7.57
    c1.85-1.37,3.99-2.2,6.19-2.47c1.37-14.48,12.39-26.56,27.18-28.91c12.86-2.03,25.28,3.82,32.09,14.17
    c5.78-3.63,13.1-4.27,19.55-1.43c5.04,2.22,8.87,6.27,10.89,11.14c6.19-2,12.95-1.82,19.13,0.64
    c6.67,2.67,12.02,7.75,15.04,14.12c3.15-0.82,6.55-0.59,9.66,0.76c3.84,1.68,6.73,4.86,8.07,8.68
    c2.45-0.66,5.03-0.64,7.47,0.06c1.53-1.52,3.58-2.48,5.82-2.64c2.87-0.2,5.6,0.95,7.46,3.02
    C476.83,195.87,476.82,197.46,476.25,198.91z"/>
  <path fill="#DCE8EF" d="M304.05,217.264c1.023,1.323,2.116,2.239,3.297,2.842c1.176,0.602,2.406,0.878,3.637,0.866
    c1.23-0.019,2.453-0.322,3.614-0.949c1.165-0.629,2.239-1.566,3.236-2.91c0.226,1.673-0.491,3.479-1.78,4.766
    c-1.285,1.3-3.153,2.082-5.037,2.092c-1.884,0.028-3.766-0.713-5.079-1.984C304.621,220.728,303.864,218.941,304.05,217.264z"/>
  <path fill="#DCE8EF" d="M342.063,203.308c2.132,2.952,4.509,5.061,7.124,6.458c2.606,1.396,5.387,2.052,8.166,2.024
    c2.779-0.042,5.541-0.758,8.115-2.21c2.581-1.455,4.912-3.61,6.985-6.607c0.375,3.656-1.243,7.548-4.074,10.319
    c-2.821,2.796-6.873,4.473-10.96,4.495c-4.086,0.059-8.171-1.526-11.051-4.259C343.479,210.82,341.776,206.97,342.063,203.308z"/>
</svg>
