<svg xmlns="http://www.w3.org/2000/svg" viewBox="20 258 118 70">
  <path fill="#DCE8EF" d="M123.24,295.48c-0.02,2.4-0.99,4.7-2.71,6.38c-1.09,1.06-2.41,1.82-3.84,2.22
    c-1.75,5.73-6.72,10.05-12.85,10.81c-5.64,0.7-11.06-1.75-14.3-6.14c-2.74,2.5-6.63,3.41-10.23,2.3
    c-2.85,3.63-7.32,5.77-12.08,5.59c-5.1-0.18-9.65-3-12.13-7.3c-2.91,1.69-6.43,2.03-9.64,0.88
    c-2.92-1.04-5.25-3.19-6.54-5.94c-1.98,0.55-4.15,0.31-6.02-0.78c-2.46-1.44-3.9-4.07-3.88-6.82
    c0.75,2.56,2.83,4.52,5.44,5.1c2.28,0.52,4.64-0.09,6.39-1.59c2.32,3.62,6.6,5.55,10.91,4.83
    c3.93-0.66,7.11-3.39,8.42-7.05c2.68,5.21,8.82,7.86,14.56,5.99c4.51-1.47,7.58-5.33,8.25-9.72
    c1.36,2.14,3.38,3.83,5.8,4.79c3.24,1.28,6.83,1.12,9.9-0.38c1.65,2.75,4.93,4.16,8.12,3.36
    c2.52-0.63,4.44-2.52,5.2-4.86c2.29,1.4,5.27,1.33,7.52-0.34c1.78-1.32,2.74-3.37,2.73-5.45
    C122.9,292.63,123.25,294.04,123.24,295.48z"/>
  <path fill="#F9FBFC" d="M122.26,291.36c0.01,2.08-0.95,4.13-2.73,5.45c-2.25,1.67-5.23,1.74-7.52,0.34
    c-0.76,2.34-2.68,4.23-5.2,4.86c-3.19,0.8-6.47-0.61-8.12-3.36c-3.07,1.5-6.66,1.66-9.9,0.38
    c-2.42-0.96-4.44-2.65-5.8-4.79c-0.67,4.39-3.74,8.25-8.25,9.72c-5.74,1.87-11.88-0.78-14.56-5.99
    c-1.31,3.66-4.49,6.39-8.42,7.05c-4.31,0.72-8.59-1.21-10.91-4.83c-1.75,1.5-4.11,2.11-6.39,1.59
    c-2.61-0.58-4.69-2.54-5.44-5.1c-0.81-0.37-1.54-0.91-2.16-1.58c-1.69-1.83-2.26-4.43-1.5-6.79
    c0.76-2.37,2.73-4.15,5.16-4.67c1.67-0.35,3.37-0.07,4.81,0.74c0.34-2.21,1.55-4.27,3.45-5.65
    c2.58-1.88,5.93-2.15,8.72-0.85c1.01-1.43,2.43-2.58,4.12-3.27c2.89-1.18,6.16-0.85,8.74,0.85
    c2.9-5.37,8.53-8.89,14.84-8.96c6.26-0.07,11.93,3.26,14.98,8.49c2.04-1.43,4.63-2,7.16-1.5
    c2.62,0.53,4.84,2.13,6.16,4.35c3.34-1.27,7.19-0.58,9.88,1.95c1.96,1.84,3,4.36,3.01,6.92
    c1.58,0.38,3.03,1.19,4.2,2.36C121.27,289.75,121.83,290.52,122.26,291.36z"/>
  <path fill="#DCE8EF" d="M91.961,294.362c1.022,1.323,2.116,2.239,3.297,2.842c1.176,0.602,2.407,0.878,3.637,0.866
    c1.23-0.019,2.453-0.322,3.614-0.949c1.165-0.629,2.239-1.566,3.236-2.91c0.226,1.673-0.491,3.478-1.78,4.766
    c-1.285,1.299-3.153,2.082-5.037,2.092c-1.884,0.028-3.766-0.713-5.079-1.984
    C92.532,297.826,91.776,296.039,91.961,294.362z"/>
  <path fill="#DCE8EF" d="M73.645,294.458c-0.815,2.29-2.572,4.226-4.727,5.537c-2.163,1.312-4.755,1.989-7.33,1.922
    c-2.576-0.057-5.132-0.866-7.226-2.285c-2.088-1.418-3.745-3.442-4.438-5.774c2.027,1.316,3.927,2.31,5.883,2.98
    c1.946,0.674,3.909,1.025,5.882,1.081c1.973,0.05,3.954-0.202,5.932-0.777
    C69.609,296.572,71.558,295.673,73.645,294.458z"/>
</svg>
