<?xml version="1.0" encoding="UTF-8"?>
<svg id="Layer_2" data-name="Layer 2" xmlns="http://www.w3.org/2000/svg" viewBox="0 0 861.98 866.4">
  <defs>
    <style>
      .cls-1 {
        fill: #9c9ca8;
      }

      .cls-2 {
        fill: #394252;
      }

      .cls-3 {
        fill: #999da9;
      }

      .cls-4 {
        fill: #797b88;
      }

      .cls-5 {
        fill: #50586a;
      }

      .cls-6 {
        fill: #191c25;
      }

      .cls-7 {
        fill: #a3a5b1;
      }

      .cls-8 {
        fill: #797d8d;
      }

      .cls-9 {
        fill: #323d50;
      }

      .cls-10 {
        fill: #a0a0ab;
      }

      .cls-11 {
        fill: #313f52;
      }

      .cls-12 {
        fill: #525868;
      }

      .cls-13 {
        fill: #737583;
      }

      .cls-14 {
        fill: #555b6e;
      }

      .cls-15 {
        fill: #a8a8b1;
      }

      .cls-16 {
        fill: #818393;
      }

      .cls-17 {
        fill: #9f9fac;
      }

      .cls-18 {
        fill: #cdc9cb;
      }

      .cls-19 {
        fill: #1a222f;
      }

      .cls-20 {
        fill: #374256;
      }

      .cls-21 {
        fill: #727581;
      }

      .cls-22 {
        fill: #222e3e;
      }

      .cls-23 {
        fill: #686e7e;
      }

      .cls-24 {
        fill: #4b5163;
      }

      .cls-25 {
        fill: #2e3847;
      }

      .cls-26 {
        fill: #c2c0c5;
      }

      .cls-27 {
        fill: #d7d7d7;
      }

      .cls-28 {
        fill: #686b74;
      }

      .cls-29 {
        fill: #696c7d;
      }

      .cls-30 {
        fill: #3f4756;
      }

      .cls-31 {
        fill: #747a8a;
      }

      .cls-32 {
        fill: #6f7381;
      }

      .cls-33 {
        fill: #9fa1ae;
      }

      .cls-34 {
        fill: #263041;
      }

      .cls-35 {
        fill: #424859;
      }

      .cls-36 {
        fill: #1b202c;
      }

      .cls-37 {
        fill: #192132;
      }

      .cls-38 {
        fill: #a0a1ad;
      }

      .cls-39 {
        fill: #f8f5ef;
      }

      .cls-40 {
        fill: #1d212c;
      }

      .cls-41 {
        fill: #9799a7;
      }

      .cls-42 {
        fill: #f7f4f0;
      }

      .cls-43 {
        fill: #4a5163;
      }

      .cls-44 {
        fill: #454c5e;
      }

      .cls-45 {
        fill: #3e4554;
      }

      .cls-46 {
        fill: #687083;
      }

      .cls-47 {
        fill: #757582;
      }

      .cls-48 {
        fill: #616575;
      }

      .cls-49 {
        fill: #d7d5d5;
      }

      .cls-50 {
        fill: #313b4d;
      }

      .cls-51 {
        fill: #6b6e7f;
      }

      .cls-52 {
        fill: #9597a6;
      }

      .cls-53 {
        fill: #212c3e;
      }

      .cls-54 {
        fill: #202e41;
      }

      .cls-55 {
        fill: #d7d5d4;
      }

      .cls-56 {
        fill: #a6a6b3;
      }

      .cls-57 {
        fill: #182130;
      }

      .cls-58 {
        fill: #d4d3d5;
      }

      .cls-59 {
        fill: #9a9ca8;
      }

      .cls-60 {
        fill: #3a4659;
      }

      .cls-61 {
        fill: #333c4f;
      }

      .cls-62 {
        fill: #4c5364;
      }

      .cls-63 {
        fill: #f6f1ec;
      }

      .cls-64 {
        fill: #6a6e7f;
      }

      .cls-65 {
        fill: #4a5265;
      }

      .cls-66 {
        fill: #2b3342;
      }

      .cls-67 {
        fill: #313e52;
      }

      .cls-68 {
        fill: #d2d1d4;
      }

      .cls-69 {
        fill: #757789;
      }

      .cls-70 {
        fill: #53596a;
      }

      .cls-71 {
        fill: #a2a3b0;
      }

      .cls-72 {
        fill: #3f4a5e;
      }

      .cls-73 {
        fill: #212935;
      }

      .cls-74 {
        fill: #848795;
      }

      .cls-75 {
        fill: #717480;
      }

      .cls-76 {
        fill: #9295a2;
      }

      .cls-77 {
        fill: #757784;
      }

      .cls-78 {
        fill: #343d50;
      }

      .cls-79 {
        fill: #757783;
      }

      .cls-80 {
        fill: #344256;
      }

      .cls-81 {
        fill: #f8f4f0;
      }

      .cls-82 {
        fill: #c6c6ca;
      }

      .cls-83 {
        fill: #e1dfdd;
      }

      .cls-84 {
        fill: #686b7c;
      }

      .cls-85 {
        fill: #90929f;
      }

      .cls-86 {
        fill: #585d6e;
      }

      .cls-87 {
        fill: #d0cdd1;
      }

      .cls-88 {
        fill: #3e4659;
      }

      .cls-89 {
        fill: #9e9eaa;
      }

      .cls-90 {
        fill: #384358;
      }

      .cls-91 {
        fill: #2d3a4b;
      }

      .cls-92 {
        fill: #6a6f7f;
      }

      .cls-93 {
        fill: #808491;
      }

      .cls-94 {
        fill: #d5d3d4;
      }

      .cls-95 {
        fill: #f8f4ef;
      }

      .cls-96 {
        fill: #323d52;
      }

      .cls-97 {
        fill: #323a46;
      }

      .cls-98 {
        fill: #f8f6f2;
      }

      .cls-99 {
        fill: #f8f5f2;
      }

      .cls-100 {
        fill: #212a38;
      }

      .cls-101 {
        fill: #d3d2d3;
      }

      .cls-102 {
        fill: #3a485b;
      }

      .cls-103 {
        fill: #d1d0d0;
      }

      .cls-104 {
        fill: #434c5e;
      }

      .cls-105 {
        fill: #727583;
      }

      .cls-106 {
        fill: #9899a7;
      }

      .cls-107 {
        fill: #a1a3af;
      }

      .cls-108 {
        fill: #374052;
      }

      .cls-109 {
        fill: #1b222f;
      }

      .cls-110 {
        fill: #7c7d89;
      }

      .cls-111 {
        fill: #9e9eab;
      }

      .cls-112 {
        fill: #9c9eab;
      }

      .cls-113 {
        fill: #808391;
      }

      .cls-114 {
        fill: #f0ece9;
      }

      .cls-115 {
        fill: #1a2333;
      }

      .cls-116 {
        fill: #828593;
      }

      .cls-117 {
        fill: #4a5062;
      }

      .cls-118 {
        fill: #2a3648;
      }

      .cls-119 {
        fill: #354057;
      }

      .cls-120 {
        fill: #262f42;
      }

      .cls-121 {
        fill: #9496a3;
      }

      .cls-122 {
        fill: #9e9fad;
      }

      .cls-123 {
        fill: #181c24;
      }

      .cls-124 {
        fill: #828594;
      }

      .cls-125 {
        fill: #8e919f;
      }

      .cls-126 {
        fill: #313e53;
      }

      .cls-127 {
        fill: #384153;
      }

      .cls-128 {
        fill: #e5e3e2;
      }

      .cls-129 {
        fill: #999ba8;
      }

      .cls-130 {
        fill: #545b6d;
      }

      .cls-131 {
        fill: #f7f4ef;
      }

      .cls-132 {
        fill: #666b7b;
      }

      .cls-133 {
        fill: #6e7483;
      }

      .cls-134 {
        fill: #242f41;
      }

      .cls-135 {
        fill: #7c808c;
      }

      .cls-136 {
        fill: #1b2638;
      }

      .cls-137 {
        fill: #9194a2;
      }

      .cls-138 {
        fill: #f7f3ee;
      }

      .cls-139 {
        fill: #f8f5f0;
      }

      .cls-140 {
        fill: #484e60;
      }

      .cls-141 {
        fill: #242a39;
      }

      .cls-142 {
        fill: #354155;
      }

      .cls-143 {
        fill: #d3d1d3;
      }

      .cls-144 {
        fill: #d9d7d8;
      }

      .cls-145 {
        fill: #a9a8b2;
      }

      .cls-146 {
        fill: #555b6b;
      }

      .cls-147 {
        fill: #1a2436;
      }

      .cls-148 {
        fill: #616475;
      }

      .cls-149 {
        fill: #43495b;
      }

      .cls-150 {
        fill: #7a7e8f;
      }

      .cls-151 {
        fill: #343b4d;
      }

      .cls-152 {
        fill: #dadada;
      }

      .cls-153 {
        fill: #a09faa;
      }

      .cls-154 {
        fill: #485266;
      }

      .cls-155 {
        fill: #d6d4d4;
      }

      .cls-156 {
        fill: #525b6e;
      }

      .cls-157 {
        fill: #232c3e;
      }

      .cls-158 {
        fill: #777a88;
      }

      .cls-159 {
        fill: #838897;
      }

      .cls-160 {
        fill: #767988;
      }

      .cls-161 {
        fill: #4e586a;
      }

      .cls-162 {
        fill: #838694;
      }

      .cls-163 {
        fill: #f6f4ee;
      }

      .cls-164 {
        fill: #d5d2d2;
      }

      .cls-165 {
        fill: #424e64;
      }

      .cls-166 {
        fill: #333e52;
      }

      .cls-167 {
        fill: #9d9fac;
      }

      .cls-168 {
        fill: #4e5465;
      }

      .cls-169 {
        fill: #414758;
      }

      .cls-170 {
        fill: #242c3c;
      }

      .cls-171 {
        fill: #333f55;
      }

      .cls-172 {
        fill: #aeaeb5;
      }

      .cls-173 {
        fill: #848693;
      }

      .cls-174 {
        fill: #353f52;
      }

      .cls-175 {
        fill: #1d2534;
      }

      .cls-176 {
        fill: #454c5c;
      }

      .cls-177 {
        fill: #1e2838;
      }

      .cls-178 {
        fill: #757785;
      }

      .cls-179 {
        fill: #2b3648;
      }
    </style>
  </defs>
  <g id="Layer_1-2" data-name="Layer 1">
    <g>
      <path class="cls-160" d="M854.83,504.91l-5.84,28.01c-7.17,28.31-16.37,55.54-27.66,82.47-6.4,15.27-13.72,29.3-21.95,43.62-11.27,19.61-23.87,37.94-38.59,54.76-.11-2.4-3.14-5.05-2.55-6.3.37-.79,1.11-1.51,2.49-2.14-1.85-1.19-2.63-3.29-3.05-5.69-.3-1.73-2.38-3.17-2.32-4.96.16-1.7,1.69-3.05.93-4.85-.45-1.08-1.33-2.37-2.76-3.31l18.26-18.41c11.34-11.43,32.01-44.66,40.04-60.39l11.41-22.34c8.22-18.1,14.54-36.47,21.17-55.23l9.75-27.59c.94,1.06.45,1.85.68,2.33Z"/>
      <path class="cls-69" d="M538.3,599.62c4.38,4.63,10.6,7.12,16.71,9.44s12.54,3.46,19.15,4.23c1.03.12,1.64.25,1.89,1.14-4.72-.05-9.57.53-13.75,3.62,6.24,2.97,12.58,2.28,19.6,3.11-4.23,2.3-9.02,3.04-13.87,2.62l-18.8-1.63c-9.94-1.67-25.37-7.13-30.09-15.22-1.25-2.14.6-6.16,2.86-6.72,2.65-.66,4.5.95,6.98,1.24-7.07-6.9-13.55-13.93-17.52-23.36,3.7,3.3,6.13,6.85,10.24,9.2,4.98,5.26,10.93,8.83,16.6,12.32Z"/>
      <path class="cls-123" d="M70.69,534.33l3.82,4.86c1.63-.73,2.91,1.19,1.69,2.46,4.18,7.38,7.28,15.23,8.5,23.9.58,5.02.33,9.94-.69,14.81-1.26,6.07-7.71,12.58-11.94,11.77-1.55-.82-.8-1.94,2.25-3.36-8.83-3.58-16.11-11.31-19.73-20.26-.82-2.02-1.87-7.25,1.13-4.93,3.94,7.8,8.84,16.27,16.84,20.35.63.32,4.76,1.52,4.91,1.31,5.51-7.67,2.32-23.41-.86-31.58-3.42-8.76-8.76-18.62-17.2-23.27l-.71-1.73-5.27-2.54c6.96.1,12.69,3.85,17.24,8.22Z"/>
      <g>
        <path class="cls-92" d="M121.32,514.47c.89,7.09.32,14.13-1.2,21.85-1.43-3.75-1.9-7.62-4.03-11.38l3.38,26.95c2.52,20.13,8.01,46.16,18.82,62.37,5.77,19.06,12.77,37.15,23.09,54.62,4.54,7.69,12.6,17.13,21.83,18.23l17.71.74c5.43.88,10.37,3.6,14.32,7.38,6.11,6.04,11.97,12.27,17.58,18.7l-.99,1.25c-1.02.03-1.56.39-1.12.66,17.52,10.75,32.94,22.48,42.75,40.89l-2.49-4.88c-1.89-2.22-2.86-4.44-2.9-6.67l.21-1.52c.33-.42,7.43-6.81,7.91-7.09,1.46-.86,1.86-.86,3.6-.43,7.81,3.74,16.52,5.31,25.4,6.45,22.92,2.94,39.14,16.59,51.31,35.96-9.14-2.26-16.57-6.16-25.01-10.02,3.24,3.74,7.69,5.49,12.01,7.37,2.98,1.3,5.4,3,8.1,4.8l20.54,13.74c32.2,16.98,71.51,18.09,107.27,13.73,15.59-1.9,30.13-6.06,44.03-12.88.43-2.75,1.29-5.06,2.89-7.08,4.56-5.75,9.65-10.92,15.24-15.27,1.77-.28,1.89,1.64,1.93,3.17,6.12-6.45,13.54-12.02,21.46-15.47l-.7-.52c11.77-4.98,23.71-9.4,36.25-12.13l.9.1c2.51-.23,3.86.37,4.03,1.8l-1.5,1.51c-22.38,2.41-43.19,14.2-57.37,31.68,7.52-3.9,14.92-7.99,22.23-12.26,13.94-6.37,28.39-10.34,43.35-11.93,5.84,1.17,19.75,1.65,10.19-6.83l.22-1.42c2.62-1.73,7.4,1.66,9.64,3.6s4.14,4.29,5.18,7.04l1-.57c.65.45.87,1.39.56,2.74,6.99,1.79,13.99,1.58,20.91-.91,8.58-3.08,16.62-6.88,24.4-11.69s14.81-12.01,19.11-20.73l-18.58,5.4c-4.2,1.22-8.41,1.22-12.71.28-6.18-1.26-11.47,1.78-16.46.53-.75-2.65-2.48-4.02-4.89-5.01-6.78-2.79-11.57-8.93-11.62-16.46-.03-3.84,1.74-7.32,4.12-10.13l1.91,8.98c.92,4.33,3.79,7.94,7.19,10.11-.43-3.72-.06-6.74.95-9.85l1.41.54c.95,3.17,2.44,6.2,4.51,8.8,3.76,4.74,6.23,5.39,1.3-.69l.53-1.4,4.96-7.88c2.09,10.15,13.7,14.51,23.3,13.07l8.05-1.08.3.76c-4.19,2.48-8.85,4.3-13.98,5.45,8.01-1.53,17.78-4.24,24.66-8.68,7.9-5.09,16.97-12.71,22.69-20.04-.41-.75-.65-1.51-.73-2.28l7.34-10.33c1.32.2,1.98,1.47,1.99,3.8l-4.01,5.92c-.66.97-1.52,1.93-.83,3.36,5.97-6.26,12.17-11.71,18.75-16.76,1.11-.81,2.12-.37,3.05,1.31,1.35,2.06,1.35,4.44,0,7.12,1.58,3.58,3.24,7.05,4.99,10.43-.58.89-1.32,1.74-2.21,2.54,1.87,2.16,2.35,4.11,1.44,5.84l-2.15,2.3-1.16.78-6.5-3.24c-1.5,4.43-1.29,6.6.64,6.49,2.81-2.37,4.08-2.53,3.82-.48-34.77,38.73-84.7,76.66-131.7,99.82l-38.39,16.66-28.4,9.72c-31.52,9.75-63.65,15.5-96.6,18.28-16.4,1.38-32.01,2.89-48.53,2.05-52.53-2.67-103.97-14.53-152.41-34.88-19.43-8.16-37.29-18.44-55.16-29.4-18.77-11.52-36.5-23.71-53.24-38.04-24.34-20.84-45.74-44.32-64.24-70.35l-17.1-24.07c-8.89-13.47-17.74-26.59-24.64-40.89-.85-3.83-2.3-7.65-4.34-11.44l1.6-3.87c-.72-1.43-1.06-3-1.03-4.71-1.96-1.77-4.86-4.77-3.99-7.47-2.13-.91-3.46-2.83-4.45-4.78-1.8.51-3.04.26-3.72-.77l-3.05-6.81c.08-1.8,1.56-2.95,4.44-3.45,1.51,1.06,2.65,2.6,3.43,4.61,4.14-.57,6.94.38,8.39,2.85.66,3.64,1.6,4.47,2.8,2.48,3.53,2.03,7.22,2.77,11.05,2.22,1.73,1.39,2.6,3.38,2.62,5.96l2.09-1.97c-2.03-3.38-.81-5,3.65-4.85l3.89-1.59c4.95,2,.53,6.06-3.61,5.48-.72.46.13.95,2.54,1.46l.27,1.64c-1.81,2.03-1.08,2.26,2.19.68l2.25,1.88c2.17-.94,3.42-.55,3.74,1.17-.7,2.48-.28,3.87,1.25,4.17.66,2.22,2.56,2.6,5.69,1.13-.34-4.31,4.82-6.04,5.12-.3,4.84.95,4.13,7.08-.85,5.46l-11.58,1.9c3.14.17,5.92.9,8.34,2.21l-.02,1.05c2.26-2.97,5.68-.71,3.3,2.58.74,1.16,1.7,2.18,2.88,3.06.2,2.28,1.89,3.6,5.05,3.95,1,1.47,1.76,1.63,2.27.49.46-3.61,1.92-5.1,4.39-4.47.99-1.03,1.63-2.23,1.92-3.57-1.36-5.15,5.57-9.62,9.21-5.84-.11,2.33,1.17,1.29,3.83-3.13-2.58-1.41-2.11-3.15.65-4.1,1.01-1.29,1.22-2.82.63-4.59l1.44-1.72-2.89-3.44c-2.97-.25-4.75-2.46-1.51-4.04,12.16-.45,3.61-2.22-2.41-1.41-4.88,0-9.73-.19-14.54-.59-4.02,1.68-3.39,9.93.49,1.48,1.88-1.05,3.54-.56,4.49,1.38.21.43.5,9.55-2.18,8.17l-8.37-1.03c-4.67,1.77-9.27.16-12.46-3.55-2.33,1.17-3.96.08-4.38-2.39-2.25-2.01-3.78-4.36-4.59-7.05l1.12-.92c18.37-7.78,11.76-33.9,4.1-47.97v-2.51c.04-.97.89-1.73,2.57-2.29-1.77.46-3.19.41-4.25-.17-1.73.9-4.93-3.31-3.82-4.86-1.21-1.33-.53-2.18.62-3.35,1.73-1.77,7.32-1.53,9.64-1.26l.8-.26c1.34,2.3,1.97,2.66,1.91,1.06.12-2.72,2.21-1.29,3.28.53,6.19-2.4,7.15,4.45,6.53,9.08.97-1.92,1.76-2.69,3.44-.95-.61,1.6,1.8,7.88,2.55,8.57.6.55,14.22,2.03,16.09.83l-2.99-6.77-4.92-19.59c-.71-.51-1.97-.54-3.79-.09-1.41-1.79-3.08-2.88-5-3.27-12.17-6.62-3.98-18.54,5.37-6.84,2.39.2,2.26-1.16-.4-4.08-2.29-4.17-1.7-6.32,1.77-6.46,2.1,1.29,3.77,3.32,5.01,6.12,6.36-1.06,10.85,3.81,4.37,7.85,1.71,4.59,3.35,4.32,4.92-.82l1.44-.16Z"/>
        <g>
          <path class="cls-132" d="M45.03,628.53l-15.93-33.03,4.36-.67c1.27,2.51,2.56,4.98,5.55,5.45l-.83,2.29c-.28.79,1.02,1.47,1.61,1.92-.2,1.67,1.91,2.56,2.5,3.41.68,1.5-.28,4.1,1.81,5.38-1.53,1.41-2.1,2.39-2.21,3.87-.15,2,1.51,2.88,2.06,4.66l1.74,5.58c.14.45-.07,1.12-.67,1.15Z"/>
          <path class="cls-160" d="M758.63,716.07l-3.2,3.56c-.14-.68-.57-.45-.78-.28l-1.13.93c-.92.76-2.2,1.54-3.17,1.19-2.45-.88-1.5-5.2-.12-9.73l8.39,4.33Z"/>
          <path class="cls-61" d="M697.34,725.32c13.23-4.91,24.76-13.27,32.94-24.78,1.11.18,1.75,1.14,1.93,1.9.77,3.12-14.02,14.66-19.87,18.89-2.7,1.95-4.99,4.18-8.18,5.33l-11.72,4.2c-4.99,1.79-10.07,2.53-15.57,1.5l15.79-4.89,4.68-2.15Z"/>
          <path class="cls-65" d="M564.27,760.09c.3.06.8-.31,1.4.25l-11.84,8.25c-7.4,5.16-13.07,11.8-18.02,19.34l-6.11,12.61c.55-9.49,6.55-17.18,12.59-24.09.19-1.25-.41-2.34-.71-3.53,6.9-5.38,14.67-9.42,22.7-12.82Z"/>
          <path class="cls-174" d="M616.47,746.36c5.2.53,10.4,2.76,15.17,5.24,2.84,1.47,4.7,3.75,6.12,6.23.46.8.6,1.94.62,2.86.03,1.31.71,2.63-.75,4.31-2.34-7.87-8-12.5-15.06-14.38l-1.97.78c-4.34-.99-8.81-1.23-13.22-.61l-1.93-.93c-3.05-1.47-5.36-.23-4.93-1.9,5.16-1.12,10.65-2.14,15.96-1.6Z"/>
          <path class="cls-45" d="M229.04,732.46l-.04,1.3c9.93,7.41,29.3,23.28,29.36,36.6,0,2.3-.76,4.15-2.87,5.26,1.74.1,1.95,1.34,1.19,2.78-1.69,2.25-3.32,3.82-4.89,4.7-14.24,2.33-28.05-3.23-39.57-11.75-8.74-6.46-16.42-13.18-21.28-22.97-3.03-6.1-4.23-12.5-1.36-19.02,3.88-8.82,16.77-7.14,26.12-3.78l13.35,6.87Z"/>
          <path class="cls-168" d="M618.74,786.63c-1.91,2.95-3.81,6.08-6.56,8.52-7.92,7.02-16.94,12.72-26.9,16.42l-11.49,2.53c-4.86,1.07-14.56.02-19.29-3.14-1.81-1.8-2.7-3.68-2.67-5.65l1.55-.44c-3.64-1.67-.97-6.76.68-9.44,8.15-13.23,38.97-28.92,54.42-26.8,3.16.43,3.77,2.3,4.34,5.19-.71-3.45-.01-4.15,3.39-3.09,6.92,2.14,4.68,11.13,2.54,15.9Z"/>
          <path class="cls-129" d="M622.57,750.63c3.54,2.9,5.8,6.5,3.5,8.28-1.74,1.35-6.02,2.25-8.29,1.86-4.54-.77-8.05-1.04-12.39-.1l-14.17,3.05-21.88,8.18-17.16,9.71c-2.78,1.57-5.42,3.05-8.89,3.62,3.67-5.65,8.49-9.52,13.19-14.03,5.85-5.61,12.47-9.77,19.93-13.1l6.77-3.03c7.12-3.18,14.9-3.85,22.26-5.21,5.91-1.09,11.42-.75,17.13.76Z"/>
          <path class="cls-57" d="M618.74,786.63c-.4-.18-.57-.61-.32-1.18,1.47-3.28,2.51-7.2,1.09-10.67-.93-2.27-3.79-3.32-5.99-3.61,4.01,11.28-15.43,25.61-26.61,29.36,6.95-4.48,14.19-7.82,19.49-14.25,2.44-2.96,4.52-5.69,5.24-9.73.36-2-.49-6.97-3.24-7.01-16.28-.21-39.07,10.6-50.4,22.74-2.79,2.99-5.18,6.53-5.5,10.6,4.33,3.05,9.36,3.23,14.37,3.2,5.96-.04,10.81-2.8,16.73-4.14-9.4,5.8-20.75,6.57-31.37,4.05.46,1.94,1.47,3.26,2.89,4.57.17.17-.1.57-.62.4-8.73-5.82-2.28-17.67,5.99-24.78,10.69-9.2,23.53-15.45,37.33-18.27,5.4-1.1,9.82-.47,15.05.56,5.53,1.08,9.66,4.89,8.78,11.16-.33,2.34-1.51,4.85-2.9,7Z"/>
          <path class="cls-85" d="M401.8,811.1c-17.57-1.18-34.54-2.07-48.3-13.96-4.87-4.2-7.53-10.19-9.54-16.26,16.93,14.44,36.18,23.92,57.85,30.22Z"/>
          <path class="cls-108" d="M129.57,692.6l-8.08-7.01c-7.23-4.57-12.24-11.47-15.72-19.19-.98-.33-1.71-.83-2.19-2.08-1.32-3.45-3.91-6.31-4.42-10.02,1.62,1.72,2.39,4.48,4.64,5.53,2.94,1.38,5.72,2.47,8.06,4.85,3.28,3.34,6.24,6.87,8.66,10.93l9.06,17Z"/>
          <path class="cls-118" d="M231.83,715.17c6.76,3.26,12.41,7.4,18.19,12.13,6.71,5.49,12.98,10.89,18.04,17.86,5.65,7.79,10.16,16.75,9.59,26.73-2.36-9.66-6.36-18.52-13-26.18-4.94-5.71-9.74-11.35-15.62-16.16-11.14-9.1-23.44-15.72-36.01-21.35,7.03,1.49,12.96,4.15,18.8,6.97Z"/>
          <path class="cls-19" d="M251.78,783.11c-.6-.09-.54-.97.14-.91,2.09-1.45,3.56-3.14,4.39-5.49-7.9,1.02-15.81-.38-22.71-4.27,10.05,2.7,25.08,6.46,23.42-3.14-2.39-13.78-17.95-26.43-29.36-35.05-.61-.46.56-1.77,1.38-1.78,3.73,1.92,6.76,4.34,10.06,7.04,8.13,6.65,15.01,14.48,19.19,24.19,4.03,9.37-.69,18.46-6.51,19.42Z"/>
          <path class="cls-50" d="M372.87,832.11c-5.69.75-10.79-1.21-16.23-1.99-10.31-1.47-21.92-4.48-29.33-11.7,1.36-.97,2.82-.46,4.17.06l16.81,6.56c8.14,3.18,16.12,5.4,24.58,7.06Z"/>
          <path class="cls-132" d="M76.2,541.65l-1.69-2.46c1.29-.75,4.88-1.99,5.53-.15.33,1.51-2.68,2.52-3.83,2.6Z"/>
        </g>
      </g>
      <path class="cls-30" d="M72.09,592.13c-3.19-.61-7.15-.65-10.37-2.34-4.85-2.54-7.84-7.44-10.87-11.6-2.77-.31-5.56-5.94-4.36-8.4-3.34-8.32-6.8-22.12-3.99-30.37,2.35,6.39,6.93,20.75,9.06,19.38,1.32-.85-4.73-20.93,7.16-30.15,4.37,2.1,7.95,5.08,10.88,9.31,9.23,13.32,16.87,33.91,8.54,48.19-3.5.41-6.45-1.04-9.14-2.98-6.92-5.02-10.9-12.12-14.65-19.68,1.92,9.91,12.62,23.21,22.59,24.22-1.87,3.16-5.02,2.98-4.84,4.43Z"/>
      <path class="cls-12" d="M122.31,180.9c6.66.18,10.97,8.73,7.07,14.19,1.01,1.61.96,3.42.28,5.16-4.36,11.22-12.46,23.87-22.14,31.1-2.97,2.22-9.63,7.1-12.19,2.62-2.12,2.57-5.62.53-7.64-1.25-1.67-4.19-2.06-8.63-.9-13.39,4.03-16.41,15.21-30.29,30.29-37.72,1.62-.8,3.66-.47,5.23-.72Z"/>
      <path class="cls-170" d="M111.66,230.02c-4.26,3.77-9.43,6.59-15.07,7.78-4.08.86-7.54-1.66-8.9-5.08,2.7-.47,5.72,3.04,6.78.2.28-.75.48-1.96.39-3.33,1.79.05.63,3.76,2.34,4.85,2.69,1.71,12.9-5.77,17.58-11.53,5.54-6.82,9.92-14.53,13.51-22.54.87-1.95,1.03-3.79-.48-5.31.99-1.52,2.29-3.09,2.05-5-.14-1.14-1.48-1.26-2.31-.81-.49.26-.89.58-1.56,1.64-.72,1.15-3.83.35-4.72,1.15-1.24,1.11-2.23,1.66-3.61,2.65l-11.55,8.29c5.2-7.31,14.3-15.37,22.96-15.16-1.15-4.01-4.03-5.43-6.76-6.93,17.09-2.74,12.87,28.31-10.66,49.12Z"/>
      <g>
        <path class="cls-113" d="M159.43,110.22c1.38.55,1.39,1.72.03,3.52-16.52,21.23-31.4,43.25-44.65,66.05,1.39.19,2.15.81,2.27,1.84l-1.25,2.02c-15.86,8.7-31.69,28.68-27.45,47.44l-.7,1.65c5.35,4.46,7.36,5.23,14.36,2.06,2.74-1.24,5.32-2.8,7.65-4.71l1.96-.05c1.57-1.21,2.3-.5,3.24,1.01.56,2.65,1.84,4.46,3.83,5.44l7.53-6.9c1.57-.16,2.51-.1,2.36,1.64-3.63,13-5.09,26.89-1.09,39.94l-.44,1.2-1.3,1.91c-16.12,6.89-29.1,20.12-37.54,35.4-3.94,6.1-7.41,12.71-9.81,19.66l-.86.34c-9.26,29.47-13.03,64.19,13.1,86.14l-.42-2.65,14.96,8.28c5.5,3.08,12.45,2.69,18.43,2.58,1.17,1.17-.06,1.11-.1.61-.03-.37,7.59-.25,6.04,1.75l-9.43,4.67c-6.15,2.89-12.5,3.49-19.52,2.28,4.12,3.03,8.64,4.41,13.26,6.41-5.56,1.24-10.66.42-15.54-.84-8.25-7.4-16.64-15.15-22.53-24.95l-1.94,1.5,3.48,5.89-.62,1.36c-.34.46-.38,1.38-.06,2.16,1.3,3.1.93,6.29,1.52,9.56,1.49,8.29,3.79,16.17,6.54,24.03,2.04,5.83,4.75,8.97,6.9,13.29-.15,1.25-1.29.38-1.69-.56-2.03-.67-5.49-1.73-7.58-.08-1.87,1.48-.71,4.79.3,6.52,1.15,1.98,2.9,3,3.59,5.25-16.68-5.7-29.1-18.24-35.93-34.12-4.45-10.35-7.94-20.7-8.89-32.11-2.35-6.98-3.79-13.92-3.94-21.4l-.5-25.66c.41-.8,1.21-1.79,1.34-2.51-.18-.39-.32-.78-.28-1.15,1.34-11.35,2.08-10.05,0,.1-.07.34-.28.66-.52.97l-.8.7-1.76-20.39c-2.34-27.08,6.44-69.15,15.57-95.46.17-.49-.07-1.48-.27-1.75-.13-.17-.6-.05-1.02-.05,27.25-53.59,63.8-101.35,110.13-139.79Z"/>
        <g>
          <path class="cls-34" d="M78.44,329.31c-3.43,9.95-5.17,20.66-5.7,31.6-.65,13.44,2.58,26.33,8.19,38.27l9.34,13.96c3.91,5.85,9.81,9.91,16.86,11.79-3.3.63-5.83-1.02-8.49-2.41-11.6-6.07-19.93-15.67-24.73-27.97-8.43-21.59-4.18-43.53,3.51-65.09-.26-.72.71-1.37,1.03-.14Z"/>
          <path class="cls-154" d="M98.37,438.87c-8.99-2.31-16.8-8.07-21.61-16.2l-4.88-8.26c1.1-.11,2.25-.11,2.53-.61l1.36-2.41c3.12,5.43,6.61,10.36,11.17,14.88l10.16,10.06c.75.74,1.2,1.53,1.28,2.54Z"/>
          <path class="cls-43" d="M38.38,367.04l-.81-.08c.76-15.99,2.79-27.7,12.95-41.08-1.61,14.96-9.36,25.63-12.14,41.16Z"/>
          <path class="cls-70" d="M84.32,258.63c-6.24,1.03-3.65,9.46-11.44,15.38,0-4.1-.35-8.04.9-11.92l4.08-4.94c1.41-1.71.14-4.12.36-6.56,2.81,2.96,5.52,4.73,9.4,6.3-.78,1.16-1.98,1.52-3.3,1.74Z"/>
          <path class="cls-62" d="M61.34,349.12c-.76-3.14-1.81-6.89-1.16-10.63,1.16-6.74,5.2-22.3,7.88-22.01.79.08,1.44,1.11.93,2.12-4.41,9.51-6.53,19.45-7.65,30.52Z"/>
          <path class="cls-132" d="M43.78,401.89l-2.1,13.03c-.5-4.28.56-8.46,1.01-13.28-.33-1.5,1.92-1.14,1.08.25Z"/>
        </g>
      </g>
      <g>
        <path class="cls-121" d="M257.63,46.59c.75.13.73.82.19.92l-21.85,15.11c-26.62,19.96-48.84,45.16-65.32,74.11-11.62,20.41-18.88,42.07-21.71,65.31-1.18,9.65-2.23,18.7-1.98,28.45.09,3.57-.65,7-2.68,10.22-3.88-9.82-4.62-19.45-3.73-30.09l-5.75,13.38c-4.7,10.91-6.5,23.59-2.11,34.69.63,1.6,2.44,4.08,4.06,4.01,2.72-1.27,4.93-2.27,8.71-2.04-2.13-5.95-1.24-11.88.78-18.07,3.71,4.78,3.56,12.01,7.72,18.14l7.33,3.02c3.91,1.62,6.38,4.99,8.73,8.42l6.5,9.94-2.09-.15c-12.57-9.78-30-14.42-45.35-9.11l-1.98-.52c-.53-.31-.78-.77-.98-1.51-3.84-14.59-2.31-26.49,1.61-40.94l-8.79,8.06c-6.18-2.35-3.06-6.8-7.27-7.93l.57-2.17c9.52-8.9,21.46-26.2,18.95-39.81-.9-4.89-4.4-6.2-8.86-7.14-.73,1.89-3.78,1.87-5.23.72-1.29-.28-2.48-.24-3.96-1.54l20.8-33.48c6.96-11.19,14.91-21.11,22.97-31.46,1.22-1.56,2.41-2.94,2.53-4.92l10.41-8.64c26.78-22.22,56.39-40.42,87.78-54.99Z"/>
        <path class="cls-104" d="M131.77,169.81l-10.75,1.81c6.28-3.35,15.48-7.15,19.67-2.71,1.63,1.73,2.91,4.3,2.29,7.38-2.17-4.58-5.93-7.37-11.21-6.48Z"/>
      </g>
      <g>
        <path class="cls-158" d="M174.37,621.13c10.71,27.75,33.5,51.2,60.75,63.84l2.28,2.37c.38,1.31,1.18,1.66,2.4,1.05l1.4-.41c8.02,2.57,16.15,4.77,24.37,6.59.67.75,1.33.69,2.47.11,2.33.45,4.17.49,5.52.11l15.66.85c-12.54,5.76-26.62,6.98-40.09,4.46l-11.74-3.81c-.45-.14-.63.47-.44.77l.35.53.27,2.41c1-.17,1.78.05,2.32.68l13.07,16.39c7.54,8.35,16.94,14.32,26.84,19.06-4.41,1.04-6.36,6.27-11.72,9.04l-2.31-1.03c-8.94-11.32-20.48-19.09-32.37-26.87-.75-.49-1.2-1.29-1.55-2.1-.04-1.5-1.14-2.19-2.04-3.13l-14.41-14.96c-4.63-4.81-10.6-8.03-17.42-8.31l-11.82-.49c-4.13.39-7.74-.52-11.22-2.89-6.31-4.3-11.07-10.06-15.1-16.73-9.08-15.01-15.59-31.08-20.58-47.89-.68-2.29-1.64-4.14-.95-6.51l18.91,23.45c5.56,6.89,12.9,11.65,19.56,16.95-4.21-7.75-8.5-14.19-11.4-22.17-7.53-20.68-9.75-43.26-5.4-64.79.82,10.31,1.97,19.54,5.03,29.12l9.38,24.33Z"/>
        <g>
          <path class="cls-92" d="M237.29,697.59c1.35.6,1.79,2.1,2.58,3.09-1.06.67-2.67.91-3.31,0-.79-1.12-.46-2.71.73-3.09Z"/>
          <path class="cls-92" d="M270.81,737l-1.45,1.62c-.48.54-1.93.16-2.46-.63l-2.65-3.98c1.74-2.14,6.54-1.79,7.6-.08.69,1.12.19,1.69-1.05,3.07Z"/>
          <path class="cls-92" d="M233.89,713.3c-.73.75-1.2-.12-1.26-.7-.1-.95.51-1.63,1.78-1.46.22.03.5.65.45.87-.07.33-.54.85-.98,1.3Z"/>
          <g>
            <path class="cls-53" d="M268.02,694.02c.56,1.1-2.03,1.67-2.45.56-8.84-.78-17.33-3.47-25.77-6.18-1,1.48-2.72.69-2.4-1.05-29.08-12.73-52.12-35.78-63.67-65.61-.1-.42.36-.71.65-.6,6.79,15,16.77,28.18,28.68,39.83,8.98,8.78,18.65,15.45,29.79,21.16,11.28,5.78,22.74,10.71,35.18,11.89Z"/>
            <path class="cls-92" d="M273.56,694.79c.23,2.49-2.72-.73-7.46.97-.32,0-.65-.96-.53-1.19.83.18,1.96.23,2.45-.56l5.54.77Z"/>
            <path class="cls-92" d="M239.8,688.39c-.19.93-.72,1.4-1.18,1.72-.65.45-2.18.4-2.35-.43.22-.68,1.2-1.55,1.13-2.34l2.4,1.05Z"/>
          </g>
        </g>
      </g>
      <g>
        <path class="cls-59" d="M135.74,275.02l-.72,1.48c-6.07,1.88-11.97,7.73-11.51,14.3l-.65,1.2c.17.42.3.75.23.78-2.09,1.3-5.32,2.6-7.54,3.31l-1.01,2.22c-26.72,19.61-43.13,70.15-13.68,93.82.79-1.68,4.58,3.59,4.54,3.93-.11.99-.31,1.67-1.26,2.19,6.08,3.49,13.36,4.17,20.23,3.23l1.61.98c4.02-.04,9.39-.24,12.95-2.61.95-2.21,1.42-3.2,3.78-1.29,25.52-11.07,38.52-39.24,44.72-64.97,1.9-2.36,3.47-1.51,3.22,1.34l.37-.38,1.08.07.42-10.86,1.27-.82c2.55,5.69,1.66,14.27.49,21.28l-3.73,17.91,3.88,18.44,8.12,15.89c9.5,11.24,22.7,18.79,36.17,24.27l11.41,5.51c-2.33-6.83-6.56-11.41-7.23-18.33l12.1,10.73,10.02,8.3c3.48,2.89,6.75,5.23,9.43,9.04l12.6,17.92,10.26,16.71,20.94,31.73c10.33,13.31,22.64,24.29,37.57,32.13,12.43,6.53,26.08,9.3,40.36,10.69-4.05-3.67-7.41-7.35-10.22-11.97l-6.76-11.13,5.27,3.46,19.72,12.71c6.77,4.36,13.12,8.51,20.35,12.15,8.75,4.41,17.61,8.32,27.4,9.83l20.57,1.6c1.73.13,3.1.42,4.32,2.18-3.97,2.03-8.05,4.88-12.89,5.11l-15.06.72,8.86,7.35c11.71,7.41,29.89,10.59,38.45-1.92l-6.69-10.39c-4.99,1.17-11.89,2.56-11.86.87.02-1.11,7.39-2.68,8.67-7.22s3.14-8.72,7.71-10.87c.56-2.74-.07-5.07-.32-7.74-1.44-15.15,1.29-30.11,7.08-44.16,3.53-8.55,7.5-16.37,13.29-23.53l-7.02,19.44c-3.21,14.19-2.79,29.17,1.73,43.01l7.38,17.1c.67,1.54,1.78,3.01,3.14,3.76l2.03,1.32c9.86,17.89,29.74,31.7,49.87,34.04l1.31,1.15c4.41,1.75,8.84,2.12,13.29,1.59l17.98-2.14c-1.14,2.86-3.63,3.54-5.9,4.42l-9.21,3.55c3.72,1.9,7.42,1.67,11.24,1.53,10.22-.38,19.59-2.81,28.76-7.34,2.56-1.26,4.67-3.24,7.47-3.56-.38.91-.81,1.86-1.6,2.48-11.68,9.08-31.81,15.63-46.44,17.08-16.91,1.68-35.39-.8-49.81-10l-2.19.09c-7.13-4.46-13.78-9.52-19.94-15.18,3.58,5.75,8.21,10.71,13.02,15.44.54,2.61-1.14,3.07-5.06,1.4-1.4-.2-2.46-.07-3.25,1.2-3.28,5.22,5.65,10.15,9.69,12.23,10.5,5.38,26.43,7.88,38.24,7.82.82,0,8.26-.4,7.72-.65-2.77-.04-14.63-.89-15.02-3.79-.45-3.41,11.91-5.75,14.54-3.74l2.12-1.21c16.36.48,32.14-5.23,46.9-12.16,1.11-.44,2.34-.39,3.51-.34-.27,5.17-3.61,8.73-8.69,10.88,5.23,2.66,10.61,4.28,16.79,4.81,23.41,1.99,46.56-5.59,64.52-20.62l10.92-10.05c-2.26-7.22-.29-14.04,4.76-19.04,3.48-3.44,5.73-7.88,9.89-10.37-1.12,5.79-2.64,10.74-.24,15.61.82-9.13,4.52-15.92,10.46-21.83l6.62-8.71c1.65-2.16,4.32-2.19,7-2.83,1.74-.42,3.01-2.4,4.12-3.86,8.23-10.86,17.13-20.7,28.32-28.79,6.17-.03,12-.73,17.25-4,4.61-2.88,8.89-6.22,12.45-10.06,3.91-2.83,7.14-9.18,7.51-13.93l5.52-17.29,1.97-12.97c1.25,2.71.38,5.83,1.08,8.76,1.53,6.37,1.97,12.29,1.68,19.31,9.75-6.44,16.94-13.17,20.82-23.79l5.58-15.26c1.11-3.05,2.18-5.73,4.43-8.16l.03,15.1c-1.22,20.49-3.18,41.05-6.54,61.28-.36-.05-.66-.13-.73-.31-.31-.75.75-2.97-.05.5-.52,2.29-1.28,4.87-2,7.13-4.3,13.38-9.53,27.8-14.62,41.19-12.03,31.6-24.82,58.27-43.06,86.33-11.72,18.02-24.05,32.95-39.46,47.12l-1.38-.35c-2.45,3.54-5.59,6.67-9.41,9.39-2.89,2.98-5.97,5.69-9.23,8.12-3.59-1.62,1.54-8.05,3.24-10.02h1.49s.03-2.3.03-2.3c2.7-4.36,4.69-9.13,5.89-14.12l-6.42,12.43-1.49.19c-.07,2.67-2.54,6.24-4.38,8.28-.75,1.68-1.73,2.37-2.96,2.05.02.5.03.99-.06,1.47-.41,2.39-5.64,7.34-7.76,9.33-4.05,3.81-18.78,14.78-23.69,14.31-.48-.05-.96-.18-1.43-.33-11.25,4.54-25.86,3.34-31.65-8.8-1.18,1.39-2.24,2.93-3.17,4.61l-1.49.07c-3.09-.58-4.25-5.55-4.9-8.47-5-22.41,15.11-49.97,32.96-61.84-20.18,12.85-38.75,36.02-34.97,61.14l-.83,1.91c.16,2.82.21,5.65.15,8.48.05,1.43-.23,2.1-1.67,2.04-4.97-.22-8.77-12.37-9.28-16.68-6.12,10.43,1.65,20.08,11.56,23.97,1.13.97,2.02,2.14,2.68,3.51,4.01-.12,8.04-.46,12.08-1.04,4.1.72,8.21.98,12.33.78,7.15-1.72,14.22-3.69,21.21-5.9,1.5.47,2,.66,1.69,2.32-1.01,5.42-12.54,16.17-17.36,19.29-12.15,7.87-27.87,16.12-42.61,14.88-4.65-.25-5.18-.78-5.67-4.92-1.7-.19-1.78-1.72-.62-2.86-1-2.84-1.04-5.98-.12-9.43-.81-5.47-17.26-3.25-21.18-2.04l-1.65,1.11c-4.87.48-9.64.65-14.3.49l-3.12,1.97c-10.61,2.75-21.02,6.16-31.21,10.23l-1.92-.08c-4.17,3.03-8.64,5.71-13.42,8.02-2.95,2.34-6.05,3.94-9.28,4.8l-1.29,2.61c-7.92,5.66-13.26,12.5-16.01,20.5-22.83,11.91-49.22,15.12-74.67,15.48-26.86.38-54.04-3.4-78.06-16.02l-25.07-16.69c-5.49-2.21-10.49-5.05-15-8.53-.45-1.81-.5-2.64,1.38-2.45,6.74,3.36,13.67,6.24,20.78,8.65-5.23-8.03-11.73-15.41-19.48-21.09-11.85-8.68-24.36-11.43-38.68-13.08-3.27-.67-13.51-2.79-15.07-4.98-.26-.36-.44-.77-.61-1.19l-2.66.06c-16.7-7.26-27.42-20.54-37.76-34.18l.51-1.33c-1.75.48-2.91-1.56-2.58-3.09-2.42.64-2.08-2.25.55-2.43,14.49,5.72,30.56,6.9,45.73,1.4l-9.18-.5-.83-1.27c-.96.72-4.73.18-5.54-.77-17.73-.87-35.85-9.45-50.44-19.52-18.65-12.87-35.26-32.07-43.21-53.37-.44.17-1.17.32-1.29.05-5.97-13.55-11.46-28.85-13.39-43.85-2.77,26.09,2.88,52.69,17.04,74.72,1.42,3.03.81,3.5-2.21,2.39-5.54-3.93-10.75-8.26-15.63-12.97-7.19-8.23-13.92-16.73-20.21-25.49l-.4-1.73c-.81-.25-1.71-.54-2.24-1.23-5.49-7.05-9.99-22.46-12.29-31.31-3.97-18.73-6.9-37.36-8.79-55.9,1.79-2.76,2.6-.85,3.54,1.38l1.28,3.92c.34-5.59.86-11.13,1.54-16.64l-1.52-2.09c-.94-6.34-2.56-12.58-5.15-18.45l.14-2.58c-2.49-1.04-5.05-4.76-5.13-7.45l-1.44.22c-3.64-4.65-8.64-7.9-14.99-9.73l-.28-1.47c-.91-.02-1.71-.26-1.29-1.2-2.67-1.68-4.77-5.25-6.03-8.16-4.85-11.25-8.32-23.72-9.36-35.83-1.37-3.13-1.21-4.81.5-5.06,2.04.99,3.81,2.69,5.32,5.11,4.46,4.42,9.69,7.84,15.68,10.27l.61.82c1.59-.86,3.59-.87,6-.04l4.55.26-7.76-3.95c-1.1-1.41-1.63-2.28.13-2.79,9.37,1.51,17.41-1.45,25.31-5.89l2.99-.12,1.78-1.37c14.78-1.64,27.52-10.95,36.29-22.62-9.03,10.37-29.28,24.7-43.33,22.27-.25-.04-.46-.31-.67-.63l-1.14,1.25c-12.29,1.47-23.34-4.38-32.25-12.1-.47.16-1.18.39-1.41.1-18.73-24.06-22.67-55.02-10.42-83.93-.16-.48-.3-.95-.36-1.44-.28-2.53,6.63-16.31,8.82-17.63.42-.25.87-.43,1.34-.59,2.22-4.11,4.77-8.03,7.63-11.72,8.5-10.97,24.48-22.19,38.36-23.93l1.51,1.02Z"/>
        <g>
          <path class="cls-144" d="M779.99,551.11l3.21-9.97c1.74-8.42,7.7-15.7,16.03-18.16,3.59-1.06,5.34-3.08,7.49-6.78-.83,9.43-3.31,18.53-8.37,26.49-4.33,5.95-10.38,9.7-18.36,8.42Z"/>
          <path class="cls-29" d="M378.56,729.72c-5.24.98-11.51-.6-15.5-4.5-4.49-4.38-3.98-11.74.41-15.39,5.09-2.18,10.58,1.74,14.47,4.96,5.09,4.21,6.46,10.77.62,14.93Z"/>
          <path class="cls-55" d="M499.64,612.1l-7.09-8.03c1.76-.06,2.45,1.06,3.69,1.83,1.47-2.52,4.18-2.87,6.8-1.74,7.94,3.41,15.44,8.19,22.21,14.68-9.24,3.05-18.7-.3-25.62-6.73Z"/>
          <path class="cls-166" d="M129.59,426.35c-1.86-1.16-4.2-.95-6.68-1.17.12-.57.53-.83.74-1.18,4.08-.08,8.71-.32,12.76-1.85,6.58-2.49,12.44-6.11,18.38-9.71,4.86-2.94,8.24-7.18,12.15-11.13,5.2-5.26,8.77-11.07,12.88-17.25-3.03,7.72-7.73,14.15-12.4,20.72-9.74,11.81-22.88,20.72-37.85,21.57Z"/>
          <path class="cls-84" d="M585.98,697.26c1.63,1.62-.85,4.26-2.24,5.52-2.61,2.37-7.57,4.45-10.38,1.52-2.16-1.47-3.63-3.91-2.27-6.66.87-3.49,3.16-5.74,6.48-7.01,2.85-1.09,6.66-.89,8.13,2.26l.28,4.37Z"/>
          <path class="cls-155" d="M714.99,598.88c-4.86,9.78-13.03,16.56-23.3,20.01l6.28-7.43,13.58-15.79,3.6-2.49c.86,1.77.81,3.75-.16,5.7Z"/>
          <path class="cls-171" d="M784,602.02c-6.35,8.93-11.41,18.05-16.14,28.54-.19-8.1,2.93-16.12,7.74-22.91l15.47-16.96c-1.62,4.56-4.5,7.71-7.07,11.33Z"/>
          <path class="cls-133" d="M637.77,757.83l-1.53-.16c-3.82-6.04-11.81-8.28-18.48-9.9l-1.29-1.4c5.78-3.26,13.09-3.88,19.28-1.41s1.33,7.32,2.01,12.88Z"/>
          <path class="cls-35" d="M378.56,729.72c-.28-.3-.11-.65.11-.89,3.91-4.33,2.91-10.25-1.8-13.3l-7.03-4.55c-4.12-2.67-5.12.44-6.37-1.15,5.26-4.38,19.51-.81,21.45,10.47.79,4.58-1.93,8.59-6.36,9.42Z"/>
          <path class="cls-150" d="M427.16,600.92c4.94,1.95,8.9,7.74,7.22,10.43-.41.66-1.54,1.25-2.76,1.47-4.43.79-7.89-2.31-9.31-6.42-.58-1.66-.48-3.26.3-4.32,1.07-1.45,2.83-1.84,4.55-1.17Z"/>
          <path class="cls-164" d="M428.63,641.71c-6.7,1.4-14.33-5.06-15.7-11.62,8.79,1.89,16.64,3.03,15.7,11.62Z"/>
          <path class="cls-103" d="M543.82,661.19c1.66.46,1.86,2.37,1.78,3.7s-.81,2.8-2.5,3.51l-6.92,2.9c1.29-4.08,1.71-7.81,1.31-12.38,2.06.29,3.07,1.56,4.41,3.19.33-.21,1.22-1.12,1.92-.93Z"/>
          <path class="cls-82" d="M573.36,704.3c5.59,1.32,10.76-1.86,12.62-7.04l.69-4.66c3.85,4.6-1.09,13.81-7.26,14.42-1.97.03-5.63.03-6.05-2.72Z"/>
          <path class="cls-87" d="M748.23,585.02c-.07-1.2.73-1.9,1.55-2.58,3.74-3.11,7.32-6.04,10.44-10.3.67,6.82-4.19,10.7-11.98,12.88Z"/>
          <path class="cls-88" d="M764.07,642.42c-.61.97-.62,2.44-2.16,2.53l7.53-14.09c-.58,4.44-2.91,7.67-5.37,11.57Z"/>
          <g>
            <path class="cls-148" d="M412.56,746.84c4.74-8.49,17.18-9.8,26.18-9.33,12.18.64,26.23,5.2,29.76,18.1,2.61,9.5-2.56,13.68-9.94,18.01-.27.99-1.67,1.18-1.57,1.16,12.62-2.88,23.01-7.05,28.76-19.65.4-.37.8-.62,1.16-.56,4.15.69-1.47,13.62-2.84,15.62-10.31,12.94-26.25,17.36-42.79,15.75-11.41-1.11-21.64-5.17-29.75-13.12-9.28-13-8.06-23.14,2.82-34.37l.61.72c-1.34,2.38-2.37,4.84-3.1,7.39l.69.28Z"/>
            <path class="cls-115" d="M484.08,770.19c-.43-.33-.52-.79-.29-1.16,2.61-4.21,3.62-8.78,3.1-13.82-5.11,9.68-13.9,16.94-24.89,19.5-9.97,2.32-20.49,2.53-30.09-1.02,9.46.76,17.94,1.54,26.66-.06l2.95-1.83c23.22-6.54,33.37-27.2,7.39-39.24-18.95-8.78-46.26-5.57-56.35,14.29l-1.8,3.6c-.28-4.51,2.22-7.91,3.6-11.99,3.13-3.23,5.51-6.21,9.7-8.5,17.5-9.54,38.78-8.25,55.14,3.29,5.11,3.61,8.17,8.45,10.25,14.33,2.86,8.11-.16,16.07-5.38,22.62Z"/>
            <path class="cls-51" d="M411.96,787.16c-5.23-.68-10.14-2.57-14.8-5.52l-8.68-5.48c-4.78,1.11-8.42-5.21-7.74-11.17l2.28,3.3c.94-5.93,3.55-11.16,6.88-16.17l.58.78c-.55,14.12,7.24,26.86,20.37,32.47l1.12,1.79Z"/>
            <path class="cls-20" d="M482.6,788.13l-11.17,2.5c5.41-2.89,11.19-5.1,16.39-9.09,7.74-5.94,12.86-14.19,15.78-23.35,1.08,12.03-9.66,25.96-21,29.94Z"/>
            <path class="cls-175" d="M411.96,787.16c-7.42-2.85-13.16-8.11-17.75-14.91-4.05-6-5.03-13.11-4.32-20.13.15-1.46.92-2.86,1.5-4.28,1,1.41-.37,2.64-.33,3.77.35,11.8,4.93,24.64,15.26,30.02l14.84,7.72c-3.29.17-6.08-1.78-9.19-2.19Z"/>
            <path class="cls-169" d="M458.56,773.62c2.5-4.04,9.37-6.64,9.45-12.39.11-8.14-4.98-15.17-12.37-18.52-8.35-3.78-17.63-4.71-26.71-3.62-6.46.77-11.8,3.61-16.36,7.75-.52-1.32.56-2.3,1.01-3.32,2.38-5.27,6.2-8.48,11.14-11.07,10.63-5.58,22.29-7.18,34.12-4.56,11.28,2.5,25.85,9.9,26.59,21.16.46,6.88-3.43,12.23-8.32,16.27-5.64,4.65-11.68,7.04-18.56,8.3Z"/>
          </g>
          <g>
            <path class="cls-86" d="M266.16,667.67l-.87,1.09c-3.64-.52-7.24-1.25-10.79-2.2l-.1,1.21-16.31-7.48-3.38-2.47.83-1.1c-14.87-10.99-28.56-22.71-37.92-38.88-2.74-4.74-6.65-11.77-7.68-16.98,0-.04.21.64-.41.65-3.33-5.09-5.07-10.53-5.99-16.57-1.23-7.97-1.65-15.73-.19-23.66,1.01-.14.31,1.12.29.89-.22-3.04,4.33-13,6.16-15.96l1.64.03c3.35-3.92,11.18-4.45,16.24-4.13,3.13-.35,5.21.36,6.26,2.1,1.26,7.47,2.79,14.97,4.6,22.5,4.74-18.72,12.54-21.12,27.18-7.48,22.97,26.09,49.67,59.88,36.05,96.98-1.96,5.33-9.22,14.07-15.59,11.45Z"/>
            <path class="cls-94" d="M286.28,533.3l1.28-.38c4.7,5.58,9.68,11.09,14.96,16.53,3.31,3.08,5.52,6.51,6.64,10.3-.21,1.65.29,2.77.94,4.07,7.47,14.93,13.49,32.92,13.96,49.62l.49,17.83c-2.29-.63-3.96-2.06-6.17-1.05l-.28-7.03c0-.2-.31-.3-.45.06-1.95-.11-2.55-5.36-.81-6.13,1.24-5.09,1.8-10.23,1.7-15.4-7.14-32.82-29.86-62.79-60.55-76.93l-24.14-7.14c-4,1.73-8.12,3.02-12.38,3.89l-.26.73c.04,1.81-2.64,2.1-3.21.44-.42-.47-.01-1.71-.58-2.1-9.48-6.64-20.24,1.24-23.14-6.63l5.77-6.03c-1-1.92,2.22-3.57,3.56-1.84,17.84-3.27,37.31,1.76,53.02,11.3l14.86,9.02,14.78,6.88Z"/>
            <path class="cls-6" d="M316.83,617.12l.81,6.13c.54,18.96-5.45,39.6-23.14,48.37l1.02-2.4c-10.36,5.28-30.99,3.2-41.13-1.45l-5.86-3.77,10.33,2.39,7.3,1.27,4.68.24c7.98,2.78,26.3-.38,31.1-7.51,3.43-5.09,8.58-16.9,9.19-22.78,1.21-11.58-.71-23.91-4.1-35.09-4.64-15.32-18.97-36.61-29.52-47.62-15.48-16.14-39.23-30.03-62.15-26.99-10.25,1.36-17.43,7.28-21.76,16.56l-2.16,1.77c-4.08,4.01-5.22,11.26-7.68,16.63-.34-.36-.33-1.04-.41-1.59,2.28-12.3,8.23-23.91,18.02-31.82,4.86-3.92,10.86-4.89,16.64-6.76l3.21-.44c5.41-2.61,13.69-.79,19.58.79,31.87,8.55,60,41.37,71.49,71.45,2.66,6.97,5.71,15.23,4.55,22.62Z"/>
            <path class="cls-119" d="M203.62,506.1c-1.12.21-2.71.95-3.56,1.84-6.31,1.55-11.6,5.27-16.61,9.71-8.23,6.97-13.13,16.16-17.7,25.81,2.21-8.21,6.01-15.58,10.45-22.68,12.87-20.58,38.02-24.52,60.12-17.32-10.13-.81-19.58-1.81-29.16,1.16-1.31.41-2.8.29-3.54,1.48Z"/>
            <path class="cls-80" d="M309.16,559.75c-5.49-7.48-11.33-14.02-17.99-20.53l-4.89-5.92-4.04-4.14-12.36-11.11c14.25,9.02,29.76,21.54,38.5,35.78,5.9,9.62,11.74,19.01,14.76,30.03-4-8.59-8.39-16.5-13.98-24.11Z"/>
            <path class="cls-134" d="M234.72,657.83c-21.03-13.33-37.1-32.72-45.19-56.31.09-.15-.08-.64.43-1.23,9.83,26.19,26.69,40.98,48.87,57.3-1.53.93-2.8.43-4.1.24Z"/>
            <path class="cls-142" d="M334.39,649.39l.74-10.5c-.13-12.34-2.24-24.1-5.4-35.97-1.41-5.28-3.52-9.95-3.99-15.59,10.3,19.8,14.38,40.46,8.65,62.07Z"/>
            <path class="cls-67" d="M319.78,684.25c-6.3,7.47-15.08,12.26-25.29,10.72,14.9-4.29,26.55-13.31,34.11-26.99-.68,6.65-4.46,11.47-8.82,16.27Z"/>
            <path class="cls-149" d="M266.16,667.67c5.16.9,11.7-5.97,14.06-11.02,4.27-9.17,5.16-19.07,3.36-29.06-3.27-18.12-11.22-34.54-22.95-48.59l-15.34-18.36c-3.25-3.89-7.39-6.86-12.25-8.52-8.46-2.9-12.48,9.55-14.19,19.13-1.71-4.14-2.71-8.48-3.56-13.07l-2.68-14.42c-7.13-.92-14.55-.45-21.17,2.51,5.85-13.27,13.88-19.36,28.84-20.02,13.6-.6,26.26,4.17,37.4,11.48,5.86,3.85,11.1,7.33,16.27,12.04,8.81,8.03,15.87,17.25,22.2,27.36l9.08,17.28c4.84,11.13,7.29,22.44,7.32,34.7.02,6.28.18,12.42-2.65,18.1l-6.7,13.44c-1.81,3.64-5.83,4.91-9.41,6.47-9.08,3.95-18.68,4.1-27.63.57Z"/>
            <path class="cls-63" d="M316.83,617.12c-2.18-16.54-8.54-31.1-17.48-45.07-11.92-18.64-27.79-34.26-47.94-43.78-9.63-4.55-19.93-6.63-30.2-6-.64-.15-1.24-.2-1.66-.85l14.28-4.96,24.6,7.18c9.7,4.18,18.21,10.17,26.15,17.37,16.29,14.77,27.97,34.07,34.07,55.11,2.12,7.33,1.62,14.5-1.82,20.99Z"/>
          </g>
          <g>
            <path class="cls-16" d="M731.93,662.61c3.3,4.5,2.35,9.82,1,15.66-4.41,19.21-19.25,34.45-38.66,38.34-4.73.95-9.09-.22-12.46-2.93-.61-.85-.64-1.06-.1-.65-2.76-2.25-3.05-3.76-.86-4.55,13.73,3.31,24.53-5.45,33.63-14.38.07-1.95,1.08-3.84,3.05-5.68.84-1.92,2.01-3.11,3.53-3.56.14-1.87,1.03-6.85,2.34-7.95.38-.31.96-.28,1.46-.24,1.1-5.5,1.59-10.94-1.74-15.95-.25-.93.1-1.36.93-1.7,1.65-.67,6.47,2.43,7.87,3.59Z"/>
            <path class="cls-96" d="M661.03,721.21l5.66,8.33c-6.69-.92-11.76-9.01-13.4-15.58-5.21-20.89,9.81-44.66,26.32-57.79,9.43-7.51,19.71-13.34,31.82-15.31-9.4,2.74-17.24,7.52-25,13.55-10.77,8.38-19.29,18.33-24.84,30.92-5.13,11.63-7.65,25.42-.55,35.88Z"/>
            <path class="cls-37" d="M731.93,662.61c-2.74-.95-4.7-2.45-8.03-2.74,3.56,5.34,3.43,11.49.97,16.79-.5,1.16-1.24,1.06-1.73-.1,4.11-35.33-30.66-1.79-39.3,9.67l.25,1.62c-16.59,29.59,18.15,19.99,28.79,5.01,1.6-.81,2.68-.16,1.6,1.23-8.85,10.04-20.43,18.52-34.37,15.4.66,2.49,3.31,3.61,1.7,4.18-2.77-2.22-6.05-4.19-6.55-8.09-.63-4.96.58-9.88,2.56-14.59,11.26-26.7,43.84-42.38,54.11-28.38Z"/>
            <path class="cls-49" d="M694.43,659.06l-11.7,8.63c4.14-5.8,9.29-11.41,15.63-14.75s14.2-2.8,21.24-1.05c-8.82,1.07-17.55,1.99-25.17,7.18Z"/>
            <path class="cls-151" d="M739.6,694.01c-.29.1-.75.19-1.13.01l-.86-3.81,5.28-9.92c3.26-6.14,4.53-12.7,4.9-19.35,1.3,11.84-1.78,23.62-8.19,33.08Z"/>
            <path class="cls-146" d="M721.07,684.86c-1.6,3.45-4.08,6.4-6.58,9.24.02-.66-.59-.82-.84-.31-7.88,8.82-18.44,16.3-30.12,13.99-3.08-.61-5.5-3.1-5.09-6.48.64-5.29,2-11.25,5.41-15.06,5.73-9.07,22.25-21.24,32.69-13.3,3.69,2.81,6.19,7.33,4.54,11.93Z"/>
            <path class="cls-127" d="M724.87,676.66l-3.81,8.19c-.21-3.69-1.36-7.1-3.73-9.57-9.05-9.46-24.85,1.28-33.5,10.95.02-.65.09-1.45.58-1.99l12.82-14.08c5.09-4.68,10.86-8.24,17.4-10.22,3.77-1.14,7.11.03,8.79,3.71,1.77,3.88,1.86,8.39.78,12.7-.07.31.38.41.66.32Z"/>
          </g>
          <g>
            <path class="cls-90" d="M498.13,665.49c-1.23-5.65,3.61-11.8,8.95-13.56,2.59-2.93,8.12-1.76,11.47.01,12.59,6.68,9.22,22.4-5.36,23.74-6.56.6-15.48-2.44-15.06-10.2Z"/>
            <path class="cls-83" d="M498.13,665.49c.84,3.83,3.85,6.81,7.73,8.12,5.13,1.74,11.19,1.08,15.6-2.34s4.69-9.84,1.39-14.15c-3.61-4.71-10.1-7.04-15.76-5.18-.64,0-.99-.33-.9-.49,1.15-2.21,11.71-4.95,19.12,1.64,4.05,3.6,4.96,10.91,2.19,15.65-2.34,4-6.26,6.77-10.35,8.57-6.72,2.97-14.83.53-18.39-5.68-1.12-1.96-1.48-4.39-.61-6.14Z"/>
            <path class="cls-64" d="M517.32,671.95c-4.89,2.69-11.52,1.38-15.08-2.59-2.24-2.5-2.68-6.21-.51-8.58,2.55-2.78,6.21-3.59,10.09-2.92,3.02.52,6.38,2.66,7.82,6.18,1.14,2.78.88,6.15-2.33,7.91Z"/>
          </g>
          <g>
            <path class="cls-130" d="M628.57,600.72c-9.92,4.9-20.18,9.03-31.23,11.75-7.21,1.77-14.23,2.04-21.3,1.96l-1.28-.51c-12.74-.07-26.35-4.47-36.3-12.41l-.17-1.89c8.22,3.25,16.06,6.52,24.97,7.98,16.95,2.78,34.17.93,50.13-5.37,8.29-3.27,15.64-7.58,22.75-12.18,9.81-6.34,17.98-14.18,25.55-23.54-3.93,7.99-9.97,13.94-15.82,20.43-5.1,5.65-10.68,10.49-17.31,13.77Z"/>
            <path class="cls-2" d="M812.76,491.86c3.55-3.83,5.94-9,7.51-13.93.41-.04.8.51.62,1.12-1.51,5.37-4.1,10.02-7.73,14.06-.49-.39-.3-.81-.41-1.25Z"/>
            <path class="cls-101" d="M293.6,523.69l-17.3-9.97c-4.2-2.42-7.87-4.98-10.58-9.11-4.13-6.29-10.03-18.82-5.73-23.72.67-.97.69-1.82.88-3.06,1.84,2.93,4.62,5.16,7.81,6.67,10.83,5.12,9.05,14.84,12.93,18.93,2.91,3.07,5.31,5.62,7.07,9.58,1.52,3.43,4.3,6.26,4.91,10.68Z"/>
            <path class="cls-84" d="M758.57,549.57c3.91,2.59,3.88,10.31,2.05,15.55-1.63-3.39-2.91-5.98-5.83-7.74-.26,9.63-8.27,20.98-16.93,20.83-2.13-.19-2.97-3.31-3.45-5.33-1.59-6.75,6.19-20.39,12.58-21.84,1.65-.37,1.04,2.26.85.18-.26-2.92,8.86-2.79,10.73-1.64Z"/>
            <path class="cls-105" d="M202.99,455.87c-.69,1.92-3.76,1.59-5.43,1.1-6.76-2-8.99-10.82-5.45-16.56,1.75-2.76,4.8-4.03,8.09-2.97,4.57,1.47,7.15,6.2,7.03,10.99-.08,3.29-1.56,5.94-4.24,7.44Z"/>
            <path class="cls-26" d="M327.69,534.23c.96.92.6,2.28-.21,2.75-5.09,2.96-25.94-23.24-27.14-34.99l11.68,16.37c2.14,3,4.51,5.59,7.39,7.93l8.28,7.94Z"/>
            <path class="cls-179" d="M758.57,549.57c-.08.17-.3.48-.59.4-3.36-.92-6.71-.74-9.51,1.24,2.35.04,4.3.22,5.2,1.64,1.04,1.65,1.46,4.08.17,5.41l-6.87-6.15c-4.8,2.21-7.19,6.54-9.51,10.73-3.58,6.46-2.38,9.53.39,15.36-.7-.01-1.78-.25-2.32.17-.47.36-.02,1.67-.6,2.56-4.25-7.59-2.51-16.96,3.28-23.48s13.17-12.64,20.35-7.88Z"/>
            <path class="cls-128" d="M202.99,455.87l-2.2,6.64c-4.49-2.38-8.58-5.11-10.79-9.52-2.03-4.06-.77-9.28,2.11-12.57-1.28,4.72-.81,10.22,2.81,13.8,2.18,2.16,5.56,1.95,8.07,1.66Z"/>
            <path class="cls-143" d="M821.95,510.11c-.74,1.08-2.51-1.4-2.15-2.76,1.39-5.29,4.76-13.71,6.36-13.43,1.87.33-.43,10.71-4.21,16.19Z"/>
            <path class="cls-58" d="M254.01,434.99l-13.64-2.93c-2.26-.48-4.21-1.91-4.3-4.78,3.78.27,7.6,1.55,10.99,3.57l6.94,4.14Z"/>
          </g>
        </g>
      </g>
      <g>
        <g>
          <path class="cls-152" d="M636.25,49.04c2.13,2.92,1.88,8,.21,11.28,1.44,1.41,2.37,3.6-.19,4.12-7.63-1.25-15.43-2.2-23.1-.94l-1.8,3.94c-11.86,2.09-14.95,11.75-13.29,22.76-.08.43-.2.83-.45,1.1-2.89,3.17-7.68-6.71-8.22-9.09-1.58-2.54-2.57-1.4-3.78,1.14-4.31,9.11,10.83,18.8,18.56,20.56-1.17-1.55-4.14-9.4-.99-9.81.56-.07,1.2.43,1.86,1.1,7.44,8.62,15.61,16.6,24.73,23.4,10.51,7.84,31.56,6.33,43.77,3.7,9.29-2,8.88-8.65,5.1-15.78-7.39-11.32-14.94-22.49-22.66-33.5-.72-1.17-2.12-4.3-1-5.2,2.24-1.78,14.5,4.98,17.22,6.76,27.81,18.22,53.29,39.29,75.87,62.43l8.98,10.54c32.66,37.33,58.67,79.69,77.33,125.79,15.05,37.2,26.62,87.98,27.1,127.97l.49,41.6c0,.4-.48.71-.61.73l-1.23-.71-.02-10.59c-2.95,7.19-5.73,14.46-8.33,21.82-2.42,5.93-6.23,10.92-10.92,15.23-1.68,1.54-9.13,7.98-10.76,7.02-.35-.21-.5-.75-.6-1.39.07-6.19-.55-12.3-1.87-18.32-1.48,7.03-3.45,13.95-5.93,20.76l-1.44.48c.14.29.24.58.21.86-.41,3.66-4.66,11.19-7.72,13.07,0,.46-.03.91-.14,1.33-.1.4-.22.77-.46,1.04-6.83,7.85-18.22,13.63-28.68,12.79-11.8,8.64-21.31,19.88-30.15,31.33-1.86,1.24-3.99,2-6.37,2.28l-2.08,1.18-6.96,9.12c-5.72,5.51-9.28,12.56-10.15,20.48-.28.55-.57.98-.87.99-3.99.11-2.85-10.07-2.08-12.61-.04-.9-10.19,11.6-10.96,13.33-1.91,4.26-1.6,8.34-.65,12.83-17.52,19.5-41.29,31.61-68.43,32-5.53.08-20.82-1.15-24.78-5.01-1.24-1.21-.83-1.71.34-2.89l4.75-3.54c1.06-2.03,2.22-3.96,3.48-5.79,1.38-2.1,3.42-3.82,6.12-5.15,5.2-4.06,9.93-8.63,14.19-13.72-3.34,3.27-7.02,5.96-11.06,8.08l-1.68.12c-12.64,7.71-22.99,11.37-38.19,12.2-3.06.17-11.42.02-9.24-4.15,4.23-1.46,8.34-3.16,12.32-5.08-7.92,1.38-15.87,1.91-23.86,1.6-2.44-.08-3.99-.95-4.66-2.6l2.88-1.51c18.02-1.71,35.75-5.25,50.58-16.04,14.49-10.55,22.93-25.74,29.63-42.06l1.21-.97-.28-1.34c8.52-20.62,3.7-41.67-10.78-58.25l-.27-1.33-1.34-.48c-22.41-23.27-49.02-33.25-80.27-22.34-22.09,7.71-34.31,18.03-42.76,39.68-8.58,22-9.82,43.94-1.37,66.08l-.42,2.07c-.86.93-1.74.71-2.65-.66-12.85-22.46-17.87-49.92-6.8-74.55-11.73,19.44-17.72,42.14-14.38,64.68.27,2.37-.9,4.19-3.49,5.45l-3.29,4.88c-1.12,4.87-3.36,8-8.06,9.92,3.07-.51,6.15-.97,9.24-1.39,1.3,1.33,7.58,10.32,7.39,11.5-.58,3.55-7.63,7.5-10.93,8.52-8.15,2.5-17.22.32-24.75-3.17-1.87-.86-12.87-8.39-13.33-9.97-.32-1.1.23-1.76,1.28-2.16l16.34-.94c3.1-.68,6.2-2.26,8.79-4.07-7.95-.97-15.97-1.75-24.06-2.32-12.34-2.26-23.69-7.91-34.52-14.09l-32.97-21.04c3.46,5.98,7.15,12.13,12.5,16.87,1.2,1.93,1.77,3.06-.61,3.18-31.45-1.62-58.88-18.17-77.75-43.09l-20.98-31.8c-7.82-13.63-16.69-26.57-26.6-38.83-8.44-6.89-16.67-13.91-24.7-21.07,1.85,4.69,3.88,9.32,6.11,13.92-.01,1.22-.83,1.63-1.98,1.81l-19.83-9.25c-10.79-5.08-19.76-11.84-27.71-20.68-1.05-1.16-7.56-14.18-8.27-16.17-1.04-2.91-3.86-15.92-3.95-18.83,2.76-10.41,4.44-20.95,5.05-31.63l-.6-7.59-1.19-1.53c-1.19-13.35-6.08-27.42-15.61-37.16l-.5-2.12c-4.24-4.79-8.31-9.79-12.18-14.98-3.42-2.23-7.14-4.07-11.16-5.52-2.72-4.96-4.86-10.24-6.43-15.85l-.83,2.93c-.55,4.13-.45,8.27.3,12.4-3.48.91-6.92,1.81-10.33,2.7-8.63-5.64-7.63-21.66-5.42-30.76.34-1.41,7.53-21.61,8.62-22.09,1.43-.63,2.32-.91,2.61.78-.55,7.23-.25,14.53,1.5,21.59,1.49,5.99,2.19,4.39,2.49-.58-2.55-77.68,47.23-148.34,111.95-185.66-.58.21-.58.04,0-.5l5.69-2.8c20.68-10.17,41.47-19.29,63.59-26.29C356.98,7.98,387.71,2.51,419.15.24c7.88-.57,14.98-.08,22.64.88,12.16,1.52,23.91,2.41,36.24,2.21,35.98-.58,80.11,11.48,113.8,24.52,15.65,6.05,29.96,13.51,44.41,21.19Z"/>
          <g>
            <path class="cls-77" d="M518.47,102.09c.57,1.95-3.77,3.88-5.55,4.62-13.83,5.74-29.01,4.69-39.99-6.18l-1.11.08-1.33-2.39c-.33-1.21-.47-2.14.91-2.05,6.42-16.27,27.57-15.43,40.87-7.93,5.85,3.3,9.21,7.12,6.19,13.85Z"/>
            <path class="cls-13" d="M816.44,458.89l-1.25-.47-.44-7.57c-1.2-1.01-3.33.67-4.07,2.02l-1.65,7.89-1.37.6c-2.31,6.26-5.58,12.1-10.24,17.03-11.41-3.63-13.43-25-4.6-32.43l1.41-3.76c-1.94-6.41,5.9-10.77,11.44-11.4,11.86,1.62,13.2,16.54,10.78,28.08Z"/>
            <path class="cls-139" d="M547.14,205.16c-.74,5.26-6.2,9.15-10.99,9.82-6.49.92-12.52-2.37-16.08-7.52-2.84-4.13-3.03-9.29-.54-13.45s6.66-6.38,11.9-6.03c9.04.61,16.92,8.54,15.71,17.18Z"/>
            <path class="cls-42" d="M784.61,264.81l-1.44-.8-1.94-4.39c-4-4.6-6.57-9.66-7.7-15.19-.61-1.27-1.16-2.84-1.27-4.47-.48-6.98-2.94-13.02-5.78-19.29s-5.69-12.51-9.96-18.18l8.38,7.53c5.26,4.73,8.93,10.43,12.06,16.71l10.17,20.43c4.81,9.65,9.41,19.07,11.39,30.13l-13.91-12.48Z"/>
            <path class="cls-145" d="M523.85,93.54c-.25,2.46-1.72,5.37-4.42,8.75l-.95-.2c-1.05-3.31,1.62-6.61-2.95-10.16-9.25-7.19-21.75-10.02-32.78-5.47-5.33,1.57-8.98,5.66-10.46,11.03l-1.32-.12c-.29-.03-.46.9-.46.86-3.44-6.2-1.88-14.92,4.64-18.79,7.31-4.34,15.89-5.28,24.31-4.58,8.42.7,15.94,4.22,21.24,10.76,1.74,2.15,3.22,5.14,3.16,7.92Z"/>
            <path class="cls-107" d="M694.11,456.7c-1.66,4.44-6.48,7.55-10.85,5.76-5.99-2.46-8.99-9.29-7.67-15.41.72-3.32,3.47-5.79,6.02-6.63,3.34-1.11,6.83-.2,9.35,2.15,3.73,3.49,5.05,9.06,3.15,14.13Z"/>
            <path class="cls-33" d="M282.53,421.39l-10.97-8.28c-7.49-5.65-11.02-16.27-12.91-25.98,3.66,3.33,7.27,5.4,11.63,7.08,8.91,5.73,13.83,16,12.26,27.19Z"/>
            <path class="cls-81" d="M723.04,185.15c1.49.88,2.8,2.3,3.93,4.26,2.7,2.98,5.72,5.62,9.07,7.92l.5-.66c3.67,1.83,3.88-1.58,2.91-4.71-2.51-8.15-7.14-14.96-15.3-18.07l-.43-1.61c-1.22-.64-2.06-1.56-2.59-3.04l-4.2-11.61c-1.8-4.98-4.38-8.42-8.07-12.33,4.74,3.08,8.88,6.61,12.59,10.74l11.92,16.88,7.61,10.76c3.68,5.2,4.98,13.43,2.16,15.87-.95.82-2.28.79-3.59.87-9.04.53-13.67-6.41-17.21-14.63-.16-.37.39-.79.7-.64Z"/>
            <path class="cls-76" d="M417.53,462.76l-1.6.05c-7.3-10.12-18.41-13.51-24.21-.26,1.61.29,1.45.86-.14,1.17-.93.54-1.95.4-3.05-.43-1.58,12.61,12.95,18.25,23.02,12.96l-.11-1.58c1.92-1.49,3.64-3.16,5.16-5.02l1.5-.11c-.35,3.49-1.36,7.27-4.43,9.56-5.59,4.17-13.97,4.84-20.02,1.15-9.71-5.93-11.37-23.46-1.93-29.97,4.98-3.43,11.32-3.39,17.1-.52,4.42,2.19,7.98,7.3,8.72,13Z"/>
            <path class="cls-23" d="M232.67,93.27c1.45.86.96,2.52.54,3.9-1.85,6.05-22.82,24.46-28.43,23.22-1.37-.3-1.4-.71-.54-1.92-.62-1.25-.78-1.93-.55-3.26,1.35-7.8,13.44-15.62,19.69-19.52,3.04-1.32,5.93-2.75,9.28-2.41Z"/>
            <path class="cls-110" d="M825.41,349.31c2.83,7.85,2.62,22.38-2.93,25.55-.59-.03-.96-.36-1.34-.76-4.48-4.61-9.72-27.62-5.27-32.64,4.18-4.72,8.36,4.5,9.01,7.9l.54-.05Z"/>
            <path class="cls-116" d="M723.73,172.28c11.13,5.81,11.02,5.95,16.67,18.74.93,2.11,1.14,5.32-.42,6.89-1.4,1.4-2.95-.15-3.94-.59-7.25-4.73-16.06-14.34-15.56-23.56.03-.46.67-.76,1.2-.95.67-.14,1.25-.59,2.05-.54Z"/>
            <path class="cls-91" d="M313.41,58.06c-4.09,2.98-8.31,4.39-12.95,5.2-2.63.46-4.48,1.94-7.7,1.6,3.34-.9,4-3.71,5.96-5.79,6.85-7.29,16.21-11.41,25.82-13.92,10.95-2.86,21.51-4.99,32.98-4.93-4.29,1.42-8.7,1.91-13.31,2.54-7.07.96-13.39,3.08-19.95,5.74-7.12,2.89-13.94,5.77-19.48,11.14,3.02-.89,5.7-1.74,8.64-1.58Z"/>
            <g>
              <path class="cls-71" d="M549.19,437.94c-8.58,4.07-15.14,10.02-22.41,16.13,5.1-9.2,10.48-17.42,14.32-26.99.51-1.28,2.01-2.07,1.75-4.02l-6.56,5.26c-1.04-8.89,7.4-19.5,15.32-20.87,3.21-.56,7.45-2.85,10.79-1.82,5.77,1.78,10.79,4.06,16.82,4.82,2.54.32,5.91.86,7.85,2.44.2,3.43-6.7.87-14.57,3.92-3.65,1.41-6.78,3.89-8.48,7.42-3.1,6.43-8.22,10.57-14.84,13.71Z"/>
              <path class="cls-99" d="M656.82,531.43c-.53-.34-.91-.53-1.41-.97l-.65-1.76c1.37-4.1,1.73-8.44,1.98-12.73l1.31-1.39c-.06-14.85-4.22-28.84-13.22-40.75l-.49-2.59,1.13-.74c7.56,7.8,12.85,17.02,15.5,27.71,2.29,11.45.74,22.72-4.17,33.22Z"/>
            </g>
            <path class="cls-5" d="M417.53,462.76c.3,2.31.82,4.29.57,6.78-1.49,2.75-4.19,4.41-6.55,6.71-.74.43-1.24.41-1.49-.06-4.01.39-2.83-1.35-.6-3.51,7.1-10.34-9.66-18.66-16.32-9.74l-1.42-.39c.79-6.41,6.09-11.23,12.76-9.72s9.07,5.59,13.05,9.93Z"/>
            <path class="cls-172" d="M816.44,458.89c-.98,6.36-3.95,12.14-9.54,15.97-1.8,1.23-3.99.46-4.9-1.28v-.93c2.32-3.54,4.2-7.3,5.66-11.29l1.6-8.08c.55-2.75,4.24-4.83,6.64-3.76l.54,9.35Z"/>
            <path class="cls-157" d="M805.65,430.81c-.78,1.01-2.03.9-3.55,1.48-2.94,1.13-6.65,4.21-7.25,7.45,2.64,6.4-4.33,8.51-5.64,13.72-1.9,7.55.18,21.67,7.93,23.99,4.65-4.27,7.48-9.71,9.75-15.62-.57-.55.21-1.49.77-.47-.89,4.46-2.91,8.54-5.66,12.21l-4.57,6.11c-4.08-1.05-7.42-4.41-8.96-8.63-4.32-11.85-1.87-25.12,5.88-35.04,2.79-3.57,6.95-5.81,11.31-5.22Z"/>
            <path class="cls-8" d="M559.92,196.5c7.93,4.81,1.44,15.36-6.99,11.32-3.7-1.77-6.81-7.38-3.69-10.52,2.87-3.4,7.31-3.07,10.68-.81Z"/>
            <path class="cls-9" d="M523.85,93.54c-.38,16.69-25.3,21.91-42.67,14.54-3.98-1.69-7.4-3.95-9.35-7.47.11-.44.19-1.14.62-1.49.71-.58.94.49,1.39.91,11.19,10.27,27.8,11.81,40.91,4.35,1.53-.87,2.66-1.25,3.73-2.29,4.98-4.87,4.31-8.4,4.64-8.69.17-.15.65-.15.74.14Z"/>
            <path class="cls-74" d="M591.21,370.58c.82,3.16,0,6.45-2.73,7.93-2.24,1.22-5.52.85-7.62-1.24s-2.1-5.51-.4-8.21c1.34-2.11,3.21-3.67,5.62-3.39s4.37,2.01,5.12,4.91Z"/>
            <path class="cls-137" d="M724.18,534.5l-5.43,6.97c-4.12-6.56,2.04-12.43,8.54-16.41,2.47-1.51,5.4-1.64,6.95,1.04l-10.05,8.4Z"/>
            <path class="cls-173" d="M493.33,36.83l.18,1.49c-5.56,2.18-17.72,1.41-22.68-1.66-1.42-.88-3.57-2.46-2.21-4.01,8.41-1,17.41.04,24.72,4.18Z"/>
            <path class="cls-66" d="M825.41,349.31c-.19.11.37.79-.48,1.4l-3.85-7.67c-.62-1.23-2.22-1.56-3.26-1.36-4.23.83-2.39,15.11-.46,22.7,1.03,4.06,2.81,7.56,5.12,10.47-3.49,1.99-10.93-15.53-8.45-31.81.32-2.08,1.05-4.76,2.77-5.91,3.43-2.3,7.36,5.86,8.61,12.17Z"/>
            <path class="cls-89" d="M612.6,153.28c.68,2.09-.71,4.39-2.99,4.38-4.84,0-9.51-3.68-9.99-8.47-.14-1.42.62-2.63,1.27-3.14,1.28-.99,2.47.53,3.52.85,3.61,1.1,6.83,2.19,8.18,6.37Z"/>
            <path class="cls-14" d="M774.58,435.79c-1.08,1.44-1.6,2.87-2.2,4.9-3.85-4.23-3.31-10.05-.25-14.7,1.33-2.01,2.98-3.95,5.73-3.64,1,4.81-.42,9.62-3.28,13.44Z"/>
            <path class="cls-106" d="M686.52,515.51c1.52,11.61,1.78,16.99-7.08,27.27,4.35-12.18,5.36-24.46,5.75-37.41l1.33,10.14Z"/>
            <path class="cls-73" d="M202.1,115.81c1.37-.85,2.09.03,2.14,2.66.27.33.46,1.09,1.1,1.05,5.79-.31,18.23-11.67,23.96-17.71,2.39-2.51,3.86-5.18,3.37-8.53,6.76.68-6.03,18.22-23.77,26.68-2.39,1.14-5.51,2.2-7.7.26-.67-1,.43-3.43.9-4.41Z"/>
            <path class="cls-72" d="M784.61,264.81l1.19,6.28c-6.79-6.89-10.62-15.96-12.82-25.26-.14-.59.42-1.29.56-1.4,1.55,3.25,2.98,6.71,5.36,9.77,2.56,3.29,4.96,6.64,5.71,10.61Z"/>
            <path class="cls-159" d="M698.6,518c-.12,3.82-2.32,6.81-5.36,9.01l.72-19.14c2.84,2.73,4.77,6.03,4.64,10.14Z"/>
            <path class="cls-125" d="M384.49,429.32c-.87,2.52-3.81,2.98-5.73,2.48s-3.27-2.41-3.54-4.54c-.24-1.88.7-4.57,3.16-5.01,3.62-.65,7.37,3.39,6.11,7.07Z"/>
            <path class="cls-112" d="M452.74,336c3.55,2.89,7.22,7.43,5.42,9.58s-8.86-.51-9.89-6.75c-.2-1.24.53-2.28,1.14-2.72.71-.5,2.48-.8,3.33-.11Z"/>
            <path class="cls-46" d="M773.47,487.3c2.32,4.88,5.55,3.99,7.13,6.6-2.24.15-4.04.12-6.23-.33-5.5-1.14-8.62-8.44-5.13-13.05,2.35,1.97,3.14,4.49,4.23,6.78Z"/>
            <path class="cls-7" d="M445.73,291.11c-.3,1.41-4.01.99-4.05-.21-.18-5.2,3.67-13.08,9.56-13.72-2.72,4.33-4.37,8.56-5.51,13.93Z"/>
            <path class="cls-38" d="M223.39,95.69c-.44,1.22-1.56,1.74-2.58,2.47-7.46,5.39-15.62,11.45-16.57,20.31l-2.14-2.66c5.2-10.97,9.9-15.19,21.29-20.12Z"/>
            <path class="cls-97" d="M493.33,36.83c.9.51,1.67,1.83,1.25,2.6-9.73,1.41-20.89,1-29.26-3.89.43-1.22,1.63-2.69,3.29-2.89,2.85,5.06,10.63,5.73,17.38,6.37,2.8.27,5.43-.26,7.34-2.19Z"/>
            <path class="cls-56" d="M649.05,236.44c-4.41,4.97-7.38,9.26-9.63,15.04-1.74-3.46-1.49-7.13.97-10.61,1.66-2.36,4.97-5.16,8.66-4.43Z"/>
            <path class="cls-100" d="M721.68,172.82c-1.4,8.29,5.81,16.79,12.6,22.48.99.41,1.57,1.19,1.76,2.03-5.68-2.47-10.2-6.67-13-12.18-2.25-4.42-4.9-11.58-3.18-11.94l1.82-.39Z"/>
            <path class="cls-139" d="M549.24,197.31c-1.59,3.61-.1,7.41,3.28,9.53,3.14,1.97,6.9,1.48,9.03-1.5,1.95-2.72.9-6.45-1.63-8.84,3.33-.04,4.65,4.12,4.42,6.8-.36,3.47-3.19,5.77-6.67,6-3.26.22-6.32-1-8.22-3.36-2.92-3.62-2.19-9.29-.8-8.84.15.05.46.37.59.2Z"/>
            <path class="cls-15" d="M497.26,131.04c-9.49,2.9-19.73,1.29-27.92-4.53,9.08,2.98,18.3,3.84,27.92,4.53Z"/>
            <path class="cls-107" d="M270.04,325c-2.07-4.92-2.6-10.25.74-12.47,1.55-1.03,3.44-1.04,4.77.49-2.65,3.81-3.85,7.47-5.5,11.98Z"/>
            <path class="cls-3" d="M447.72,303.67c-2.13-3.97-2.06-8.35-1.21-12.36.31-1.45,3-1.98,4.46-1.68l-3.25,14.04Z"/>
            <path class="cls-162" d="M812.52,394.3c2.06,2.11,3.1,6.63.91,8.69-1.95.48-3.7-1.96-4.3-3.28-.73-1.61-1-4.64.46-5.99.77-.71,1.98-.4,2.93.58Z"/>
            <path class="cls-52" d="M368.22,265.63c-1.7,1.21-4.59,2.53-5.61.08-.7-1.69,1.57-3.59,2.63-4.61,1.53-1.46,3.09-1.25,4.21-.07,1.48,1.54.79,3.15-1.24,4.6Z"/>
            <path class="cls-28" d="M489.85,65.93c-8.26,1-15.58,1.69-22.78,5.61,4.11-5.14,16.32-7.24,22.78-5.61Z"/>
            <path class="cls-135" d="M539.28,101.37c.11,3.19-.54,5.88-2.99,7.85.96-4.38,1.31-8.21,1.33-13.09,2.42,2.05,4.25,4.37,4.66,7.66l-3-2.42Z"/>
            <path class="cls-31" d="M582.94,390.88c-.98.77-2.35,1.68-3.18,1.08-.63-.46-1.83-1.5-1.79-2.48.04-1.19,3.63-3.77,5.46-1.97,1.11,1.1.96,2.24-.49,3.37Z"/>
            <path class="cls-41" d="M385.64,490.67c3.46,1.29,7.49,3.16,7.3,4.71-.08.66-.88,1.22-1.9,1.14-3.08-.24-4.95-2.73-5.4-5.85Z"/>
            <path class="cls-25" d="M469.69,132.9c-2.05.23-3.43-.56-5.08-1-2.14-.66-3.9-1.95-4.38-4.3,3.63,1.36,6.53,3.18,9.46,5.3Z"/>
            <g>
              <path class="cls-111" d="M698.25,251.64c7.9,1.83,15.76,5.33,22.24,10.72,14.78,12.3,22.94,24.66,29.79,42.45,6.07,15.74,7.87,39.15-6.59,49.33l-3.31.39c-1.36.16-2.38.38-3.3-.3-.27-1.46.16-3.09,1.3-4.88.45-2.04,1.09-3.83,1.9-5.39l-.07-2.21c-1.31-1.02-.88-5.45.56-6.31.46-2,.46-3.96-.01-5.86l-.76-1.13c-1.85-18.31-10.67-35.01-22.48-48.86l-.27-1.35c-.6.97-1.54.82-2.82-.46-9.91-10.82-23.69-16.21-38.24-15.83-1.89-.09-3.48-.58-4.76-1.46-.27-.49-.59-1.18-.31-1.48,2.73-2.9,10.31-7.1,14.25-7.47.06,0-.97.3-1.04-.33.24-.58.59-1.27,1.15-1.35,3.98-.59,9.38-.08,12.76,1.8Z"/>
              <path class="cls-167" d="M700.22,394.44c-1.97-.91-3.17-1.87-2.91-4.23-10.15-4.37-18.86-10.76-27.2-18.37-.81.75-.94,1.83-1.17,3.17-5.17-3.22-9.53-7.24-12.55-13.08l5.84.15c-10.11-13.93-19.15-34.81-19.78-51.61l-.78-20.65,5.68,20.66c5.06,13.36,11.58,25.8,20.42,37.05,8.99,11.45,19.94,20.24,32.39,27.61,10.31,6.1,21.13,9.7,33.45,10.9-6.68,4.55-14.23,5.94-22.73,6.7l12.79,5.85c-7.94.18-15.85-.61-23.45-4.13Z"/>
              <path class="cls-98" d="M698.25,251.64c-4.51-1.04-9.56-1.41-13.9-.45l-.63.7c-19.41,5.6-25.5,25.83-20.95,43.72l-.45,5.26,1.83,2.13c9.37,31.36,40.55,67.57,76.25,55.17,2.42-1.72,4.84-3.68,8.19-5.2-9.87,12.7-27.8,14.6-42.51,7.06-6.48-3.32-13.58-6.07-18.93-11.06-7.4-6.9-12.9-15.43-18.3-23.88l-8.85-17.52c-3.39-6.72-5.17-13.87-6.23-21.32-1.32-9.3,1.65-17.95,7.25-25.14,3.97-5.1,8.76-8.03,15.05-9.54,3.81-.92,7.38-3.05,11.45-3.01,4.31.04,8.25,1.45,12.17,2.42-.61.56-1.12.43-1.46.68Z"/>
              <path class="cls-20" d="M664.84,294.96l1.19.77c2.78,15.29,11.19,31.42,22.18,42.49,4.71,4.75,8.59,8.12,14.13,11.92,6.08,4.18,13.19,6.36,20.4,7.48,3.34.52,5.94.9,8.53-1.37,3.66-3.22,6.45-10.26,7.27-15.03,1.49-1.23,2.08-.33,1.76,2.7-.35,3.58-.88,7.49-3.21,10.27l-3.65,4.38,6.96-.43c-2.58,1.84-5.38,3.4-9.07,3.73-22.85,2.08-43.35-13.23-55.65-32.06-5.98-9.16-10.82-18.63-13.36-28.98,0-2.17.22-4.3.69-6.41l1.22-.95c.87-.46,1.07.03.61,1.46Z"/>
              <path class="cls-124" d="M778.2,362.63c.19.45.35.89.43,1.36.51,2.88-5.1,14.79-8.63,17.21-4.06,1.54-7.91,3.17-12.63,3.26l-9.49.17c-.91.7-1.64-.72-.58-1.03,14.47-4.31,17.75-16.09,20.81-29.98.14-.65.65-1.08,1.24-1.37.31.25.34.51.23.99-.17.72.37.07,1.56-.89,1.03,4.73.4,9.51-.03,14.6,3.09-.82,5.39-2.18,7.09-4.32Z"/>
              <path class="cls-126" d="M769.35,352.25c-1.35,13.98-6.39,27.17-20.77,31.99-.61.21-1.16-.06-1.29-.64,16.51-9.89,21.39-28.27,21.06-46.63.68,1.47.91,3.06.92,4.49l.07,10.79Z"/>
              <path class="cls-165" d="M770,381.2l2.32-4.57c2.51-4.69,4.44-9.19,5.88-14l3.58-11.93c1.08,7.83-.2,15.37-3.09,22.43-1.67,4.09-5.04,6.69-8.69,8.07Z"/>
              <path class="cls-17" d="M669.77,235.22l-14.15,6.83c2.53-5.29,8.77-7.9,14.15-6.83Z"/>
              <path class="cls-75" d="M739.09,326.71c.27-.03.53-.02.73.09.28.16.52,5.42.55,6.4.19,5.26-.38-.97-.2-3.13.02-.18.27-.35.6-.51.64.76.73,1.93.61,3.17l-1.09,11.21c-.14-.72.16-1.66-.63-2.69-.19,6.03-6.61,16.94-10.17,17.63-4.42.85-8.95-.28-13.18-1.65-2.69-.87-5.47-.72-7.81-2-9.74-5.32-18.26-11.69-24.73-20.57l-3.8-3.64c-5.54-8.62-15.87-28.3-15.12-36.06-.1-6.59,3.91-13.4,9.69-16.77,13.51-7.89,30.17,3.41,40.24,12.65,10.35,9.49,19.95,22.52,24.32,35.86Z"/>
              <path class="cls-140" d="M717.25,278.22l.83,2.16c11.03,12.91,19.62,29.04,21.65,45.79.02.15-.27.34-.64.54-10-19.87-25.1-40.42-46.59-48.59-10.02-3.81-21.22.18-25.02,10.2l-2.64,6.64c.06-.6-.08-1.2-.61-1.46l-1.39-1.5c-1.28-10.53.23-21.5,7.33-29.77-.87-.73-.13-1.92,1.27-1.77,2.03-.85,4.25.42,6.32.37,14.47-.34,27.72,5.53,37.49,16l2.01,1.38Z"/>
              <path class="cls-147" d="M684.35,251.19c.81.11,1.76-.29,2.64.7-2.28-.44-3.27.76-4.79,1.44-4.15,1.84-8.33,3.39-10.75,7.14-.33.51-.57,1.18-.18,2.08-7.65,10.08-8.38,18.93-7.03,30.97.25,2.21-1.24,4.05-1.91,7.36l-2.24-14.81c-.5-7.79,1.39-15.61,5.56-22.2s11.02-10.96,18.7-12.66Z"/>
              <path class="cls-177" d="M740.77,329.56c.13,2.06.14,4.24-.46,6.33l-1.22-9.18-1.98-9.98c-4.03-13.19-10.53-25.06-19.46-35.54-.83-.97-1.09-2.3-.4-2.97,12.83,13.95,22.3,32.32,23.51,51.34Z"/>
            </g>
            <g>
              <path class="cls-117" d="M516.27,303.59c.72,4.56.05,9.71-2.11,13.97l-.82.21c-1.37,2.71-5.56,7.77-9.2,8.67-1.69.42-2.61.64-1.91-1.47,2.08-1.43,3.15-2.67,3.22-3.74l-.32-1.48c10.38-17.91-21.09-31.97-30.76-15.7l-1.57.46c-.83.43-1.19.32-1.77-.15-3.6-2.99.57-10.23,2.84-12.96,13.43-16.15,37.62-6.36,42.39,12.18Z"/>
              <path class="cls-39" d="M515.96,301.59l-.69-.42c-6.66-22.84-42.5-24.52-45.91.75-2.89,21.45,21.17,32.85,38.12,22.61l.85.13c-1.41,6.88-12.73,7.35-20.84,5.92-6.43-1.13-11.96-4.01-15.94-9.16s-7.07-11.33-5.75-18.09,4.8-13.45,9.35-18.77c5.32-6.23,18.65-13.46,25.81-11.41,8.77,2.51,15.75,9.35,18.68,17.85l-3.68,10.57Z"/>
              <path class="cls-120" d="M515.96,301.59l.32,2c.06.81-1.25.61-.73-.24-2.59-6.54-6.63-12.6-12.79-16.02-11.38-6.32-25.47-1.84-31.06,9.61-1.4,2.86-1.05,5.49,1.12,7.59l.85,1.24c-2.77,15.02,19.1,26.55,30.16,15.37l1.64.11c.8-.11,1.02.42.62.86l-3.58,3.97c6.95-1.6,10.58-8.88,11.35-9.14.16-.06.45.19.32.63-1.41,2.78-3.6,5.14-5.83,7.1-3.87,3.4-8.73,4.42-13.83,4.77-12.7.86-23.58-7.28-26.18-20.03-1.48-7.26.98-15.55,6.51-20.82,9.81-9.35,25.17-8.19,34.28,1.41,3.3,3.48,6.14,7.17,6.84,11.6Z"/>
              <path class="cls-156" d="M524.92,334.34c-3.44,5.47-14.03,12.38-20.39,12.06,6.17-2.37,10.13-6.05,14.18-10.35,5.16-5.5,8.43-11.49,9.8-19.4.79,6.16-.22,12.35-3.58,17.7Z"/>
              <path class="cls-47" d="M505.45,321.25c-4.19,4.32-10.22,6.63-16.34,5.35-10.74-2.25-20.01-13.24-16.3-22.06,4.29-10.21,18.68-11.58,29.08-4.12,6.44,4.63,9.25,14.97,3.57,20.83Z"/>
            </g>
            <path class="cls-178" d="M410.05,476.2c-4.18,3.73-12.98.82-16.5-3.26-1.49-1.72-4.06-7.73-1.98-9.21l.14-1.17,3.9-3.41c6.11-3.51,15.94.72,16.78,7.53.43,3.52-1.26,6.66-4.23,9.01.49.45,1.26.44,1.89.51Z"/>
            <path class="cls-18" d="M391.57,463.73c.71,3.22,1.16,7.2,4.08,9.62,3.97,3.28,9.82,3.91,14.4,2.85.51-.12.87-.23,1.49.06-5.1,4.99-14.11,4.01-19.7-.91-3.92-3.45-5.65-8.24-4.38-13.43,1.78-.01,2.94.95,4.11,1.81Z"/>
            <g>
              <path class="cls-65" d="M318.99,309.95l.13.94c11.33,3.51,18.12,22.64,7.54,31.24-1.54,1.25-5.1,3.78-6.61,2.15l-.52-1.43c11.73-14.19-5.11-30.44-17.49-16.49l-1.42-.34c-.26-.21-.51-.44-.7-.7-.96-1.3,1.94-5.54,2.93-6.88-2.42.71-4.25.39-5.49-.97,2.02-4.11,8.46-6.99,13.08-7.64,3.61-.51,1.78.72.05.03-.16-.06-.23-.34-.27-.68,2.92-.53,5.87.01,8.77.77Z"/>
              <path class="cls-167" d="M300.63,326.02c1.09,1.12.82,1.44-.71,1.2-2.59,4.9-3.97,9.77-.73,14.79,2.71,4.2,11.21,6.65,13.85,5.49,1.66-.62,9.69-1.96,7.38,1.16s-11.91,3.15-15.41,3.04c-11.43-2.33-17.52-14.98-13.87-25.93l.53.23c.94-3.1,2.8-7.3,5.68-8.53,3.05.16,6.03-.19,9.21-1.04-2.98,2.69-5.34,5.73-5.95,9.59Z"/>
              <path class="cls-141" d="M305.03,351.7c.32-.29.94-.78,1.55-.68,5.03.84,9.6-.51,13.65-3.41l-7.17-.12c.11.54-.01.53-.36.04-.54-.91-.41-1.13.3-1.61.99-.68,5.69-1.53,7.06-1.66,3.19-1.21,6.85-3.12,8.85-6.31,4.95-7.9.08-18.8-7.17-25.25l-3.22-1.77c-.5-.41-.4-.86.48-.99,7.59,1.97,12.62,7.69,13.85,15.6,2.2,14.16-9.23,27.26-23.74,26.72l-4.08-.57Z"/>
              <path class="cls-141" d="M310.22,309.19c.69.22,1.95-.2,2.68.96-6.4.57-11.5,3.09-15.53,7.32-2.39,2.5-4.4,5.52-5.57,9.06-.09.26-.84-.2-.64-.76,2.91-8.74,10.07-14.94,19.07-16.59Z"/>
              <path class="cls-79" d="M320.06,344.28c-1.74,2.58-6.06,1.93-7.36,3.27-10.59,1.47-18.94-11.09-12.77-20.33.08-.34.45-.96.71-1.2,2.46-2.29,5.15-5.41,9.17-6.11,6.25-1.1,13.62,3.41,14.8,9.88.97,5.35-1.84,10.52-4.54,14.5Z"/>
              <path class="cls-68" d="M299.92,327.22c-.91,3.7-1.55,8.18.25,11.97,2.39,5.02,7.43,7.54,12.52,8.35l.36-.04c.06.22.19.62.1.93-8.51.36-15.24-2.48-16.91-10.55-.84-4.03.86-8.09,3.69-10.67Z"/>
            </g>
            <g>
              <path class="cls-122" d="M219.92,184.56c1.05,1.33-.2,2.9-.23,4.45-.21,13.14,2.12,27.13,9.83,37.78,5.78,7.99,20.05,17.91,29.05,21.66,16.59,6.91,34.39,8.46,52.3,7.03,11.18-.9,20.94-4.86,31.39-9.1-12.74,10.19-31.52,16.75-47.45,20.1-22.51,4.73-45.35.37-64.39-12.41l-7.85-3.94,7.66,12.05c1.17,1.84,3.15,3.19,3.3,5.76-9.61-4.96-17.88-12.36-22.3-22.22l-1.76-5.64-4.81-9.73c0,4.09-.59,8.65,1.42,12.52,1.51,2.9,3.3,5.52,2.44,9.32-5.01-2.26-8.09-6.35-10.58-11.04-5.18-9.76-5.61-20.37-2.2-30.92,2.2-6.84,3.64-13.68,7.27-19.76-.15,7.58-.88,14.54,1.53,21.46-.17-5.03.12-8.17,2.25-11.94,3.14-5.58,4.02-12.07,6.07-18.07,1.73-5.06,4.72-9.5,8.32-13.36l.94,1.05-5.55,16.92c-4.64,16.41-5.04,36.46,6.97,49.86-9.07-14.92-9.73-32.97-5.44-49.61.11-.41.4-.79.71-1.17s.72-.74,1.13-1.07Z"/>
              <path class="cls-10" d="M362.8,105.26c3.61,1.29,6.89,3.49,9.91,5.79,1.76,1.54,14.46,16.35,10.77,18.59-.29.18-.77.06-1.3-.14-5.16-4.9-11.29-8.58-17.98-10.95-1,1.33-3.78.28-3.72-1.38-41.25-4.85-81.42,16.74-104.03,50.86l.41,1.39c-3.65,4.67-6.5,9.94-8.57,15.81l-1.67,1.18c.15,1.35-1.58,9.49-2.01,9.74-.25.14-.56.16-.89.15,0-2.12-.63-4.13-1.34-6.33-3.36-10.41-4.37-22.97,1.38-32.17,5.28-8.46,10.82-16.47,18.14-23.54,16.68-16.1,37.62-27.48,59.96-32.63.31-.39.64-.76,1.03-1.06.36-.29.72-.54,1.12-.64,11.93-3.05,27.23-.54,38.42,3.9l.39,1.44Z"/>
              <path class="cls-163" d="M258.27,234.56l2.22-.48c35.88,10.28,76.5-8.44,101.64-34.21,16.88-17.31,32.02-44.05,24.02-68.35l.55-1.97,2.18-3.02c2.75,1.7,4.65,4.34,6.97,6.66,4.26,4.26,6.73,9.06,6.08,15.26-.93,8.81-2.83,17.33-6.9,25.53-7.8,15.69-18.33,30.1-31.44,41.74-21.8,19.37-61.44,35.94-89.66,27.81l-12.64-5.68c-1.42-.64-2.49-2.05-3.03-3.29Z"/>
              <path class="cls-40" d="M386.71,129.56c2.5,6.15,3.74,12.74,2.76,19.69-1.06,7.52-2.63,14.88-5.82,21.84-11.77,25.66-34.43,45.19-59.78,57.09-15.58,7.31-31.97,11.04-49.15,9.84-5.85-.41-11.33-1.4-16.44-3.45l-4.6-2.57c-5.46-3.05-10.39-7.18-12.84-13.16,2.84,1.66,3.71,4.7,7.22,5.53-5.26-7.2-6.47-20.78-4.33-28.06l2.91-9.88c1.17-1.32,1.86-.14,1.9,1.45-3.72,12.63-3.35,35.48,11.01,40.79,21.75,8.05,47.13,2.05,66.82-8.9l2.04.08c25.54-14.86,52.73-41.76,55.77-72.51,1.11-11.23-2.08-16.32-11.28-22.45l-8.29-4.7-.38-1.62c7.15,1.33,13.22,5.36,18.99,10.53-1.93-7.24-6.44-12.65-11.07-17.74.21-.27.42-.27.6-.29,6.24,4.77,11.04,11.21,14,18.5Z"/>
              <path class="cls-54" d="M323.84,86.91c3.48-.12,6.38,3.31,2.18,4.66l-1.42,1.39-5.97,1.32c-5.82,2.3-11.77,3.88-17.83,4.76-5.89,2.03-11.17,4.78-16.69,8.02-13.55,7.94-25.6,17.57-36.49,28.93-12.93,13.49-22.87,30.65-27.7,48.58-7.3,27.11-2.34,49.48,18.63,67.39-7.35-4.46-12.8-10.55-17.86-16.97-10.32-13.09-10-34.62-4.79-50.45l5.26-15.96,4.78-8.41c11.01-19.4,26.05-35.79,44.22-48.76,16.35-11.67,34.16-20.27,53.68-24.49Z"/>
              <path class="cls-81" d="M378.27,222.57c-.17-.26-.3-.53-.32-.8-.03-.51,6.44-7.03,7.7-5.62.55.95.29,2.22-.07,3.27l-7.29,21.05c-2.87,8.28-15.8,20.88-22.62,15.29l-5.53,1.22-18.25-.02c2.13-2.12,4.54-2.84,6.99-3.97,5.62-2.61,10.53-5.89,15.47-9.65l15.99-12.17,6.58-6.27c.78-.75,1.33-1.45,1.36-2.33Z"/>
              <path class="cls-102" d="M341.08,84.2c6.47-.23,13.01-.52,19.63-.86,14.46,1.38,32.14,9.58,39.43,22.54,9.64,11.9,13.61,26.68,12.19,41.95-1.17-1.99-.75-4.3-1.06-6.75-1.23-9.63-4.65-18.47-10.3-26.53-5.36-7.65-13.16-13.4-21.58-17.52-3.21-.22-6.35-1.04-9.44-2.47-14.23-3.57-28.6-4.18-43.11-1.84l-.82-1.16c.63-.67.93-1.5.77-2.12-.33-1.31-2.09-1.15-2.95-2.55,5.71-1.23,11.29-2.76,17.25-2.71Z"/>
              <path class="cls-131" d="M379.38,97.04c-5.89,1.79-13.38,1.31-20.43,3.75,3.37,1.37,6.68,2.14,8.74,4.69-2.27-.28-3.47-1.57-4.89-.22l-8.3-2.95c-10.69-2.72-21.99-3.15-32.66-.68-.36-.69-.8-1.95-1.54-2.42-4.82-1.13-8.85,1.64-11.7-.82-2.46.71-5.36,1.5-7.81.64l9.96-3.43c5.04-1.74,9.94-3.59,15.26-4.02l20.38-1.68c11.56.02,22.59,2.06,32.98,7.15Z"/>
              <path class="cls-153" d="M400.14,105.88l-8.72-8.62c-9.18-7.98-20.77-11.78-32.93-12.92l-17.4-.14c-.02-.56.35-.56,1.01-.58l13.44-.34c11.93-2.9,19.82-7.33,33.16.2,2.04,1.15,3.97,2.94,4,5.23-7.76-2.39-14.61-5.32-22.75-4.71l16.89,6.81c6.58,2.65,11.27,8.22,13.29,15.07Z"/>
              <path class="cls-11" d="M385.65,216.16l-7.38,6.42c-2.88,1.43-4.69,4.34-8.26,5.36,7.33-6.57,13.74-13.22,19.53-21.01l8.95-12.04c-2.82,8.14-7.62,14.83-12.84,21.28Z"/>
              <path class="cls-21" d="M328.39,219.84c-4.45,3.25-10.11,5.44-15.63,7.59-10.98,4.29-22.5,6.16-34.29,6.13-7.97-.02-15.46-1.74-22.42-5.12-3.79-1.85-5.82-4.93-7.27-8.73-3.89-10.16-4.93-21.03-1.53-31.47.25-.76-.2-1.76-.62-1.82,1.41-4.79,3.98-9.16,6.34-13.79.98-1.94,2.22-3.11,3.5-4.58,3.58-5.51,7.81-11.66,12.87-15.93.46-.38,1.21-.18,1.82.07,18.4-17.33,56.42-32.31,80.17-19.18,18.36,10.15,15.91,33.5,8,49.99-6.71,13.98-17.64,28.78-30.93,36.85Z"/>
              <path class="cls-24" d="M364.2,118.55c7.07,4.09,16.56,8.03,20.13,16.93,2.29,5.72,1.11,14.3-.59,20.4-4.85,17.42-14.72,32.76-27.78,44.89-7.83,7.27-18.09,15.67-27.58,19.07,5.34-3.9,9.64-8.95,14.17-13.99,8.36-9.3,14.68-19.52,18.93-31.3,3.62-10.03,3.85-20.84-.93-30.52-5.74-11.63-20.21-15-33.17-14.52-13.37.49-25.84,4.45-37.5,10.78l-18.74,11.89c-.56-.06-1.31-.5-1.17-.83.82-1.86,7.93-7.65,9.68-9.01,24.27-18.85,50.12-28.6,80.83-25.17,1.51.35,2.57.71,3.72,1.38Z"/>
              <path class="cls-136" d="M360.48,117.18c-.4.73-1.44.68-2.41.68-9.38-.05-18.2-.29-27.48,1.39-21.73,3.92-41.14,14.64-57.01,29.79-1.13,1.08-2.59,1.43-2.43,3.15-6.1,3.87-10.02,10.45-14.69,15.86-.09-1.11.64-1.91,1.3-2.93,7.43-11.41,16.77-20.54,27.79-28.54,20.97-15.23,49.85-25.17,74.93-19.39Z"/>
            </g>
          </g>
        </g>
        <g>
          <path class="cls-95" d="M748.08,137c-1.57-.24-2.57-1.43-3.74-2.57l-13.39-13.02c-18.18-16.04-36.71-31.24-57.09-44.35-5.87-3.78-11.48-6.96-18.41-8.6,1.2,4.28,3.57,6.93,5.78,10.12l14.77,21.28c2.36,3.4,4.36,6.89,5.87,10.65,2.33,5.79-1.11,10.96-6.94,12.67-9.46,2.78-19.18,2.7-29.12,1.93-6.75-.52-12.62-2.32-18.02-6.46-9.15-7.03-17.09-14.95-24.73-23.93-.53,4.66,1.93,7.69,3.77,11.57l-10.21-4.15c-5.62-2.28-9.85-6.65-12.2-12.27-1.7-4.05-.2-8.83,3.81-10.86,4.49,3.09,2.7,9.8,8.79,11.77-.86-5.58-.78-11.29,1.72-16.37,2.28-4.64,6.88-6.86,11.93-7.82.45-1.11.79-4.03,2.36-4.3,8.07-1.37,16.1-.29,24.31,1.09l-2.5-3.19c3.34-4.19.69-6.94,1.44-11.16,11.58,6.16,22.83,12.83,33.59,20.87l34.38,25.68c13.75,11.49,26.99,22.9,39.25,35.97l4.62,5.45Z"/>
          <path class="cls-1" d="M672.01,108.63c-.67,3.43-3.17,8.81-7.15,6.9-2.25.52-3.09-.73-2.52-3.75-4.81-17.56-26.88-29.33-44.26-30.17l-1.45-1.14c-1.54-.73-1.6-2.26-.2-4.6,1.46-1.99,3.17-3.38,5.11-4.16,8.35-.95,18.61,2.84,26.41,7.27,9.01,5.11,16.61,12.02,21.77,21.04,1.56,2.73,2.23,5.53,2.3,8.62Z"/>
          <path class="cls-22" d="M621.54,71.7c.58.05.52.83-.09.8-3.04,1.86-5.08,4.7-4.82,7.96,1.85,1.69,2.36,3.98,1.52,6.86l1.44.25c7.7,13.52,22.98,24.74,38.76,26.46l1.63,1.32c1.35-1.15,3.23-1.51,3.86.25l1.02-.08c1.69-.73,3.82-1.29,4.83-3.2l2.32-3.69c.07,3.03-.38,6.1-3.23,7.72-3.7,2.1-8.16,2.82-12.54,1.99-15.97-3.03-29.61-12.02-39.04-25.12-2.51-3.48-4.29-7.17-4.57-11.46-.37-5.69,3.59-9.46,8.91-10.06Z"/>
          <path class="cls-161" d="M664.86,115.53c-1.7.73-3.18-.12-4.88-.17.82-4.3-.15-5.7-3.16-9.2-10.33-12.02-22.32-22.7-38.67-18.83-.94-2.16-1.33-4.5-1.52-6.86,13.53-1.16,31.04,8.63,40.42,18.62,6.95,7.41,6.02,15.82,6.77,16.34.24.17.76.09,1.04.1Z"/>
          <path class="cls-4" d="M659.98,115.35c-15.3-.47-29.7-11.09-39.26-23.19-1.27-1.61-1.88-3.27-2.57-4.85-.06-.44-.04-1.12.28-1.41,1.28-1.19,14.53-.9,21.24,3.24,8.28,5.11,15.43,12.07,20.84,19.96,1.6,2.33,1.33,4.75-.53,6.25Z"/>
        </g>
        <g>
          <path class="cls-138" d="M645.49,470.51c.61,1.53.12,1.79-1.13.74l-2.17-.66c-20.89-23.78-57.44-27.27-84.32-11.41l-2.66.21-1.19,2.13c-30.58,21.56-41.11,66.99-15.93,96.73,21.51,25.4,60.19,27.56,85.54,6.41l2.59-.58c11.33-8.59,21.52-18.67,27.17-31.94l2.05-1.66c1.25-1.16,1.78-.65,1.41.97-9.7,27.73-26.13,47.97-55.19,55.82-9.69,2.62-19.03,3.8-29.11,4.76-6.16.59-12.58-2.1-18.54-4.71-14.62-6.4-27.85-17.49-34.66-31.79-2.77-5.81-3.67-12.22-5.13-18.19-2.98-12.23-1.54-24.45,1.43-36.42,4.33-17.45,12.24-35.08,27.64-44.74,9.81-6.15,20.45-10.35,31.74-12.9,9.89-2.24,19.77-2.19,29.37.72,6.15,1.86,11.92,3.89,17.44,7.09,9.04,5.24,16.49,12.04,23.67,19.45Z"/>
          <path class="cls-93" d="M658.06,514.59c-.32,5.34-.62,10.94-2.65,15.88-5.83,14.18-15.71,26.18-29.21,33.61l.82-2.4c11.11-10.43,15.91-23.54,17.93-38.29.12-.87.49-1.57,1.2-2.12l-1.12-1.97c3.39-40.11-35.13-67.08-72.36-60.94l-.95-1.14c.21-.43.43-.85.72-1.22,3.3-4.17,21.14-5.45,26.8-5.02,32.04,2.44,60.47,30.86,58.81,63.6Z"/>
          <path class="cls-109" d="M554.57,463.86l.38,1.36c-14.73,13.4-27.73,32.37-25.98,53.38l-.47,6.92c1.03.82,1.29,2.29.79,4.4,14.17,60.48,99.17,58.63,112.53-.82l1.36-1.43c.59-2.43.86-4.91.82-7.43,1.54-1,2.25-.91,2.17,1.02-.94,16.25-7.48,31.92-19.96,42.81-7.47,6.51-16.53,11.21-26.38,14.12-11.96,3.54-24.18,2.97-35.89-1.3-11.01-4.01-20.93-10.25-28.19-19.58-24.35-31.29-12.54-77.27,19.45-97.94,1.89.69.74,3.64-.63,4.47Z"/>
          <path class="cls-78" d="M644.36,471.25c10.05,12.18,14.65,27.72,13.71,43.34-.27.04-.53-.16-.54-.64-.24-8.29-1.34-16.42-4.82-24.01-4.3-9.37-10.77-17.15-18.76-23.44-18.39-14.47-41.05-19.04-62.21-9.28l-.61,1.24c-5.4-.59-8.71.91-12.81,4.24-1.78,2.5-3.02,2.88-3.74,1.15-.08-1.57.45-2.94.63-4.47,12.74-8.23,28.54-12.03,44-10.98,9.01.62,17.11,3.25,25.16,6.98,7.84,3.63,14.7,9.44,20,15.87Z"/>
          <path class="cls-176" d="M646.16,521.27c-.78-.85-1.17-.27-1.51-.03-1.57,1.1.15,4.29-1.48,6.44l-1.12-1.04c2-13.17-9.81-29.49-20.34-36.91-35.2-24.83-81.94-7.16-91.68,34.21l-1.54,1.58c-.65-5.97-1.66-12.17-.45-18.53,1.85-9.68,9.05-25.27,15.97-32.34l10.56-10.79c1.59.41,2.11-1.62,3.22-2.27,2.58-1.52,5.08-4.16,8.05-4.22l5.9-.13,7.95-.79c11.76-1.16,22.91,2.04,33.5,6.82,15.54,7.03,26.59,20,31.22,36.31,2.12,7.48,2.2,14.31,1.77,21.69Z"/>
          <path class="cls-32" d="M643.17,527.68c-.39,6.09-2.79,11.43-5.54,16.7-11.74,22.47-37.01,34.95-62.19,30.71s-39.29-19.36-46.93-42.29c-.78-2.35-.4-5.02-.02-7.27,4.38-26.03,28.65-47.89,55.48-48.37,12.05-.22,23.83,2.84,34.19,8.83,12.95,7.49,21.94,20.22,25.45,34.63.52,2.13-.31,5.13-.44,7.07Z"/>
        </g>
      </g>
      <g>
        <path class="cls-132" d="M37.58,366.96c.07-1.2.58-1.14.81.08,1.01.65.97,1.61-.11,2.89-.04,11.35.4,22.78,1.32,34.28,2.05,8.1,3.08,12.15,3.08,12.15,3.08,25.77,14.81,53.73,40.46,63.85-3.43-3.78-5.03-10.52,1.84-11.23,1.71-.18,4.96.18,5,2.17.76.91,1.75,1.5,2.98,1.76l10.15,4.53c2.98,1.33,4.57,4.31,6.56,6.45l.54,1.18c-1.87,2.65.18,7.01,3.37,5.23l1.21,1.04c3.57,7.22,5.54,15.15,6.54,23.12l-1.69,3.44c-.53,1.09-.96,1.88-2.05,2.17-1.26.34-1.6-.95-2.44-2.05s-2.28-2.63-.61-3.99c.65-.53,2.08-.74,2.21-1.68s.17-2.38-.72-2.81c-2.03-.98-3.79-1.07-5.83-.27l-3.97-6.35c-.39-.62-2.33,0-3.05.73,1.27,1.36,1.17,3.27,2.26,4.62l1.54,1.92c.54.68.1,2.33-.97,2.82-4.4,2.01-3.96-5.8-10.01-4.5-.99.21-1.77.45-2.18,1.18-.8,1.44,2.48,8.99,8.74,8.55.24,1.2,1.05,2.85,2.1,2.83.98-.02,1.82-.84,2.44-.66,1.16.35,1.8,1.22,2.1,2.45l4.49,18.51,3.61,7.7c-3.17,1.77-6.59,1.72-9.96.77l-9.45-1.05c.38-4.62-3.49-4.76-1.91-9.83-1.14.49-1.29,1.72-1.6,2.62-1.51.1-1.78-.53-2.12-1.1-.36-.6.63-2.23.47-2.85-.4-1.5-1.32-2.73-1.18-4.75s-3.85-.46-4.97-.62c-1.32-.19-1.21-3.14-2.92-1.75-1.2.45-1.57-.25-.72-1.19-.03-1.03-.02-2.07.04-3.1-.95.17-1.77-.02-2.46-.57-.24.17-.49.31-.76.35-.51.08-6.25-7.36-6.17-8.05.04-.28.2-.55.41-.81-.66-1.52-1.74-2.41-3.24-2.69l-.81.48c4.1,4.08,7.8,8.57,11.11,13.49l-.11,1.28c-3.49,3.03-8.23-1.44-10.26,4.61l-1.72.07c-1.8-1.51-8.03-6.64-10.02-6.56-.09,0-.16.35-.23.8.11,1.34-.57,2.6-2.06,3.77-4.27,7.64-5.5,16.21-3.7,25.7-1.46,3.29-2.81,1.84-4.47-.3-2.16-4.4-4.06-8.92-5.71-13.56-.48,8.19,1.62,16.33,4.41,23.97l-.71,1.55c-1.75,3.17-2.37,9.23,2.95,7.87l1.41.53,1.65.19c4.52,7.34,9.94,12.31,18.9,12.39l.69,1.36c.19,3.2,2.61,4.98,4.5,7.34.54.67.09,2.64,1.99,2.25,2.89-.6,1.47-4.48,4.9-4.81l4.37-.41c2.2-.21,5.18-1.25,6.49.44-.53,1.62-1.83,2.02-2.98,2.04l-5.48.08c-.89,2.37-2.23,2.95-5.01,2.84,6.49,6.05,10.15,2.79,11.52,2.93l6.45.66c.72.07,3.09,1.05,3.01-.53-.09-1.75-.58-3.82-.02-5.86-.12-.8-2.13-1.19-2.62-.63-2.08,2.36-1.41,4.1-3.51,4.18s-1.7-5.02-.41-6.33c.68-.69,2.42-1.86,3.62-1.49,3.05.95,5.71.28,8.59.35,2.63.06,4.83.54,7.64-.06l4.68.33c1.79.13,3.39,1.26,3.28,3.01l-7,.87c-.48.06-1.02-.26-1.46.08s-.31.71-.01.96c.51.41.85.28,1.49.32,2.11.14,2.93,4.33,5.25,4.41.56.02,1.07-.7,1.29-1,2.49,2.64-3.73,1.04-3.69,4.02,0,.49,1.2,1.39.95,1.74l-1.21,1.73c-.42.6-.46,1.57-.82,1.83-.27.19-1.24-.53-2.18.68.61.1,1.65.77,1.99,1.38.28.49,0,1.58-.72,2.05-2.1,1.38-.98,4.81-5.7,4.11.22-1.03.49-1.87.43-2.5-3.51-.87-5.68.7-7.23,3.32.96,2.77-.24,5.47-2.58,7.16-5.06-1.02-.79,3.88-5.99,5.78,4.31,2.36,7.92,2.27,12.35,1.79,1.31-.14,3.13,1,5.2-.14-2.28,3.27-5.9,1.9-9,2.04-3.46.15-6.66,1.42-10.27.48l-2.89.49c-1.72-.68-3.06-.62-4.62.48.04-2.21.76-3.13,1.15-4.62.89,1.12,1.69,2.1,2.23,1.82l1.8-.93c.56-.29,2.31.79,2.78-.11.31-.6.51-2.06.33-2.7-.2-.67-1.83-.61-2.34-.85l-3.91-1.84c.03-.55.64-1.81.23-2.14l-1.58-1.27c-.78-.63-1.42-1.64-1.52-2.31-.14-1.02.75-1.81,1.33-2.23-1.17-1.07-2.36-.57-2.35-.13l.07,1.56c.05,1.07-1.83.49-2.5-.2-.43-.44-.23-1.25.52-2.46-4.46-1.06-9.51-.8-11.36-3.14l15.41-2.48c.53-.08,1.91.64,2.34.31.6-.48.61-1.11.47-2.04-.13-.79-.65-.86-1.74-1.09-1.69-.36-2.05-2.41-1.69-4.47-1.11.77-1.51,1.26-2.74,1.58l.7,3.16c-3.4-.65-5.25,1.36-6.48.56s-1.4-2.74-2.33-2.67c-.46.03-.99,2.53-2.52,2.82-1.05.2-2.37-.07-2.45-1.48,3.52-.71,4.42-3.75,3.97-6.78-.95.75-2.53,1.19-3.1.65l-1.86-1.79c-.46-.44-1.36,1.4-1.38,1.9l-3.77-1.85,2.4-2.35c-.85-.98-1.88-.52-2.46-.63-1.68-.32-.98-1.6-.69-2.27.71-1.65,2.92-.26,4.98-1.61.5-.33,1.05-1.13.51-2.62-2.32,1.69-6.24,2.66-8.74,2.09,1.38,1.29,2.4,3.28,1.22,4.54s-1.88,2.42-3.93,2.24c-.13-1.93-.37-4.64-1.75-6.28-2.78,1.12-8.08.04-10.63-2.35l-1.63,3.09c-2.05-2.42-2.05-7.73-4.18-7.83l-6.45-.3c-.94-1.63-1.36-3.41-2.7-4.77l-4.29,2.42c-4.69-10.48-8.43-21.1-11.49-32.53C5.23,521.31-.91,482.82.11,446.58c1.13-40.27,7.23-79.73,18.38-118.4l12.02-35.82c5-14.91,11.82-28.64,18.79-42.35,1.41-2.34,2.83-.13,2.47,2.08-10.84,33.6-18.78,70.12-14.68,105.06-.24,3.43-.08,6.7.48,9.81Z"/>
        <g>
          <path class="cls-92" d="M114.79,491.35c-.74-.19-1.68.71-2.53.75-1.71.08-3.34-1.94-3.84-3.19-.67-1.67.32-3.59,1.25-5.01,2.06,2.22,3.77,4.71,5.13,7.45Z"/>
          <path class="cls-92" d="M91.66,471.72c.56.19.97.65,1.29,1.2-.67.19-1.57.55-2.18.02-.57-.5-.91-.98-.8-1.78l1.69.56Z"/>
          <path class="cls-134" d="M70.75,514.47c1.6-.11,2.75,1.28,3.24,2.69l6.52,8.51c1.87-.43,3.24,2.12,2.42,3.67.27.21.59.86.72,1.19,1.71,4.49,5.14,8.9,6.15,14.16l-8.85-14.96c-5.72-8.43-13-15.68-22.25-19.8,5.08.03,8.47,2.51,12.06,4.55Z"/>
          <path class="cls-92" d="M46.49,569.79c1.14,2.85,2.55,5.91,4.36,8.4-1.8,1.52-4.2.94-5.46.01-2.69-1.96-.43-8.53-.56-8.47.35-.15,1.14.06,1.66.06Z"/>
          <path class="cls-92" d="M108.32,498.11c3.87,7.72,9.38,2.88,9.05,5.76-.09.82-4.81,3.37-8.21-.06-1.49-1.51-2.95-3.38-.84-5.69Z"/>
          <path class="cls-92" d="M113.68,602.6c-.23,4.4,4.36,5.98,1.58,6.87-.05.02-3.81-3.17-4.69-6.07l3.11-.81Z"/>
          <path class="cls-92" d="M82.92,529.34c-.96-.75-1.63-2.64-2.42-3.67.73-.67,1.84-.8,2.84-.55.78.19,1.19,1.49.87,2.46-.18.54-.71,1.18-1.29,1.76Z"/>
          <path class="cls-92" d="M73.99,517.16c-1.51-.26-2.16-2.08-3.24-2.69.81-.44,1.83-.33,2.42-.01,1.01.53.88,1.88.82,2.7Z"/>
          <path class="cls-92" d="M109,601.72c-.05.58-1.82.3-2.02-.72-.11-.55.02-1.18.25-1.36.28-.21.7-.33,1.13-.19.34.11.77.62.63,2.27Z"/>
          <path class="cls-92" d="M109.59,545.8c-.57.21-2.02-1.29-2.25-1.68.73-1.32,1.61-.94,2.25-.51s1.56,1.61,0,2.19Z"/>
          <path class="cls-92" d="M73.23,603.59c.45-.37,1.92-.2,1.77.06-.24.42-.63,1.26-.53,1.92.05.34-.66-.27-.98-.28-.69-.01-1.36-.8-.27-1.7Z"/>
          <path class="cls-92" d="M79.97,608.72c-.36.33-1.89.53-2.19.17-.54-.65.3-1.69.77-1.87.77-.29,2.06,1.12,1.43,1.7Z"/>
        </g>
      </g>
      <g>
        <path class="cls-60" d="M176.51,282.13c6.9,6.01,11.41,14.76,14.19,23.76,1.77,5.73,3.4,11.41,3.1,17.06l-.98,18.98-1.02,5.58-.78-12.94c-.28-.61-.73-1.14-1.35-1.61-.15-21.07-8.68-43.36-28.92-53.13l-.98-1.85-2.11.39c-6.31-2.66-13.24-3.17-19.99-2.36l-1.93-.98c-5.72.83-11.75,1.8-16.93,5.35l-14.86,10.18c-6.48,5.48-11.26,12.21-15.71,19.1,4.29-9.52,10.83-17.46,18.58-24.86,5.89-5.62,13.04-9.32,20.26-12.45,15.32-6.65,36.5-1.47,49.42,9.78Z"/>
        <path class="cls-27" d="M191.02,334.56c.7,1.51-1.26,1.68-.88.28.65-1.11-.34-1.58-.73-1.44-.33.12-.99.58-1.14,1.29-4.03,18.4-11.9,35.75-24.32,50.12-6.18,7.15-14.33,11.6-22.34,15.7-.32-1.4-.17-1.7-1.14-2.21,1.12,3.93-7.65,5.64-12.3,4.65l-1.29.36c-.32.09-.93-.17-.91-.83l1.07-1.47c19.68-5.4,31.07-22.56,38.75-39.95l1.49-.23c1.96-2.13,3.7-4.51,5.24-7.14,1.61-1.12,2.81.21,3.1,1.87,3.17-14.97,5.51-28.82-1.03-42.92-4.37-9.41-11.24-18.94-17.46-27.14-1.08-2.57-.78-8.13,2.65-7.51,5.68,2.73,10.96,6.02,15.48,11.08,8.08,9.06,13.12,20.17,14.8,32.28l.97,13.23Z"/>
        <path class="cls-48" d="M108.3,321.52l-.24,2.26c-6.93,9.3-9.92,20.74-12.01,31.99l-1.56,1.75c.37.59.45,1.11.24,1.56-.58,4.17-.49,8.74-.04,12.93,1.1,1.86,1.76,4.11,1.99,6.73,1.15,4.25,2.66,8.36,4.51,12.31l-.34,1.08c-1.17.14-2.04-.47-3.05-1.25-13.21-10.26-15.76-29.97-12.44-46.19,2.34-11.43,6.74-22.23,13.27-31.94,4.55-6.77,10.51-12.24,16.91-16.67,3.89-1.72,7.91-3.36,12.06-4.91,5.19-2.61,20.52-1.81,23.52,3.08.68,1.11.72,1.57-.64,1.92-17.77-.7-32.36,11.62-42.2,25.34Z"/>
        <path class="cls-114" d="M159.78,277.97c-3,2.89-2.47,7,.29,9.68,4.29,4.16,6.98,9.37,9.94,14.51l4.94,8.59c2.73,4.75,4.66,9.63,4.83,15.3.27,8.79-.44,17.41-2.07,26.02-.6,3.17-1.37,6.44-3.75,8.58-.35-2.47,1.09-4.29-.18-6.75-1.75,2.85-3.49,5.54-5.91,7.69-.34-.32-.36-.57-.58-.77l-.5-2.06c6.73-18.46,8.97-42.53-4.98-58.18-10.06-11.29-24.14-13.72-37.96-8.1l-.99-.48c-.57-.64-.95-1.74-.77-2.73,1.35-7.38,6.83-12.47,13.66-14.25,8.39-1.21,16.42-.71,24.04,2.95Z"/>
        <path class="cls-36" d="M167.28,360.81l-6.7,13.3c-6.42,12.75-21.42,25.99-34.61,28.36-9.03,1.62-19.3.3-26.39-5.88l5.04.49-3.77-4.94c-3.43-6.23-6.18-12.99-6.16-20.12-.46-4.23-.49-8.7.04-12.93l-.24-1.56c1.15-.55,1.7-.07,1.89,1.11.61,9.82,1.65,21.13,6.38,29.89,6.12,11.36,18.01,11.63,28.65,6.67,27.06-12.62,41.58-50.49,34.17-78.67-8.67-32.96-40.94-14.05-55.02,4.22l-2.26.77c9.5-15.37,24.76-27.01,42.77-26.34-12.36-7.57-22.06-4.33-34.58,1.18-.4.36-.95.28-.94-.27l7.3-4.09c5.47-2.29,11.75-4.01,18.04-3.55,11.06.81,20.2,7.67,26,16.86,9.68,15.35,7.1,39.33.39,55.51Z"/>
        <path class="cls-44" d="M94.49,357.52c2.22-12.8,5.7-26.34,13.8-36,7.52-8.96,15.79-17.1,26.91-21.7,5.95-2.47,12.83-4.02,18.81-1.13s10.13,9.37,12.22,15.79c10.25,31.53-10.4,77.93-43.86,85.06-8.88,1.89-19.13-5.18-22.2-13.54-2.86-7.8-4.46-15.99-4.85-24.45-.07-1.44.22-2.81-.84-4.02Z"/>
        <path class="cls-44" d="M94.69,372.01c-.32-.21-.59-.63-.59-1.25v-10.5c0-.66.23-1.12.63-1.18l-.04,12.93Z"/>
      </g>
    </g>
  </g>
</svg>