<?xml version="1.0" encoding="UTF-8"?>
<svg id="Layer_2" data-name="Layer 2" xmlns="http://www.w3.org/2000/svg" viewBox="0 0 1164.49 637.53">
  <defs>
    <style>
      .cls-1 {
        fill: #543b4f;
      }

      .cls-2 {
        fill: #352839;
      }

      .cls-3 {
        fill: #0c9d95;
      }

      .cls-4 {
        fill: #312637;
      }

      .cls-5 {
        fill: #7a0f0f;
      }

      .cls-6 {
        fill: #342537;
      }

      .cls-7 {
        fill: #1e2d3c;
      }

      .cls-8 {
        fill: #1ccfc8;
      }

      .cls-9 {
        fill: #8c5c72;
      }

      .cls-10 {
        fill: #147f82;
      }

      .cls-11 {
        fill: #2fbed0;
      }

      .cls-12 {
        fill: #4a3349;
      }

      .cls-13 {
        fill: #0b454c;
      }

      .cls-14 {
        fill: #0c0b10;
      }

      .cls-15 {
        fill: #030404;
      }

      .cls-16 {
        fill: #39283b;
      }

      .cls-17 {
        fill: #9c657a;
      }

      .cls-18 {
        fill: #7eeff0;
      }

      .cls-19 {
        fill: #271c2d;
      }

      .cls-20 {
        fill: #262231;
      }

      .cls-21 {
        fill: #3ad7cf;
      }

      .cls-22 {
        fill: #684563;
      }

      .cls-23 {
        fill: #0e7f80;
      }

      .cls-24 {
        fill: #0c0d11;
      }

      .cls-25 {
        fill: #dea3ac;
      }

      .cls-26 {
        fill: #fdc062;
      }

      .cls-27 {
        fill: #815970;
      }

      .cls-28 {
        fill: #61495e;
      }

      .cls-29 {
        fill: #2e2032;
      }

      .cls-30 {
        fill: #7e5b6e;
      }

      .cls-31 {
        fill: #0f9e92;
      }

      .cls-32 {
        fill: #765669;
      }

      .cls-33 {
        fill: #0e6c72;
      }

      .cls-34 {
        fill: #c17d87;
      }

      .cls-35 {
        fill: #252130;
      }

      .cls-36 {
        fill: #9d6b7f;
      }

      .cls-37 {
        fill: #583d51;
      }

      .cls-38 {
        fill: #7c586b;
      }

      .cls-39 {
        fill: #040f11;
      }

      .cls-40 {
        fill: #abf8f4;
      }

      .cls-41 {
        fill: #0c7e78;
      }

      .cls-42 {
        fill: #0d9389;
      }

      .cls-43 {
        fill: #120505;
      }

      .cls-44 {
        fill: #117d7b;
      }

      .cls-45 {
        fill: #25cbd6;
      }

      .cls-46 {
        fill: #7c1414;
      }

      .cls-47 {
        fill: #0c464d;
      }

      .cls-48 {
        fill: #24c8c2;
      }

      .cls-49 {
        fill: #febe64;
      }

      .cls-50 {
        fill: #118281;
      }

      .cls-51 {
        fill: #186d71;
      }

      .cls-52 {
        fill: #e5f9f9;
      }

      .cls-53 {
        fill: #4b344a;
      }

      .cls-54 {
        fill: #aea4c4;
      }

      .cls-55 {
        fill: #194a55;
      }

      .cls-56 {
        fill: #473146;
      }

      .cls-57 {
        fill: #10c0bc;
      }

      .cls-58 {
        fill: #15716f;
      }

      .cls-59 {
        fill: #95f5f2;
      }

      .cls-60 {
        fill: #251c2e;
      }

      .cls-61 {
        fill: #2d2233;
      }

      .cls-62 {
        fill: #2dbbba;
      }

      .cls-63 {
        fill: #02414d;
      }

      .cls-64 {
        fill: #0c5057;
      }

      .cls-65 {
        fill: #fefefc;
      }

      .cls-66 {
        fill: #022430;
      }

      .cls-67 {
        fill: #09c7b2;
      }

      .cls-68 {
        fill: #3c2b3d;
      }

      .cls-69 {
        fill: #123b47;
      }

      .cls-70 {
        fill: #03171e;
      }

      .cls-71 {
        fill: #775166;
      }

      .cls-72 {
        fill: #bb8396;
      }

      .cls-73 {
        fill: #6cd9cc;
      }

      .cls-74 {
        fill: #282332;
      }

      .cls-75 {
        fill: #fdc064;
      }

      .cls-76 {
        fill: #50374c;
      }

      .cls-77 {
        fill: #131115;
      }

      .cls-78 {
        fill: #0d070c;
      }

      .cls-79 {
        fill: #a3c7cf;
      }

      .cls-80 {
        fill: #ba7a8d;
      }

      .cls-81 {
        fill: #0b090d;
      }

      .cls-82 {
        fill: #0cc2b0;
      }

      .cls-83 {
        fill: #0dc7b5;
      }

      .cls-84 {
        fill: #0fcbc5;
      }

      .cls-85 {
        fill: #445b6a;
      }

      .cls-86 {
        fill: #7a1211;
      }

      .cls-87 {
        fill: #0b847d;
      }

      .cls-88 {
        fill: #0b4b52;
      }

      .cls-89 {
        fill: #89f4e7;
      }

      .cls-90 {
        fill: #83f6ef;
      }

      .cls-91 {
        fill: #452f44;
      }

      .cls-92 {
        fill: #0b0e11;
      }

      .cls-93 {
        fill: #fefdfd;
      }

      .cls-94 {
        fill: #149484;
      }

      .cls-95 {
        fill: #815b72;
      }

      .cls-96 {
        fill: #741415;
      }

      .cls-97 {
        fill: #fefdfb;
      }

      .cls-98 {
        fill: #13a19b;
      }

      .cls-99 {
        fill: #116766;
      }

      .cls-100 {
        fill: #fefdfc;
      }

      .cls-101 {
        fill: #0e4a54;
      }

      .cls-102 {
        fill: #4b3349;
      }

      .cls-103 {
        fill: #594058;
      }

      .cls-104 {
        fill: #b97c8d;
      }

      .cls-105 {
        fill: #0d696c;
      }

      .cls-106 {
        fill: #442f43;
      }

      .cls-107 {
        fill: #281c2d;
      }

      .cls-108 {
        fill: #789aa3;
      }

      .cls-109 {
        fill: #070a0c;
      }

      .cls-110 {
        fill: #11a09b;
      }

      .cls-111 {
        fill: #3e2b3e;
      }

      .cls-112 {
        fill: #138786;
      }

      .cls-113 {
        fill: #090407;
      }

      .cls-114 {
        fill: #1e2c3b;
      }

      .cls-115 {
        fill: #12b7b0;
      }

      .cls-116 {
        fill: #24beab;
      }

      .cls-117 {
        fill: #cb93a0;
      }

      .cls-118 {
        fill: #e0f9f9;
      }

      .cls-119 {
        fill: #c37e85;
      }

      .cls-120 {
        fill: #211626;
      }

      .cls-121 {
        fill: #0a0409;
      }

      .cls-122 {
        fill: #21b6ac;
      }

      .cls-123 {
        fill: #fefefe;
      }

      .cls-124 {
        fill: #2a9a92;
      }

      .cls-125 {
        fill: #fcb35a;
      }

      .cls-126 {
        fill: #0a0d10;
      }

      .cls-127 {
        fill: #42e7ef;
      }

      .cls-128 {
        fill: #11b7b0;
      }

      .cls-129 {
        fill: #39263a;
      }

      .cls-130 {
        fill: #1b3d49;
      }

      .cls-131 {
        fill: #dcf9f8;
      }

      .cls-132 {
        fill: #0ac4b1;
      }

      .cls-133 {
        fill: #8e6376;
      }

      .cls-134 {
        fill: #0a8078;
      }

      .cls-135 {
        fill: #0ce2d4;
      }

      .cls-136 {
        fill: #0bbfab;
      }

      .cls-137 {
        fill: #483348;
      }

      .cls-138 {
        fill: #573a50;
      }

      .cls-139 {
        fill: #364d5a;
      }

      .cls-140 {
        fill: #164e59;
      }

      .cls-141 {
        fill: #148686;
      }

      .cls-142 {
        fill: #e0fbfa;
      }

      .cls-143 {
        fill: #0a837f;
      }

      .cls-144 {
        fill: #362536;
      }

      .cls-145 {
        fill: #96adc6;
      }
    </style>
  </defs>
  <g id="Layer_1-2" data-name="Layer 1">
    <path class="cls-43" d="M667.37,634.02c-53.24,4.64-106.92,4.54-160.17.54.84.06,2.61-.17,3.54-.42,4.33-4.42,5.77-4.92,10.47-5.22s9.48-1.76,13.77.48c1.84.96,2.99,1.52,5.14.33,1.81-1,4.18-.33,6.41-.33l77.73.09,5.1-1.04,14.84-.05c.71,3.57,8.7,4.75,12,3.99,1.81-.42,3.15.68,4.7.83l6.47.79Z"/>
    <g>
      <path class="cls-15" d="M667.37,634.02c-3.4.06-6.8-.1-10.18-.49-4.9.74-10.69.23-14.04-3.89-6.51-.35-12.95.01-19.31,1.09-27.19.09-54.31-.01-81.38-.31l-4.48,1.22c-7.67-3.15-19.45-3.33-25.79,2.59-1.64.36-3.31.48-4.99.35-32.48-2.45-78.7-7.86-108.79-19.37-9.53-3.65-19.63-8.62-23.86-17.83l-27.57-4.93c-10.6-1.9-20.51-4.99-30.64-8.56-15.06-4.79-28.6-13.85-31.87-30.16-20.13-4.25-39.69-8.52-59.27-14.75-51.6-16.42-98.08-37.17-143.44-66.68-12.11-7.88-23.53-15.72-34.67-24.8l-17.41-12.05c-6.12-4.23-12.48-7.61-17.91-12.7-6.95-6.52-12.05-15.11-11.76-24.94.3-10.23,5.6-19.21,13.2-25.97,27.05-24.08,65.94-41.25,100.18-53.44l48.75-15.08c30.27-8.23,60.39-14.74,91.4-20.72,9.73-15.93,20.7-30.53,31.78-45.39,5.08-6.81,11.08-11.77,19.71-13.56,10.39-2.75,21.04-3.82,31.82-4.91.75-.08,1.15-.38,1.24-1.21,2.27-21.73,8.12-42.5,16.11-62.94,24.7-63.13,76.37-112.89,139.21-137.61,34.24-13.47,74.11-19.1,110.75-16.22,17.02,1.34,33.32,3.61,49.7,8.52,30.93,9.28,59.87,23.84,84.86,44.32,18.09,14.83,34.13,31.57,47.07,50.95,15.2,22.77,25.69,47.35,32.24,73.85,3.34,13.52,6.29,26.45,7.3,40.36,12.02.66,23.36,2.07,34.69,5.21,4.92,1.36,9.55,3,13.37,6.28,5.45,5.34,9.26,11.48,13.52,17.79l23.39,34.66,88.93,19.67,60.93,19.35,40.44,17.19,29.39,16.55c9.52,6.1,18.45,12.65,26.16,21.03,5.71,6.21,8.43,15.28,8.34,23.51-.23,20.57-25.04,31.99-39.01,41.93l-48.63,34.59-26.99,16.01-51.41,25.09-25.48,10.2c-30.09,11.07-60.47,19.95-92.26,25.84-4.77,15.86-12.58,21.55-26.99,28.29l-25.12,7.85-38.04,7.26c-2.92,5.97-7.5,10.09-13.37,13.14-12.26,6.36-25.13,10.26-38.82,13.24-23.63,5.14-47.22,8.51-71.02,10.59Z"/>
      <g>
        <g>
          <path class="cls-137" d="M1133.07,370.31c1.31,3.56-1.09,7.74-2.97,11.08-.4.83.09,1.63.3,2.08,1.17,2.55,5.97-4.94,6.23-7.62l2.07.08c1.7,1.18,9.28,7.71,8.9,8.84-.03.1-1.62-.77.61.18l-.58,1.9c.68,2.56-2.76,6.09-4.74,7.86-7.66,6.88-16.9,12.44-26.48,16.26-22.62,9.01-46.42,15.33-70.26,20.54l-81.19,13.3c-141.11,16.61-280.6,20.9-428.48,18.86l-10.14-.93c-5.95-.19-11.91-.37-17.88-.53,0,.48-.16,1.22-.46,1.21-20.11-.12-40.9-.83-61-1.6-43.93-1.68-89.22-3.59-132.68-6.83l-.78-1.3c-5.4-1.51-10.16-4.02-14.27-7.53.24-1.26,1.39-1.75,3.44-1.47.02-.48.2-1.21.5-1.2,36.36,1.74,73.9,3.95,110.23,6.49l.68,1.27,6.24.27,6.8-.52c49.59,1.71,99.2,2.91,148.81,3.57l6.77.77.55-1.23c13.92-.12,27.85-.23,41.79-.35l1.14,1.22.4-1.24,139.85-3.77c67.73-3.32,138.43-8.46,203.3-17.47l1.27,1.07.21-1.28c18.62-3.17,37.25-6.33,55.9-9.5.8.52,1.59.8,2.37.84l16.99-3.89c1.06-.24,2.4.12,2.46-1.45.03-.72-.36-2.25-1.64-1.94-5.48,1.33-10.8,2.42-16.37,2.71-4.69-5.47-9.75-9.84-15.32-14.66,10.3-10.14,9.4-25.43,1.44-37.28-6.16-9.17-14.47-16.44-24.41-21.5-14.04-7.15-30.45-6.21-43.69,2.92l-18.36-10.16-45.12-22.21,22.24-9.35c4.12-1.73,6.49-5.08,6.55-9.57l.81-1.08c62.72,13.46,127.31,28.14,187.53,57.45,10.2,4.97,20.23,10.46,29.17,17.35l1.26-.68Z"/>
          <path class="cls-107" d="M913.63,537.21c-13.8,3.93-26.56,6.61-40.4,9.03l-77.16,10.5c11.33-13.65,21.81-26.56,30.33-41.42l15.21-26.53c43.37-2.87,85.89-7,128.78-12.67,31.76-4.19,62.85-9.51,93.88-17l39.5-11.58-27.06,18.94-29.04,17.56-39.16,19.63-28.91,12.2c-21.41,9.03-43.07,15.68-65.96,21.34Z"/>
          <path class="cls-2" d="M137.36,413.33l-1.26-.65.36-5.71c-.86-6.67-11.14-.69-7.88,4.35,6.67,2.27,7.39,4.8,2.16,7.57-30.05-5.72-61.36-13.43-87.1-30.92-.3-.8-.8-1.62-1.5-2.45-4.17-2.74-7.25-7.11-7.75-12.23,2.63-2.53,5.71-5.45,9.24-8.78,63.85-36.5,133.51-52.92,202.92-67.67l1.31-1.32c-.36-1.14.13-1.24.75-.16-.47,3.33.86,6.93,4.01,9.15,7.37,5.19,15.8,8.23,24.56,11-18.8,7.86-36.53,15.76-53.51,25.94l-10.24,6.14c-19.48-13.44-44.51-6.61-60.89,9.8-12.96,12.97-20.98,33.82-6.83,47.37-2.38,3.4-5.59,5.79-8.35,8.57Z"/>
          <path class="cls-2" d="M580.85,340.23c.19-2.08,3.46-1.71,3.78.3l-.56,1.23-51.19.25-4.95,1.11c-66.59-.5-134.09-2.52-199.89-11.64-31.37,14.64-59.75,36.81-80.24,65.85-.16.22,2.66,3.76,3.21,4.36,3.33,3.63,7.4,5.28,11.94,6.62,4.31,1.82,1.8,3.92-1.12,5.49,11.01,10.82,24.14,19.37,38.22,25.52l-.36,1.53c-3.39.36-6.8.68-10.21.46-31.36-1.99-63.81-5.99-94.31-11.12-7.3-.5-14.56-1.34-21.79-2.54-12.39-2.73-24.9-4.97-37.52-6.73l-.65-1.36c0-1.24.99-1.94,1.94-2.78l11.41-10.23c12.05,6.43,27.76,3.81,39.51-1.93,15.82-7.72,29.26-20.69,31.13-38.68.52-4.96-.87-11.19-3.19-14.35.51-.72,1.07-1.37,1.76-1.8,6.21-3.86,12.58-7.54,18.97-11.09,13.2-6.31,25.37-12.39,36.5-18.25,10.89-5.19,13.75-2.29,20.19-.95,16.44,3.39,32.4,6.46,49.2,8.22l64.22,6.76c40.75,3.01,80.99,5.72,121.8,5.77h52.2Z"/>
          <path class="cls-136" d="M1153.04,401.48c-.1.44-.27.92-.53,1.17-.12.88-.27,1.85-.87,2.55-2.99,3.47-9.35,7.75-13.45,10.01-17.74,9.78-38.56,15.94-58.09,21.33-31.95,7.29-63.1,14.08-96.64,19-50.1,7.35-102.12,11.44-151.31,14.69-88.6,5.85-177.58,6.76-268.84,7.47-82.47-1.1-164.23-4.18-245.29-9.25l-.7-1.26c-3.74.04-11.85-3.61-12.06-7.43-.08-1.39,2.36-2.11,3.36-1.34,4.16-.51,8.31-.73,12.44-.65l.48-1.2c133.83,9.04,267.3,9.92,397.49,6.83l.9,1.21c103.4-1.8,207.37-9.69,309.7-27.1l2.27.29-.06-.68c10.05-2.13,20.21-4.47,30.3-6.93,18.33-4.47,38.19-9.38,55.33-16.92.94-.41,1.84-.83,2.57-1.58l.67-1.56c10.35-4.38,20.85-10.35,27.7-19.45l1.66-.32,1.43-.04c.88,3.42,1.53,6.9,1.96,10.45l-.41.73Z"/>
          <path class="cls-29" d="M319.87,471.23l-.09,1.19c23.83,4.4,47.94,7.24,72.33,8.5,29.54.17,59.11,1.1,88.7,2.8l.67,1.26,6.21.38.59-1.21c10.16.26,20.33.51,30.5.77l.69,1.24,8.09.4c.13-.48.34-1.18.72-1.22,2.17-.22,13.09-.23,14.85.18l.87,1.24c3.09.15,6.17.29,9.27.43l.57-1.22c14.67.06,29.34.12,44.01.18l.73,1.23c13.54.45,27.56.45,41.12-.01.04-.49.19-1.22.53-1.24,18.36-1.15,37.95-1.69,56.22.24.16.02.29.31.41.69,6.28.45,12.6.34,18.97-.33,1.2.28,2.31.79,3.35,1.54,2.19-.1,3.68.4,4.47,1.52-1.15,1.18-2.66.33-4.43.37l-80.27,1.96c-100.05,1.11-199.79-1.23-299.66-7.65-56.03-3.61-111.69-9.26-167.1-17.37-24.37-3.57-47.94-7.85-71.73-13.54l-39.29-11.65c-14.21-5.11-27.25-12.22-39.17-21.39-4.77-3.67-13.43-12.41-12.87-16.57,1.36.05,2.58.86,3.64,2.43,13.72,9.64,29.45,16.81,45.68,22.23,45.86,15.32,92.31,22.77,138.41,29.23l113.65,11.66,8.48.04c.92.04,1.11.78.89,1.71Z"/>
          <path class="cls-56" d="M1154.57,407.13c-3.9,5.91-8.55,11.2-14.48,15.6-12.95,9.61-27.04,16.32-42.42,21.37-25.17,8.27-50.43,14.24-76.6,18.94l-83.47,12.15-114.09,9.92-98.75,4.84c-2.51-1.43-5.49-2.5-8.96-3.21-6.66.68-13.27.73-19.84.17-.34-3.17,2.19-6.9,5.64-5.3,2.11-1.84,4.8-2.6,8.05-2.27l1.76-.85,8.16-1.08c116.45-5.25,240.43-11.26,350.26-37.04,25.18-5.43,50.14-14.42,71.27-25.86,4.58-1.58,8.6-4.55,12.07-8.93.93,0,1.72.65,1.38,1.53Z"/>
          <path class="cls-81" d="M317.32,467.18l137.53,6.91,32.95,1.04c50.43,1.6,100.55,1.64,151.1.92l118.52-3.14,74.65-3.92,76.62-6.06c39.23-3.1,77.63-8.49,116.28-15.59l47.87-10.39c20.27-4.4,39.36-11.08,58.25-19.51,8.29-3.7,15.23-8.61,21.43-14.79-.47,3.07,3.54,2.59,2.05,4.48-.04-.13-.01-.44-.44-.83l-6.71,6.56c-1.5,1.47-3.41,2.14-5.44,2.6l-19.57,9.75c-17.21,6.72-34.22,12.53-52.3,16.37l-44.53,9.47c-41.57,7.57-83.32,12.78-125.56,16.5-62.97,5.54-125.81,9.03-188.59,10.95-3.33,1.35-9.01,1.58-12.82,1.3-.15-.01-.27-.39-.38-.87-2.27-.05-4.51.08-6.72.38-.52.94-2.44.41-3.43-.08-.13.48-.32,1.17-.7,1.23-1.71.26-11.54.39-13.07.1l-.9-1.22c-4.72.2-9.45.36-14.19.48-.12.48-.33,1.2-.71,1.23-3.52.28-17.68.77-20.35.14l-.9-1.22c-13.5.18-27.01.35-40.51.48.02,1.79-1.97,1.73-2.36.01-16.98-.16-33.95-.33-50.92-.51l-.72,1.22c-6.99-.04-13.98-.09-20.97-.13l-.89-1.23c-5.16-.12-10.31-.28-15.45-.46-.06.48-.22,1.2-.57,1.22-4.41.31-10.58.12-15.05-.13-1.81.36-2.9-.06-3.26-1.25-3.71-.14-7.42-.29-11.12-.47l-.71,1.22c-1.35.15-9.25.04-9.83-.55-.2-.2-.31-.5-.39-.82-2.71-.13-5.4-.28-8.06-.43-.07.47-.2,1.15-.55,1.21-1.11.21-4.16.01-5.43-.11-1.71.31-2.75-.12-3.12-1.29l-6.22-.42c-.53,1.94-6.69,1.69-7.28-.2l-6.84-.42c-.51,1.94-6.67,1.72-7.27-.15l-6.82-.43c-.47,1.93-6.17,1.67-6.67-.18l-6.22-.41-.49,1.2c-26.32-1.48-52.64-2.96-78.96-4.44l-.68-1.27c-.23-.29-.65-.51-1.26-.51h-8.18s-113.73-11.67-113.73-11.67l-34.33-4.94-37.78-6.91c-27.98-5.12-54.79-12.62-81.31-22.84-7.67-2.95-14.14-6.68-21.15-10.72-4.91-2.83-9.97-4.87-13-9.71.16-1.16,2.45-1.29,2.39-3.13l1.3-.47c27.63,22.31,66.31,32.04,101.17,39.62,63.94,13.91,133.14,20.01,196.35,25.39,2.26.93,4.6,1.54,7,1.83Z"/>
          <path class="cls-14" d="M18.38,385.69l1.34.44c.86,2.19,2.29,4.04,4.28,5.55l-.29,1.4,2,.16c19.84,15.53,45.07,22.69,68.88,28.49,1.69,1.24,3.62,1.9,5.77,1.98l5.69,2.19c1.54-.7,4.89-.32,5.34,1.51.54-.48,1.22-.71,2.04-.68,13.76,2.48,27.41,5.27,40.94,8.38l.59.8c3.82,0,7.65.09,11.45.6,47.07,6.4,94.09,12.66,141.51,15.97l5.63,1.2,18.57,1.65,114.94,5.26,61.42,1.61c5.96.16,11.92.34,17.88.53,67.66.84,135.32.31,203.33-1.79l86.05-3.95,50.74-3.45,98.33-9.95,81.12-13.29c21.94-4.73,43-10.4,63.98-18.1,11.49-4.22,21.83-9.42,31.09-17.41,2.74-2.36,4.71-5.14,6.65-7.95l2.45,2.28c1.56.26,1.44.73-.03,1.22-5.3,8.92-20.38,17.82-30.02,21.33l-1.1.9c-26.64,11.05-56.26,17.9-85.66,24.23l-3.41-.02c0,.38,0,.67-.07.69-14.37,2.79-29.39,5.3-43.93,7.2-88.1,11.53-177.84,19.05-265.95,19.93l-17.3.36-31.36.54-37.31.64h-91.43s-39.84-.67-39.84-.67c-53.57-.88-106.59-3.48-160.1-6.49l-21.52-1.21c-2.09-.34-4.22-.34-6.4.02l-.39-.53c-.77.41-1.39.42-1.84.02-1.38-.45-3.76-.76-4.71.45-65.51-5.46-132.22-11.5-198.31-25.98-26.63-5.83-58.37-14.5-81.36-29.08-3.03-1.92-12.22-8.84-12.88-12.23-.13-.67.06-1.36.24-2-1.2-.07-1.28-.56-.15-.98,1.16-.44,2.78-1.14,2.46-2.51,1.11-.65,1.43-.31.68.75Z"/>
          <path class="cls-42" d="M312.42,457.26c-1.15.61,1,.32,1.84-.02l5.57-.02c.61,0,1.02.26,1.22.53-3.08-.17-6.22.57-9.51,1.04l-5.63.8c2.62,2.71,4.89,4.92,7.87,6.76.82.51,3.22-.26,3.54.82l-33.52-2.85c-31.31-2.67-62.09-5.76-93.28-10.11-44.85-6.25-96.51-14.72-138.52-30.64-13.28-5.04-25.57-11.05-36.89-19.49l-3.59-3.28-3.11-4.21c1.72-2.69,3.53-5.35,5.44-7.97l1.55-.2c2.17,3.88,5.08,7.3,8.93,10.16,18.26,13.57,46.29,22,68.85,27.9,26.41,6.91,52.74,11.67,79.81,15.74l85.48,10.26,51.53,4.18c1.01.08,2.04-.31,2.44.6Z"/>
          <path class="cls-106" d="M319.87,471.23l80.13,4.5,6.22.41,6.67.18,6.82.43,7.27.15,6.84.42,7.28.2,6.22.42,9.1.19c2.64.17,5.33.32,8.06.43l10.94.16c3.67.22,7.37.38,11.12.47l18.87.16c5.13.19,10.28.34,15.45.46l22.58.14c16.93.19,33.9.36,50.92.51h2.36c13.52-.15,27.02-.31,40.51-.5l21.96-.15c4.74-.13,9.47-.28,14.19-.48l14.68-.12c1.08.67,5.28.89,3.43.08.22-.29.81-.69,1.43-.7l18.49-.11c-.7,3.72-6.04-.27-9.58,4.77-.83-.77-2.39-1.18-3-.58-1.05,1.03-1.71,2.6-2.03,3.77,4.49,1.24,8.13-.09,12.06-.32l6.39-.38c4.02-.24,9.8,3.25,9.33,2.56.24.35.2,1.13.17,1.62l-1.12-.17c-1.62-.24-3.99.27-5.58-.69-1.24-.75-1.94-1.64-3.65-1.53l-9.82.65-26.6-2.03-38.3,1.18c-13.56.47-27.54.46-41.12.01l-45.31-.19c-3.07-.17-6.16-.31-9.27-.43l-16.44-.19-8.09-.4-31.78-.8-6.21-.38-36.1-1.58-24.5-1.09-28.84-.16-45.03-3.79-27.1-4.69c-1.8-.31-3.45-.97-4.61-2.12l4.57-.32Z"/>
          <path class="cls-34" d="M1133.07,370.31l-.17,3.06c-6.13-5.04-12.62-8.97-19.7-12.85-34-18.65-80.01-34.13-117.74-44.53l-48.53-11.58-32.64-7.15-.75-4.82,63.78,13.46c35.67,8.57,70.21,19.5,103.9,33.9,16.58,7.09,32.17,15.22,46.93,25.33,2.09,1.43,4.05,2.85,4.91,5.18Z"/>
          <path class="cls-1" d="M966.86,349.69l-.34,1.52c-10.29,6.35-7.23,17.69-1.99,26.46l-.84,1.17c.54,1.47,1.62,2.5,3.22,3.09h1.5c8.62,7.87,24.23,15.37,35.64,9.69,7.69-3.83,9.11-11.81,6.09-19.3-.43-1.62-.44-2.98,1.49-2.87.41-.48.89-.62,1.2-.15.99,1.53,4.79,7.77,4.66,8.95,0,.06-.59-.82.39-.64,2.7,9.15,2.39,17.51-5.06,23.55-1.22.13-1.41-.55-1.61-1.54-14.11,10.09-38.99-2.52-49.56-13.2-8.19-8.27-14.79-22.42-9.53-33.64l1.31-1.84c2.17-1.68,12.28-6.49,13.85-3.28.41.85.39,1.24-.43,2.02Z"/>
          <path class="cls-103" d="M247.87,295.53c.22.62.39,1.49.02,2.09l-38.78,8.44-38.89,9.62-16.58,4.84-26.51,8.47c-28.96,9.25-56.61,21.12-82.78,36.53l-8.27,7.84c-.35.33-.77.69-1.23.42-.17-.09-.33-.25-.45-.48-.19-1.97-.59-5.42,1.41-7,10.12-7.98,21.38-13.93,32.7-19.4l.66.15c56.23-25.51,117.45-39.88,177.74-52.57l.96,1.05Z"/>
          <path class="cls-78" d="M593,337.08c.13,1.15.39,2.17.77,3.15-.83.02-1.76.02-2.85.37l-.15,22.96.56,79.57.22,3.34c.97.8,1.56,2.11,1.78,3.92,6.39-.05,12.78.32,19.17,1.09l6.07-.29c3.14-1.94,10.02-.54,7.65,3.8l-43.48.36c-.47-1.17-2.35-.31-2.89-.79-.97-.95.72-2.57,1.71-2.78l.57-1.25c1.83-.21,3.64-.21,5.43-.02-.63-43.36-.95-65.04-.95-65.04l.6-.43-.08-21.57-1-.27-.46-21.25-1.05-1.41c-1.06-.2-2.6-.57-3.78-.3-.35-.99-1.26-1.16-2.42-1.29l-5.6-.67c-.56-.07-.7-.86-.8-1.19h20.97Z"/>
          <path class="cls-129" d="M1012.83,401.17c-4.68,3.8-10.31,5.59-16.69,5.55-17.97-.1-34.88-9.59-44.46-24.87-5.37-8.57-7.29-22.21.45-29.07-3.88,20.51,9.39,36.53,27.86,44.28,6.84,2.87,13.68,6.08,21.37,5.22,3.71-.42,6.71-2.78,10.29-4.16.85.75.96,1.89,1.18,3.04Z"/>
          <path class="cls-54" d="M248.61,295.37l-.75.16-28.72,5.95-46.35,11.28-50.38,14.55-31,11.26-21.46,8.55c-.37.15-.67.43-1.06.4-.2-.01-.46-.25-.38-.63,38.67-18.68,76.16-30.25,118.03-40.76,20.89-5.24,41.42-9.64,62.32-13.51l-.24,2.74Z"/>
          <path class="cls-2" d="M35,383.73c-.33,1.83-1.46,2.88-3.02,3.89l-8.29,5.47c-2.22-2.11-4.85-4.19-5.32-7.4l.11-2.14c.5-2.08,8.04-7.39,10.27-8.79.38-2.15,1.16-3.44,2.34-3.88-.58,4.35.49,9.44,3.9,12.85Z"/>
          <path class="cls-32" d="M273.24,320.43c.73.05.63.81.07.77l-23.04,11.38c-11.92,5.89-23.21,12.11-34.26,18.99-.25-.35-.5-1.17-.19-1.35l20.38-12.15,37.04-17.65Z"/>
          <path class="cls-37" d="M986.17,346.89c.14.62-.18,1.11-.94,1.48l-.96.94c-5.33-1.03-11.04-.46-16.2,1.21l-1.21-.83c-.2-.99-.69-1.62-1.2-1.85-.62-.28-1.26-.18-1.98.05l-10.24,3.06c2.26-3.16,6.16-4.46,10.08-5.57,7.5-2.12,15.35-1.04,22.66,1.52Z"/>
          <path class="cls-25" d="M986.17,346.89c10.54,3.69,19.29,10.74,25.9,19.78,2.56,3.5,4.61,6.86,5.81,10.94-.16.15.06.66-.5,1.27l-4.33-7.66c-.44-.78-.81-1.38-1.42-1.78l-1.93-.64c-5.84-9.59-14.53-14.67-24.23-18.95l-.24-1.49c.03-.32-.48-.9-.44-1.15.05-.29.96-.28,1.37-.33Z"/>
          <path class="cls-95" d="M31.11,370.87l-.91,4.47c-4.81,2.68-8.72,6.16-11.82,10.34-.04-.28-.47-.64-.68-.75-.3-1.27-.75-2.58-.58-4.17,4.16-4.19,8.39-7.83,13.49-11.3.36.16.56.97.5,1.41Z"/>
          <path class="cls-119" d="M1148.22,384.95c-.29.24-.62.6-.98.74-3.29-3.99-6.88-6.91-10.6-9.84l.46-4.65,11.57,10.35c.92.83-.2,2.62-.44,3.41Z"/>
          <path class="cls-90" d="M1153.04,401.48c-3.07-2.79-.37-7.53-2.98-11.15-.11-.3-.03-.92.03-1.22,1.01-.83,1.33-2.03,2.09-3.7,3.19,6.15,5.64,11.86.86,16.06Z"/>
          <path class="cls-21" d="M15.24,387.45l.15.98c-1.84,3.05-3.83,6.4-6.99,8.17.19-4.63,1.97-8.98,5.6-12.62l1.24,3.47Z"/>
          <g>
            <path class="cls-19" d="M790.84,557.07l-69.75,6.16c-67.17,4.25-134.18,5.05-201.52,3.05-47.64-1.41-94.97-4.29-142.18-8.97-6.71-6.77-11.74-14.02-17.17-21.63-7.68-10.77-14.61-21.41-20.81-33.08l-7.35-13.86,144.61,6.95c76.3,2.33,152.35,2.11,228.56-.13l113.22-5.2,19.04-.92-21.41,35.15c-7.84,11.35-15.42,21.87-25.24,32.5Z"/>
            <path class="cls-51" d="M786.62,546.94c-2.02-.1-2.87-1.32-3.01-2.4-.44-3.28,6.36-6.15,7.7-3.74,1.48,2.67-1.78,6.28-4.69,6.14Z"/>
            <path class="cls-44" d="M359.4,505.44c.09,2.57-2.95,3.27-4.83,2.54-1.75-.67-3.26-2.99-1.9-4.94.86-1.24,2.62-1.27,3.82-.79.98.39,2.84,1.31,2.91,3.19Z"/>
            <path class="cls-122" d="M816.75,503.51c.89,1.18.37,2.44-.06,3.04-1.33,1.9-5.97,1.21-6.51.11-.83-1.69.74-3.24,1.76-3.81,1.43-.81,3.64-.88,4.81.66Z"/>
          </g>
          <path class="cls-2" d="M302.71,444.69c-.77.08-1.81-.28-2.54,1.13,3.63,2.52,7.43,4.44,11.51,6.22.92.4,1.67.63,1.86,1.65-53.07-3.51-106.09-9.1-158.58-17.77-.53-4.34-4.81-1.31-11.4-3.57-1.68-.58-2.94-2.14-5.34-1.19-1.21-1.32-2.76-2.43-3.57-4.01-.76-1.48.48-2.51,1.09-3.19.71-.79,3.4-.75,4.02-.03,2.22,2.6,4.13,2.45,7.28,2.63,2.6.15,4.7.93,7.42.46,1.21-.21,3.44.29,4.75,1.01,2.76-.43,5.44-.14,7.94,1.43,2.48-1.02,4.81,1.52,7.06,1.46,2.76-.07,5.1.08,8,.76,1.45.34,3.12-.18,4.73.48,1.4.57,3.09.45,4.58.64l33.83,4.31c1.64.21,3.1.88,5.02.74-.97.07,9.66,1.13,10.37,1.28l5.41,1.15,5.03.88c8.1,1.42,12.06.91,11.64.85,5.23.85,9.96.81,15.19.86l6.07.76c2.11.26,4.06.15,6.36.3l12.27.75Z"/>
          <path class="cls-74" d="M526.34,462.73l-16.64.03c-.63,0-1.03-.23-1.24-.55l16.64-.06c.63,0,1.03.23,1.24.59Z"/>
          <g>
            <path class="cls-19" d="M370.76,556.74l-86.52-11.99c-24.98-4.7-48.87-11.61-72.94-19.53l-48.05-18.77-39.88-19.56-38.57-23.24-22.02-15.52,20.04,6.01c24.07,6.26,48.08,11.39,72.84,15.33,57.06,9.09,114.16,15.2,171.98,18.87,9.2,18.62,19.68,35.98,31.53,52.61l11.59,15.8Z"/>
            <path class="cls-58" d="M348.31,542.93c-.78,1.29-3.58,1.11-4.9.19-1.02-.71-2.78-2.36-1.99-4.03,1.07-2.28,3.5-2.33,4.97-1.45,1.81,1.09,3.24,3.12,1.92,5.29Z"/>
          </g>
          <path class="cls-89" d="M1029.87,436.78c2.12-.23,2.8.1,2.02,1.01l-46.06,7.77-69.11,8.53-23.41,2.07-39.2,3.56-57.01,3.35-36.12,1.52-39.24.6c-.88.01-1.61.12-1.82-.59l10.75-.31,42.05-1.55,123.74-8.41,101.95-12.02,31.46-5.53Z"/>
          <path class="cls-73" d="M1120.04,411.67c-.37,1.23-1.55,1.87-2.79,2.32l-24.78,8.92-60.57,14.88c-.41-.82-1.26-.95-2.02-1.01,20.9-3.68,41.48-8.73,62.09-14.88l28.08-10.23Z"/>
          <path class="cls-111" d="M639.7,487.36c-.21.28-.61.54-1.26.54h-38.62c-.65,0-1.04-.25-1.24-.53h41.12Z"/>
          <path class="cls-111" d="M553.27,487.18l-8.03.09c-.6,0-1-.23-1.24-.51l8.07-.11c.6,0,1,.25,1.19.54Z"/>
          <path class="cls-111" d="M527.56,486.56c-2.68-.03-5.54.45-8.09-.4,2.68.07,5.56-.55,8.09.4Z"/>
          <path class="cls-111" d="M487.7,485.36c-2.07-.05-4.31.47-6.21-.38,2.04.09,4.37-.77,6.21.38Z"/>
          <path class="cls-111" d="M594.36,480.46l-50.21.09c-.5,0-.73-.48-.71-.6l49.63-.05c.66,0,1.07.27,1.29.56Z"/>
          <path class="cls-111" d="M637.23,479.96c-.16.33-.56.61-1.25.61l-39.27-.12c.22-.27.64-.55,1.27-.55l39.25.06Z"/>
          <path class="cls-56" d="M691.5,479.3c2.25.06,4.41.33,7.03-.07-.16,1.3-1.9,2.33-2.8,1.84-3.92-2.15-5.69.5-7.66-1.86l3.43.08Z"/>
          <path class="cls-111" d="M520.86,479.8l-14.22.13c-.64,0-1.05-.25-1.22-.59l14.17-.06c.59,0,1.03.27,1.28.52Z"/>
          <path class="cls-111" d="M673.39,479.33c-.15.37-.57.61-1.21.6l-12.98-.13c.23-.26.67-.52,1.26-.52l12.93.04Z"/>
          <path class="cls-111" d="M486.54,479.19l-9.93.13c-.63,0-1.03-.25-1.19-.6l9.85-.05c.59,0,1.03.26,1.27.51Z"/>
          <path class="cls-111" d="M464.48,478.57l-7.4.09c-.41,0-.64-.36-.67-.52,2.68.06,5.51-.44,8.06.43Z"/>
          <path class="cls-111" d="M433.81,477.33c-2.26-.06-4.77.55-6.84-.42,2.27.05,4.72-.48,6.84.42Z"/>
          <path class="cls-29" d="M419.7,476.76c-2.26-.05-4.75.51-6.82-.43,2.26.06,4.74-.49,6.82.43Z"/>
          <path class="cls-111" d="M447.31,477.95c-2.06-.04-4.36.57-6.22-.42,2.07.06,4.31-.45,6.22.42Z"/>
          <path class="cls-29" d="M406.22,476.15c-2.06-.05-4.35.52-6.22-.41,2.06.12,4.36-.69,6.22.41Z"/>
          <path class="cls-136" d="M312.42,457.26l1.84-.02c-.62.95-3.82.86-6.2.28,1.68-.58,3.05-.25,4.36-.26Z"/>
          <g>
            <path class="cls-74" d="M42.14,385.53l7.03,4.63,5.72,3.64,9.2,4.31c2.49,1.17,4.53,2.28,7.23,3.27l6.71,2.47,11.27,3.93,20.76,5.81c2.55.71,4.72.68,7.3,1.25l6.45,1.44c2.69.6,5.51,2.03,8.2,1.14,1.07-.35,1.61-1.43,1.35-2.11-.65-1.68-6.02-1.22-6.48-4.98-.34-2.82.41-4.46,2.69-6.11,2.13-1.54,5.74-2.26,7.55.27,1.28,1.8-.02,5.62.25,8.84l-5.47,5.5c-.91.92-1.1,2.71-.29,3.16.86.48,2.29.71,3.09.13.58-.42.5-1.79.5-2.58l13.01,2.33,4.81.37,6.81,1.29c2.24.42,4.2.75,6.66,1.16l3.7.61,3.44,1.15,17.94,2.46c1.58.22,3.02-.29,4.64.29.84.3,2.72.68,3.57.65,1.51-.05,2.5.7,3.88.89,32.05,4.22,63.98,7.85,96.03,10.11l.79-1.15c28.75,2.04,57.59,3.89,86.51,5.56l.67,1.27c1.91-.47,3.77-.8,5.58-1l.77,1.26.48-1.21c61.88,2.86,123.99,4.52,186.34,4.97l.74,1.24-.35,1.57c1.45.19,2.13.46,1.54,2-54.16.45-108.28-1.41-162.38-3.83l-6.24-.27-111.41-6.56c-1.09-.07-2.29-.13-2.87,1.05-13.35-.91-26.75-1.7-40.22-2.37-28.59-4.41-57.26-8.16-86.01-11.25-2.27-1.09-4.47-1.59-6.61-1.5-2.54-1.39-5.12-1.82-7.98-1.41-2.21-.94-4.56-1.22-7.06-.84-3.51-.26-6.97-.75-10.4-1.46-6.82-6.33-8.22,2.53-.69,2.88,4.02,1.85,8.37,2.76,13.05,2.72,1.64.78,2.68,2.08,1.04,3.4l-43.57-8.5c-.75-1.64.58-2.89,3.99-3.76-2.83-3.89-11.45-5.49-16.17-6.17-1.01-.34-1.56.03-1.65,1.12-1.55.81-1.53,1.84.08,3.1,2.8.02,5.58.89,8.35,2.64l.06,1.57-26.44-6.7c-17.04-4.5-43.81-14.67-55.92-26.13l-.23-1.31,8.55-5.66c.96-1.36,1.95-2.16,2.99-2.38l4.18,4.19c1.1,1.1,2.58,1.36,4.17-.02-.83-.71-1.23-1.48-1.21-2.37Z"/>
            <path class="cls-2" d="M420.35,451.52c-2.05-.09-4.36.91-6.24-.27,2.06.12,4.33-.74,6.24.27Z"/>
            <path class="cls-2" d="M111.39,427.42c-1.62-.32-4.2-.26-5.34-1.51-.84-.92-2.26-.94-3.28-1.66-2.01-1.41-3.15-1.8-5.6-1.19-1.35-1.49-2.77-3.9-5.24-4.66-.65-.24.24-2.44.76-2.87.6-.5,2.17-.5,2.86.69-.21.73-1,1.63.13,2.49,1.15-.53,1.04-1.63,1.32-2,.43-.57,1.74-.61,2.56-.41l11.22,2.69c2.81.67,5.17,2.54,6.12,5.03-1.68,1.93-4.58,1.19-5.52,3.39Z"/>
            <path class="cls-2" d="M61.77,410.89c-.9-.71-1.54-1.42-1.83-2.9,1.87-.22,3.48.03,5.26-.88.38.09.49,1.33.12,1.48-1.36.47-2.28.56-3.56,2.3Z"/>
            <circle class="cls-2" cx="131.7" cy="408.29" r="1.26"/>
          </g>
          <g>
            <path class="cls-137" d="M584.63,340.53c.6.11,2.24-.38,2.27.94l.48,21.99-.16,21.58c-.47.09-.71-.01-.61-.41,0,0,.32,21.96.96,65.88.02.45-.54,1.02-1.26,1.05l-4.75.22-117.75-2.02-69.81-2.98c-.56,0-1.32-.24-1.3-.68.18-4.26,2.93-11.15,7.47-12.13,3.52.52,6.96.48,10.32-.11l1.6-1.3c29.01.26,58.57-36.77,35.79-61.44-27.92-30.24-84.07,3.48-70.67,42.59l-.71,1.87c3.48,8.58,11.98,13.69,19.83,17.86.53.73-4.42,12.32-5.02,12.66l-3.66.42-82.48-5.1-5.48-.58c-.19-.37-.56-.85-1.09-1.05-13.37-5.22-28.16-15.61-38.76-26.16l4.63-3.03c-2.2-1.71-4.55-1.81-6.76-2.78-4.99-2.18-8.8-5.49-11-10.7,6.61-9.42,13.91-17.67,21.94-25.98,11.52-11.93,24.52-21.87,38.82-30.33l20.38-10.61,33.14,4.16,44.6,3.85,74.11,3.16,48.28.53,4.47-1.12,52.19-.25Z"/>
            <path class="cls-2" d="M410.49,433.86c-2.99,2.02-7.98.35-11.41,1.67-2.02.78-5.78,8-5.09,11.25l-6.35-.26c.78-.15,1.77-.12,2.48-.7.51-.42.66-1.57,1.03-2.37l4.36-9.51c-6.11-2.51-10.38-6.49-14.64-10.75-2.46-2.47-3.44-4.67-4.39-7.62l1.84.75c6.51,10.44,18.5,16.09,30.61,16.33l1.56,1.21Z"/>
            <path class="cls-30" d="M587.22,385.04l.49,50.13c.04,3.69,1.12,7.14.19,10.81-.4,1.57-.41,3.12-.34,4.53-.24.03-.59-.23-.59-.65l-.31-17.41-.41-23.06-.41-39.57.45-6c.1-.16.29-.36.61-.38l.31,21.59Z"/>
            <path class="cls-2" d="M297.1,395.08c-.76,4.15-5.93,5.81-8.98,3.85-1.61-1.04-2.14-2.73-1.72-4.15,1.13-3.86,5.58-5.13,8.06-3.96,1.15.54,3.06,2.05,2.65,4.27Z"/>
            <path class="cls-2" d="M302.76,401.59c1.69,1.35.12,3.96-1.1,4.71-1.3.8-4.13,1.34-4.91-.85-.97-2.72,3.74-5.66,6.01-3.86Z"/>
          </g>
          <g>
            <path class="cls-68" d="M199.84,344.95c17.42,6.69,11.56,28.07,1.83,39.33,1.63,1.21,2.57,2.49,2.81,3.83-3.44,4.07-7.47,7.02-12.02,9.91-9.74,6.18-20.96,9.48-32.58,8.45-11.24-1-18.88-10.44-17.74-21.57.67-6.6,3.14-12.58,7.11-18,4.19-5.73,8.94-11.99,15.45-14.96l12.22-5.58c7.02-3.2,15.68-3.41,22.92-1.41Z"/>
            <path class="cls-17" d="M204.48,388.11c-1.68-.79-3.14-2.03-4.36-3.9,7.49-8.99,12.83-21.13,7.48-31.74-1.7-3.38-4.83-5.78-8.43-6.93-.2-.07.23-.74.67-.58,5.83,1.61,11.23,4.61,13.91,9.94,3.16,6.29,2.36,13.59-.27,19.99-2.09,5.08-5.53,9.13-9,13.23Z"/>
            <g>
              <path class="cls-86" d="M174.35,393.65c-4.63,1.05-8.49,1.55-12.71.6-8.45-1.9-14.28-9.44-12.42-18.12,1.57-7.37,5.34-13.56,10.93-18.5,7.65-6.77,16.78-11.38,27.28-10.57l6.67,1.79c3.4.91,6.2,3.13,7.71,6.49,3.82,8.5.6,17.64-5.54,24.33-6,6.54-12.8,11.92-21.91,13.98Z"/>
              <g>
                <path class="cls-125" d="M166.38,391.28c-6.05.22-11.22-2.67-13-7.82-4.23-12.2,10.3-27.61,24.59-31.87,5.98-1.78,13.01-1.82,18.03,2.13,4.71,3.71,5.3,10.81,2.69,16.23-5.9,12.26-18.25,20.82-32.31,21.33Z"/>
                <path class="cls-100" d="M193.81,364.66c-1.93,5.42-6.91,8.49-12.34,7.14-2.37-.59-3.82-3.17-4.19-5.14-.5-2.68,1.03-4.82,2.87-6.78,3.69-3.95,10.03-5.52,14.09-1.38,1.43,1.45.22,4.33-.43,6.16Z"/>
              </g>
            </g>
          </g>
          <g>
            <path class="cls-5" d="M985.24,348.37l11.79,5.87c6.14,3.83,10.82,9.62,14.61,15.21-.72.98-.54,2.04-.07,3.28,2.11,5.51,1.8,12.06-2.34,16.56-4.03,4.38-10.09,5.76-16.04,5.45-7.4-.39-13.8-3.7-19.97-7.55-2.46-1.53-4.76-2.9-6.3-5.26-1.46-.45-3.39-1.34-3.22-3.09l-1.44-3.4c-2.7-4.31-4.45-9.1-3.7-14.29.73-5.05,3.77-9.5,8.3-11.47,5.67-2.47,15.86-2.57,18.38-1.32Z"/>
            <path class="cls-37" d="M966.91,381.93c-.9.05-2.4.18-3.22-.49s-.01-2.05,0-2.6c1.43.63,2.42,1.86,3.22,3.09Z"/>
            <g>
              <path class="cls-75" d="M1000.01,390.83c-8.26,2.01-16.27-.47-23.05-4.9-10.62-6.94-19.15-18.51-12.67-28.85s27.5-7.72,38.89,8.11c2.88,4,5.42,7.89,5.69,12.97.3,5.89-2.62,11.15-8.85,12.67Z"/>
              <path class="cls-97" d="M997.73,369.5c-3.15,2.92-7.57,2.42-10.75.29-4.9-3.3-8.09-7.65-5.56-12.58,5.85-3.97,12.04.72,16.34,6.64,1.13,1.55,1.62,4.12-.03,5.65Z"/>
            </g>
          </g>
          <g>
            <path class="cls-137" d="M882.33,318.61l1.91,1.81c21.83,8.86,42.81,20.16,62.94,32.09-3.45,5.1-4.65,11.34-3.64,17.71,1.48,9.3,6.42,16.78,13,23.22,10.73,10.51,24.09,16.73,39.23,17.02,6.3.12,12.28-1.06,17.52-4.57l12.57,12c.87.83,1.03,1.69,1.25,2.63l-.21,1.28c-18.71,3.18-37.43,6.36-56.16,9.54l-.94-1.08-.27,1.27c-101.37,13.86-208.49,18.42-310.34,21.09l-6.29-.34c-2.64-.94-4.96-.99-6.96-.14-6.08.08-12.22-.02-18.42-.3-1.94-.36-3.73-1.07-5.38-2.12-2.92,3.85-27.92.29-29.91-1.75-.55-1.44-.85-3.05-.89-4.82-.48,0-1.22-.12-1.23-.42-.77-34.09-.74-69.01-.05-102.73,1.31-1.09,2.9-1.46,3.71.25h.54c4.81.56,9.93.45,14.76.05,44.43-.45,88.77-1.83,133.53-4.51,30.15-1.8,59.51-4.98,89.27-9.18,15.46-2.18,30.12-5.14,45.12-8.86,2.28-.56,3.72.16,5.34.88Z"/>
            <g>
              <path class="cls-35" d="M1027.1,420.51c.31,1.34.89,3.02,2.42,3.14l-58.48,9.94c-2.57.22-3.7-2.46-1.24-3.34l57.3-9.74Z"/>
              <path class="cls-38" d="M947.17,352.51c-1.14-.15-2.19-.79-3.42-1.46l-30.89-16.91-15.81-7.45c-4.34-2.05-7.98-4.69-12.96-5.36-.83-.11-1.56-2.11-1.77-2.7l10.26,4.55,23.73,11.24,30.45,16.75c.64.35.68.95.41,1.35Z"/>
              <path class="cls-120" d="M609.07,340.28c-.2.29-.63.56-1.23.56h-12.34c-.67.01-1.15-.22-1.2-.62l14.76.06Z"/>
              <path class="cls-20" d="M969.8,430.25c-.23,1.29-.06,2.8,1.24,3.34l-36.13,4.69c-56.04,6.12-111.93,10.25-168.39,12.93l-140.29,3.78c-.35-1.21-.8-2.38-1.49-2.93-.81-.65-2.41-.48-3.46-.48l-29.06.05c-.93-3.15-.87-5.79-.89-8.49.61.66.71,1.77.36,3.41l16.71,4.37c3.19.84,7.06.39,10.28-.13l2.86-2.3c1.79-.21,2.55,1.34,3.82,1.68,4.61,1.23,9.46.3,14.29.58,2.79.93,5.52.73,8.26-.71,4.02,1.03,7.69,1.47,12.1,1.33l106.94-3.55,4.63-.36c49.37-2.11,98.19-5.94,147.45-10.97l50.79-6.23Z"/>
              <circle class="cls-11" cx="605.48" cy="350.89" r="2.13"/>
              <g>
                <path class="cls-77" d="M612.51,434.4c1.92,2.14,2.03,4.85.75,7.09-1.04,1.83-3.44,2.99-6.01,2.73-3.08-.31-5.36-2.37-5.86-4.81-.61-2.96.9-5.73,3.04-6.81,2.73-1.37,6.05-.46,8.08,1.8Z"/>
                <path class="cls-116" d="M610.62,439.82c-1.88.58-4.31-2.73-3.2-4.27,1.04-1.44,2.72-.55,3.39.15.92.95,1.43,3.62-.2,4.12Z"/>
              </g>
              <g>
                <path class="cls-121" d="M783.02,413.04c-6.66,15.6-21.84,21.81-38.58,20.4-10.41-.88-19.64-4.1-27.72-11.25-9.5-8.41-15.4-21.98-13.44-35.08,1.62-10.81,9.79-20.41,19.54-24.87,24.47-11.18,52.97,3.71,61.46,29.23,2.49,7.48,1.69,14.64-1.26,21.56Z"/>
                <path class="cls-144" d="M776.96,416.46c-9.18,13.06-24.12,15.82-39.63,12.41-14.66-3.22-26.18-13.7-29.99-28.24-2.46-9.39-.53-18.78,5.33-26.33l-.36,3.68c-.34,4.02-2.36,8.34-1.41,12.4.39,1.69.48,2.72.58,4.4.35,5.91,4.18,10.89,8.18,14.9l4.86,4.88c1.57,1.58,1.65,1.87,3.85,2.46,2.01.54,3.1.83,5.29-.16l5.19,1.05c2.52-1.14,3.84.12,5.85.93,4.09,1.66,8.53-.32,12.62-1.75.29,3.29-2.19,4.54-4.45,7.06,7.34,3.38,16.15-3.57,24.12-7.71Z"/>
                <g>
                  <path class="cls-138" d="M750.18,363.34l.11.83c17.06,5.14,29.59,19.87,31.05,38.16-.48,5.08-1.41,9.89-4.39,14.12-3.5,4.25-18.72,12.72-23.65,9.22-1.24-.88-1.75-1.32-.9-2.84,4.72-3.94,4.33-4.77-1.16-2.5-3.48.71-6.9.16-10.26-1.63-2.41.46-4.82.25-7.24-.64-6.63,3.07-14.95-6.62-18.53-11.49-6.96-9.49-7.08-21.79-2.55-32.28,8.67-11.18,24.21-14.49,37.52-10.96Z"/>
                  <path class="cls-117" d="M781.35,402.34c-.97-.77-1.31-1.89-1.58-3.21-1.42-7.06-3.82-13.95-8.5-19.61-9.28-11.23-21.28-14.4-21.85-15.71-.07-.16.19-.44.75-.47,10.02,2.66,18.38,8.65,24.64,16.95,4.87,6.45,7.29,13.97,6.52,22.05Z"/>
                  <g>
                    <path class="cls-96" d="M717.46,392.87c-1.66-1.04-1.41-5.57-1.06-7.42.86-4.6,2.81-7.66,6.04-10.96l1.71-1.33c2.01-1.56,3.76-4.36,6.43-5.04l4.96-1.26c5.7-.45,11.98-.85,17.39,1,13.63,4.66,22.8,20.39,18.98,32.24-.74,2.3-1.08,4.76-2.46,6.8-3.67,5.43-9.28,8.95-15.79,9.94-14.75,2.24-29.31-5.25-34.98-18.95-.76-1.84-1.26-3.33-1.22-5.02Z"/>
                    <path class="cls-144" d="M717.46,392.87l-4.14-1.94c-.93-9.11,2.66-11.41,9.12-16.44-1.69,3.53-4.13,6.87-4.83,11.1l-.15,7.28Z"/>
                    <g>
                      <path class="cls-26" d="M755.42,412.88c-10.91,3.07-22.28-1.04-29.52-9.43-6.39-7.4-6.82-18.53-.89-26.24,2.76-3.58,6.68-5.8,11.16-6.71,14.31-2.92,28.9,5.78,32.56,20.05,2.55,9.94-3.19,19.48-13.31,22.33Z"/>
                      <path class="cls-65" d="M755.59,392.7c-5.19.76-8.96-2.28-11.21-6.54-1.28-2.42-1.71-5.07-.21-7.31s3.92-3.7,7.12-3.18c4.74.77,8.36,4.5,9.91,9.09,1.26,3.75-1.47,7.33-5.6,7.94Z"/>
                    </g>
                  </g>
                </g>
              </g>
            </g>
          </g>
          <g>
            <path class="cls-113" d="M410.49,433.86c-13.3.41-27.58-6.31-34-18.28-2.83-8.85-3.72-18.64.17-27.75,7.07-16.55,22.49-27.74,40.52-29.29,11.6-1,23.18,2.72,31.13,11.24,4.68,5.01,7.9,11.97,8.43,18.86,1.94,25.08-21.61,44.47-46.25,45.22Z"/>
            <path class="cls-6" d="M397.95,373.35l-.16,1.83c-21.95,19.02-5.63,47.67,21.92,39.16l1.05,1c2.56.04,1.31,2.85.22,4.32,3.53.18,7.31,3.65,6.45,7.18-18.5,7.6-40.87,3.53-47.65-15.49-5.7-16,2.62-32.53,16.21-41.76,1.26.5,1.78,2.48,1.95,3.75Z"/>
            <path class="cls-76" d="M429.16,362.84c-.2.72-1.21.16-1.14.17,7.93,1.43,16.3,7.37,19.77,14.68,1.29,2.73,3.29,7.14,1.42,9.63-.03,2.06.32,3.97,1.06,5.73-1.77,7.61-5.43,14.46-10.96,20.53,2.45-.6,4.02-.29,4.73.93-4.49,5.39-10.1,9.67-16.6,12.34-1.38-1.67-1.85-4.04-4.07-5.32-1.16-.67-3.33-.13-4.42-2.01,1.44-.79,2.63-2.32,1.82-4.17l.59-1.45c37.45-17.56,13.44-61.96-21.52-40.55h-1.88c-1.7-.63-2.34-2.14-1.95-3.74,9.63-6.54,21.61-9.12,33.16-6.76Z"/>
            <path class="cls-9" d="M452.97,393.04c-.3,8.3-3.74,15.23-8.94,21.47-2.36-.05-4.76.72-7.45-.05,7.27-8.08,13.6-16.62,12.63-27.13,1.23.41,1.91,1.76,2.03,4.05.96.24,1.54.79,1.73,1.67Z"/>
            <path class="cls-72" d="M429.16,362.84c6.64,1.36,12.74,5.07,17.19,10.06,4.95,5.56,6.89,12.93,6.62,20.14-.93-.11-1.83-.21-2.46-.67-.66-.49-1.04-2.73-1.3-5.05-1.42-12.62-9.64-20.58-21.6-24.1.49-.61,1.05-.39,1.55-.38Z"/>
            <g>
              <path class="cls-46" d="M420.77,415.34l-4.88,1.2c-4.03.39-7.98.63-11.89-.12-8.68-1.65-15.94-8.53-17.3-17.33-1.73-11.24,3.59-18.67,11.26-25.74,6.49-5.99,16.05-7.89,25.02-6.32,10.92,1.9,19.39,11.44,18.61,22.8-.64,9.29-6.5,17.03-13.94,22.01-2.19,1.47-4.39,2.89-6.87,3.5Z"/>
              <g>
                <path class="cls-49" d="M435.72,398.4c-6.7,12.56-22.09,18.78-35.32,13.14-10.66-4.54-13.26-17.23-7.92-26.65,6.83-12.06,20.28-18.18,33.49-13.63,3.91,1.34,6.59,3.82,8.77,7.14,4.11,6.23,4.74,12.94.98,20.01Z"/>
                <path class="cls-93" d="M426.87,391.21c-4.57,2.1-8.88.98-11.47-2.98-2.34-3.57-1.1-8.7,3.07-11.51,3.04-2.05,8.37-1.33,10.97,1.29,2.21,2.23,3.08,4.7,2.38,7.6-.53,2.21-2.25,4.36-4.95,5.6Z"/>
              </g>
            </g>
          </g>
          <g>
            <path class="cls-114" d="M841.86,559.45c.69,1.1.53,1.79-.6,2.3-4.19.93-8.2,2.19-12.01,3.78-1.66,2.99-3.31,3.3-5.27.41-5.17-.31-8.63,1.46-10.35,5.3-2.99.76-6.07.7-9.21-.19-1.91,1.58-4.22,1.91-6.91.98-3.3,1.78-5.18,1.74-7.52-1.42-2.89-.61-5.99-.57-9.28.1-5.83-.54-11.71-.11-17.63,1.31-1.03,1.54-2.39,1.73-3.9.67-3.02,4.6-5.96,6.01-8.82,4.24-1.14,2.19-1.44,2.46-3.7,2.9-2.54.49-9.69-.18-12.33-.8-1.47.32-2.9-.52-4.27-2.54-2.59,0-5.14-.28-7.66-.81-1.63,2-3.78,2.13-6.45.39-3.63,3.83-8.33,4.55-13.32,3.21-2.83.18-3.63.79-2.4,1.82-2.07,4.83-7.03.32-7.22-3.74-1.72.83-3.53,1.42-5.42,1.77.35,2.36-.27,3.53-1.87,3.52-.9-1.21-2.35-1.58-4.34-1.13-1.78-2.31-3.43-2.8-4.93-1.45-3.12-.52-5.85.68-8.19,3.59-3.72,2.74-6.38,2.56-6.05-2.66-1.09,1.21-2.34,1.73-3.76,1.56-.32,2.9-2.52,2.38-4.44.95-1.22,2.16-6.43,2.4-8.35,1.4-.89-2.79-1.63-2.62-1.76.41-1.35,1.03-3.05.68-5.12-1.04-1.15,1.73-2.3,1.24-3.8.19-2.71,2.71-7.74,2.84-10.93.73-1.4,1.37-3.44,1.8-6.11,1.31-6.2-.44-12.4-.31-18.62.39l-60.16-.16c-14.55-.69-29.07-.92-43.56-.69l-.51,1.19-83.19-5.91-68.14-9,5.04,2.33c10.35,2.89,20.72,5.41,31.11,7.58,18.14,1.5,36.24,3.47,54.3,5.91,5.68,4.85-3.99,6.83-8.07,5.75l-2.02.6-55.34-6.74c-17.71-2.74-34.72-6.69-51.44-12.87-9.65-3.57-21.95-9.98-23.39-20.4l64.83,9.02c37.34,4.22,74.65,7.41,112.38,9.12,84.41,3.82,168.69,3.72,253.04-1.24,39.57-2.33,78.82-6.92,117.63-11.95Z"/>
            <path class="cls-130" d="M495.63,586.07l4.63-.38c32,1,64.04,1.41,96.1,1.25l.42.82c.53.18.52.39,0,.62-.33,1.2-1.48,1.6-3.44,1.2,7.43,1.85,15.13,2.69,22.81,2.67,44.27-.51,88.17-2.63,131.7-6.36l.82,1.16c.47.31,1.03.88.82,1.26-.87,1.61-16.61,6.71-19.05,7.47-.45.04-1.42-.14-1.81.11-5.34-.02-10.82.03-16.01,1.12-.31.02-.94-.03-1.19.11-3.87-.49-7.63-.28-11.27.63-2.28-.48-4.38-.37-6.3.34l-2.06.57-1.53-.58c-9.78.5-19.49.53-29.13.09.4,1.76-4,1.81-4.92.66-8.81.17-17.59.39-26.35.66-.03.35-.06.63-.11.63-8.2.26-17.03.38-25.22.18-.14,0-.28-.35-.41-.78-20.35-.32-40.79-.52-61.33-.57l-.06.82c-34.6-.49-69.32-1.87-104.17-4.14l-1.14.38-13.26-1.48c1.21-3.33,5.58.65,10.84-3.42-.3-.89-.13-1.22-.31-1.44-.44-.54-1.56-.23-2.14-.3l-11.65-1.49-7-1.06-12.76-1.38-17-1.82c-2.59-.28-4.05.4-6.69-.86l-10.6-2.2c-9.77-2.03-19.98-3.79-28.58-10.17l73.79,9.75,83.58,5.94Z"/>
            <path class="cls-7" d="M730.43,595.77c-.61-1.56.89-.35,5.76-2.77l4.89-2.43,6.83-2.41c.53-.19.7-.75.75-1.13l.27-1.27,51.24-6.73c8.42-1.69,16.96-3.92,24.91-7.03-44.02,7.21-88.49,11.51-133.1,14.53l-.85-1.16c-2.04.14-4.11.29-6.22.45-.11.49-.3,1.21-.68,1.25-5.33.52-12.38.65-17.76.57-2.35.5-3.93.14-4.74-1.07-2.24.19-4.51.35-6.81.49-.09.48-.25,1.02-.68,1.23-.61.31-12.22.27-13.64.15l-.88-1.22c-3.12.14-6.23.3-9.34.46l-.04.82c-8.32.52-16.8.7-25.45.53l-.72-1.22c-2.29.47-5.21.5-7.39-.05l-57.57-.36-43.58-1.33c2.72-1.29,5.92-.84,9.17-.78l15.31.27c2.77.05,4.92.15,7.76.26l8.29.3,32.42.05,14.55-.35h6.48s5.91,0,5.91,0c2.38,0,4.3.78,6.96-.45l5.27.04c5.75-1.72,9.9.76,15.22-.18.1-1.05-.05-1.75.8-2.82,1.43,2.71,3.44,3.36,6.1,3.18,2.06-.14,3.64-.52,4.34-2.74,1.22.42,1.95.81,3.03,1.72.65-.92.72-1.54.87-2.19l4.75,2.92c.11-1.64,0-2.68.5-3.25.38-.43,1.74-.3,2.24.08s.89,1.16,1.1,2.57c1.92-.82,4.05-.58,5.91-.9.27-.35.43-1.49.48-1.81.23-1.54,2.33,2.31,4.59,1.3-.56-.73-1.19-1.27-1.4-2.4,1.82.07,2.73.71,3.5.5.65-.18,1.7-1.79,2.4-1.71,1.91.2,1.16,2.87,1.24,3.89.69,1.15,3.42.73,4.02-.65-.82-.69-1.64-1.26-1.33-2.64.96.75,1.67,1.26,2.88,1.56,1.61-2.6,4.64-3.69,7.23-2.86.87-.69,1.79-1.23,2.79-.88.93.32,1.34,1.04,2.19,1.96s2.69.19,3.97-1.01c.39,1.2.09,2.2,1.27,2.91l-.13-3.06c-.05-1.24,2.14-.92,2.8-1.17,1.89-.72,2.94-2.08,5.08-1.63-.13,2.54,1.21,5.52,3.52,5.9,1.18.12,1.76-.73,1.15-1.29-1.16.24-1.38-.37-1.52-.7-.14-.3-.02-.93.44-1.02l4.53-.89c1.43-.28,5.86,2.24,11.01-1.33,1.08-.75,2-2.75,3.97-1.55.78.48,1.69,1.3,2.79.81.6-.27,1.28-.8,1.87-1.88,4.85,2.59,8.98-1.46,10.74,4.03,1.7-.81,2.65-.01,4.05.08l7.53.48c1.5.1,2.34.53,3.47-.21.9-.59,1.09-1.9,1.89-3.29,1.06.16,2.92,2.28,4.4,1.21,1.76-1.27,2.97-4.34,5.05-5.17l2.05,1.1,1.29-1.49,9.12-1.39c2.17-.33,3.35-.84,5.49-.36,7.18,1.6,11.73-2.95,15.14,2.09,1.46,2.17,4.1-.52,5.5-.41,2.06.25,4.36,1.48,6.11-1.09l6.23,1c1.14.18,2.9-.09,3.21-.83l.98-2.35,3.36-2.17c2.63-.12,4.86-.17,7.64-1.04-.19,1.31,1.05,2.94,1.74,2.49.96-1.6,1.56-2.89,3.57-3.43l6.68-1.79c1.81-.49,3.78-.38,4.66-2.15l29.61-4.64c-1.46,4.11-3.47,8.59-7.15,11.28-7.31,5.35-15.39,8.79-24.06,11.5-12.41,3.89-24.57,7.06-37.46,9l-34.71,5.23-37.66,3.95Z"/>
            <path class="cls-135" d="M687.43,612.24c1.5-.38,7.19-.69,7.78.4.49.91-2,5.05-2.87,5.94,11.65-1.01,23.1-3.01,34.51-5.58,2.66.35,5.29.35,7.89-.02-.63-2.96,7.16-1.28,4.27,1.16l-25.79,5.05c-25.22,4.16-50.15,6.51-75.58,8.12l-9.92.63-21.48.54-44.33.28-6.85-.66c-5.4.31-10.81.2-15.86-.54l-1.82-.37c-3.2-.17-8.2-1.39-3.27-4.26-10.22-.83-20.33-2.31-30.31-4.44-1.51-.64-7.16-3.3-4.67-4.48,13.79-.28,27.55-.25,41.29.08l.58-1.22c48.39.63,97.26-.19,145.5-1.82l.93,1.2Z"/>
            <path class="cls-69" d="M740.11,601.01c2.2.77,4.65.93,7.35.47,3.05,2.52,2,5.54-3.17,9.06-.8.81-1.1,1.65-.9,2.52l-4.39,1.07c.57-1.64-3.58-1.63-4.27-1.16l-1.78.3c-12.71-.88-25.49-.98-38.36-.28-.1-.5-.23-.91-.49-1.02-.93-.39-5.34.04-6.68.26l-16.52.54-39.49,1.02-55.22.58-35.78-.29c-5.79-.18-11.52-.37-17.2-.59l-10.63-.9c-3.67-4.04-6.51-4.26-8.51-.67-3.59.89-7.42.8-11.49-.27-3.7,1.26-6.88.78-9.53-1.44l-13.89-3.92c-1.27-.54-1.52-1.28-.47-2.24,59.87,3.26,119.79,3.84,180.11,2.11l91.3-5.16Z"/>
            <path class="cls-101" d="M468.7,604.05c.05.38.45.99.97,1.14l11.39,3.19c2.19.61,3.42.69,5.15,2.6,1.79.75,4.84-.81,6.9-.51l6.04.89c1.32.19,3.62.74,4.51-.81,1.25-2.18,3.11-3.19,5.6-2.07l4.1,3.16c2.17,1.67,7.95.56,9.87,1.86-7.78.46-15.77.63-23.97.51l-.52.95-32.4.69c-3.21.42-6.33,1.89-8.09,4.7l-24.02-4.3c1.78-.76,1.78-.93,0-.54-13.23-2.89-36.16-8.69-46.31-17.12-.47-.39-.47-.94-.2-1.51l11.85,1.8,69.12,5.36Z"/>
            <path class="cls-31" d="M523.23,613.5l15.97-.02c.61,0,1.04.27,1.23.61l-41.32.2c3.69,3.12,8.08,4.26,12.5,4.77l29.87,3.41-7.59,1.77c-.62.14-.08,1.62.19,2.04.41.64,1.61,1.01,2.6.69,1.27-.41,1.94.49,2.53.58-27.14-.68-54.07-3.47-80.95-7.2-2.19-1.67,3.68-5.86,8.96-5.99l20.85-.53,35.16-.34Z"/>
            <path class="cls-62" d="M542.78,598.94c20.48.07,40.92.26,61.33.57l25.74-.03c8.77-.27,17.55-.49,26.35-.66,1.66,0,3.43.34,4.92-.66,3.27.43,6.63.55,10.1.37l.37.64c-2.39,1.05-4.79.74-7.43.81l-14.98.37-19.37.4-39.89.54c-47.26.63-93.96-1.71-141.04-4.58l-11.47-.7c.11-.8.62-.86,1.15-.83l9.3.5,68.69,2.93,26.24.35Z"/>
            <path class="cls-33" d="M776.97,596.97c-.28.83-.64,1.75-1.4,2.25-2.15,1.41-24.97,12.6-28.3,11.94-.07-.01,1.37-.1,1.04.66l-4.91,1.25c-.63,0-1.44-.43-1.2-1.17,1.49-4.52,7.1-5.33,5.72-8.28-1.57-3.36-6.39,1.72-7.81-2.6l36.86-4.04Z"/>
            <path class="cls-48" d="M387.73,596.89c2.15,2.25,4.9,3.73,8.01,5.13,13.18,5.91,26.78,9.93,40.54,13.48-.75.76-1.55.52-2.04.56-12.62-2.26-40.87-9.62-49.26-19.14,1.01-.76,1.97-.15,2.75-.03Z"/>
            <path class="cls-8" d="M748.31,611.82c-.35-.23-.85.08-1.66-.55l14.39-6.24c5.63-2.45,10.99-4.84,15.94-8.05.84-.09,1.68-.62,2.72-.21-4.26,6.59-23.45,13.04-31.38,15.06Z"/>
            <path class="cls-55" d="M691.79,598.66l-20.19.51-9.86-.33c-.38-.01-.7-.45-.61-.68l28.8-.72c1.04-.03,1.75.31,1.86,1.22Z"/>
            <path class="cls-7" d="M728.62,595.89c-1.21.79-2.8.38-4.41.47l-11.59.65c2.71-3.3,5.9,1.3,9.45-2.11l6.56.99Z"/>
            <path class="cls-7" d="M711.42,597.12c-1.43.89-3.66.22-5.57.4-4.23.39-8.11.94-12.01.57,1.96-3.48,5.13.6,7.79-1.06,3.73-2.32,6.22-.04,9.78.09Z"/>
            <path class="cls-140" d="M748.66,587.04l-28.06,2.46-21.57,1.35-80.13,2.57c-8.8.28-16.91-.56-25.32-2.48-1.22-.28-2.27-1.08-2.34-2.61l5.53.05c2.38-.19,4.85-.38,7.4-.57l26.21-.12c3.12-.14,6.24-.29,9.34-.46l15.2-.16c2.32-.12,4.59-.29,6.81-.49l23.17-.74c2.11-.15,4.18-.3,6.22-.45l76.96-6.44,58.99-8.46c.82-.12,1.56-.03,1.77.49.84,2.15-23.79,8.86-33.02,10.04l-47.17,6.03Z"/>
            <path class="cls-55" d="M604.11,599.51l-60.02-.12c-.69,0-1.05-.21-1.3-.46l60.64-.18c.54,0,.77.51.68.75Z"/>
            <path class="cls-55" d="M656.21,598.82c.03.23-.22.58-.66.58l-25.69.08c-.07-.26.18-.69.64-.69l25.71.03Z"/>
            <path class="cls-55" d="M604.16,587.81c-.18.34-.59.6-1.22.6l-6.18-.03v-.62s7.4.05,7.4.05Z"/>
            <path class="cls-55" d="M639.72,587.23c-.22.31-.62.56-1.24.55l-8.11-.09c.23-.29.66-.55,1.27-.55l8.07.08Z"/>
            <path class="cls-55" d="M661.73,586.57c0,.2-.19.55-.65.54l-6.16-.05c2.09-.86,4.55-.42,6.81-.49Z"/>
            <path class="cls-55" d="M691.12,585.37c.01.18-.17.5-.62.5l-5.59-.05c1.89-1.03,4.17-.28,6.22-.45Z"/>
            <path class="cls-3" d="M734.73,612.98c-1.23.84-2.79.23-4.39.56l-21.33,4.34-19.79,2.29c2.33-2.44,4.26-4.46,4.95-7.99l-6.74.06c1.48-1.12,3.55-.4,5.55-.44l30.01-.63c4-.08,6.02,2.55,11.75,1.8Z"/>
          </g>
        </g>
        <g>
          <path class="cls-4" d="M435.17,257.42c-.34.36-2.55.61-2.71.6-.61-.04,6.87.03,8.29.11,11.29.63,22.56.97,33.84,1.3,6.04.18,12.34.4,18.32.96,0,0-1.69,5.62-5.06,16.85l-1.6,1.9-1.65.43c-28.33-11.65-35.26,33.57-4.69,30.89,2.16-1.02,4.1-1.35,5.82-1l1.51.19c3.27,3.98,7.39,7.05,12.37,9.2,2.07-10.78,11.53-7.59,13.94,1.02,4.11,4.26.35,6.47-3.89,7.61l-80.67-3.51-74.19-6.51,14.4-33.21,12.89-28.73c.86-1.56,2.09-1.56,3.73-1.46l46.07,2.94c1.25.08,2.48-.57,3.27.42Z"/>
          <path class="cls-12" d="M563.29,260.48l.19.71c24.77-.08,49.42.08,73.94.49l.42.82,1.57,9.09c.85,4.93,1.1,9.17,1.38,14.11l2.38,41.98-20.05.3c-21.6.47-44.2.54-65.66-.08l-2.35-.88c-5.19-6.77-11.21-12.4-18.3-17.35-3.5-4.05-2.37-9.93-1.16-14.7,3.17-10.12,4.99-20.5,5.47-31.14l-15.52-.91c-.52.02-.77-.55-.74-1.69.04-.47.33-1,.64-1.18.38-.21.85-.05,1.37-.05l34.37-.08c.91,0,1.54.04,2.04.54Z"/>
          <path class="cls-120" d="M593,337.08c0,.47-.1,1.18-.41,1.23-4.38.68-15.25.02-19.84-.65-.35-.05-.57-.27-.72-.58l-31.74-.75-108.33-3.73-80.27-7.15-50.28-7.94c-14.93-3.03-29.3-7.04-43.02-13.17-3.76-1.68-6.26-4.88-5.1-8.98,5.67,4.32,11.65,6.92,18.32,9.16,13.06,4.38,25.98,7.48,39.62,9.95,20.6,3.73,40.73,6.58,61.62,8.29l65.89,5.38,98.03,3.13c58.77.98,117.07.02,175.78-2.72,30.77-1.43,60.96-3.32,91.34-7.12l31.82-3.98c14.33-1.79,27.97-4.66,41.94-8.29,11.12-2.89,21.29-6.81,31.52-12.13,1.03,3.86-1.22,6.56-4.6,7.96-13.01,5.39-26.18,9.97-40.29,12.19l-62.93,9.92c-35.96,3.97-71.48,6.5-107.71,7.42l-100.61,2.56Z"/>
          <path class="cls-60" d="M337.94,242.96c1.98.39,3.42.1,4.34-.86l38.78,3.34,112.35,4.44.71,1.25,1.67-.75c44.06-.4,88.12-.4,132.18-.01l95.38-1.87.78,1.21c4.04-1.25,8.38-1.92,13.03-2l73.49-4.38c1,.94,2.47,1.25,4.41.92-.36-1.47,4-1.36,5.36-1.23.17.02.32.33.46.72-.68,2.48-2.94,3.3-5.31,3.45l-5.58.34-4.6.04c-4.86,1.33-9.26,1.95-14.32,2.23l-34.53,1.88-60.46,2.98-81.57,1.64-102.32-.39-110.22-3.79c-19.22-.66-37.54-2.35-56.4-4.88l-17.5-2.34c-1.53-.2-2.36-2.31-2.65-3.6.05-.3.12-.58.29-.79.38-.46,10.73,1.45,11.93,1.7.15.03.24.34.31.74Z"/>
          <path class="cls-91" d="M435.17,257.42l5.94.06c2.04.22,4.08.42,6.13.61h7.97c3.06.23,6.12.43,9.19.61h10.42c4.06.19,8.15.37,12.27.56l34.64.63-5.79,67.42c-2.35.59-4.33.24-6.26.15.47-1.69,2.74-2.11,3.83-2.96,2-1.58-.48-3.05-1.01-4.06-1.44-2.73-2.01-5.46-4.91-6.87-1.83-.89-4.05,0-5.2,1.22-1.41,1.5-1.28,3.4-1.33,6.16-5.67-2.87-12.84-6.55-15.31-11.49l.26-1.63c9.31-6.54,9.54-20.19.46-27.04l-.21-1.64c1.07-6.48,3.3-12.49,5.87-18.5l-15.23-.39-17.7-.64-10.77-.38-10.41-.6-6.17-.71c1.05-.77,2.27-.51,3.33-.5Z"/>
          <path class="cls-139" d="M404.23,240.55c12.15-.15,24.31.41,36.48,1.7,25.73,1.46,51.18,2.32,76.35,2.59l.1,1.5-.75,1.22-6.22.36c-4.03,2.5-8.71,3.31-14.05,2.44l-2.03.77-113.14-4.47-43.04-3.71.26-.67-28.27-4.37c-3.34-1-5.17-2.81-1.28-5.07,2-1.16,19.86-4.04,23.16-4.43,3.8-.44,2.43.5.45-.01-.17-.04-.29-.28-.4-.56l7.35-.83c6.07,3.8,12.7,5.69,19.83,7.15,15.08,3.1,30.13,4.87,45.18,6.38Z"/>
          <path class="cls-39" d="M772.17,235.91c-1.75,1.24-3.85,1.01-5.27,4.24.84.5,1.25.29,1.58.46-3.11,1.11-6.33,1.57-9.6,1.84-27.7,2.32-57.09,3.21-83.7,3.64l-.28.51c-14.65-.1-29.29.13-43.95.69l-.42-.81c-13.53.19-27.03.38-40.5.59-.09.29-.19.52-.29.52-7.4.15-14.95.12-22.36-.06-.14,0-.27-.22-.41-.49-10.95-.39-22-.49-33.16-.3-.21.47-.41.84-.63.85-4.68.15-10.67.34-15.26-.02l-.74-1.23c-.83-.86-1.78-.37-3.23-.39-36.83-.41-73.37-1.77-109.71-5.4.62-.23,1.39.02,1.94-1-1.29-1.09-2.49-1.81-3.04-3l.65-1.18c39.63,3.1,79.62,4.98,119.98,5.65l.67,1.19c4.99-.06,9.9.12,14.73.56l.42-1.23,93.27-.16c44.19-.64,89.12-2.59,134.8-5.83l4.5.36Z"/>
          <path class="cls-28" d="M815.06,244.25l-3.91.28-87.02,5.19c-1.34-1.39.01-2.22,1.53-2.86,4.41-.21,8.63-.87,12.65-1.98l2.66-.93c16.14-1.27,32.22-2.98,48.24-5.12-1.31.14-2.21-.05-2.71-.55,11.5-1.48,28.55-4.57,37.62-10.67,10.25,1.32,20.47,2.96,30.65,4.92,4.02,1.26,5.52,2.34.52,4.86-13.31,3.66-27.02,5.06-40.64,5.86l.41.99Z"/>
          <path class="cls-79" d="M786.5,238.29c.75.12,1.68-.08,2.71.55-16.76,3.36-33.81,5.41-50.9,6.05l-.91.62c-13.47,1.23-27,1.95-40.58,2.16l-.79-1.2c-6.72.33-13.68.36-20.47.14-.14,0-.27-.23-.4-.52,3.48.26,6.67-.66,10.47-.75,27.92-.63,55.4-2.17,82.84-4.73l18.03-2.32Z"/>
          <path class="cls-27" d="M637.84,262.5l-29.45.03-42.23-.61-28.27-.2c.07-.39.07-.75.01-1.15l25.38-.09,73.19-.5c1,0,1.26,1.89,1.37,2.52Z"/>
          <path class="cls-80" d="M820.88,243.74l-5.82.51c-1.26-.31-2.83.23-4.18-.86,3.8-1.95,7.6-.74,11.42-1.27l20.93-2.91c5.01-.7,9.72-1.75,14.38-4.3-2.01-1.58-4.12-1.85-6.32-2.25l-27.18-5.05c1.71-.9,4.72.04,6.75.35l26.56,4.14c2.77.43,5.29,1.33,7.8,2.79-.92,1.61-2.49,2.03-4.26,2.51-13.3,3.56-26.66,5.16-40.09,6.34Z"/>
          <path class="cls-145" d="M331.86,227.85c.73.17,1.7-.09,2.67.62l-21.26,4.05c-2.11.4-4,.97-5.85,2.49.83,1.21,2.18,1.99,3.79,2.25l30.77,4.97c-1.23.99-2.81.51-4.05.73l-12.53-1.65-14.25-2.23c-4.16-.65-8.04-1.63-12.06-3.59,1.73-2.19,4.04-2.79,6.48-3.21l26.27-4.44Z"/>
          <path class="cls-120" d="M557.47,327.91l65.66.08c-.2.34-.52.58-1.28.58h-69.79c-.74,0-1.08-.25-1.32-.53l6.73-.13Z"/>
          <path class="cls-4" d="M487.08,259.26l-11.63.02c-.43-.04-.65-.31-.64-.58l11.07-.03c.66,0,1.12.23,1.2.59Z"/>
          <path class="cls-4" d="M464.4,258.7l-8.01.03c-.66,0-1.12-.24-1.18-.65l8.01-.03c.65,0,1.11.23,1.18.64Z"/>
          <path class="cls-60" d="M729.63,257.26l-2.03.24-5.55-.02c2.56-.95,5.44-.8,7.58-.22Z"/>
          <path class="cls-4" d="M447.24,258.08l-4.95.03c-.65,0-1.11-.24-1.17-.64l4.95-.04c.65,0,1.11.23,1.17.64Z"/>
          <path class="cls-85" d="M738.31,244.89c-.56,1.45-1.93,1.93-3.69,2.1l-5.48.54c-2.13.21-4.08.25-5.01,2.19l-96.15,1.88-133.86-.46c.15-.89,1.6-1.83,2.74-1.54,3.5.9,10.25-.29,12.77-2.74,2.08-.67,5.29-.53,7.53-.52l48.35.07c.7,0,1.17.29,1.45.63-.12.27-.21.49-.19.49,20.68.21,41.66.38,62.29.14,22.24-1.06,44.57-1.46,66.97-1.2l42.27-1.58Z"/>
          <path class="cls-108" d="M675.17,246.09l20.87.38c-.12.43-.48.55-1.25.55l-55.09.26-6.24,1.01-76.15-.32-23.37-.26c-.17,0-.4-.42-.33-.61l33.35-.07,23.06.02c13.48-.2,26.98-.4,40.5-.59l28.33-.35,16.32-.04Z"/>
          <path class="cls-85" d="M630.52,246.48c-.21.34-.6.59-1.27.59h-39.23c-.03-.25.21-.62.67-.62l39.83.02Z"/>
          <g>
            <path class="cls-16" d="M557.47,327.91c-1.86.64-4.63.47-6.73.13l-31.33-.23c-.59-3.61-.03-6.41.28-9.74l5.18-56.82c.33.3.75.51,1.38.54l16.22.88-1.29,13.21c-.56,5.71-1.45,11.05-3.39,16.42-2.12,5.85-3.53,13.89.41,16.98,4.15,3.26,8.56,6.05,11.98,10.03l7.28,8.6Z"/>
            <circle class="cls-124" cx="535.29" cy="269.52" r="2.28"/>
          </g>
          <g>
            <path class="cls-10" d="M576.44,16.6c.4-.23.85-.28,1.31-.29,1.8-.06,14.47-.29,15.01.23.91.88.37,1.36-1.22,1.73-32.72,2.75-64.01,11.65-92.14,28.89-28.42,17.41-54.01,44.69-69.69,73.71l-1.6.55-.59,2.39c-13.21,22.95-21.67,48.84-24.68,75.2.6.43.99,1,1.14,1.71l-.77,1.37c-10.28,1.06-19.59,4.15-27.96,9.27-.75,1.13-1.68,1.61-2.8,1.44.51,1.04.51,2.24,0,3.62l-.02,5.48c-1.05,2.42-1.27,5.12-.66,8.1l-.03,2.38c-7-1.44-13.99-2.08-20.34-4.78l.71-1.28,3.17-21.65,1.32-.54c-.23-1.61-.45-3.27-.13-4.88,6.01-29.8,20.61-62.87,38.41-87.4,14.58-20.08,33.09-39.38,53.49-53.62.59-.41,1.29-.67,2-.92s1.48-.42,2.25-.57c.22-.93.87-1.79,1.96-2.58,27.71-17.79,60.6-31.82,94.62-35.85l2.37.45c.42-.38.85-.74,1.33-1.03,2.46-1.49,19.44-3.03,22.06-1.95.52.21,1,.51,1.47.83Z"/>
            <path class="cls-40" d="M816.23,215.31c-.42.26-1.04.65-1.35.43-3.05-2.25-10.93-8.51-7.69-12.19-.82-1.22-1.65-2.5-2.01-3.94-6.35-25.69-12.58-50.38-26.88-73.16-3.39-4.74-6.08-9.68-8.07-14.84l-1.64-.91c-26.92-36.57-63.6-64.31-104.93-79.45l-.19-1.42c-1.29-.8-1.92-2.1-1.88-3.9-3.97,2.47-8.9,1.04-7.43-4.27-1.36-1.4-2.49-3.24.08-2.88,33.02,10,63.83,27.07,89.38,50.71,22.22,20.57,40.04,44.9,52.55,72.4,7.74,17.04,12.85,34.44,16.62,52.66l3.42,20.74Z"/>
            <path class="cls-127" d="M452.64,56.73c-13.64,9.42-26.16,20.12-37.56,32.55-14.63,15.96-27.37,32.96-36.91,52.46-9.83,20.08-16.75,40.88-21.56,62.37-1.41,1.43-3.42,2.25-6.02,2.47-.45,2.48-2.52,3.32-2.26.51l1.12-6.98c4.73-19.44,10.4-38.67,19.23-56.78,18-36.93,45.04-68.42,78.43-91.69,1.97-.97,3.88-1.6,5.73-1.88,3.02,1.49,2.95,3.81-.2,6.96Z"/>
            <path class="cls-59" d="M654.26,18.79c-.64.26-.53.82-.18,1.03,3.22,1.93-.71,5.07,2.15,6.35,2.4,1.07,6.11-3.1,6.47-1.19l.79,4.85-2.11.09c-16.78-5.18-34.44-9.55-51.62-10.42-2.23-.15-3.51-.91-3.82-2.27l-1.83,1.07c-.73.13-10.3-.61-10.96-.82-.19-.06-.28-.45-.34-.95-5.49-.22-10.95-.2-16.38.06-8.31-.13-16.65.88-24.86,2.15-2.57.52-3.63-.24-3.17-2.26l-2.03-2.2c-5.93,1.89-11.8,2.8-17.63,2.7l.05-1.51c19.17-4.4,38.66-7.03,58.78-6.67,22.87.41,45.21,3.48,66.69,9.98Z"/>
            <path class="cls-18" d="M551.58,18.75c-26.05,4.01-51.54,11.69-75.19,23.92l-23.75,14.06c-1.31-1.64,2.66-3.17.87-5.05-2.44-2.56-4.59,1.05-6.39-.03,24.63-17.17,52.41-29.45,81.68-36.17.97,1.32,3.02.15,4.18.28,2.62.3,4.12-.66,6.14-1.12l7.6-1.71c.96.94,2.19,1.83,2.85,3.23l.1,1.97c.03.58,1.26.65,1.91.62Z"/>
            <path class="cls-110" d="M816.23,215.31l.92,11.28c-8.15,3.66-16.73,5.17-25.42,6.68l.06-4.56c0-.62.59-1.3.53-2.47l-.34-6.74c.48-5.19-2.32-8.69-6.55-10.97-.62-3.87,5.5-4.46,8.55-3.36,3.28-.49,6.56-.71,9.84-.64,1.13-.91,2.26-1.24,3.38-.97.23,1.26.05,3.47,1.23,4.58l7.81,7.18Z"/>
            <path class="cls-45" d="M356.61,204.12l-3.38,23.08c-.4.37-1.46.39-1.82.39-1.73-.74-3.77-1.06-5.31-2.56l2.24-17.92c.49,1.42,1.49.15.84-.27.39-1.78,1.66-1.43,2.79-1.74,1.76-.48,3.06-1.4,4.64-.98Z"/>
            <path class="cls-115" d="M605.94,17.24c.57,4.29-5.02,6.27-8.68,7.34l-7.87,4.04c-.78,2.48-2.08,4.46-3.88,5.93.42,2.47-.12,4.92-1.63,7.35-1.18,4.47-.67,9.01,1.55,13.62-.55,2.17-.46,4.14.26,5.91,1.52,2.4,2.53,5.13,3.04,8.18,2.48,1.46,4.46,3.53,5.93,6.19,2.09,4.71,3.98,9.47,5.65,14.27,2.45,2.16,4.1,4.65,4.94,7.45,3.12,1.85,6.09,4.46,8.9,7.81,1.93,1.1,3.33,2.41,4.19,3.93,7.67,6.75,17.39,10.58,27.4,12.73,2.23,2.05,5.03,3.01,8.4,2.87l3.51,2.38c2.8-2.76,5.33-2.96,8.57-1.14,1.47-.76,2.5-.58,3.09.53-6.56,4.11-10.99,10.5-14.02,17.8-2.23,5.37-3.11,10.79-4.41,16.49l-6.99,30.83c-.54,1.55-1.36,2.33-2.49,2.34-39.52-1.18-79.03-1.29-118.55-.34l-5.96-.58-1.18-4.82-7.76-40.67c-1.15-6.02-4.61-11.4-8.56-15.9-8.78-10-27.4-10.79-40.68-8.67-10.38,1.65-18.8,8.13-23.08,17.35-.8,1.47-1.64,1.76-2.99.63-1.24-1.04-5.2-14.61-5.32-16.67-.07-1.2.07-1.97.76-3.01,4.57-10.38,18.29-29.74,26.2-37.66l18.65-18.65c21.06-18.34,43.49-30.41,70.12-39.01,16.4-5.3,33.24-7.27,50.04-9.24l-16.68-.25c.23-.3.69-.61,1.29-.6l15.1.23,13.1,1.01Z"/>
            <path class="cls-98" d="M435.66,140.46l-1.32,3.48.43,2.46c-4.99,17.05-8.02,34.09-9.39,51.57l-1.66,1.38c-6.28.37-12.51,1.18-18.67,2.43l-1.05-1.07-2.51-.29c2.32-25.41,11.93-54.87,24.68-76.76.58-.99,1.35-1.77,1.95-2.25.56,5.68,4.88,18.68,5.5,18.96.67.3,1.44.21,2.05.09Z"/>
            <path class="cls-66" d="M437.61,146.71l.13,2.51c-3.16,13.15-5.69,26.43-7.59,39.83l-4.39,39.69.76,1.6-8.76-.97c-.19-.98.45-1.46,1.9-1.44,1.01-8.29,1.8-16.47,2.38-24.53-11.96-.08-32.88,3.85-43.52,9.77-1.21.68-1.98,2.38-1.86,3.75l-1.14.76c-1.31-2.28-.53-3.72-1.41-4.39-.38-.29-1.04-.43-1.62-.5,4.16-7.16,22.08-10.51,31.52-12.08l13.14-2.19,7.03-.43.92-9.59,1.25-9.84,1.15-7.54,1.6-6.74c1.67-7.04,2.79-13.93,5.26-20.44.08.8.35,1.63.91,2.06.67.52,1.48.65,2.36.71Z"/>
            <path class="cls-88" d="M489.95,135.72l1.54-.26c1.92,1.32,6.98,6.71,5.3,8.82,2.11,1.64,3.32,4.22,3.62,7.74l12.89,65.26c2.61,4.62,4.92,9.03,6.93,13.25.78.28,1.19,3.84.04,3.83-31.67-.33-62.72-1.25-93.74-3.99-.23.02-2.12-.39-2.05-1.01l3.61-33.21c1.84-16.95,4.86-33.4,9.54-49.42,1.46-4.98,4.39-9.52,7.72-13.28,13.02-3.87,31.17-6.5,44.7.78l-.08,1.5Z"/>
            <path class="cls-128" d="M807.2,203.55c-1.63,1.85-4.24,3.14-6.9,2.29-2.34-.75-3.62.07-5.9.5-1.95.37-4.61-2.46-8.97,2.18-6.46-3.49-13.43-6.06-21.04-7.16l-26.61-3.84-2.97-22.42-4.71-24.25c.89.22,1.1.99,1.49,1.84,1.25,2.76,6.61.96,9.36-8.45.31-1.06,1.71-2.63.38-3.75-3.23-2.71-7.33-5.18-5.48-6.22l1.46-.15c13.91,15.51,25.16,7.33,13.6-10.39l.9-1.33c2.05.08,2.22,4.64,5.33,3.19,3.75-1.74,6.68,2.38,9.55-.03,1.05-.88,1.58-2.57,1.02-4.03-1.6-4.13.93-5.79,2.55-9.92,19.64,28.05,30.72,58.38,36.95,91.94Z"/>
            <path class="cls-88" d="M641.63,201.05l-6.57,33.62-105.57-.02c-1.22,0-3.36.06-4.07-.84l-6.66-31.4.38-1.24c40.56-1.04,81.15-1.49,121.76-1.35l.73,1.23Z"/>
            <path class="cls-13" d="M417.75,229.38l-23.21-3.72-14.02-4.4c-2.2-.69-3.94-1.7-5.01-3.56-.45-2.52.73-4.83,3.25-6.08,6.79-3.78,14.29-5.31,21.99-6.77s14.94-2.32,22.89-2.74l-2.89,27.08-3,.2Z"/>
            <path class="cls-23" d="M642.1,199.34l-.47,1.71h-30.82s-69.75.68-69.75.68l-22.3.68-1.21-3.63.28-2.99c41.08-1.31,82.27-1.78,123.38-.31,1.66.57,1.51,2.31.88,3.86Z"/>
            <path class="cls-50" d="M503.12,144.72l2.34,7.45,9.4,53.06,5.35,25.28c.1.19-.17.55-.36.52s-.59-.38-.78-.73l-6.94-12.63-11.4-57.82c-1.08-5.5-1.97-10.71-3.96-15.58.12-2,5.59-1.34,6.34.45Z"/>
            <path class="cls-63" d="M643.9,191.75l-1,3.41c-.38,1.31.37,3.2-.8,4.18.2-.35.28-2.61-.54-2.63l-60.12-1.17-61.87,1.5c-.59.01-1.48-.42-1.8.17-.22.4-.13,1.13-.22,1.57l-.64-5.61c41.49-1.73,82.86-1.69,124.5-.3,1.35.04,1.95-.46,2.49-1.11Z"/>
            <path class="cls-141" d="M491.9,130.41c1.6,1.06-.06,5.5-1.95,5.31-5.68-5-23.55-5.73-32.32-3.91l-11.55,2.4c-.41.08-.67-.47-.74-.78,9.09-10.24,34.38-10.02,46.57-3.02Z"/>
            <g>
              <path class="cls-70" d="M516.91,193.17c1.24.09,1.78,1.27,1.64,3.54-.92.2-1.26.89-1,2.07,1.76-.55,2.76,2.77,1.21,3.63l1.32.3,6.44,30.38c35.69.42,71.48.54,107.37.36l6.4-31.91,1.34-.48c-1.73-.35-1.25-1.74.47-1.71l.37-1.88c-1.45-1.92-.98-3.82,1.43-5.71l-1.07-.83c3.25-15.36,6.91-30.73,10.98-46.09,2.76-7.17,7.78-16.07,15.5-18.2.17-1.66,1.51-2.72,4-3.18,22.88-5.07,46.09-5.26,55.94,19.79.75,1.9,2.39,6.42.84,7.62.57,1.19,1.2,2.32,1.91,3.38,2.88,13.99,5.22,28.07,7.05,42.23l26.68,3.86c4.22.9,17,3.78,19.1,6.95.25.38.44.81.6,1.24,1.91-1.47,4.82,1.84,5.94,3.54,1.52,2.3,3.18,14.49,1.8,16.22l-1.38.44c.14-4.62-1.29-8.32-3.38-7.22-.45.24-.6,1.07-.45,1.81,0,.62,0,1.3-.4,1.76-1.94,2.21-8.91,4.11-11.91,4.9-39.98,7.95-83.22,9.14-125.44,9.83l-105.94.41-.76-1.22c-6.92-.65-15-.73-22.31.56-34.96-.42-69.91-2.26-104.69-5.28-10.34-.9-21.92-3.37-31.89-6.1-2.43-.67-7.02-2.14-8.83-3.65-.53-.44-.66-1.23-.78-1.93-.51-.34-.73-.82-1.52-.55-.46.16-1.32.61-1.36,1.37l-.36,6.58c-.28-.23-.55-.66-.55-1.28l-.02-11.69c0-1.74.56-3.02,1.26-4.22,2.16-1.89,3.17-.26,3.04,4.89.95-.3,1.83.07,2.65,1.12,12.5,4.85,25.53,7.93,39.07,9.24l.52,1.33,2.9.06c.54-.92,1.67-1.12,3.39-.6.3,1.03,1.12,1.53,2.47,1.51l4.3-.45c29.61,1.84,59.26,2.89,88.94,3.14-.26-.94-.1-1.78.47-2.53-1.01-1.13-1.77-2.73-2.27-4.81-5.07-24.25-9.63-48.66-13.67-73.25l-2.06-6.56.92-1.17-1.57-.82c-1.77-4.76-4.93-8.95-9.17-11.76l-.47-1.73-1.65.5c-13.72-6.05-31.5-6.35-43.98,2.62l-.94-.09v1.88c-2.58,3.11-4.75,6.58-6.11,10.4l-1.61,1c-1.69,2.53-4.3.08-3.27-2.77-1.73-.85-.46-3.51,1.32-3.48-.89-3.73,3.88-8.53,6.72-11.03,9.48-8.34,24.09-9.54,36.2-8.07,15.25,1.86,24.48,8.54,29.84,23.11l9.49,47.62-1,1.08Z"/>
              <g>
                <path class="cls-94" d="M772.17,235.91c-28.02,2.93-55.96,4.62-84.41,5.33l-54.88,1.36-93.71.16c-4.85-.44-9.75-.61-14.71-.51-2.25-1.06-2.09-2.77.17-3.63,6.31-.04,12.61.08,18.88.36l96.28-.34c34.72-.12,68.77-1.65,103.37-4.55l31.55-5.22c4.86-.8,9.59-2.98,13.24-5.58,1.37,1.19.51,6.56-.41,10.51l-15.37,2.1Z"/>
                <path class="cls-99" d="M543.51,238.98l-18.72-.1c-.55.72-.82,1.89-.33,3.37l13.51-.13c.65,0,1.09.25,1.19.65l-99.98-3.39-36.05-2.83-27.51-3.44-1.13-8.25c-.12-.88-.23-1.91.52-2.28,3.42,2.27,7.35,3.81,11.64,4.84,10.52,2.52,20.63,4.79,31.63,5.78,40.87,3.71,81.55,5.03,122.63,5.35,1.28.01,1.94-.26,2.6.43Z"/>
                <path class="cls-64" d="M736.6,221.7c.3,3.1,1.3,5.95.8,9.06-32.98,2.08-64.95,3.6-97.96,3.69,3.94-23.99,9.04-46.66,14.59-69.72,1.96-8.14,3.59-15.68,6.92-23.27,1.23-2.8,3.21-5.07,5.02-7.4,4.68-2.23,11.05-3.09,16.31-3.64,15.02-1.57,35.56-1.32,38.51,17.22,4.11,20.71,7.96,41.5,11.57,62.37l3.3,12.38.93-.69Z"/>
                <path class="cls-112" d="M736.6,221.7c-.13,1.29.17,2.78-.56,4.17-3.24-7.34-4.78-14.45-6.08-21.97l-3.72-21.45-5.16-27.25c-1.56-8.26-2.88-16.83-10.06-20.48-5.77-2.94-12.23-3.34-18.67-3.59-10-.39-17.65,2.29-26.38,2.95,5.91-7.59,16.53-8.28,26.38-8.56,7.43-.21,14.35,1.03,21.01,4.44,8.1,4.15,11.86,14.32,13.76,23.57,4.66,22.69,7.28,45.34,9.48,68.19Z"/>
                <path class="cls-47" d="M782.91,221.71c-5.76,2.76-11.88,4.78-18.38,5.64l-22.99,3.07-2.77-23.97c.58-.25,1.18-.47,1.79-.61s1.18-.25,1.74-.19c9.83,1.04,26.9,4.02,35.16,8.92,2.29,1.36,6.63,4.39,5.46,7.15Z"/>
                <path class="cls-105" d="M782.91,221.71c-2.39-4.21-6.3-6.73-11.02-8.3-10.84-3.61-21.89-5.68-33.13-6.96l-.34-4.87c15.31,1.21,32.51,3,45.73,10.61,2.09,1.2,3.77,2.92,3.83,5.42-1.09,2.07-3.16,3.01-5.07,4.1Z"/>
                <path class="cls-57" d="M503.12,144.72l-6.34-.45c-1.29-3.17-4.27-6.29-6.83-8.55l1.95-5.31c5.44,3.12,9.39,8.48,11.22,14.31Z"/>
              </g>
            </g>
            <g>
              <path class="cls-84" d="M663.49,29.84l26.39,11.39c31.06,15.58,60.64,42.2,80.37,70.38.59,1.76.12,3.61-1.4,5.55-.32,2.21-.26,4.47.17,6.77-1.46,3.76-4.72,4.57-9.79,2.44-1.29.37-2.58.59-3.88.64l-3.55-4.61-1.36.39-7.97-7.73c-15.02-8.22-13.84,8.83-6.44,17.43l-.18,1.78c1.59,2.64,3.9,4.99,6.92,7.04-.07,3.29-2.25,8.7-4.68,11.22-3.87,4.03-6.35,3.4-7.98-1.67l-1.81-6.55c-3.11-11.25-12.31-19.49-23.93-21.3-10.45-1.63-27.17-1.31-35.04,3.63l-3.23.65-3.67-1.35c-1.99.25-3.32,1.9-5.02,2.99-1.39-1.3-2.51-2.67-4.32-3.12-2.97.2-5.81-.45-7.84-2.75-5.51-.66-10.42-3.19-15.53-5.04-1.82-.66-2.53-.88-4.23-2.08l-6.35-4.46c-1.24-.87-2.11-1.37-2.15-2.88-5.77-2.53-6.59-7.65-12.78-10.04-.85-6.12-5.21-5.64-5.46-9.83-.16-2.58-2.58-4.71-3.13-6.84-.87-3.4-1.6-5.47-3.93-8.11-1.12-1.27-1.34-2.1-3.42-3.06-1.78-.82-1.29-5.37-2.4-6.84-1.85-2.44-2.5-4.15-1.68-7.18s-5.86-8.83.44-19.14c-.03-1.02-.82-3.25.15-3.92,1.92-1.32,2.39-3.01,3.17-4.94.95-2.34,4.42-2.49,6.04-3.63,2.5-1.76,4.34-2.21,7.11-3.02,2.06-.6,3.38-3.55,4.85-4.79l3.75,1c1.79.47,3.11-.01,4.93.26l5.05.76c15.18,1.65,29.77,5.33,43.82,10.58Z"/>
              <path class="cls-123" d="M725.08,101.52c-6.1,7.3-24.27,1.23-34.06-3.34-15.28-7.12-29.25-16.12-42.01-27.08-7.49-6.44-16.85-16.13-15.47-25.65,1.47-10.15,18.3-8.04,28.99-4.98,20.93,5.98,39.5,17.87,53.98,34.05,6.74,7.54,14.98,19.33,8.57,27Z"/>
            </g>
            <path class="cls-123" d="M751.8,122.4c.1,1.03.75,1.68,1.29,2.59,3.38,5.61,5.65,13.74,1.86,17.14-4.98,4.46-14.47-1.99-19.11-7.86-3.56-4.5-6.28-9.84-6.47-15.82-.14-4.34,3.51-7.31,7.73-6.8,2.39.29,4.77,1.11,6.47,2.76l8.22,7.98Z"/>
          </g>
          <g>
            <path class="cls-102" d="M807.69,317.25c.1.82-.67,1-1.27.8l-8.04.66-.46-.49c-32.62,2.17-65.25,4.55-97.89,7.12l.71.38-4.14.16-49.6,1.81-2.02-16.82-3.32-48.96c-.06-.51.06-1.06.4-1.07,28.19-.89,57.08-1.64,85.34-2.35,1.04.46,2.13.76,3.28.9,0-1.69,3.01-1.69,3.33-.08,3.27-.21,6.56-.39,9.87-.54.29-1.92,5.52-1.96,6.06-.14l6.17-.48c.1-.49.28-1.22.64-1.26,2.74-.31,21.93-1.62,22.94-1.08l1.27,1.22c9.28,19.39,17.83,39.12,25.63,59.18l1.09,1.04Z"/>
            <g>
              <path class="cls-36" d="M807.69,317.25c-.34.24-1.26.38-1.62.19-.43-.23-.27-1.37-.59-2.12l-21.38-50.23c-1.3-3.06-2.66-5.72-4.88-8.24l-23.1,1.31-6.17.48-6.06.14c-3.32.12-6.61.3-9.87.54l-3.33.08-.57-.34c-3.12.25-3.96-.27-2.53-1.56.43-.37,1.1-.45,2.03-.24l51.2-3.31,5.1,10.54,20.25,47.68c.74,1.73,1.31,3.36,1.52,5.1Z"/>
              <path class="cls-71" d="M722.05,257.48c2-.47,3.85-.47,5.55.02.03.54.36,1.01.72,1.08l1.56.28c.27-.34.94-.25.82.53l-89.01,2.52c-.04-.53-.19-1.06.06-2.13l80.3-2.31Z"/>
              <path class="cls-133" d="M798.39,318.71l-89.01,6.47-8.62.55c-.83-.16-1.84.35-2.37-.9,2.73.53,4.97-.27,7.41-.45l8.04-.6,72.2-5.63,13.62-.51-1.27,1.07Z"/>
              <path class="cls-71" d="M743.89,258.78c-.2.29-.62.56-1.24.56l-8.63-.02c.08-.41.53-.65,1.18-.64l8.68.11Z"/>
              <path class="cls-71" d="M756.12,258.16c-1.84.98-4.12.43-6.17.48,1.83-1.06,4.12-.36,6.17-.48Z"/>
              <g>
                <circle class="cls-24" cx="681.02" cy="294.25" r="17.87"/>
                <path class="cls-134" d="M693.69,299.84c-2.68,6.67-9.6,9.44-16.22,7.77s-10.53-7.71-10.19-14.58c.22-4.45,1.92-8.33,5.72-10.7.46,1.2.07,2.09-.32,3.26-1.26,3.78-.98,7.99.81,11.61,3.41,6.87,14.29,6.9,20.2,2.63Z"/>
                <g>
                  <path class="cls-132" d="M693.69,299.84c-2.44,3.84-7.42,4.54-11.64,4.03-10.94-1.31-14.11-12.83-9.05-21.53,3.26-2.03,7.78-3.19,11.77-1.89,8.06,2.62,12.01,11.71,8.92,19.4Z"/>
                  <path class="cls-118" d="M690.82,287.07c.7,1.87.02,3.64-1.16,4.75s-2.98,1.27-4.67.62c-1.98-.76-3.12-2.14-3.54-3.67-.54-2-.53-4.7,1.63-5.68,2.92-1.31,6.67,1.15,7.74,3.98Z"/>
                </g>
              </g>
            </g>
          </g>
          <g>
            <path class="cls-126" d="M486.25,279.13c5.16,3.37,8.22,9.14,8.12,15.3s-3.37,11.83-8.64,15.02c-7.58,4.59-17.37,2.94-23.04-3.87s-5.49-16.74.4-23.36c5.89-6.62,15.74-7.93,23.16-3.09Z"/>
            <path class="cls-87" d="M468.35,282.84c-3.4,7.79.1,17.98,8.44,19.8,2.76.6,5.19-1.45,7.63-2.47,1.1,1.39.77,2.86,1.63,4.26-3.82,3.53-9.27,4.65-14.17,2.91s-8.43-6.04-9.17-11.19,1.43-10.27,5.64-13.32Z"/>
            <g>
              <path class="cls-82" d="M486.05,304.44c-1.18.32-1.92-.56-2.2-2.64-11.33,8-23.27-9.53-15.5-18.96,5.99-4.34,14.33-3.27,19.03,2.46s4.11,14.12-1.33,19.14Z"/>
              <path class="cls-52" d="M486.94,287.21c.72,3.21-1.63,5.31-3.91,5.73-2.75.5-5.23-1.04-6.05-3.96-.44-1.58-.33-3.21.66-4.45.87-1.09,2.56-2.06,4.46-1.69s4.32,2.11,4.83,4.37Z"/>
            </g>
          </g>
          <g>
            <path class="cls-61" d="M319.8,246.93c19.44,2.65,38.8,5.31,59.2,6.65l-27.52,63.31-50.82-7.82c-12.18-2.52-23.65-5.58-35-10.28-2.66-1.37-5.16-2.51-7.04-4.46.26-2.16,1.31-4.27,3.12-6.33l29.56-41.5c3.31-4.46,5.71-6.03,11.06-2.95,5.78,2.14,11.59,3.27,17.43,3.38Z"/>
            <path class="cls-22" d="M319.8,246.93c-.37.48-.98.79-1.86.87-7.03-.84-13.54-2.76-20.17-5.26-2.25,1.09-4.06,2.68-5.47,4.68l-13.9,19.76-15.9,22.08c-1.35,1.88-2.25,3.89-3.87,5.27-1.05-1.09-1-2.31-.07-3.72l17.33-26.16,18.37-24.62c.92-.93,3.48,1,4.16,1.59,7.08,3.05,14.18,4.09,21.38,5.52Z"/>
            <g>
              <path class="cls-109" d="M321.29,299.02c-6.81,1.35-12.75-2.44-14.65-8.93s-.56-13.6,3.88-18.57c3.79-4.24,9.76-6.1,15.4-5.42,4.85.59,9.8,3.99,11.39,8.64,3.51,10.23-4.7,24.17-16.03,24.29Z"/>
              <g>
                <path class="cls-83" d="M329.59,290.73c-8.37,5.21-17.27-3.84-14.38-12.85-1.2,2.84-4.71,7.31-4.8,1.91,3.58-8.72,11.47-13.18,18.31-9.15,3.58,2.11,5.54,5.96,5.73,9.81.2,4.06-1.37,7.75-4.86,10.29Z"/>
                <path class="cls-143" d="M329.59,290.73c-2.65,3.34-7.43,5.96-11.83,4.87-7.13-1.76-9.91-9.57-7.35-15.82,1.92,4.48,1.84-2.45,7.51-7.01-1.29,4.25-2.9,8.72-1.19,12.91,2.07,5.08,8.3,6.19,12.86,5.04Z"/>
                <path class="cls-131" d="M331.12,277.75c-.65,3.09-3.72,4.48-6.51,3.47-2.4-.87-3.77-4.23-1.95-6.69,1.46-1.98,3.43-3.09,5.84-2.22,1.64.59,3.15,2.9,2.62,5.45Z"/>
              </g>
            </g>
          </g>
          <g>
            <path class="cls-53" d="M904.34,295.1c-3,2.57-6.66,4.55-10.57,5.7l-23.76,6.97c-19.22,4.43-38.41,7.32-58.08,9.4l-25.42-60.94,3.01-1.03c22.85-2.55,46.04-5.33,68.04-10.25,5.05-2.29,9.53-2.59,13.45-.91,12.35,15.73,23.18,32.73,33.88,49.66l-.56,1.41Z"/>
            <path class="cls-104" d="M904.34,295.1l-10.78-17-11.7-17.74-10.68-14.42c-1.34-1.8-3.65-2.37-5.93-1.86l-24.02,5.44c-18.3,3.11-36.25,5.46-54.71,6.71l-.61-2.81,40.67-3.85,29.17-5.12c4.71-.83,8.8-2.65,13.15-4.6.82-.06,2.13,1.41,2.63,2.13l22.84,32.84,11.25,16.97c.46.69.63,1.69.05,2.18l-1.31,1.12Z"/>
            <g>
              <path class="cls-92" d="M846.62,299.21c-6.09,1.68-12.76-.04-16.79-4.55-6.53-7.32-7.2-20.32.02-25.94,5.85-4.55,14.44-4.5,20.17.19s7.55,11.86,6.24,18.88c-.95,5.11-4.18,9.91-9.64,11.42Z"/>
              <g>
                <path class="cls-67" d="M851.02,290.63c-3.6,3.33-9.3,1.83-13.17-.43-7.67-4.47-9.31-12.18-4.48-19.42,5.08-3.3,11.13-2.35,15.26,2.01,4.99,5.26,6.36,11.72,2.38,17.84Z"/>
                <path class="cls-41" d="M851.02,290.63c-2.07,3.19-5.44,5.11-8.88,5.27-3.93.18-7-1.63-9.68-4.52-5.38-5.81-6.19-15.98.91-20.59.24.73.53,1.92.06,2.66-3.11,4.87-1.59,10.22,2.55,13.87s9.66,4.88,15.03,3.32Z"/>
                <path class="cls-142" d="M842,271.72c3.41-1.61,8.15,3.1,7.32,6.81-.23,1.02-.97,2.03-2.51,2.27-2.78.43-5.27-.27-6.41-2.58-.99-2-.76-5.39,1.6-6.5Z"/>
              </g>
            </g>
          </g>
        </g>
      </g>
    </g>
  </g>
</svg>