<?xml version="1.0" encoding="UTF-8"?>
<svg id="Layer_2" data-name="Layer 2" xmlns="http://www.w3.org/2000/svg" xmlns:xlink="http://www.w3.org/1999/xlink" viewBox="0 0 993.41 1027.82">
  <defs>
    <style>
      .cls-1 {
        fill: #fee15f;
      }

      .cls-2 {
        fill: #feea94;
      }

      .cls-3 {
        fill: #fdc619;
      }

      .cls-4 {
        fill: #fcda2f;
      }

      .cls-5 {
        fill: #fed721;
      }

      .cls-6 {
        fill: #fed622;
      }

      .cls-7 {
        fill: #fee989;
      }

      .cls-8 {
        fill: #fdbb14;
      }

      .cls-9 {
        fill: #fcd624;
      }

      .cls-10 {
        fill: url(#linear-gradient-2);
      }

      .cls-11 {
        fill: #fde574;
      }

      .cls-12 {
        fill: #fdbe12;
      }

      .cls-13 {
        fill: #fddd33;
      }

      .cls-14 {
        fill: #febb13;
      }

      .cls-15 {
        fill: #feeb91;
      }

      .cls-16 {
        fill: #fed827;
      }

      .cls-17 {
        fill: #fde888;
      }

      .cls-18 {
        fill: #fee785;
      }

      .cls-19 {
        fill: #fde56e;
      }

      .cls-20 {
        fill: #fcb31a;
      }

      .cls-21 {
        fill: #fddd3e;
      }

      .cls-22 {
        fill: url(#linear-gradient-3);
      }

      .cls-23 {
        fill: #fde56c;
      }

      .cls-24 {
        fill: #feb914;
      }

      .cls-25 {
        fill: #feb911;
      }

      .cls-26 {
        fill: #fbd92a;
      }

      .cls-27 {
        fill: #fcd821;
      }

      .cls-28 {
        fill: #fde783;
      }

      .cls-29 {
        fill: #fcd721;
      }

      .cls-30 {
        fill: #feb811;
      }

      .cls-31 {
        fill: #fde98a;
      }

      .cls-32 {
        fill: #fdb80a;
      }

      .cls-33 {
        fill: #fdd527;
      }

      .cls-34 {
        fill: #fed621;
      }

      .cls-35 {
        fill: #fee350;
      }

      .cls-36 {
        fill: #feeb94;
      }

      .cls-37 {
        fill: #fdbf13;
      }

      .cls-38 {
        fill: #fee05d;
      }

      .cls-39 {
        fill: #fdd724;
      }

      .cls-40 {
        fill: #fed71f;
      }

      .cls-41 {
        fill: #fec115;
      }

      .cls-42 {
        fill: #fdbb15;
      }

      .cls-43 {
        fill: #fde053;
      }

      .cls-44 {
        fill: #febd11;
      }

      .cls-45 {
        fill: #feeb8e;
      }

      .cls-46 {
        fill: #fdbb12;
      }

      .cls-47 {
        fill: #fdc215;
      }

      .cls-48 {
        fill: #fef6ce;
      }

      .cls-49 {
        fill: #fdb715;
      }

      .cls-50 {
        fill: #fde264;
      }

      .cls-51 {
        fill: #fec215;
      }

      .cls-52 {
        fill: #fdd624;
      }

      .cls-53 {
        fill: url(#linear-gradient);
      }

      .cls-54 {
        fill: #feeb90;
      }

      .cls-55 {
        fill: #fde05f;
      }

      .cls-56 {
        fill: #fde88d;
      }

      .cls-57 {
        fill: #fdbd11;
      }
    </style>
    <linearGradient id="linear-gradient" x1="489.53" y1="-19.09" x2="570.67" y2="188.68" gradientUnits="userSpaceOnUse">
      <stop offset="0" stop-color="#fdde48"/>
      <stop offset=".06" stop-color="#fee678"/>
      <stop offset=".4" stop-color="#fdea91"/>
      <stop offset="1" stop-color="#fde87e"/>
    </linearGradient>
    <linearGradient id="linear-gradient-2" x1="640.45" y1="263.83" x2="424.45" y2="658.36" gradientUnits="userSpaceOnUse">
      <stop offset="0" stop-color="#fde985"/>
      <stop offset="1" stop-color="#fde365"/>
    </linearGradient>
    <linearGradient id="linear-gradient-3" x1="592.62" y1="920.06" x2="533.12" y2="931.93" gradientUnits="userSpaceOnUse">
      <stop offset="0" stop-color="#fbcf2e"/>
      <stop offset=".79" stop-color="#fde985"/>
      <stop offset="1" stop-color="#fee76a"/>
    </linearGradient>
  </defs>
  <g id="Layer_1-2" data-name="Layer 1">
    <g>
      <path class="cls-9" d="M154.04,763.2c-4.26.69-8.6.81-12.95.98,1.12-1.23,3.24-.39,4.88-.57,2.97-.31,5.41-1.07,8.06-.42Z"/>
      <path class="cls-9" d="M102.46,760.1c-5.48-1.37-11.03-2.92-16.01-5.64l13.62,4.16c1.05.34,2.05.49,2.39,1.47Z"/>
      <path class="cls-15" d="M397.29,188.26c.2-3.12-.26-7.35,1.16-10.57-.12,3.56-.25,7.84-1.16,10.57Z"/>
      <path class="cls-9" d="M139.92,764.23c-2.36.9-6.99.92-9.28,0h9.28Z"/>
      <path class="cls-9" d="M116.62,762.97c-2.37.28-4.62-.48-6.83-1.04,2.3-.24,4.83-.07,6.83,1.04Z"/>
      <path class="cls-21" d="M3.19,570.12c-.49-.21-1.38-.2-1.51-.79l-.29-1.26c-.29-1.27-1.05-2.84,0-3.76.09,2.05.64,4.08,1.8,5.81Z"/>
      <path class="cls-9" d="M128.86,764.23h-6.19c-.63,0-1.05-.27-1.23-.6l6.24-.08c.68,0,1.11.26,1.18.68Z"/>
      <path class="cls-29" d="M929.28,648.45l-4.96,1.96c1.07-1.77,3.01-2.38,4.96-1.96Z"/>
      <path class="cls-29" d="M831.15,651.61c-2.12-.21-4.38-.49-6.28-1.37,2.09.15,4.52-.16,6.28,1.37Z"/>
      <g>
        <path class="cls-29" d="M611.62,120.17c.93-.37,2.75,3.51,2.72,4.43-1.49,2.1-2.24,4.46-1.84,7.03,1.55,4.56,1.34,8.74-.62,12.54.22.91.46,2.01.38,2.92-.98,11.07-1.96,21.99-3.21,32.93-1.33,12.44.2,23.89,5.71,35.15,3.88,7.91,7.27,11.41,12.95,3.01,2.47-1.07,4.89,1.35,3.33,4.01-1.11.41-3.23,5.96-3.1,6.49.94,3.7,14.91,2.08,17.07-1.09,4.03-3.77,7.78-7.81,11.25-12.13l2.8-1.35c.14-.66.31-1.32.56-1.93s.49-1.2.89-1.65c18.06-20.68,41.08-34.53,66.61-44.06,30.68-14.27,52.08-36.77,57.09-70.87l1.62-2.32c1.27-2.74,2.89.27,2.34,2.32l2.34,22.87-.74,1.39-.06,19.32c.26.44.5.88.66,1.35s.3.9.25,1.32c-2.39,20.88-7.41,42.51-16.97,61.29-6.79,13.06-14.03,25.89-21.72,38.52-8.91,9.47-15.82,20.04-20.73,31.73l-1.84,1.66c-.67,5.57-1.83,11.16-3.48,16.78-.64,4.3.35,5.53,3.89,7.63,4.05,1.07,5.64,3.4,5.87,7.56,6.67,2.88,13.76,2.94,21.27.17,4.51-2.1,8.69-3.37,13.67-3.74-.12-.46-.19-1.2.09-1.29,6.7-2.11,16.42-4.89,23.24-6.07,1.95-.34,5.84-1.01,7.07.34l4.89-.28.26-1.08c8.02.26,15.84-.51,23.45-2.3,3.79-.91,6.49,1.34,9.14,3.78,1.21,1.96,1.44,4-.19,5.82l-.9-.84c-30.82,3.33-52.6,21.98-63.28,51.94-.82,2.31-4.18,12.54-2.8,14.12.25.29,7.11,1.5,7.48,1.39,1.16-4.93,2.48-6.14,7.58-5.62.58-.99,1.36-1.38,2.38-.58l-.76,4.92c-.85,2.71-.92,5.69-.89,8.53,0,.15.37.3.83.44-1.8,7.35.19,14.32,9.06,12.9,16.99-4.21,34.45-7.04,52.18-4.44l39.16,5.82c26.55,3.33,53.86-6.67,72.16-25.85l1.45.26.18-1.66c6.39-6.14,12.16-13.11,16.36-21.05.48-.76,1.3-1.91,1.99-1.74,2.37.59,0,18.86-1.37,21.98-1.47,9.02-8.83,26.68-14.82,33.68-.79-.56-1.01-1.46-.67-2.7l-.38-5.91c-15.85,19.49-35.55,36.18-60.39,44.46l-42.92,14.1c-20.85,8.32-37.49,22.85-49.46,41.56-3.36,2.75-9.95,2.74-11.62-1.86-2.74-23.53-6.3-49-15.26-70.99-2.56-6.28-2.88-6.58-2.4.1-.03,1.9-.59,3.7-1.39,5.42-2.03,4.34-3.4,6.82-8.3,3.42.21,1.86-.36,2.71-1.71,2.55-.73.66-1.43.64-1.75-.26-8.87-28.4-22.35-55.63-39.36-80.41l-1.86-4.77-2.07-1.47c-11.67-13.93-23.26-27.33-34.77-40.18l-1.35.42c-40.44-38.96-95.15-64.18-151.57-72.5l-2.21-1.08c-.18-1.13.75-1.7,2.8-1.69.81-4.77,4.13-5.5,8.09-3.65,1.16.54-1.93-1.95-3.14-2.44-.71-2.09-1.66-3.05-2.85-2.88-3.27,1.31-5.66.68-7.16-1.91-3.52-.78-5.87-2.43-7.03-4.94,1.72-2.27.96-2.63-1.52-3.03s-5.26-.65-7.92-.69c-24.5-.36-48.03.15-71.38,4.32-5.52,0-8.27-1.69-11-6.63-9.07-16.43-5.63-39.89.03-56.97.98-1.1,1.83-2.53,2.54-4.29-.59-.09-.59-.28-.03-.55.31-1.66.94-3.11,1.89-4.37-.42-.23-1.03-.64-.93-.97,1.32-4.24,4.42-11.97,6.53-15.83.22-.41.84-.45,1.36-.41-1.92-1.63.72-4.25,2.36-5.42l-.03-3.1c14.18-34.14,10.88-73.58-12.03-102.72l.3-1.38c.22-.25.45-.48.73-.63,1.99-1.13,13.86,10.78,15.86,12.79,15.12,15.24,27.86,32.54,36.64,52.53,9.52,21.69,13.37,45.59,14.74,68.66,2.42,20.53,6.28,45.76,28.04,54.85,5.14,6.37,12.14,6.95,18.63,2.19,9.36-10.19,19.5-19.48,30.4-27.87,15.17-13.04,24.15-29.29,27.99-49.07,1.09-1.49,1.65-2.15,2.66-.2Z"/>
        <path class="cls-9" d="M182.77,598.74c.17-.54.38-.54.64-.01l7.01-.41c1.55-2.31,6.04,1.04,7.66,2.84,2.25,2.5,6.25,14.04,7.33,17.81l-.85,1.26c.77,1.08,1.59,1.97,2.46,2.68,10.02,24.54,20.55,49.34,36.81,71.43,1.32,1.5.98,2.36-.06,3.56-.62.72-17.55,4.64-18.49,4.51l-1.8-.82-2.39,1.87c-8.01,2.11-15.78,5.08-23.06,9.04-24,15.67-47.13,29.7-77.47,34.12-11.94,1.74-26.2,3.42-37.42-1.26l-.35,1.74c.25,1.34-.11,2.2-1.08,2.56-1.64-2.73-.67-6.49,2.36-8.25l16.6-9.67,8.3-6.49c7.56-6.65,13.96-14.4,18.97-23.15,3.72-6.5,6.1-13.13,8.85-20.03l11.19-28c8.27-20.7,21.21-34.65,38.31-48.08,2.5-1.96,4.7-3.74,6.89-6.4l-18.4-.19c-.67,0-1.14-.25-1.2-.65,2.64-.57,6.31-.49,9.19,0Z"/>
        <path class="cls-29" d="M818.21,520.01l1.06.81c-3.77,11.03-3.23,15.06,6.08,22.22l12.34,7.44c14.71,11.06,28.62,22.9,41.72,35.52,18.03,14.67,32.84,22.86,56.88,22,18.67-.67,40.92-5.92,54.85-18.59.77-.49,1.44.13,1.93.87,1.47,4.87-2.1,9.23-5.71,13.46-1.16-.84-.94-2.2.66-4.1.45-1.28.02-2.69-1.5-2.18-9.03,6.7-18.35,13.02-27.95,18.96-3.9,2.47-7.91,4.72-12.51,5.52-.57.91-1.21,1.84-2.16,2.39-7.91,4.57-21.07,8.37-30.12,10.17-27.41,5.46-49.62-1.91-73.96-10.42-11.99-3.59-24.7-4.61-37.05-2.53l-2.89-.71c-1.46.95-3.29,1.32-5.02,1.02.38,1.8-2.52,2.37-3.23.78-3.95,1.6-8.1,2.06-8.85-3.3l9.47-33.83,1.38-.38c-.33-.06-.61-.14-.7-.31-.7-1.44,2.17-15.16,2.93-17.4.06-3.09.44-6.17,1.16-9.22.26-1.84.88-3.01,1.85-3.51l-.58-1.94c1.17-12.46,1.7-24.95,1.6-37.49-.32-2.1.47-2.54,2.11-2.9.83-.18,14.04,5.34,15.83,6.18l.38,1.46Z"/>
        <path class="cls-57" d="M436.51,141.65c-2.32,8.12-5.11,16.24-6.24,24.98-1.56,12.09-.55,30.05,7.08,39.06,2.12,2.5,6.3,2.93,9.36,2.48l19.83-2.93c18.33-1.73,36.34-2.3,54.63-.91,2.76.21,5.05.43,7.4,2.23-.44,1.05-1.05,1.61-1.77,2.49,2.48,3.45,6.5,2.56,7.63,4.88,1.49,3.07,3.96-.24,7.41.89.93.31.95,2.52,2.05,3.17l5.83,3.39c-1.25.99-2.69.7-4.1,1.13-1.29-1.67-2.63-1.23-4.2-.89-1.93.41-1.85,1.71-2.49,3.63-.37,1.11-3.03.91-3.87,1.22-.59.73-.96.51-.81-.42-9.57-1.52-19.25-2.24-29.04-2.18,0,0-7.55.19-22.65.57l-1.36.6-.56,1.29-9.28.98-.99-1.13-2.4,1.09c-23.69,2.79-45.45,9.65-68.02,16.82-1.66.53-3.41.6-5.14.62-3.5,2.82-7.54,4.91-12.12,6.28l-1.28-.8c-4.55,1.63-5.1-1.68-1.18-3.33,6.68-4.5,12.44-9.9,17.27-16.21-1.33-2.38-2.45-4.86-3.37-7.41.89-2.73,2.16-5.45,3.81-8.13-.07-4.92-.3-9.81-.69-14.67-.6-3.46-.46-7.97,0-11.7l.03-.47,1.16-10.57.02-.46c.43-3.69,1.29-7.19,2.58-10.51l3.9-12.86c.6-.04.93-.51.97-1.41,2.39-3.06,4.47-6.4,6.21-10.02,2.18-3.15,4.78-5.65,7.8-7.5,2.2.2,4.04-.56,5.53-2.27,4.27-1.11,5.07-1.55,2.4-1.32-3.57-4.79.27-7.58,5.15-7.68,3.64-3.8,5.08.32,4.47,4.01,1.39,2.56.66,4.94-2.2,7.13.61,1.89.69,3.66.26,5.32-1.17.73-.84,1.24.98,1.52Z"/>
        <path class="cls-53" d="M611.24,118.48c.76.8.89,1.36.38,1.69-.25-.13-.62-.21-.86-.15-1.84.46-3.22,15.37-8,23.68l-5.58,9.72-9.61,11.82-5.83,5.14-10.79,8.34-11.61,11.55-7.98,7.97c-6.39,5.13-14.96,4.6-20.08-2.13-14.3-3.85-24.94-26.65-26.75-41.05l-1.84-14.66-1.26-15.4c-.9-10.93-3.31-21.23-6.05-31.86-4.06-15.77-10.85-29.93-19.47-43.55l-7.95-11.2c-5.93-8.36-26.83-30.34-32.01-31.47-.25.82-.77,1.03-1.54.8.29,1.72-.06,2.88-1.04,3.46-2.11-2.84-2.33-7.76.96-10.25,1.77-1.34,5.45-1.1,7.52-.06,7.33,3.68,13.78,8.31,20.08,13.58l11.86,11.45,7.5,7.77c6.6,6.84,11.38,14.73,16.34,22.91,9.59,15.82,15.77,32.85,17.94,51.26l3.61,30.7c1.47,12.46,4.67,24.1,11.07,34.84,3.29,5.53,6.73,10.65,12.33,14.57,5.58-8.08,12.4-13.93,20.25-19.25,8.32-5.64,15.6-11.87,22.39-19.34,7.66-8.43,13.07-18.25,18.12-28.23,1.62-3.2,5.66-4.54,7.9-2.65Z"/>
        <path class="cls-14" d="M929.28,648.45c-1.85.14-3.55.76-4.96,1.96-7.32,2.9-14.64,5.51-22.76,6.54l-12.93,1.63-21.32-.03c-12.48-1.12-24.31-4.39-36.16-6.94l-6.28-1.37-.47-.03c-7.01-1.1-14.01-1.1-20.99,0-1.09.94-3.24.72-4.6,1.18-1.85-.1-3.67.08-5.44.53l-2.02-1.12c1.06,1.61.14,2.85-2.76,3.73.42.39.32.58-.26.6-.74.44-1.75.99-1.95,0-1.6-1.93-1.24-4.38,1.07-7.36l.17-2.07c-1.73-3.56-3.75-7.01-6.04-10.36-1.18-2.39-.23-4.21,1.16-6.21,1.76-2.53,5.7-6.56,8.85-6.48l3.23-.78c1.76.27,3.52-.07,5.02-1.02,14.32-2.91,28.82-1.75,42.94,2.9l19.84,6.53c29.18,9.61,56.62,4.77,83.41-8.34,1.82-.36,3.6-.93,5.33-1.69,2.27,1.91-4.71,6.56-6.64,7.47-4.2-.17-4.78,2.06-5.34,5.84-.41,2.72-.58,5.76,3.37,5.05,4.56-.82,12.98-6.17,15.73-9.9.48-7.37,8.75-13.53,16.06-13.46,3.91-3.23,7.39-6.94,10.45-11.12.53-.7,1.21-.44,1.88.14-1.76,3.79-4.73,7.04-7.79,10.05l-8.09,7.94c-12.39,11.3-26.38,20.1-41.74,26.18Z"/>
        <path class="cls-24" d="M223.48,701.58c2.44.07,3.99,1.8,4.64,5.18l1.06,4.48c2.67,1.04,5.1,6.72,5.34,9.43.26,2.91-2.59,8.58-4.35,10.95l.12.8c-1.33,1.51-5.57,1.94-7.01.32-2.56,3.05-5.89,5.4-9.98,7.05-3.64,1.57-7.06,3.44-10.24,5.61l-11.4,5.73c-11.97,6.01-24.61,9.96-37.6,12.08-4.3.2-8.7.46-12.95.98l-1.17.05c-3.05.46-6.23.48-9.28,0h-1.79c-2.44-.27-4.91-.47-7.42-.6-1.65.02-3.34.15-4.81-.66l-6.83-1.04-7.32-1.84c-5.33-1.81-10.66-3.69-16.01-5.64-1.89-1.03-4.36-2.71-4.74-4.8-.34-1.9-.22-3.63.69-6.06,6.15,3.4,12.07,3.53,18.95,3.38,25.61-.57,50.45-7.18,72.24-20.73l23.84-14.82c8.44-4.59,16.99-7.64,26.05-9.85Z"/>
        <path class="cls-34" d="M661.2,781.58c1.19.22,1.38,1.29.57,3.19l.06,1.65c.49,1.45.17,4,1.28,5.57.91.32,2.7.14,3.19,1.25-.67-.11-1.41-.29-2.19.26,4.08,13.03,7.29,25.31,8.9,38.71,2.99,24.85-1.36,49.61-13.83,71.18-.89,1.53-2.62,2.52-3.86,2.76-1.47.28-2.7-.22-3.87-.97.24-1.28,1.74-1.76,4.49-1.43,1.95-38.06-17.44-73.59-51.72-90.75l-1.58-2.24c-.55-.23-1.22-.72-1.06-1.13.48-1.25,7.23-4.48,8.33-2.74,1.08-1.06,2.21-2.11,3.58-2.77,15.97-7.65,31.78-15.25,46.53-25.2.7.35,1.09,1.23,1.18,2.65Z"/>
        <path class="cls-2" d="M993.07,590.28c-1.5-.31-2.08.96-3.08,1.88-2.73,2.51-5.85,4.49-9.18,6.12-11.76,5.76-23.93,9.04-36.94,10.42-14.42,1.53-27.84.15-41.12-5.68-10.99-4.82-19.94-12.13-28.72-20.19l-7.44-6.83c-10.64-9.76-21.08-19.56-33.52-26.96l-8.49-5.05-6.17-6.05c-2.52-2.47-3.25-5.53-2.43-8.86l2.22-9.08c.28-1.16.87-1.94,1.31-2.89.02.77-.32,2.15.09,2.95,9.68,3.87,18.32,8.97,26.82,14.96,9.75,6.87,17.9,14.9,26.97,22.66l24.43,20.89c8.41,5.88,17.87,9.83,27.63,12.72l12.56,2.26c14.77,1.26,29.36-1.03,43.41-5.54,5.21-1.67,10.42-1.73,11.63,2.28Z"/>
        <path class="cls-31" d="M790.14,73.62c-.57.92-1.52,1.29-2.87,1.13-2.85,1.29-2.69,4,.49,8.13.64,1.38-.07,7.89-.64,9.3-.22.54-.79.85-1.32,1.1-3.31,21.93-12.42,42.47-30.25,56.77-10.3,8.26-21.34,15.16-33.83,20.02-24.55,9.56-45.94,23.83-62.68,44.05-1.92,1.22-4.08,2.07-6.49,2.52-6.27,4.87-12.59,8.42-19.39,2.36l11.36-12.78,18.97-18.91c8.32-7.34,17.02-13.42,26.75-18.63l27.97-12.51c7.95-3.55,15.43-6.86,22.83-11.49,15.67-9.8,26.72-24.43,32.9-41.86l7.28-23.32c.93-2.99,2.19-5.82,5.37-6.93,1.52-.53,2.68.14,3.54,1.04Z"/>
        <path class="cls-42" d="M602.64,810.77c7.6,4.03,15.07,8.35,21.79,14.29,13.69,12.1,23.99,27.46,28.93,45.11,3.22,11.48,3.85,22.96,3.8,34.76l-5.71.26c-1.9-1.22-2.92-3.18-3.56-5.66-2.71-10.57-6.24-20.65-12.43-29.78-13.71-20.22-34.57-33.94-56.69-42.94-.74-.42-1.39-1.7-2.71-1.41-1.28-1.67-1.97-3.67-2.35-5.99l-.09-1.58c5.27-2.02,10.69-3.6,16.25-4.77.95-2.3,3.95-3.61,6.26-2.8,1.6-1.49,6.69-2.4,6.5.51Z"/>
        <path class="cls-25" d="M98.24,543.45c2.42,3.19,7.43,2.1,10.44,6.76-1.75.32-2.42,1.23-2.95,2.67l-1.47-1.19-6.01,2.69c-.59.26-1.98-.65-2.45-.25s-.99.91-1.26,1.82c-.16.54.95,1.26,1.37,1.04.36-.19.92-.93,1.69-.89,1.21.08,1.29,2.03.97,2.77-.43,1-1.19,1.53-2.29,1.9l-7.29,2.4c.52.84.78,1.96.38,2.38s-1.29,1.71-2.08,1.73c-11.45.29-24.99-10.29-47.34-7.35l-8.63,1.14c-2.34.31-5.49-.49-10.43,2.7l-4.9,3.17c-3.51,2.27-9.43,4.66-12.8,3.17-1.65-1.08-2.24-3.91-1.8-5.81-1.02-.34-.74-1.37.37-1.16,1.85-3.36,5.3-8.66,9.52-6.54,8.72-7.23,21.8-15.76,33.08-17.78.99-.18,2,.16,2.92.51.34-.4.69-.78,1.09-1.09,4.74-3.67,25.55-1.93,32.05-.76,3.65.65,14.76,2.79,16.85,4.78.36.35.67.75.96,1.18Z"/>
        <path class="cls-45" d="M739.09,283.78l-1.11-.83c1.29-3.95.85-6.32-1.31-7.11-3.29,3.94-9.52,7.01-7.33-.79,6.09-19.66,19.36-28.81,25.47-40.01l17.74-32.49c9.71-17.78,14.79-43.45,17.14-63.38l.17-20.67c1.35-1.82,2.56-1.51,4.36-.53.6.32,4,2.95,4.64,3.48,1.19,2.41,2.39,3.3,3.6,2.67-.72-3.19-.94-6.48-.66-9.87l1.16-.95c.31.18.5.65.56,1.31l.54,5.58-.23,22.39c-2.92,30.84-12.33,54.69-31.04,79.18l-15.93,20.85c-8.58,11.24-13.85,24.09-16.52,38-.25,1.32-.26,2.48-1.27,3.17Z"/>
        <path class="cls-55" d="M633.17,218.99c2.04-.94,3.56.88,5.31,1.82,2.67,1.44,8.95-1.59,12.39-4.53,2.2-1.87,5.54-1.64,8.18-2.18l-10.17,11.67c-5.19,5.95-16.36,9.12-22.57,3.28,1.09-1.59,1.23-3.39,1.84-5.05.49-1.35,2.32-2.4,2.5-3.91.09-.81-.6-1.08-.94-1.17-2.26-.57-3.47,4.08-5.96,5.06-3.1,1.22-5.85-1.14-7.43-3.66-8.55-13.54-9.92-26.84-8.28-42.56l1.36-12.99c.72-6.94,2.44-13.59,1.33-20.82,2.11-3.28,1.72-6.68.96-10.3-1-3.67-.54-7.04,1.96-10l-2.01-3.5-.38-1.69c.82.69,1.35,1,1.93,2.07,4.94,9.16,6.85,19.04,7.49,29.35v18.32s-.05,19.9-.05,19.9c.95,10.54,5.1,20.36,9.8,29.63.29.58,1.02,1.21,1.35,1.44s1.06-.04,1.42-.21Z"/>
        <path class="cls-56" d="M158.92,475.11c2.42,1.8.24,6.39-1.15,8.59-7.9,12.56-21.08,16.59-34.91,19.47l-30.76,4.82c-12.58,2.23-24.58,5.85-36,10.88l-1.28-.82c-5.21,2.78-6.61-3.22-2.98-6.21,2.25-1.85,5.07-3.43,7.64-4.84,4.51-2.47,9.24-4.52,13.97-6.51,1.25-.64,6.45-3.63,7.03-4.32.73-.87-19.7,4.01-20.81,5.93-1.8.89-3.1.81-3.89-.22,11.62-6.37,28.71-9.8,42.44-11.57l20.07-2.59c14.02-1.81,27.01-5.63,39.24-13.18,0-.56-.3-1.24-.41-1.96,1.73-1.11,3.62,1.29,1.79,2.53Z"/>
        <path class="cls-32" d="M391.67,810.59c.79,1.71.84,3.7.14,5.97.16,10.36,0,20.73-.48,31.11.09,5.96-6.08,27.04-11.23,28.82-.4.14-.83.2-1.27.24.09,1.72.73,2.26,2.38,2.01,2.73,3.61,8.88.24,12.22-1.64,9.51-5.38,18.11-14.62,25.12-22.62l1.93-.67c.66-3.11,7.03-8.53,9.84-9.1,1.58-.32,2.55-.1,2.61,1.64-.2.59.17,1.65-.63,2.2-2.56,1.75-4.43-.63-6.94,5.17-.79,1.84-2.51,3.03-2.34,5.56.26,4.04-4.29,5.39-4.21,8.15l-4.18,4.18c-2.51,1.81-5.24,3.21-8.2,4.19-2.84,3.11-5.93,5.08-9.7,6.88-4.69,5.35-11.9,8.44-18.88,9.64-6.5,1.12-8.18.43-11.2-5.57,3.58-8.8,7.29-17.59,11.14-26.38.61-14.77-.45-29.46-3.18-44.06l-.54-8.58c-1.4-2.35,2.22-3.61,4.41-3.55.97.02,11.26,4.21,12.83,4.97l.37,1.46Z"/>
        <path class="cls-47" d="M829.96,725.63c-.45,1.72-3.43,1.72-5.05,1.28l-5.48-3.13c-7.21-4.12-14.67-7.23-22.57-8.74l-5.59-1.07-25.74.15-9.82.67-2.77.04c-4.69-2.99-9.07-6.35-13.13-10.06l.84-1.39.74-1.35c4.4-.04,8.03-1.41,10.86-4.09.91-1.98,2.08-3.26,3.49-3.83l1.57-.75,5.35.9c25.75-2.13,54.31,5.56,67.47,29.43l-.18,1.95Z"/>
        <path class="cls-30" d="M158.92,475.11c-.11-1.29-1.21-1.77-1.79-2.53-10.95-14.3-26.65-24.24-44.44-28.57-1.93-.47-3.25-.95-4.58-2.07-2.04-3.06,1.72-7.64,4.78-5.57,19.77-7.74,42.12,5.01,55.36,19.58,4.46,4.91,13.51,16.63,6.82,22.63-2.95,2.65-6.54,2.46-10.01,1.14-2.04-.77-5.81-2.51-6.13-4.61Z"/>
        <path class="cls-11" d="M54.82,518.06c.54,1.84-3.81,3.83-5.02,2.4l-.7,1.79c-15.88,8.39-30.52,19.33-41.42,34.22-2.71,1.55-4.52,4-5.93,6.68l-.37,1.16c-.14,1.28-.14,2.54,0,3.76-2.2-.79-1.48-5.76.09-9.77,5.69-14.54,14.56-27.57,26.23-37.99,8.61-7.68,17.71-14.29,28.09-18.44l3.45-.92c5.59-2.62,11.42-4.41,17.5-5.82l5.63-.3c.71-.04,1.17,1.29.82,1.71-.22.26-1.08.09-1.57.39l-7.61,4.65c-7.32,3.09-14.46,6.23-20.98,10.87-1.34.95-2.33,3-1.75,4.5s2.43,1.33,3.56,1.09Z"/>
        <path class="cls-18" d="M831.16,291.78l-1.51,1.06c-7.33-1.97-14.75-3.52-22.26-4.65-5.49-1.2-5.8.58-.91,5.34l.47,2.35-5.99.55c-2.08.91-4.78.32-7.17.94l-23.22,6.08c-2.47.74-4.93.9-7.38.49-2.4,1.64-5.12,3.37-8.13,3.7-.78.09-13.85-2.59-14.62-3-.51-.27-3.92-4.15-4.19-4.72-.6-1.26.32-11.28.74-13.26.08-.39.98-.48,1.55-.53v11.83c10.24-1.52,19.66-4.02,29.49-6.73,21.9-6.03,42.2-7.67,63.13.55Z"/>
        <path class="cls-28" d="M188.85,412.42c1.66.46,1.76.85.12,1.41,1.14,2.54-2.32,6.11-4.22,8-3.86,3.81-8.68,6.13-14.14,6.38l-26.68.51c-10.6,1.44-20.95,3.99-31.05,7.65-3.04.78-5.76,3.09-4.78,5.57-2.78-2.34-.46-6.74,3.17-9.72,6.68-5.49,14.39-9.05,22.71-11.53,9.44-2.82,18.74-3.71,28.58-4.16l11.65-.53,12.76-1.71c.57-.08.97-.55.97-.87,0-.26-.12-.6-.33-.91l1.21-.1Z"/>
        <path class="cls-44" d="M987.36,603.75c-.03.17-.29.46-.47.53-2.3.91-6.53,9.2-12,12.14-4.5.01-9.94,2.35-12.27,6.14-.94,1.52-3.15,2.51-2.83,5.09.16,1.27-.51,2.98-1.62,3.79-4.08,2.98-8.13,5.51-12.75,7.67-2.28,1.07-5.5,1.42-7.26-1.36-.82-1.29.41-8.29,2.26-10.33.83-.91,2.53-.38,3.39-.49l7.71-5.66c-2.24.29-3.67,1.29-5.47.69,13.88-6.99,26.64-15.91,39.26-25.2,1.3-.96,3.17-.77,3.73.55,1.28,3.02-1.02,3.49-1.68,6.46Z"/>
        <path class="cls-50" d="M790.14,73.62c1.42,1.49,3.06,2.87,3.97,5.22,4.3,11.15,7.65,22.81,8.85,34.46.35,3.41-.51,6.86.63,10.53.32,1.02-1.03,1.89-1.63,1.87s-1.99-.23-2.33-1.06c-1.02-2.53-3.02-3.3-5.22-4.62-.58-.35-1.35-2.02-2.07-1.72-.56.23-2.15.62-2.18,1.5l-.49,19.37-.37-20.2-.83-8.19-1.55-15.16.1-2c.02-.34-.75-.52-1.22-.35.26-1.72-.14-3.51.75-5.48,2.5-5.49-4.84-8.14-1.96-12.66,1.2-1.88,3.45-1.85,5.54-1.52Z"/>
        <path class="cls-1" d="M739.09,283.78c-.1.64-.2,1.83-.54,2.35-.82,1.24-.37,2.67-.57,4.41l-.99,8.35,4.04,4.71,13.47,2.75c2.88.59,5.56-1.81,7.62-3.24,1.71-1.19,3.81.54,5.32.47l3.13-.14-16.34,5.67-7.31,1.33c-3.79.69-8.81-.67-12.17-2.67-.79-1.73-.51-5.35-2.94-6.19s-4.83-1.9-6.04-3.6c-1.85-2.61-1.42-5.34-.72-8.11l2.98-11.76,1.32-3.08.3,3.56c4.76.72,5.58-6.49,9.01-3.19.96.92,1.41,1.9,1.18,3.46l-.74,4.91Z"/>
        <path class="cls-17" d="M791.22,653.98l-1.39,1.94c16.4,13.01,31.01,25.95,38.37,46.21l4.06,11.16c.66,3.95,1.26,7.77-.29,11.44-1.15,2.73-4.84,3.45-7.05,2.19,1.8.17,3.57-.35,5.05-1.28l-.29-1.33c2.69-4,1.72-11.5-3.15-13.42l-3.73-6.04c-3.81-9.38-8.2-18.95-16.29-25.49l-25.67-19.19c-1.19-2.94,3.49-5.31,6.09-4.54l1.41-.5.26-.6c1.26-.98,2.14-1.16,2.62-.55Z"/>
        <path class="cls-20" d="M374.06,807.71c.95,1.1.35,2.91.51,4.23l1.52,12.2,1.16,6.79c1.66,9.71.43,15.67,1.64,20.41,1.05,4.1.78,9.83-1.68,13.57-1.71,2.59-2.8,4.61-4.13,7.65l-5.66,12.94c1.02,2.34,2.73,5.07,4.96,6.35,2.36,1.35,4.98.11,7.18-.57l6.96-2.14c4.68-.62,5.64-4.06,8.35-6.58,2.43-2.25,6.51-2.93,8.82-5.89,2.03-2.62,4.89-3.35,8.07-3.59.73-.33,1.78-1.9,2.87-1.47-5.76,5.76-12.54,10.27-19.82,14.59-13.96,8.28-33.79,10.57-29.66,1.58l2.92-6.36c6.39-12.16,9.94-25.45,9.49-39.34l-.66-4.94-2.82-20.91-.51-7.94c-12.78,8.43-21.44,21.05-30.78,32.56l-13.45,16.57-5.38,6.07c-1.66.04.18-2-.49-4.97v-1.4c8.12-3.57,13.76-11.93,18.11-19.33.52-4.25,1.03-6.28,4.78-8.89,1.36-3.96,2.54-5.4,6.94-5.6,5.67-5.65,11.67-11.04,18-16.17,1.27-.76,2.22-.96,2.76.6Z"/>
        <path class="cls-43" d="M831.16,291.78c1.88.06,5.86,2.05,7.53,4.75l-4.51-2.85c-1.61-1.13-2.16-.26-3.51.07l-8.25,2.01-15.07.44c-2.26.07-4.28.79-6.39.23,1.48-.64,3.08-.55,4.88-.46.67-2.72-5.77-5.83-3.78-8.3,1.17-1.45,4.83-.82,6.58-.5l14.6,2.66c2.78.51,5.31,1.88,7.94,1.96Z"/>
        <path class="cls-51" d="M798.82,651.38l-7.6,2.6-2.62.55c.38-.87,1.84-.94,2.22-2.36-.67-.57-1.07-1.71-.69-2.16,1.49-1.77,3.03,1.5,4.28.63.76-.52,1.05-1.15,1.5-2.34.34,1.78,1.27,2.68,2.9,3.08Z"/>
        <path class="cls-29" d="M824.4,650.21c-2-.15-3.96-.17-6.24-.48-5.23-.72-9.77.93-14.75.47,1.15-.99,2.33-.35,3.82-.57,6.01-.88,11.69-1,17.17.58Z"/>
        <path class="cls-15" d="M398.46,177.23l.58-5.01c.25-2.13.13-4.46,2-5.5l-1.07,4.6c-.46,2-.19,4.36-1.51,5.92Z"/>
        <path class="cls-40" d="M170.51,598.11c.54.17.54.37.01.62-4.11-.03-8.67.06-12.32-1.18,2.43.11,4.81.44,7.48.48l4.83.08Z"/>
        <path class="cls-14" d="M182.77,598.74h-9.19s-3.06-.01-3.06-.01v-.62s11.61.04,11.61.04c.42,0,.67.34.64.6Z"/>
        <path class="cls-27" d="M269.91,280.27c-1.88-.61-3.39-2.1-4-3.93,1.38,1.35,2.99,2.05,4,3.93Z"/>
        <g>
          <path class="cls-51" d="M964.5,396.55c-3.3,6.4-8.01,12.2-12.59,17.74-2.62,3.2-5.54,6.06-8.76,8.57l-2.33,2.44-3.73,3.13c-7.62,6.59-15.59,12.8-24.96,17.26l-33.23,15.83c-15.12,6.55-28.82,15.14-40.03,27.23-8.02,8.65-14.56,17.97-19.36,28.36-.16,1.93-.6,2.9-1.31,2.89l-17.16-6.7c.57,14.39-.43,27.85-2.18,41.38-.94.82-1.52,1.94-1.73,3.38-1.11,3.01-3.52,3.45-7.24,1.32-2.6-.18-4.66-.88-6.18-2.1-.11-2.28,1.33-3.72,4.32-4.33l2.27-1.51c-1.89-1.62-1.51-3.44,1.12-5.48-6.63-3.57-6.78-12.42-3.11-18.26-.77-1.47-.79-3.31-.13-4.83-2.27-1.94-1.97-3.88.3-5.62-5.04-.32-4.31-2.92-1.51-5.75-2.72-3.32-3.48-7.51-2.27-12.57-1.88-4.15.89-6.38,4.8-7.26-2.31-1.24-3.64-2.83-3.98-4.8-2.63-4.89-5.83-11.49-3.36-16.96.22-2.18-1.62-4.38-3.43-5.22l-1.12-1.55c-2.02-8.98-4.18-17.95-6.5-26.91l.14-3.67c-2.09.3-3.56-5.59-1.23-5.89.56-1.13.78-2.39-.47-4.13,2.42-.68,5.42,2.86,7.13,1.92.41-.23.43-1.55.75-1.95,5.61-7.11.38-12.66,4.02-14.55,3.29,4.88,4.68,9.94,6.42,15.33,6.34,19.67,10.33,39.48,11.98,60.15.12,1.54.43,3.61,1.86,4.41,1.88,1.04,6.72,1.26,8.27-.85,5.37-7.31,10.09-14.53,16.79-20.69,9.81-9.03,20.62-15.89,32.96-20.98l32.32-10.64c23.58-6.79,45.2-18.72,61.33-37.17l9.46-10.82c.38-.43,1.94-.65,1.92-.2l-.08,2.04c-.11,2.83,1.07,5.62-.16,7.99Z"/>
          <path class="cls-36" d="M950.4,358.36c.84.19,1.06.98.65,2.38,1.57.94,3.16,1.45,4.79,1.55,2.94-.99,9.04-.84,6.33,3.05l-4.42,4.58c-20.3,17.63-45.31,25.89-72.16,21.85l-33.65-5.06c-32.83-4.94-52.61,5.57-58.7,4.26-6.53-1.4-7.78-7.9-6.47-13.47.78-3.33-.73-7.08,1.44-9.81l-.55,8.83c13.45-5.7,27.24-8.34,41.79-9.16,11.26-.63,22.25.97,33.37,2.91l24.01,4.18c24.15,2.69,44.41-2.01,63.57-16.08Z"/>
          <path class="cls-19" d="M979.33,362.87l1.11-6.82c.79-4.86,1.33-9.45.3-14.48-3.4,5.94-6.27,11.05-10.63,15.64-2.68,2.82-4.85,6.03-7.93,8.13.11-.78-.21-1.57-.82-1.96-2.1-1.35-5.25.92-7.56-.1l-4.59-2.02,1.21-2.9c7.04-5.17,13.36-11.22,19.64-17.78,1.68-1.75,4.21-3.94,6.73-3.36,4.2.96,5.51,5.29,5.34,9.02-.27,5.94-.72,11.38-2.78,16.63Z"/>
          <path class="cls-29" d="M943.16,422.85l4.02-4.04c1.6-1.6,2.82-3.54,4.74-4.53l-.81,1.72-5.84,5.83c-.65.65-1.28,1.02-2.1,1.02Z"/>
          <path class="cls-29" d="M940.82,425.3c-1.1,1.16-2.06,2.82-3.73,3.13.84-1.41,2.06-2.92,3.73-3.13Z"/>
        </g>
        <path class="cls-35" d="M770.01,426.7c-.22,1.83.64,4.08,1.23,5.89.54,2.08.17,3.66-1.13,4.75-1.96,1.34-3.23,3.36-3.81,6.08,1.28,1.51,1.07,3.43-.62,5.78-1.78,1.64-2.71,3.48-2.79,5.52,1.07,3.81.54,5.65-1.6,5.5-.23.06-.67.05-.85-.08s-.4-.63-.37-1.07c.37-5.47-1.13-10.13-2.27-15.49-5.2-24.51-12.94-48.13-23.52-70.85l-10.35-19.61c-3.42-4.52-6.84-12.33,2.53-8.94-.76-1.36-1.14-2.36.56-2.9,11.15,15.52,20.49,32.04,28.86,49.56,5.33,11.17,9.16,22.43,13.13,34.12.26.78.34,1.34.99,1.76Z"/>
        <path class="cls-23" d="M727.03,341.26c-.3,1.14.4,2.28,1.29,3.16-1.02,2.93-4.3-1.16-6.35.29-.7.49-.93,2.36-.48,3.3l2.44,5.09-3.16-4.36-7.5-12.12-11.87-17.58c-1.89-2.8-4.46-5.5-5.12-8.93-1.37-7.09-6.18-6.78-6.1-10.52l12.28,11.72c8.93,9.61,17.05,19.47,24.56,29.93Z"/>
        <path class="cls-51" d="M793.63,585.14l-9.57,33.92c-.49,1.73,1.55,3.53,2.96,3.55l4.6.04c-2.13.51-2.81,1.78-4.3,3.56-1.8,2.15-5.65,4.47-4.93,7.87,2.41,5.87,8.45,9.85,5.95,14.73-.99,1.93-2.58,3.82-1.94,6.31-2.28-.05-4.34-1.24-6.18-3.55l-5.83-5.76c-6.83,15.51-15,30.41-24.5,44.71l5.52,2.13.35,1.45c-3.13,8.22-7.98,8.21-15.1,9.26.17.48.07.88-.17,1.3-.4.72-4.96,6.3-5.65,7l-1.49-.05c-.73-.93-2.18-1.46-2.49-2.81.11-.76,1.6-2,.24-3.3-.39.79-1.03,1.7-1.67,2.14-.38.26-1.17-.05-1.88-.56l1.63-2.32-1.07-2.23.94-2.35c.53-1.33.68-2.32,2.25-2.75-3.06-5.24,9.06-6.87,6.09-12.79,2.27-1.82,3.42-4.99,4.56-4.72l2.35.55c-1.03-2.82.1-4.39,1.27-6.02l3.32-4.63c1.25-1.74,1.46-3.46,3.52-4.67,1.16-.69,2.04-2.6,2.94-3.75-1.86-2.04-1.3-3.83-1.01-6.13.07-.54-1.15-2.18-.7-2.29l2.55-.62c.71-.74-.53-2.4-2.19-2.53,2.31-2.03,1.5-3.52,1.78-5.78.26-2.06,1.75-5.05,3.22-6.48,2.31-2.25,6.12-1.66,8.74-2.99,1.15-.58,2.2-1.98,3.16-2.97,1.08-1.11.29-3.82.97-5.15,1.22-2.41,1.49-4.75.04-7,.44-.59,1.03-1.56.45-2.05-.43-.37-1.81-.33-2.64-.42-1.41-2.81-.79-7.58,1.5-10.1l2.42-.4c-.09.01,1.79-3.91.51-7.83-1.07-3.29,1.44-6.73,1.49-9.72.06-3.76,1.35-5.22,3.59-7.77,1.96-4.97,5.16-10.17,10.19-9.53.99.13,1.57-.99,1.19-1.89-.29-.7-.99-1.21-2.03-.7-2.41,1.19-3.96-.83-4.95-2.46-.39-.63-2.3-1.69-1.19-2.59l3.46-1.43c4.37,1.69,4.96-3.29,7.72-.23.59.66.36,1.37.45,2.57.05.64,1.23,1.65,1.07,2.23-.14.5-.72,1.39-1,1.82-1.75,2.68-1.18,4.93-1.48,7.72l-.65,6.17c-.09.85-.14,1.58.48,2.23.28.3.82.39,1.15.07Z"/>
        <path class="cls-51" d="M799.87,620.85c-.95,1.44-3.44,2.02-5.02,1.02l5.02-1.02Z"/>
        <path class="cls-13" d="M470.36,226.18c-1.41,1.08-1,3.83-1.84,5.1l-4.2,6.33c-1.52,2.29-5.51,3.14-8.25,3.9-37,10.35-71.44,29.97-98.98,56.55l-10.94,11.83-14.43,18.04-10.75,16.29c-12.42,18.83-20.63,39.57-25.85,61.56l-2.76,11.61c.26,2.54-.09,4.91-1.36,7.01.3,5.66-.16,11.12-1.01,16.82l-.12,4.7c-.9,2.25-.04,4.3-.34,6.19s-.01,2.84.07,4.64l.74,16.03c1.66,11.81,3.29,23.18,6.47,34.66.21.76-.01,1.62.17,2.11-2.75-2.85-2.56-7.2-3.76-10.79-1.95-5.84-2.45-11.57-3.29-17.61l-1.27-9.14-.19-5.69-.4-9.06c-.2-4.53-.35-8.46,0-12.97l.7-9.11.53-8.02.8-7.32c2.99-12.94,6.01-25.71,10.88-38.04l7.03-17.81c-1.29-3.07-.42-6,2.34-7.71,2.76-1.83,3.86-6.29,3.77-10.06-.03-1.37,1.08-2.5.01-4.13-.69-1.05-1.01-2.29-3.48-2.14,1.67-4.62.22-6.2,4.92-9.13,1.54-.96.21-3.02.19-4.06-.06-2.87,1.65-5.07,2.27-7.55,1.12-4.44,4.46-5.27,3.72-6.78l-1.09-2.24,2.4-4.25c1.65-1.3,1.54-3.49,2.63-4.92l4.71-6.21c2.38-3.14,6.33-4.79,8.02-8.7,2.67-.29,4.5-1.74,5.59-4.06,3.18-.48,4.53-2.51,6.29-4.92,1.38-1.88,5.46-1.7,7.03-2.99,2.1-1.73,3.36-2.56,6.12-2.93,2.47-.33,6.02-3.47,5.93-3.45.79-.12,2.11,1.79,2.4,1.78s.92-.67,1.03-.97c.68-1.98,2.44-1.91,3.96-2.98l4.85-3.42c2.02-1.43,1.91-3.49,1.86-5.11l6.58-6.77c1.82-1.87,3.79-3.2,4.73-5.56,24.29-9.33,49.7-15.8,75.56-18.53Z"/>
        <path class="cls-20" d="M302.69,312.43c-.76,2.23-2.24,4.05-4.01,5.46-1.77,1.92-3.22,4.04-4.37,6.37-1.71,2.07-3.31,4.55-4.75,6.72-1.25.98-2.22,2.2-2.51,3.79-26.32,39.78-40.8,80.62-44.49,128.31.98,3.38,1.32,6.83,1.03,10.35l-1.24.83c-.8,3.23-.57,7.2-.19,10.52,1.77-.13,1.66,1.3.01,1.71,1.43.8,1.06,2.83.09,3.91,1.97.36,2.16,6.5.33,7.21,1.76.56,2.43,6.44.51,7.26-.57,1.71-.43,3.18.43,4.4,1.99.29,2.51,6.81.58,7.55,2.14-.18,1.74,1.99.71,3.39,1.54-.16,1.81,1.34.5,2.02.84,1.48,1.65,3.02,2.03,4.69,4.32,19.19,8.22,36.17,15.49,54.65,33.32,84.65,102.13,151.61,190.95,174.96,19.38,5.09,36.55,6.69,56.32,8.31,1.65.14,3.22.72,4.75,1.34l6.21.35.5-1.25c82.27.76,160.54-42.79,209.76-104.67l1.51.1,9.64-12.48,5.5-3.37c1.1-.75,2.15-1.74,3.51-1.32.23.49.38.96.27,1.35-2.31,8.16-8.08,18.72-12.76,25.93-17.63,27.14-35.38,50.29-59.08,71.12-28.86,25.09-62.82,43.69-99.21,55.24-23.32,6.72-47.25,12.36-71.71,13.26-20.38.75-48.23-1.41-68.07-5.5-9.37-1.93-18.78-4.35-27.69-7.75l-23.23-8.16-14.8-6.61c-24.71-11.04-46.67-26.49-66.69-44.64l-8.7-7.88-8.86-9.01c-19.57-19.89-35.62-42.43-49.25-66.26v-.92c-18.78-34.44-29.04-69.28-34-108.17l-.65-9.89c-.29-4.38-.55-8.44-.59-12.9l-.13-14.95.47-11.25,2.38-19.63c.7-5.79,1.98-11.1,3.32-16.76l2.58-10.89c.88-3.73,3.01-6.2,6.83-6.85.39-.07.05-1.89-.26-1.84l-2.34.4c-1.84-.63-.45-2.77-.09-4.31l2.08-8.92c1.95-3.56,3.08-6.98,3.95-10.94l5.03-12.46c.83-2.06,1.39-3.72,2.28-5.67l8.93-19.96c-.26-.12-.5-.26-.67-.47-.63-.75,8.6-15.2,9.8-16.85,1.04-1.49,2.35-2.85,3.93-4.09l4.48-6.52,8.75-11.42c1.53-2,3.47-3.49,4.65-5.79.53-1.03,1.58-1.41,2.23-2,1.66-1.87,3.28-3.77,4.87-5.7,1.64-1.56,3.16-4.26,5.47-5.26,2.14-.93,3.94-1.84,4.51-4.29,1.12-.64,2.18-2,3.07-2.97l4.13-4.51c2.24-2.45,1.9,2.23,3.98,2.64.21.04,4.53-3.67,2.96-6.33,1.46.3,2.66.11,3.93-.59l-1.56,2.55c-1.19,1.93-2.69,3.31-3.37,5.29Z"/>
        <path class="cls-40" d="M188.74,557.91c.21.56.37,2.43-.28,3.07-21.57,6.91-45.73.13-66.42-8.12l-23.8-9.42c-17.02-5.67-33.24-8.37-50.96-4.11-.46-.14-1.13-.39-1.12-.73.22-4.38,1.75-9.32,3.37-13.35-1.61-2.28-1.52-3.88.26-4.81l5.02-2.4,14.63-5.65c28.5-11,71.54-4.97,86.7-28.42,1.82-2.82,3.01-5.97,2.76-8.88l6.32,3.33c3.51,1.89,8.37,1.19,10.44-2.58,1.19-2.17.33-5.21-.54-7.39-2.33-5.81-6.21-10.17-10.56-14.58-13.31-13.5-33.2-22.26-51.69-17.52,9.49-4.97,19.89-7.7,30.95-8.87l26.03-.49c8.87-.17,15.33-5.74,19.1-13.18.31-.37.82-.9,1.11-.74,1.52.79,11.51,7.18,11.85,8,.09.22.1.47.09.74-13.87,42.57-19.51,88.78-12.81,133.91l-.47,2.18Z"/>
        <path class="cls-37" d="M241.51,378.74c-8.78,14.38-14.55,30.61-20.53,46.81-4.82,13.08-7.51,26.11-10.61,39.57-1.85,8.01-2.82,15.68-3.65,23.86l-1.48,7.26-1.28,7.45c-.36,2.1-.53,4.57.25,6.63-2.57,2.1-1.35,4.32-1.13,7.23l.43,5.77c-1.64,2.77-2.6,6.42-3.12,9.75-.23,1.48-1.92,2.56-1.82,4.09.11,1.78.62,3.07,2.26,4.49-2.37,3.05-3.71,6.13-4.05,9.73l-3.74.56c-1,1.12-.24,3.04,1.16,3.89-1.43,1.7-2.56-.09-3.3-.78-.79,1.05-1.11,2.43-2.16,2.87-2.95-17.81-4.35-35.64-3.25-54.03.94-24.33,5.03-47.81,12.04-71.04l3.42-11.35-11.98-7.67c0-.47.04-1.06-.12-1.41-1.55-3.39-8.68-5.09-9.38-10.8.23-1.4,1.05-2.56.11-4.33l-.24-3.97c-.74-1.08-.13-1.54.59-1.68.32-.06.55-.48.91-.21.26.2.36,1.11.66,1.54.86,1.19,2.35.09,3.03-.5,1.6-1.38-1.12-3.14,1.81-6.97,2.69.16,4.81-.72,6.62-2.29-2.17-1.34-3.57-2.91-3.36-5.07.11-1.13,1.71-2.22,2.82-2.38,1.07,1.34,1.86,3.25,3.51,3.81s3.56-.27,5.31-.96c-.72-.84-1.2-1.55-1.27-2.63,2.52.08,5.04.96,7.58,2.63l7.44,2.87,8.92-17.22,1.5-.23c2,.1,2.22-2.29,4.42-3.85,0,1.26.99,3.24,1.78,3.03,1.59-.42,2.97-1.05,3.73.01l1.65,2.3c1.67,1.2,2.75-1.46,3.59-2.31,3.26-3.32,7.55-3.64,11.83-4.39l2.15-1.48-13.05,21.4Z"/>
        <g>
          <path class="cls-14" d="M241.72,654.64l-1.73-.52c-5.8-9.49-10.7-19.37-14.69-29.66-2.77-4.35-4.81-9.11-6.12-14.3-.81,3.79-1.74,7.5-2.8,11.15-2.8-.3-5.32.33-7.56,1.91-1.44.55-2.85-.45-4.25-2.99l-5.85-16.08c-.69-1.89-3.86-4.32-5.55-5.07-3.4-1.14-6.74-.41-9.75-.34l.22-1.42c2.14-.45,4.11-.67,5.91-.66-3.11-1.5-6.31-2.96-9.61-4.37-2.11.54-4.24.54-6.41,0-5.27.57-10.61.68-16.02.33-5.18-1.15-10.42-1.94-15.72-2.37-1.38.55-2.79.74-4.25.57-4.65-2.42-5.67-2.65-3.07-.68,6.22,2.41,12.7,4.04,19.46,4.87,1.37.52,1.88,1.26.73,2.39-11.38-1.53-22.29-4.51-33.17-9.04l-28.19-14.11c-11.43-6.42-23.36-10.94-36.47-13.07s-28.25.87-40.83,5.79c-.18-.22-.34-.46-.4-.71-.18-.66,4.94-3.77,6.03-4.32,4.05-2.03,14.48-3.11,19.27-3.33,14.58-.68,25.71,1.68,39.31,6.52,6.14,1.99,8.78,1.28,7.92-2.12,2.28-1.66,5.02-2.83,8.2-3.52,1.61-.81,1.84-3.03.05-1.39-5.18.07-2.76-6.6,1.57-4.85,2.5-1.62,4.97-2.38,7.42-2.3,1.66-.97,1.45-1.87-.64-2.69-2.86-.78-5.07-2.03-6.64-3.74l.18-1.04,1.12-.88,26.3,10.4c18.39,6.92,42.66,13.74,61.96,7.08-.1-1.06.28-1.77,1.12-2.14.17-2.51,1.07-3.73,2.71-3.64-.56-3.16,1.42-3.77,4.06-3.94.75-3.05,1.78-6.01,3.67-8.56-2.53-2.87-2.25-5.85-.06-8.68.56-3.46,1.43-6.96,3.12-10.06l-.85-10.09c1.04-1.87,1.38-3.68,1.04-5.43.57-6.29,1.59-12.52,3.06-18.7,2.66-25.68,9.33-50.88,18.52-75.01,4.21-11.05,8.65-22.6,14.7-32.77.29-.48.73-.87,1.21-1.26s1.02-.72,1.57-1.03l.83,1.15c-6.82,14.17-12.73,28.72-17.74,43.67-2.18,5.18-3.84,10.51-4.99,16.01,4.85-.57,4.97,3.79.38,4.75-.59.29-1.13.67-1.6,1.13-2.43,2.38-5.34,17.2-6.08,20.97-6.12,31.25-6.65,65.97-.53,97.66s15.42,61.24,31.06,89.28c.19.77-.39,1.15-1.14,1.29Z"/>
          <g>
            <path class="cls-37" d="M183.41,598.73h-.64c-4.11-.18-8.2-.4-12.26-.62-3.95.51-8.06.32-12.31-.56l-3.54-.17c.03-.76-1.03-1.34-2.12-1.51l-6.28-.98c-3.27-.51-6.06-1.4-9.21-2.34-2.74-.82-4.72-1.75-5.88-5.15,1.02.25,1.39.17,2.25-.46,1.49,1.86,4.42,3.41,6.82,2.46,2.98-1.17,5,.18,7.73.55,1.84.25,3.1-.63,5.15.41,3.88,1.98,11.64.55,17.08,1.39,2.36-1,4.74-.94,6.9.23,1.87-2.45,6.25.09,10.09,2.51l2.51.71c.88.25,1.62,1.95.9,2.94-2.39-.12-5.14-.43-7.19.59Z"/>
            <path class="cls-37" d="M204.24,590.65c.47-.58,2.48-.27,2.86-1.46-1.25-.78-1.96-2.21-2.66-3.5-.63-.15-.94-.17-1.22-.12-.44.09-1.17-1.26-.75-1.37,1.36-.36,2.57-.42,3.72-1.4-.51-1.14-1.94-1.71-2.64-2.38-.98-3.52-.5-7.05.6-10.43,3.81.7,5.55,3.06,6.46,6.53.47,1.78,1.77,3.93.35,5.71-.66.83-1.45,1.68-1.39,2.73.09,1.8,2.92,1.84,2.95,3.06s-1.91.75-2.73,1.26-.38,3.16-2.83,4.03c-1.26.45-2.73-.56-2.71-2.66Z"/>
            <path class="cls-25" d="M102.99,573.76c1.61,3.98,4.91,2.97,7.06,4.87.77.68.61,2.56-.12,2.69l-11.9-5.63c-2.52-1.19-4.63-2.43-6.45-4.55l-1.28-1c-.46-.36-.69-1.78.31-2.06.88-.25,1.46-.6,1.78-1.22.21-.41-.08-1.19-.2-1.87-.18-.99,1.34-1.22,1.17,0,.71.69,1.56,1.49,1.61,2.29.05.85-.42,1.7-1.01,2.64,4.54,2.84,7.76.68,9.04,3.84Z"/>
            <path class="cls-25" d="M130.84,559.54c-.03.86-2.41,1.39-2.69.76l-1.49-3.24c2.14-.77,4.24.69,4.18,2.48Z"/>
            <path class="cls-37" d="M216.83,602.7c-1.86-1.15-2.33-2.88-2.03-4.81,2.05.41,3.03,3.08,2.03,4.81Z"/>
            <path class="cls-25" d="M126.21,572.87c-.49,0-1.15-.23-1.36-.56-.33-.55,1.11-1.72,1.86-1.76.84-.05.88.44.88.93-.01.84-.37,1.38-1.38,1.39Z"/>
            <path class="cls-25" d="M113.81,554.53l-1.85-1.9c-.58-.59,1.01-1.22,1.46-.62.7.93,1.3,1.59.39,2.52Z"/>
          </g>
        </g>
        <g>
          <path class="cls-54" d="M275.3,284.84c.8.68,3.11.73,2.83,2.68-.16,1.13-.72,3.28-1.26,4.23.79,1.75-.25,4.48-2.32,4.08-.22,3.26-4.14,5.22-6.89,6.5-15.56,7.23-36.49,2.07-51.64-4.39-33.56-19.23-69.98-25.05-107.46-17.17-18.95,3.98-44.4,12.12-61.05,22.01-1.49.88-1.9,2.71-1.55,4.33.66,1.22.95,2.62,2,3.75-3.84-1.7-3.62-6.55-2.43-8.08,3.42-4.45,7.71-7.89,12.28-10.97l9.22-6.22c31.72-19.19,65.64-27.28,102.92-23.87,16.35,1.5,31.55,6.61,46.23,13.72l13.28,6.43c13.67,6.62,32.86,9.02,47.4,5.2l-1.56-2.22Z"/>
          <path class="cls-29" d="M274.55,295.83c.68,1.22.62,2.32-.31,3.39l-13.96,16.09-12.11,14.88c-8.7,10.69-16.2,21.91-22.75,33.84l-9.84,18.98c-5.46-1.9-10.84-3.97-15.61-7.03l-8.02-5.14-8.49-7.46c-1.85-1.63-3.23-3.1-4.88-5.01l-3.57-4.11c-6.22-7.24-12.08-14.96-17.59-23.14-3.33-3.5-6.58-7.05-9.74-10.65l-4.95-4.06c-17.56-14.41-39.45-21.29-62.3-19.87-10.53.65-20.22,2.99-30.23,6.09-1.25.39-2.5.29-3.24,1.3-.66.9-.96,1.98-1,3.17-.74-1.36-.65-3.42,1.2-4.77,6.18-4.52,13.48-7.24,20.7-10.3,7.82-3.31,15.58-5.6,23.68-8.22,9.61-3.11,19.24-4.83,29.24-6.4,5.03-.79,9.77-.89,14.82-1.25,8.48-.6,16.78.06,25.2,1.27,18.77,2.7,36.07,8.85,52.63,17.83,7.89,4.28,16.3,6.55,25,8.24,12.26,2.39,28.59,1.12,36.11-7.67Z"/>
          <g>
            <path class="cls-8" d="M147.68,320.46c3.2,3.64,6.48,7.23,9.85,10.79,5.43,8.04,11.26,15.7,17.48,23.01l1.35-.31c6.73,8.01,14.52,15.22,23.56,20.55l.05,1.49c2.93,2.66,2.51,4.3-1.63,4.87-3.16.44-4.78-.95-6.31-3.55-1.96.82-1.36,2.78,1.82,5.89-.48,1.41-1.56,2.37-3.23,2.87-2.8.06-4.29.93-4.46,2.6.73,3.91-1.43,7.24-5.55,5.33.52,2.68.54,5.23.06,7.64,1.76,3.53,4.63,6.58,8.59,9.14l-.41,1.63c0,1.48-.71,1.51-1.21.1l-12.29-10.49c-18.84-16.01-26.7-40.47-42.05-57.73-15.21-17.1-36.73-26.2-59.02-30.51-10.51-2.03-20.02-.16-26.32-2.94-1.13-.93-2.51-2.35-2-3.75-.95-4.04,3.25-5.51,6.62-6.48,34.94-10.09,67.69-6.48,95.23,18.36l-.14,1.47Z"/>
            <path class="cls-37" d="M175.01,354.26c-3.04-.69-3.68-4.94-7.3-6.91-2.33-5.74-6.35-8.68-8.38-12.39-1.55-2.84-3.03-4.92-5.83-6.71l-2.42-3.52c-1.8-1.15-2.94-2.33-3.4-4.27,6.6,5.42,11.83,12.26,16.98,19.41l10.36,14.38Z"/>
            <path class="cls-37" d="M170.18,357.7c-1.34,1.91-2.7-1.35-5.92,1.96-2.53-2.26-5.43,1.43-5.81-1.45-.09-.65,2.88-2.38,3.15-2.21l2.31,1.42c2.28-.4,4.4-1.21,6.27.28Z"/>
          </g>
        </g>
        <path class="cls-5" d="M786.39,655.12c.42.31,1.46.12,1.95,0-.56,1.28-4.62,1.14-6.94,4.05l11.48,8.45,12.96,9.65c6.43,4.79,10.51,10.79,14.07,17.92,2.39,4.79,3.96,10.55,7.35,14.75,5.99,1.9,6.38,13.38,2.7,15.68-3.68-5.51-7.12-11.45-12.62-15.75-13.76-10.74-31.27-15.57-48.64-14.5-4.73.29-8.94.26-12.95-1.29l-7.66-2.96c9.28-13.59,16.84-27.46,23.31-42.33.83-1.91,1.62-3.67,3.01-4.78,4.05,4.2,7.69,7.98,11.98,11.09Z"/>
        <g>
          <path class="cls-12" d="M226.42,126.06c23.66,15.9,38.26,40.88,43.26,69.2l6.14,32.75c3.54,16.02,10.9,31.66,25.93,39.51l1.16,1.99,3.09,1.23c.83,4.51-3.76,8.56-6.95,11.32l-1.38,3.89c-1.8,1.65-3.33,3.49-4.59,5.53-4.55.55-8.63,2.48-12.25,5.81-.82.53-2.1.86-2.85.18-.59-.54-1.48-4.6-1.09-5.7-.74-1.12-.71-2.66.08-4.63.41-.54-.14-1.3-1.66-2.29-1.42-1.21-4.4-2.76-5.38-4.58-1.54-1.11-2.88-2.42-4-3.93-10.96-10.72-16.27-35.16-16.68-51.05l-.48-18.57c-1.91-22.74-9.74-49.92-25.82-66.07l-10.98-11.04c-1.87-1.88-3.69-3.36-4.83-5.64-.13-.63-.45-2.92-.14-3.14.4-.28.81-.51,1.26-.61,2.03-.44,14.15,3.05,16.77,4.14l1.42,1.7Z"/>
          <path class="cls-15" d="M397.25,188.73v11.7c.38,3.29.53,6.63.43,10.02,1.79,6.59-5.85,11.5-10.85,14.48l-1.6-.52c-5.91,2.16-12.4,1.3-18.53.44-22.02-3.09-42.52-13.86-56.33-31.48-18.01-24.81-39.28-48.26-69.51-60.5l-2.29-2.38c-2.73-1.5-1.57-3.36,1.08-4.05,7.37.19,10.02-1.39,7.96-4.73l.64-1.21c10.62,3.73,20.64,8.29,30.23,14.91s17.87,12.97,24.97,21.48l21.77,26.09c4.71,5.64,10.24,10.13,16.53,14.15,15.31,9.81,32.95,14.08,51.06,15.13,1.36.08,3.64.52,3.66-1.5l.15-20.78c0-.73.17-1.16.63-1.26Z"/>
          <path class="cls-38" d="M248.27,120.49c.67.91,1.17,1.77,1.31,2.49.28,1.44.04,2.72-1.21,3.21-6.2,2.47-9.02.34-10.12,2.49-.24.46-.18,1.25.34,1.8-4.37.38-8.65-1.92-12.17-4.42-6.2-1.79-12.28-4.07-19.17-4.74l-.13,2.65c-.95-1.9-.74-4.03.75-5.94,5.85-7.52,29.63-1.32,40.4,2.47Z"/>
          <path class="cls-27" d="M238.59,130.49c22.13,9.86,39.47,21.37,55.52,40.09l17.23,22.02c17.5,22.37,45.78,33.35,73.9,31.8l-9.71,5.25c-24.64,10.54-47.59,23.78-68.85,40.09-1.15.88-2.98-.17-3.77-.24-8.83-4.42-16.08-11.13-20.7-20.21-4.17-7.83-6.71-15.98-8.34-24.74l-5.09-27.45c-2.2-11.85-5.72-22.95-10.94-33.81-6.26-13.01-15.77-23.46-27.1-32.29l-4.32-4.95c4.14,1.19,8.19,2.65,12.17,4.42Z"/>
        </g>
        <g>
          <path class="cls-42" d="M687.79,773.78c.22-.43.61-1.06.92-.97,14.09,4.17,27.3,11.85,37.12,23.25l18.32,23.28c16.3,20.13,40.12,35.5,65.3,41.47l3.84,1.64.7-1.2c5.64-.09,11.31-.14,17.02-.14,7.35.28,4.62,7.23-.58,8.59-12.68,5.16-26.99,5.77-40.97,3.7-10.18-1.51-19.16-4.7-28.28-9.2-17.9-8.82-30.06-20.79-42.39-36.09-14.73-18.28-28.95-30.76-52.48-34.85l-1.55-.47c-3.05,2.21-5.13-4.49-2.92-6.36-1.17-5.96,5.26-8.74,10.08-9.67,1.49-1.13,3.03-1.97,4.6-2.52,2.58,1.08,4.49.53,5.75-1.65,1.89.59,3.73,1,5.54,1.21Z"/>
          <path class="cls-7" d="M796.86,715.03c-1.76.54-3.67-.41-5.63-.39l-24.76.21-9.19.56c.89,3.32,3.09,4.77,4.66,7.06,7.6,11.07,13.15,23.12,15.82,36.25l4.96,24.47c2.58,12.7,5.64,24.8,11.37,36.38,8.48,17.15,21.66,30.54,38.58,39.18,2.53,1.29,3.89,4.24,3.12,6.48-.85,2.45-2.59,4.5-5.35,4.46.63-.25,1.19-1.46,2.34-1.63,1.74-.26,3.16-4.61,1.39-5.11-4.95-1.39-10.52-.77-15.48-.3l-5.39-.21c-6.11-2.55-12.88-8.3-17.62-13.07-13.35-13.43-20.39-29.95-25.04-48.08l-10.18-41.43c-3.5-11.55-9.19-22.41-16-32.16-2.19-4.4-1.99-5.83,1.72-9.24,2.04-1.88,6.79-4.52,9.55-3.69l.44-1.26c11.56-.69,23.13-.95,34.7-.78l5.44.94.56,1.36Z"/>
          <path class="cls-33" d="M740.65,703.36c.2,1.45,1.34,2.18,2.47,2.98l10.44,7.42c.7.5,1.81.38,2.16,1.02-4.59,1.92-11.82,5.25-11.46,8.92.24,2.43,2.19,4.8,3.52,6.79,6.1,9.09,10.55,18.56,13.85,29.04l7.54,31.08c5.94,24.46,12.79,47.32,33.87,63.53l10.25,8.31c-4.88-.19-9.63-1.61-14.65-3.38-16.23-5.73-30.63-14.86-43.57-26.15-5.73-5.01-10.14-10.55-14.81-16.5l-15.36-19.54c-7.71-8.44-16.45-15.41-27.16-19.39l-9.96-3.7c-3.63-.33-7.2-1.2-10.71-2.6l-.4-1.45c-.05-.67.12-1.18.78-1.71,11.96-9.75,23.64-19.42,34.15-30.74,7.84-8.45,15.05-16.72,21.73-25.67l4.91-6.57c.62-.83,1.43-1.54,2.4-1.68Z"/>
          <path class="cls-37" d="M676.68,769.73l11.11,4.05c-1.04,1.68-2.43-.73-4.51-.35-.73.13-1.16,1.18-1.73,1.81-1.42,1.59-4.15.05-5.63.21-1.72,1.38-3.43,2.87-5.74,2.97s-8.71,4.28-8.35,8c-.5-1.48-.68-3.39-.63-4.84.02-.72-.32-2.45.4-2.95l8.7-6.14c1.88-1.33,4.15-3.56,6.39-2.76Z"/>
        </g>
        <g>
          <path class="cls-41" d="M323.47,858.51c1.48.87,1.64,2.53.49,4.97l-1.63,1.66c-4.23,6.08-9.18,11.15-14.17,16.23-2.53,2.26-5.28,3.54-8.24,3.83-2.16,2.64-5.07,4.6-8.71,5.89-6.53,5.23-14.23,9.11-22.59,10.57-12.64,4.47-25.22,9.23-37.72,14.28l-9.95,2.54c-4.85,2.08-9.88,3.47-15.08,4.18-5.2,3.78-13.29,4.13-8.78-3.79,3.67-3.43,7.04-7.07,10.12-10.92,13.03-14.65,23.62-31.61,30.58-50.06.34-.97.56-.97.76.05l.93,1.16c-4.56,9.3.7,8.12,7.49,4.49,1.43-2.14,2.63-2.58,3.6-1.32.08.59.14,1.18.11,1.77s-.07,1.13-.28,1.61c-4.32,9.71-9.49,20.08-18.22,26.07-3.27,3.38-1.13,2.89,2.15,1.9,11.65-3.52,25.41-11.36,35.58-18.32,12.46-8.52,23.96-18.96,33.66-30.07l1.48.19c1.15.14,1.84,1.2,2.05,3.17,2.92,2.3,5.42,4.88,7.5,7.74-.13,2.48,3.22,2.75,5.39,2.42,1.42-.88,2.57-.96,3.48-.24Z"/>
          <path class="cls-20" d="M308.16,881.38c-13.25,13.5-35.15,29.32-53.01,36.08l-11.16,4.23c-12.47,4.72-30.64,8.22-43.39,6.2-2.53-.4-3.98-1.48-4.97-3.52s-.61-4.07,1.18-5.86l10.4-10.54c.18,1.1-.51,1.8-1.25,2.56l-8.27,8.38c-1.33,1.34-2.38,4.37-.14,5.16,2.99,1.05,6.02-2.31,8.44-2.66,3.12-.45,5.07-.66,7.91-1.68l6.7-2.4,9.9-2.52,9.77-4.29,9.58-3.26,14.64-5.08c1.57-.55,3.02-1.63,4.76-1.91,5.19-.83,9.61-3.02,14.28-5.17l6.43-4.62c3.03-2.18,7.14-2.56,9.3-6.21l4.94-1.05c1.48-.32,2.31-2.2,3.97-1.82Z"/>
          <path class="cls-52" d="M321.44,825.1c.33.35.79.9.61,1.2-1.07,1.73-4.33,5.71-5.82,7.21-.86,1.65-1.9,2.28-3.11,1.9l-8.06,10.03-6.43,7.11c-16.72,17.09-34.93,30.37-57.19,39.6-4.4,1.82-8.31,3.77-13.6,3.79l3.55-5.21c3.08-2.36,5.76-4.24,7.95-7.52,4.46-6.7,8.11-13.72,11.23-20.91,6.34-14.62,10-30.17,11.52-46.36l1.23-24.6c.17-7.04,1.76-13.43,3.64-20.17,3.02-10.84,7.53-20.73,14.63-29.73l26.97,23.24c12.9,10.3,26.24,19.09,40.89,27.56l-6.53,6c-8.55,7.85-15.2,17.37-21.47,26.87Z"/>
        </g>
        <path class="cls-21" d="M47.28,539.34c-13.04,3.14-25.07,9.46-35.65,18.34-3.59-1.06-6.67.49-8.29,3.84-.39.8-.75,1.61-1.59,1.63-.26-1.87,1.08-2.74,2.21-4.1l6.11-7.4c5.25-6.36,10.45-12.24,17.28-17.03l11.48-8.05,10.96-6.12c-1.32,1.41.16,2.51.76,3.91.84,1.94-1.43,4.24-1.71,5.98l-1.57,8.99Z"/>
        <g>
          <path class="cls-46" d="M435.94,6.91c1.83,1.5,2.55,3.59,4.02,5.64,21.48,29.86,22.01,68.78,7.74,101.57-1.55,2.78-3.06,2.39-4.52-1.17l-3.33.69c-1.9-.89-6.01-.37-4.4,2.23-1.76,2.39,1.67,3.78,3.88,4.28,3.31-2.44,5.32-2.65,6.01-.62l-6.97,17.2c-.93,1.27-1.56,2.72-1.89,4.37,0,.13-.07.4.03.55-1.42.48-2.08,2.01-1.54,3.85-2.39-.36-2.69-4.28.13-6.63-.23-1.4-1.83-3.28-.71-5,.62-.95,2.96-2.4,2.75-3.73-2.17-3.23.42-6.17-1.63-6.79-.78-.24-1.28.77-1.92,1.35l-4.86,1.04c-1.32,1.01-1.13,3.22-.48,4.73,1.03-.54,1.66-.54,2.18.32,2.29,3.79-4.11.22-6.76,5.35-1.99-.3-4.07-.33-5.23.96l-4.27,4.73c-2.82,3.12-2.8,5.77-5.64,9.32-.55.69-2.66.56-2.26,2.72.04.23-.3.76-.74.67-.27-.06-.5-.27-.59-.68,2.32-7.66,5.96-14.87,10.07-22.05l9.83-17.19c6.82-11.93,11.77-24.32,14.92-37.74,1.91-8.11,3.22-16.28,2.56-24.55-.73-9.11-2.29-17.7-4.76-26.39l-4.2-14.77c-.41-1.46-.18-3.28-.09-5.05,1.34-.11,1.95.63,2.67.79Z"/>
          <path class="cls-57" d="M447.7,114.12l-2.36,5.42c-2.53-1.34-4.32,2.16-6.39,1.82s-4.53-1.86-5.51-3.65c-.38-.69,1.03-2.01,1.42-2.2-1.35-.27-2.31-1.18-2.16-2.09l6.08-1.79c1.51,1.51,2.54.69,4.12.18,1.29-.42,2.78,1.99,2.16,3.37l2.63-1.06Z"/>
          <path class="cls-57" d="M436.49,141.1c-.2-1.69.19-3.68,1.89-4.37-.6,1.47-.68,3.25-1.89,4.37Z"/>
          <path class="cls-57" d="M448.59,101.17c.57,2.55-1.4,5.24-1.74,8.03-4.38,1.89-9.6,2.13-14.49-.03,1.26-2.02,3.23-2.6,5.13-3.62-1.6-2.51-1.64-4.4.19-6.25.68-.69,1.13-1.43,2.16-1.5.88-.06,1.72,1.38,2.34,1.88,1.3-.28.93-2.49-.14-3.55,1.59-.65,1.98.45,2.88.79,1.25-1.55,2.52-1.42,3.65-.73,1.32.8,1.21,3.45-.31,3.73-.5-.61-1.16-1.77-1.77-1.83-1.52-.14-2.44,1.23-3.3,2.76-.34.6.74,1.76,1.3,1.36.83-.58,2.71-2.62,4.08-1.02Z"/>
        </g>
        <path class="cls-6" d="M378.83,876.73c11.5-13.42,12.47-32.25,11.63-50.01-.26-5.55-.25-10.86,1.21-16.13,15.45,5.34,30.88,10.07,47.55,13.53-3.29,3.03-6.28,4.18-6.41,8.75-2.82.77-4.03,3.38-5.8,5.11l-5.33,5.22-5.07,4.2-5.81,6.36c-3.91,4.27-6.94,9.26-11.33,13.12l-7.17,6.31-5.73,2.24-5.47,2.5c-.59.27-1.28.22-1.67,0-.33-.19-.54-.76-.6-1.2Z"/>
        <g>
          <path class="cls-49" d="M838.51,302.36c-1.68,1.88-3.64,3.38-6.19,4.78-15.27,8.37-27.9,20.23-36.01,35.46-2,2.5-2.93,5.61-3.74,8.65-1.58,3.65-2.99,7.64-3.59,11.52l-1.96,1.69-5.3.29-1.79,5.72c-3.52-.89-6.17-1.63-9.54-1.66l-.33-5.15c6.02-24.47,18.85-45.76,42.28-56.39,6.9-3.13,24.22-8.6,26.18-6.62.5.5.37,1.13-.01,1.72Z"/>
          <path class="cls-29" d="M792.57,351.24c.2-3.15,1.52-7.38,3.74-8.65l-3.74,8.65Z"/>
          <path class="cls-29" d="M776.79,356.91c.5-.4,1.94.27,2.21.76.32.56.24,1.82-.74,2.23-.77.32-1.02.42-1.72-.47-.53-.67-1.17-1.39.25-2.52Z"/>
        </g>
        <g>
          <path class="cls-10" d="M534.25,226.04c.24-.03.73-.02.81.42,21.64,2.42,42.82,8.01,63.7,15.8,30.34,11.33,57.95,28.15,82.53,49.06l8.89,8.3c2.03,2.65,4.2,5.22,6.53,7.71.5,2.07,1.21,4.04,2.12,5.92l15.46,22.72c3.5,5.56,6.71,11.28,9.63,17.14.42-.22,1.12-.46,1.28-.21,14.82,24.68,24.26,53.82,32.03,82.54,2.24,8.3,3.8,16.49,4.06,24.77,1.27,1,1.14,1.45-.46,1.66.62,3.76,1.13,7.53,1.51,11.3.47.06,1.1.14,1.23.52.36,1.05.56,7.8-1.13,7.99.57,5.62.52,11.55.05,17.2l1.21,2.07c-2.11,39.44-15.02,78.03-37.78,110.74-16.61,23.88-39.45,45.86-65.93,58.13.28.43.47,1.13.15,1.28-15.28,7.45-29.17,13.68-46.77,17.84-18,4.25-38.28,6.45-56.4,6.79l-.92-1.18c-10.27-.17-20.54-.61-30.81-1.32-3.36-.79-6.72-1.57-10.09-2.34-.85.74-2.07.73-3.66-.01-1.86.14-3.05-.31-3.56-1.37-13.54-1.69-27.4-5.34-40.48-9.4-6.61-2.05-12.83-4.68-19.15-7.52-33.79-12.35-64.73-34.22-89.91-58.27-26.76-25.55-50.29-63.04-61.31-100.07-.22-.72-.25-1.5-.27-2.3s.05-1.61.14-2.42c-9.25-30.05-10.12-61.71-5.46-92.19,2.57-16.78,10.14-37.15,17.11-52.84,2.5-5.62,5.07-10.49,8.1-15.89,12.98-23.16,34.63-48.81,55.57-65.54,25.68-20.52,55.54-35.37,87.09-43.79,3.51-1.52,6.22-4.43,8.13-8.71.14-2.49,1.08-3.95,2.84-4.4l10.84-1.14,1.03-.56c7.58-.26,15.22-.47,22.94-.61,9.84-.07,19.53.66,29.08,2.18Z"/>
          <path class="cls-29" d="M534.25,226.04c-1.74.25-3.53-.1-5.49-.22l-19.1-1.16c-6.52-.39-13.02-.19-19.48.05l-8.99.33c1.05-3.16,5.47,1.43,10.51-2.04l26.55.5,10.21.41,5.78,2.14Z"/>
          <path class="cls-48" d="M658.77,329.57c-9.07-9.06-19-15.91-29.26-23.14-12.54-8.83-25.59-15.5-39.65-21.72-23.89-10.57-49.08-16.26-75.19-17.8l-24.23-.07-7.32.6-16.57,1.89-11.62,2.28c-13.4,2.55-26.3,5.85-38.88,11.37-12.17,4.39-22.52,11.01-34.76,16.86,32.08-35.56,77.07-55.15,123.7-59l21.32-.29c28.06.8,54.84,7.32,80.6,18.55,31.98,13.94,61.76,35.67,83.46,63.04,18.41,23.22,32.36,49.07,41.59,77.27,6.15,18.78,10.1,37.51,11.25,57.23l.22,31.71c0,.47-.34.89-.55,1.08-.25.23-.95.08-1.02-.69-1.55-16.81-5.94-32.57-11.33-48.62-6.69-19.95-15.49-38.35-26.53-56.27-8.58-13.94-18.58-26.32-29.48-38.52l-15.78-15.76Z"/>
        </g>
        <path class="cls-37" d="M243.53,509.28c-1.12-.23-1.59-1.24-1.31-2.1l.89-2.3.43,4.4Z"/>
        <g>
          <path class="cls-37" d="M241.72,654.64l1.95,1.75c22.88,38.13,51.36,71.28,86.3,97.6,25.78,19.42,53.88,32.46,83,41.81l.28,1.4c28.72,10.86,59.94,12.4,90.17,13.6,2.54,1.76,5.56,2.28,9.06,1.55,3.35-1.44,6.98-1.66,10.89-.65,4.22-1.28,8.41-1.77,12.56-1.49,1.84-3.62,5.05-4.9,7.45-.9,4.5-2.96,9.3-3.38,14.5-3.24,2.26-1.37,4.62-2.15,7.09-2.33.55-1.81,1.1-2.3,2.68-3.13,2.93-1.55,10.14-2.94,13.65-3.54,5.14-2.04,4.77,1.56,1.18,4.21,4.08.16,7.27-1.03,9.56-3.59-2.74.37-6.12.1-3.25-2.99,16.34-6.3,32.56-13.28,47.9-21.91,25.93-14.59,49.12-34.62,69.01-56.66l.82.2c3.21,1.49,1.24,6.28-2.01,7.35-4.34,8.86-12.83,15.48-20.49,21.34-.31,3.47-2.69,7.02-6.33,6.99-1.79,3.28-5.03,5.49-8.16,7.37l.15,2.23c-2.63,1.87-5.68,3.27-9.15,4.21-3.4,2.99-7.19,5.5-11.37,7.52-1.76.2-3.14,1.09-4.15,2.68-3.59,2.04-6.81,4.45-9.66,7.24-3.39.26-5.67,2.13-8.03,4.39-5.97,1.33-11.71,5.92-15.91,10.16-2.07.67-2.59,2.09-1.57,4.26,3.27,1.47,2.34,3.03.07,4.84l-6.78,2.65c-.5.2-.59.93-.49,1.22-1.96-1.04-4.31-.77-6.27.64-2.62-.64-4.65.45-5.79,2.59l-14.51,3.99c-1.12.31-1.85.85-2.35,1.42-29.44,8.02-59.82,11.36-90.62,10.03-2.19-.34-3.65.94-4.13,2.72-1.03-2.97-3.03-2.46-5.6-2.73l-7.94-.82-7.77-1.86-5.43-1.79c-2.76-.91-5.08-1.09-7.54.19,1.38,3.98-3.2,7.66-3.68,12.82-3.41,2.19-7.03,5.17-8.1,8.37-1.53-.96-2.96-.54-4.39.7-1.94,1.68-5.08,2.85-6.06,5.44-.65,1.73-1.03,2.76-3.15,3.03-1.36.17-1.63,2.48-2.32,3.13l-10.07,9.59c-3.23,3.08-6.23,6.02-10.12,8.33-4.2,2.49-9.01,5.34-14.08,5.07-1.19-1.07-2.76-2.82-4.71-2.53-.34.05-.5-1.33-.16-1.59l.98-.77c2.38-.03,4.8-.84,7.26-2.43,6.31-1.75,11.53-6.91,15.93-11.77,7.23-9.34,15.27-17.81,24.11-25.41,1.53-2.17,3.37-3.89,5.52-5.17.26-3.17,2.5-5.35,4.88-7.16-13.72-3.25-27.59-6.64-40.84-11.54-.73-.27-1.41-.69-2.08-1.14s-1.32-.98-1.94-1.53l-13-5.12c-1.7-.67-3.86,1.01-4.61,2.24-.54,0-1.46-.04-2.11.43-6.15,4.5-11.38,9.75-16.54,15.32-2.08,2.25-6.43.09-7.07,3.93-.45,2.69-3.11,4.1-4.79,5.52-.27,3.73-.75,6.92-3.34,9.73-3.68,3.98-6.32,9.2-10.78,12.55l-5.96,3.32c-3.9,2.17-6.05,2.46-9.86-.23.16-2.76-1.7-3.59-3.45-5.2l-3.79-3.48c-1.01-.92-.86-2.99-1.32-4.16-.29-.4-.72-1-.52-1.3,1.43-2.2,5.25-6.95,7.09-8.82l1.49.1c1.58.59,1.27,2.19-.91,4.8.56,3.57,2.77,2.47,5.06.84l3.05.17c-.47-2.32.21-3.81,2.58-4.45.34-.39,4.03-8.95,4.11-9.5.21-1.45-2.93-3.33-4.26-1.54l-1.3-.62c-.02-.54-.01-1.07.07-1.59s.17-1,.42-1.37c7.5-11,15.33-21.27,25.45-29.69-23.86-14.46-45.76-30.84-65.73-49.15-16.61,21.41-17.6,47.77-18.35,72.73-1.6,14.6-4.37,29.92-10.24,43.45-.24.54-.63,1.02-1.05,1.49s-.93.91-1.45,1.32c-.53.08-1.44.52-1.68.97-1.02,1.91-2.64,1.74-4.2,2.72-2.23,1.4-6.13,2.72-8.03-.09-1.01-1.5.83-4.19,1.9-7.94l1.21-4.28c1.56-.38,1.14-3.71,3.17-6.08,2.45-2.87,2.86-6.88,1.68-10.47l1.73-3.71c-1.61-2.46.28-4.69.32-6.99l.62-37.12c.04-2.66,1.45-5.16.86-7.94s.69-5.04,1.07-7.35l1.22-7.3c.43-2.56.7-3.42,2.58-5.35.95-.98-.39-4.36.13-5.73l5.37-14.36,2.52-2.41c-.5-1.65-.26-2.87.49-4.07.65-1.07,1.84-2.32,3.24-1.57l2.99,1.61c2.15-2.47,1.32-5.76-.95-7.61l-3.44,3.65-4.01-1.48-14.53.11-7.54,1.25-6.99,1.67c-.42.29-1.94-.01-1.54-.68l3.32-5.57c.29-1.98.63-3.2,1.4-4.88l-1.79-5.21c-.07-2.43-2.77-3.17-3.57-4.31-.75-3.88-2.21-9.05-4.63-10.19l20.41-4.97c-10.12-15.01-19.6-29.6-26.54-46.07l-12.78-30.31c1.15-.11,1.74,1.6,2.33,2.14,2.78.15,3.96-3.66,8.98-1.75-.37-2.27.51-3.43.86-4.97.55-2.43.47-4.68,1.8-7.19-1.61-.3-2.63-1.05-2.73-2.06-.07-.68.8-2.29,1.53-2.61,1.54.23,1.73,2.44,2.17,3.66l1.96,5.46,1.86,6,3.07,5,5.46,12.69,4.44,8.94c1.72,3.46,3.77,6.19,5.44,9.11Z"/>
          <g>
            <path class="cls-42" d="M706.51,716.33l-3.86,4.4-14.24,14.1-7.69,7.59c-2.94,2.01-4.76,4.49-7.75,6.55l-4.17,2.89c-3.33,2.3-6.34,4.05-9.13,7.01-1.14,1.21-4.19,2.03-4.83,3.46-1.17,2.6-2.78,2.16-4.86,3.42l-12.89,7.81-6.12,3.19-4.6,2.66-8.65,3.56-5.64,2.97-11.4,4.58-4.8,2.68c-2.63.78-5.86,1.15-7.44,3.65,2.66-.62,4.29-.66,5.99.58.61-.44,1.59-1.3,2.03-1.07.56.29,1.68,1.39.92,1.73-1.46.65-2.92.44-4.36.6-2.55,2.81-5.72,3.57-9.51,3.65-.99.02-2,.91-3.19-.19.92-1.57,1.8-3.15,4.12-3.91.1-.16-1.2-1.07-1.49-.82-1.55,1.49-3.42.29-4.87.73l-9.11,2.8c-2.01.62-2.14,1.75-3.03,3.46-.54,1.03-3.77.53-4.68,1.26-2.29,1.84-4.38,2.08-7.35,1.65-2.28-.33-5.39,1.06-7.67,1.79-1.02.33-2.91,2.42-3.93.73-.86-1.43-1.4-1.88-3.23-1.66-1.25.15-1.06,1.55-1.62,2.38-1.25,1.84-4.05.33-5.54.64l-7.92,1.65c-2.39.5-5.85-1.26-8.14-.48-2.6.89-3.61,1.84-6.52,1.3-1.24-.23-3.59.48-5.04-.79-2.76-2.43-5.73-1.55-9.02-1.71l-11.63-.55-18.43-1.8-12.19-.87-5.3-1.17c-3.43-.75-6.45-1.03-9.75-1.86l-7.28-1.84-7.19-2.01-7.56-2.35c-.98-.3-2.47-.31-2.72-1.52,19.73,6.19,39.92,10.29,60.81,11.38l7,.72c22.91,1.11,45.56-.63,68.17-5.27,20.45-4.2,40.08-9.76,59.23-18,28.38-12.22,53.7-29.04,76.51-49.66l17.78-17.78,18.7-23.02c7.07-8.7,12.21-18.32,18.12-27.8l2.14-3.43c4.21-6.74,7.66-13.45,9.79-20.79.44-1.51,1.88-3.12,3.07-4.16l-4.73,12.38-5.12,10.76-2.24,4.6c-2.22,4.55-5.49,8.22-8.4,12.26l-21.75,30.31c-1.78,2.48-3.96,4.53-5.81,6.64Z"/>
            <g>
              <path class="cls-20" d="M239.76,853.67c-.32-.19-.38-.64-.17-1.35,3.26-10.05,5.1-20.5,6.19-30.99.34-2.89.57-5.79.71-8.72l.14-28.8,2.41-16.56c1.86-12.79,7.1-24.55,13.2-35.98-4.76-1.99-9.36-1.36-13.98-.93l-7.93.74c-9.69,1.86-18.95,5.18-27.74,9.57l-9.54,4.76c.7-1.51,2.31-2.25,3.94-2.97,6.01-2.66,11.6-5.91,15.97-10.73,2.82,1.15,5.06,1.26,7.32.72-.05-.47-.09-1.18.23-1.32,2.89-1.23,10.86-2.48,14.19-2.82,5.67-.57,13.17-.25,18.53.93,2.62-4.05,6.3-3.63,6.93,1.56s-2.68,6.08-6.28,3.42c-1.59.99-2.23,2.72-1.92,5.22l-2.46,2.53-5.19,14.03c.75,3.27.15,5.9-1.78,7.89-1.99,6.55-3.01,13.12-3.06,19.72l-.96,5.44-.63,37.46c-.89,2.5-1.04,4.88-.45,7.12l-1.65,3.57c1.64,4.31.29,8.75-2.58,12.19-.67,3.44-1.82,4.87-3.44,4.3Z"/>
              <path class="cls-52" d="M245.77,821.33l.08-7.54c0-.65.24-1.12.63-1.18l.1,6.81c.01.91-.31,1.52-.81,1.91Z"/>
              <path class="cls-52" d="M239.76,853.67c1.72.75.61,4.37-1.21,4.28l-.76-.05,1.81-5.58.17,1.35Z"/>
              <path class="cls-20" d="M313.11,835.41l8.33-10.31c.83-.62,2.44-1.36,3.53-1.37,1.35,0,3.58,2.65,3.22,3.94l-4.36,10c-.81.4-2.59.74-2.47,1.95.08.82.44,1.67.04,2.19-1.39,1.78-3.13-1.15-5.76,1.62-1.08,1.14-3.44-.05-4.1-1.12-2.07-3.35,1.92-4.15,1.57-6.9Z"/>
              <path class="cls-20" d="M338.88,818.47c1.19.88,2.14,3.18,1.77,4.38s-2.55,1.13-3.42.57c-1.04-.67-1.29-1.71-1.04-2.82s1.63-2.92,2.69-2.13Z"/>
              <path class="cls-20" d="M333.67,831.51c-.17,1.45-1.51,1.13-1.83.61-.49-.8-.86-1.85.34-2.54.26-.15.76-.27.98-.19.36.12.64.95.5,2.12Z"/>
            </g>
          </g>
        </g>
        <g>
          <path class="cls-47" d="M798.87,554.69l-5.24,30.45c-.55,1.82-1.66,1.52-2.57,0-.86-1.44.53-16.38,2.81-18.14l-.99-1.86c.35-2.87-.97-3.26-3.97-1.17-5.99-.56-6.35,1.84-1.48,4.19,6.54-1.48,5.83,5.26-.74,5.02-3.08,1.93-5.22,4.8-6.42,8.62-2.67,2.57-3.58,5.27-3.64,8.93-1.37,3.71-1.92,6.59-.82,10.46.29,3.06-.53,5.25-2.44,6.58-3.56-.07-4.98,8.99-.23,8.8.24.29.81,4.05.87,4.97.14,2.17-.12,3.8-1.15,5.74.31,4.99-2.21,7.4-6.59,9.12-8.32.27-9.28,6.12-9.97,13.1,1.85,1.58,1.67,3.8-.82,4.3-.54,2.74-.24,5.28.92,7.64l-.27.89c-4.09,4.79-7.73,9.89-10.92,15.32.41,2.17-.14,3.48-1.63,3.92-1.6-.83-3.16.37-4.69,3.58-.03,3.64-2.18,6.82-6.47,9.56-.46.85-.53,1.88-.2,3.07-2.13,1.67-3.23,4.54-1.93,7.04,3.03-.3,2.87,1.88,1.99,4.18,1.3.79,1.66,1.66,1.07,2.62-.32,1.42-.73,2.86-1.56,4.08-7.47,10.95-19.53,23.2-29.22,32.41-8.07,7.67-17.04,15.42-25.87,21.63-4.76,3.13-9.52,6.37-14.28,9.75.18,1.16-.22,1.86-1.2,2.1-.23-.54-.39-1.24-1.03-1.65-16.15,10.72-32.6,20.06-50.27,26.97.01-1,.55-1.77,1.13-3.09-.73-.26-1.37-.18-2.48.22.2-2.16.06-3.65-1.39-5.62,2.69-.5,3.86-1.66,5.13-3.65l4.68-3.21c2.32-1.59,5.15-4.4,9.8-4.97,2.18-2.23,4.7-4.38,8-4.31.65-1.42,1.82-2.17,3.07-2.99l6.38-4.22c.82-.54,1.44-2.31,2.8-2.42,1.93-.16,3.02-1.39,4.52-2.3,2.04-1.23,4.58-1.64,6.14-3.64,2.95-3.77,6.99-2.8,10.96-5.42-.44-1.11-.44-1.93-.22-2.53s5.15-2.46,8.62-7.72c2.91-.17,4.93-2.26,5.53-4.89-.25-2.42,1.75-2.59,3.01-3.67l4.6-3.95,4.9-4.4c2.64-2.36,4.78-5.35,7.01-8.25.86-1.12.7-3.02,2.5-3.72,2.71-1.05,2.31-3.08,1.9-5.83l-.1-1.05c14.08-17.22,28.01-35.44,38.57-55.04,2.76-5.13,5.77-11.36,7.33-16.94.01-.04-.35.08-.83.24-2.23,2.06-4.79,3.82-7.66,5.3l-1.35-.61-.75-1.05c6.6-9.12,13.22-18.29,19.85-27.54,11.49-27.23,18.12-58.34,19.96-88.26,1.33-21.66-.58-40.22-3.14-61.56-.21-1.71.05-3.44.34-5.12.19-.46.25-.93.61-1.22,2.4,1.57,5.06,4.71,3.75,7.45-1.98,4.17-.48,6.76,1.24,10.39.66,1.38.54,3.88,2.56,4.58-1.05,4.37,3.87,2.86,3.81,5.9-.04,1.92-3.38.66-5.12,3.47-.88,1.42.34,2.37.35,3.71.02,3.22-1.28,7.21.58,10.1.66,1.03,1.95,1.37,1.62,2.93-.24,1.13-1.08,1.57-2.27,2.17-.04,3.6,5.13.48,4.72,2.65-.29,1.52-3.29,2.08-2.73,3.6.33.91.97,1.52,2.35,1.96-1.86,1.27-1.23,3.65-.72,5.45-2.69,4.55-3.56,11.25.26,15.44.87.96,4.02,1.54,2.46,3.83-.49.72-2.44,1.27-1.9,2.84,1.57.29,3.02,1.04,2.81,2.78-2.4-1.13-3.23.73-4.61,1.36-1.59.73-3.83.8-3.75,3.17,3.6.43,6.69.82,9.4,2.71,1.9-1.49,2.55-3.86,3.46-6.16.61.63,1.02.74,1.27.87Z"/>
          <path class="cls-37" d="M613.85,800.85c-1.01,1.21-1.84,1.58-3.29,1.86l-.75-2.64,4.04.78Z"/>
        </g>
        <g>
          <path class="cls-4" d="M778.73,464.71c8.99,48.36,4.43,97.95-11.67,144.52-2.16,6.24-3.75,11.48-8.36,16.52l-16.22,22.49c.3.39.74.99.54,1.3-.85,1.32-8,11.03-8.68,11.24-.52.16-1,.18-1.5-.06-1.58,1.46-2.17.79-3.36-.58-2.45.22-4.14-1.04-5.07-3.79-2.4-1.13-4.33-2.59-5.79-4.36-3.84,2.72-8.03,4.75-12.57,6.09l-2.13,1.55c-4.32-.5-5.51-.5-7.75,3.58,5.94.11,10.23,4.3,2.51,6.39-1.4,1.79-2.95,2.93-4.65,3.44-.57.06-10.3-3.49-10.74-3.85-.39-.31-.75-.61-.92-1.1-.49-3.68-1.14-3.46-1.95.66-2.06,1.45-8.73,1.11-8.65-2.27-3.41,1.74-6.94,3.24-10.59,4.51l-1.16-1.17c34.56-19.79,60.07-46.15,78.85-81.81,12.15-23.05,19.18-47.93,22.51-73.68.71-5.51,1.15-10.3,1.13-15.45.47-5.62.5-11.59-.05-17.2l-.11-8.51c-.33-3.77-.84-7.54-1.51-11.3-.02-.51.2-1.24.46-1.66.46-.76,1.13-1.57.81-2.83-1.74-6.8,2.06-6.54,3.19-10.26.16-.54,1.05-1.36.79-1.97-.22-.53-.59-.89-1.76-1.71,2.04-.8,1.77-3.78,2.51-4.97,2.2-1.85,4.13-2.91,4.39-5.87,3.43,10.46,5.49,21.36,7.49,32.12Z"/>
          <path class="cls-35" d="M762.36,473.17c-.8-.29-1.13-1.26-1.17-2.46l-.34-8.84c2.29,2.06,1.46,7.36,1.51,11.3Z"/>
          <path class="cls-35" d="M762.52,498.87l-.05-17.2c.4.12.65.55.65,1.21v14.79c0,.66-.26,1.08-.6,1.2Z"/>
          <path class="cls-33" d="M704.38,643.22c-.38-5.74,4.48-9.04,8.61-12.03,1.07-.78,1.66-4.16,4.21-3.28.93.32.01,2.9-1.27,3.37-3.17,1.17-5.19,3.83-5.55,7.16-1.34,2.16-2.92,4.1-5.99,4.78Z"/>
          <path class="cls-33" d="M691.7,653.43l-1.81-1.56c.95-.67,1.47-1.16,2.28-2.55.96,1.53.59,3.16-.47,4.1Z"/>
        </g>
        <g>
          <path class="cls-33" d="M556.07,694.55l11.57-.64c24.14-1.33,47.76-5.09,70.26-13.76l22.11-10.34c1.04,0,2.39-.13,3.62-.77l6.95-3.64c.76-.4,2.09.02,2.22.53l.46,1.89,3.8.43c.81.09,1.6.49,2.09.12,1.01-.74.25-2.67,1.56-4,.46-.47,1.56-1.41,1.93.04l.81,3.18c.26,1.04,1.94.86,2.76,1.18l4.48,1.76c1.47.58,3.45,2.32,4.91.45s2.92-3.41,6.05-3.38c.05-1.1-.56-2.3-1.25-2.42l-6.95-1.2-3.46-1.78c2.74-1.71,5.3,1.67,6.22-1.06.69-2.06,3.32-3.69,5.4-2.81,2.42,1.03,3.09-1.2,4.13-1.44,2.75-.63,4.69-1.27,7.04-3.12,1.32-1.04,4.23-.68,4.96-3.17,1.58-.71,2.47,1.94,3.3,2.47,2.15.93,5.02,2.01,5.5,4.89.22,1.33,2.63.6,3.32.98.9.48,1.57,2.12,2.95,1.77l-11.33,13.5-6.31,6.5-8.85,8.95-10.87,10.06c-45.39,38.92-97.23,62.13-157.35,66.04l-17.06.77-6.21-.35c-36.73-.57-72.88-9.15-106.52-24.79-27.8-12.93-52.88-30.62-75.16-51.65-20.15-19.01-36.67-41.22-50.7-65.13-18.61-31.72-31.45-66.35-37.15-102.39,1.02-1.19,1.17-1.72-.5-2.02l-.71-3.39c.25-.9.96-1.4,2.14-1.51-.52-5.43-1.35-10.94-2.5-16.52-.53.02-.91-.37-1.16-1.17l-.33-7.21c.96-1.87,1.03-2.23-.09-3.91v-1.71s.04-.65.04-.65c.71-1.59,1.51-4.27.03-5.51-.55-1.18-.49-3.11.11-4.36l.21-11.19c1.12,6.26,5.03,4.22,8.42,8.33,1.24-.31,1.73-1.41,3.41-.1-2.37.35-2.18,2.43-2.9,3.25-2.01,2.27-1.57,4.36-1.02,7.52.4,2.27-1.42,5.91.26,8.27,2.73,3.83-.19,5.02,2.68,7.81l.97,3.78c1.81,1.82,2.52,3.99,2.82,6.37,1,.52,2.57-.22,3.38-1.27.64,3.21,3.94,4.67,1.88,5.62-1.23.57-2.94-.26-3.69.5-.28.28-.7,1.02-.59,1.69l1.05,6.25c.53.62,2.2,1.3,2.59,2.21l2.15,5.01c1.04,4.75,2.96,7.98,4.97,11.92l3.7,7.27c.72,1.41,2.44,1.52,2.68,3.58.32,2.81,2.42,4.99,3.47,7.31.77,1.7.53,3.38,2,4.92,7.19,7.57,5.67,14.14,10.31,16.03,1.4.57,1.63,2.54,2.41,3.64l6.11,8.58,4.6.93c1.21.25,1.75,2.05,3.25,2.32.21,4.06,2.33,4.12,2.66,5.06s-.19,1.81-.43,2.69c-.58,2.09,1.22,3.4,2.7,4.36,2.48,1.6,4.26,3.58,7.14,4.61-2.06,1.6.5,6.32,1.17,6.5.63.17,2.24-.04,2.53.83l.69,2.07c.17.49,1.61.31,2.14.4,2.5.42,3.29-.11,4.9-2.91,1.17,4.83,5.74,3.59,5.96,5.68.09.9-1.37,3.02-1.98,2.45-2.01-1.85-4.68-2.29-6.25-.66.47.9,1.09,2.01,1.64,2.29.5.26,1.55-.15,2.15-.41,2.08-.92,1.43,3.09,4.4,2.84,1.94-.16,1.87-3.03,3.09-2.07,1.11.88-.55,2.33,2.94,5.51.71.65.86,1.88,1.51,1.99,2.64.45,8.77-1.18,10.45,2.48s3.82,5.64,7.91,6.44l5.06,5.1c1.24,1.25,1.63,1.79,3.01,2.79l4.12,3c1.6,1.17,2.35,1.79,4.08,2.69l6.49,3.41c1.67.88,2.79,2.43,5.23,2.03.67-.11,1.75.28,1.95.84.17.47.35,1.02.2,2.08l14.37,4.72c.7.91.66,2.35,2.17,2.84l.11-3.92c2.88-1.79,6.56-2.49,9.1-.07-1.32,2.49-3.99,3.6-6.42,3.45-.34,1.44.07,2.31.53,2.74.75.71,2.16.04,2.85.6l4,3.28,5.57,2.33c2.91,1.22,6.96,2.48,6.89,3.22-.13,1.26-.63,1.98-.58,2.36.03.25.87.76.98.59l.77-1.19c2.28-.85,5.04.12,7.27,1.1,2.7,1.18,6.94-2.13,7.55-.2l1.19,3.77c-1.88-.52-3.22.57-4.93,1.07-1,.29-2.11-1.35-2.34-2.6-1.18.49-.85,1.97-.35,2.61.33.42,1.32.48,2.02.77l5.24,2.18c.43.18,1.45,1.31,1.79.66l.75-1.4c1.93-1.42,3.09-2.88,4.21-5.52,1.62,2.46,2.63,5.45,5.87,6.38,1.24-.14,2.76-1.97,4.52-.99,1.23.68,2.84,1.17,3.68,3.14l3.36-1c5.08,2.82,9.07-4.01,10.57,2.02,2.37-.58,3.44.78,4.52,2.26,2.35,1.67,6.09.61,8.7.47l.82,1.52c.17.32,1.45.49,1.79.31,2.64-1.34,4.87.55,6.91.71l15.29,1.26,5.63.09c3.5.06,9.59-4.72,7.31-7.65-1.52-1.95-5.66,1.08-8.61-2.9.36-.78,1.12-1.66,1.79-1.68l6.44-.18,7.04.81c5.24.61,9.95-.08,14.83-.35Z"/>
          <g>
            <path class="cls-26" d="M244.12,516.82c-.2-.94,0-1.49-.12-2.7l-.46-4.84c-.88-1.12-1.02-2.59-.43-4.4l-.51-7.26c.45-.14,2.01-.15,2.14.58l1.57,8.38,1.1,5.58c.24,1.24.68,2.51-.09,3.74-.56.9-1.96.93-3.21.93Z"/>
            <path class="cls-37" d="M242.24,478.64c1.5.65.74,4.1-.03,5.51l-.05.65c-.33-.16-.59-.58-.59-1.21v-8.06c0-.63.26-1.05.78-1.24-.03,1.54-.1,2.77-.11,4.36Z"/>
            <path class="cls-26" d="M245.32,522.23l-.5-2.02c.55-.37,1.05-.81,1.36-1.4,1.02,1.31,1.07,2.04.91,3.64-.49.11-1.2-.16-1.78-.22Z"/>
            <path class="cls-26" d="M242.27,490.41l-.09-3.91c.95-.01,1.75.61,1.82,1.65.06.94-.81,1.82-1.72,2.26Z"/>
            <path class="cls-42" d="M521.07,766.54c-2.04.09-4.35.46-6.21-.35,2.08.03,4.33-.73,6.21.35Z"/>
            <path class="cls-26" d="M313.95,621.04c-.92.59-1.86.06-2.16-.33-.33-.43-.71-1.67-.55-2.53.28-1.56,1.65-.78,2.32-.41,1.22.68,1.53,2.53.38,3.27Z"/>
            <path class="cls-26" d="M242.22,484.15l.03-5.51c.52-.3,1.39-.17,1.57.5s-.28,5.26-1.6,5Z"/>
          </g>
        </g>
        <g>
          <path class="cls-26" d="M296.98,509.54c9.01,31.31,24.46,60.35,45.49,85.68l12.27,13.56,4.54,4.67,8.86,8.38c40.03,35.18,87.4,57.99,139.82,67.68-.29.55-.67,1.09-1.27,1.34-2.11.86-8.69-1.03-11.09-1.73-2.36-.56-2.23.5.41,3.19,4.5-.84,9.06-.53,13.4.81,4.34-.62,7.97.23,10.9,2.56,4.13.99,4.16-2.48-.54-1.74-2.91-.2-4.44-1.22-4.6-3.05,13.62,1.55,27.27,2.88,40.9,3.66l-1.45,1.32c-6.86.84-13.73.43-20.48-.56-7.1-.39-9.79,1.32-.84,1.61,2.02.53,3.18,1.54,2.97,3.82-.62,6.85-9.72,6.99-14.68,6.88-6.48-.14-13.77-1.01-20.06-2.46-2.59,1.02-4.4.59-5.44-1.28-2.96.71-5.74.52-8.34-.58-1.15-1.76-2.68-2.6-4.58-2.54-.8-2.5-2.95-2.86-6.44-1.05-2.33-.47-4.53-.41-6.59.19l-5.08-3.27c-3.79,1.98-6.95.81-9.49-3.5-.76,1.04-4.3,5.35-5.17,5.43-.77.07-9.85-4.06-10.17-4.92-.45-1.25-.26-2.19.37-3.34-3.21-1.86-5.75-1.96-7.63-.3-2.16.44-2.98-.77-2.45-3.63-5.91-1.79-11.12-4.5-15.66-8.12-3.17.38-4.97-2.27-3.35-5.03,8.61-1.56,4.88-5.08-.77-1.65.29,4.72-2.51,5.07-4.54,1.03-4.84-1.42-9.55-3.09-14.13-5.02.15-2.11-.99-2.92-3.42-2.44-9.88-4.97-19.32-10.45-26.46-19.1-4.18-.97-7.31-3.64-9.39-8.03l-2.62-.67c-6.29,1.07-8.35-1.51-11.13-6.6-2.31,2.2-5,.94-6.12-1.75-7.2,1.78-6.85-7.74.91-4.63,1.05.95,1.68.9,1.87-.13-2.04-.59-3.71-1.65-4.98-3.2-2.25,2.59-8.36,2.45-8.55-1.62-3.67.28-5.04-4.27-4.52-7.32-3.26-1.86-6.19-4.11-8.78-6.75-.64-1.53-.6-3.19.12-4.98l-1.92-2.04c-.98-4.25-3.57-5.05-7.45-5.5-2.7-2.73-5.09-5.78-7.18-9.16-.91-2.23-2.48-4.06-4.7-5.48-2.15-5.68-5.11-10.82-8.86-15.41-1.71-4.05-3.36-8.1-4.97-12.14-3.7-4-6.53-10.15-8.83-15.24-1.36-3.91-2.82-7.76-4.38-11.54-4.01-2.3-6.21-13.37.9-12.3-.83-1.91-2.09-2.52-3.77-1.84-.55-.09-1.07-.29-1.48-.68s-3.64-8.99-4.01-10.26c-1.33-1.48-1.88-3.37-1.65-5.68-2.07-3.37-2.24-6.21-1.41-10.07-.9-4.08-.59-6.93,1.77-10.45-2.57-1.61-5.15-3.23-7.73-4.87l-.78-4.6c-.25-.84-.48-1.68-.61-2.53s-.26-1.68-.19-2.49c3.92-43.21,18.05-83.4,41.58-119.83.44-.68,1.05-1.26,1.68-1.84s1.33-1.11,2.04-1.62c.24-1.57,1.28-2.85,2.51-3.79-.66-2.49,2.15-6.57,4.75-6.72,1.01-2.46,2.66-4.39,4.37-6.37-.32-1.76,2.27-5.13,4.01-5.46,4.75-6.46,9.91-12.7,15.37-18.8,10.13-11.32,18.81-20.53,31.32-28.17,9.37-5.71,19.18-10.82,29.1-15.36.78.43,1.76.45,2.93.08l13.39-5.48c1.01,1.14.58,2.46-1.3,3.96l-8.92,8.78c-.03,3.85-2.4,6.89-7.12,9.14-2.01.8-3.62,2.09-4.84,3.85-1.13.3-2.14-.12-3.01-1.25-2.42,2.24-5.21,3.12-8.32,3.78-2.99,2.01-5.61,3.51-9.25,4.28-2.01,3.06-4.45,4.96-7.34,5.69-.64,2.21-3.38,4.25-5.6,4.06-1.74,2.96-4.16,5.61-7.25,7.95-3.76,4.71-7,9.75-9.73,15.12,1.31,2.48.54,5.07-2.31,7.77-1.25,2.88-2.19,5.81-2.84,8.81,1.11,2.78-.05,5.33-3.49,7.63l-1.09,4.08c5.45,3.44,3.06,12.71.21,17.44-3.33,1.99-4.52,4.48-3.57,7.46-11.83,26.71-19.79,55.45-20.38,84.77-.41,20.44,2.19,42.09,8.31,61.5Z"/>
          <g>
            <path class="cls-33" d="M507.97,689.51c2.23-.25,5.42.22,7.21,1.38,2.67,1.73,5.13,2.15,8.28,1.92.93-.07,1.39,2.68.71,3.31-2.28,2.1-4.62.93-6.45-.9s-7.4-.04-10.44-1.33c-2.41-1.02-8.97-1.11-12.41-.03-.59-2.08-1.54-3.76-3.37-4.33l-3.14.88c-2.16-3.93-5.22,1.07-9.19-2.13-.79-.3-2.88.38-3.59-.59-.55-.76-.87-2.09-1.68-2.38-.9-.32-1.71-.02-2.72.31-2.36.78-3.88-3.39-5.65-3.64-1.97-.28-2.61,2.45-4.24,2.49-.62.02-1.88-.46-2.09-1.15-.91-3.01-6.02-4.4-7.52-3.62-.66.34-.74,1.5-1.98,2.78-.5-1.96-.7-3.22-1.8-4.21s-2.53-.82-3.93-1.03-1.24-2.18-1.73-2.69c-1.05-1.1-2.78-1.19-3.35-3.28l3.4-.03,5.63,1.85,7.33,3.17c1.19.51,2.97,2.9,4.49,2.74,3.12-.34,4.65,1.42,7.18,1.99l15.02,3.38,10.62,3.55,3.26.03c4.02,1.31,7.86,2.08,12.15,1.59Z"/>
            <path class="cls-33" d="M420.64,662.08c-.52-.93-3.91,2.04-6.13,1.46-1.86-.48-3.38-.45-5.25.06l-.67-3.91c-.25-1.49-1.92-2.29-1.94-3.98-1.01.44-1.6.56-2.25.5-1.75-.18-2.28-4.16-3.18-4.32-2.7-.48-4.12-1.6-5.43-3.92l-3.45-3.39,6.83,3.15,2.54,2.12,5.89,3.36c2.93,1.67,5.74,2.25,8.45,4.65l5.73,3.47c.78.47,1.53.48,1.66,1.58s-.24,1.94-1.61,1.31l-1.2-2.14Z"/>
            <path class="cls-33" d="M372.47,630c-1.97-.67-2.43-2.83-3.93-2.95-.98-.08-1.91.35-2.41.08-.91-.49-.78-1.88-1.44-2.65l-4.18-4.92c-.74-.87.77-1.57,1.49-1.45s1.16.72,1.69,1.29l5.93,6.4c.98,1.06,3.61,1.31,2.85,4.2Z"/>
            <path class="cls-33" d="M429.04,672.77c-2.8.66-4.12.74-5.65,2.51-1.25.51-1.97-1.26-2.12-2.27s.05-3.16,1.76-3.11c2.04.06,3.91,1.11,6.01,2.87Z"/>
            <path class="cls-33" d="M434.19,669.13c-2.93.81-4.62-1.26-6.62-2.66l-2.17-.06c-.61-.02-.63-2.18-.07-2.19l3.22,1.31c2.49.15,5.1.98,5.65,3.6Z"/>
            <path class="cls-33" d="M404.95,664.15l.87,1.1c.17.22-.16.68-.4.82-1.3.74-.71-1.94-3.85-4.11,1.59-1.1,2.87.62,3.38,2.19Z"/>
            <path class="cls-3" d="M294.31,324.27l1.12-3.79,3.25-2.58c-.88,2.45-2.75,4.4-4.37,6.37Z"/>
            <path class="cls-33" d="M435,679.41c.63,1.46-.7,1.54-1.29,1.53-.77,0-1.8-.15-1.55-1.39.14-.69,2.53-.87,2.85-.14Z"/>
            <path class="cls-33" d="M471.29,692.72c.36.42-.67,1.42-1.35.99-.46-.29-1.03-.79-1.06-2.19.46-.2,1.42.05,2.41,1.2Z"/>
            <path class="cls-3" d="M287.05,334.78c-.4-1.77.85-3.18,2.51-3.79l-2.51,3.79Z"/>
          </g>
        </g>
        <g>
          <path class="cls-3" d="M381.41,250.19c-10.34,4.23-35.82,17.62-43.69,25.02-11.93,11.22-22.63,23.35-33.24,35.85-.65.76-.86,1.39-1.8,1.38-.15-.83-.76-.77-1.82.18-1.48-.19-2.56-1.15-3.26-2.88-2.2,2.65-4.57,5.1-7.13,7.34-.99,2.44-3.04,4.25-6.14,5.44l-3.44,3.79-1.34-.39c-1.57,1.93-3.2,3.83-4.87,5.7.62.82.28,1.6-1.02,2.36-6.13,7.59-12.01,15.39-17.62,23.4l-1.48-.02-2.86,2.85c-3.98.22-7.39,1.51-10.23,3.88-2.43,4.01-4.98,3.77-7.18-.2-2.4.91-4.05.54-4.97-1.11-1.75,2.33-3.05,2.75-3.89,1.28l1.04-4.35c13.31-22.79,30.14-42.25,47.06-61.29l1.04-2.56,2.32-4.08,1.83,2.89c.21.36-.92,1.66.06,1.96.45.14,1.06-.11,1.55-.47l2.84-2.05c2.85-2.06,5.52-3.79,9.35-3.55l1.09-2.54c2.62-1.42,4.02-3.69,4.41-6.52,3.01-2.76,5.98-5.48,7.14-9.39.22-1.02-1.77-1.99-2.24-2.58.55-.85,1.53-1.08,2.96-.67,16.16-12.66,33.88-23.1,52.15-32.45,8.8-4.51,18.32-9.32,27.23-11.97,5-2.7,9.71-5.9,12.1-11.72l-.08-12.25c.41.06.64.53.65,1.17l.16,9.2c4.06,7.54-4.32,8.75-2.44,13.47.86,2.17,2.79,4.05,3,6.71-2.46,3.26-4.82,6.85-7.96,9.29l-9.76,7.6c-.7.55-2.36.37-1.95,2.31.86-.2,1.72-.16,2.47,0Z"/>
          <g>
            <path class="cls-12" d="M297.28,301.63c-.1,1.9-2.54,3.51-3.14,2.61-1.4-2.09.66-4.72,1.96-6.17s5.08-2.03,6.38-.62c.73,2.39-2.39,4.8-5.21,4.18Z"/>
            <path class="cls-12" d="M304.67,295.99l-3.93-2.49c.18-2.68,4.39-5.07,6.36-3.76,1.25,1.93-.73,4.6-2.43,6.25Z"/>
            <path class="cls-12" d="M300.44,287.79c-.56.07-2.46.42-3.24-.24-.62-.52.31-1.59.82-1.77.9-.31,2.2-.45,2.42,2.01Z"/>
            <path class="cls-37" d="M274.69,331.6c-.03-1.1.77-1.81,1.66-2.65l3.21-3.04c.03,1.19-.71,1.92-1.64,2.76l-3.23,2.93Z"/>
            <path class="cls-37" d="M235.11,355.04l-3.37,1.21c.09-1.38.89-1.71,1.57-2.35.45-.43,1.1-.25,1.53,0,.25.15.52.46.28,1.14Z"/>
          </g>
        </g>
        <g>
          <path class="cls-39" d="M573.72,819.4c1.72.66,3.13,4.34,2.35,5.99,0,1.15-.97,1.72-2.95,1.71-9.96,7.69-17.38,19.67-22.25,31.25l-1.45.29-2.6,4.89c-4.37,10-7.97,20.28-10.78,30.85-1.76,3.46-3.32,7.63-1.83,11.39-.38,3.38-1,6.75-1.85,10.11.71,14.79,3.12,29.21,7.21,43.27.44.36.87.74,1.22,1.17s.67.84.83,1.31c1.58,4.79,2.64,9.8,3.64,14.74,1.73,15.85,3.84,31.53,6.34,47.05-.41,4.1-4.3,5.07-7.4,3.08l-1.88-2.36-14.58-25.17c-.77-1.34-1.61-2.46-2.08-3.65.73-1.42,1.6-.9,2.51.2l7.56,11.94c1.74,1.82,2.22,1.58,3.85.04,2.34-2.19,4.71-4.92,3.69-8.36-5.06-17.01-12-32.73-22.46-47.17l-27.22-37.45c-13.52-22.87-21.88-54.33-16.26-80.71.07-.31.33-.58.63-.87s.66-.53,1.04-.75c-.97-2.46.48-3.5,2.87-3.96,29.96,1.58,59.94-2.15,89.14-8.91l2.73.12Z"/>
          <path class="cls-42" d="M478.97,832.16c-6.64,24.69,2.87,64.33,17.86,84.96l18.58,25.58c13.3,16.83,23.39,35.3,29.04,56.25l-.15,4.85c-1.32,1.89-3.34,4.27-5.24,5.75-1.4,1.1-3.66-.3-4.42-1.51l-6.63-10.6c-.63-1.01-1.26-1.96-2.37-2.13-8.77-13.43-19.17-25.54-30.3-37.51-9.04-9.71-17.7-18.93-25.36-29.82-12.09-17.19-20.42-36.41-25.21-56.81-1.31-5.57-2.1-10.73-2.31-16.32l-.47-12.41-6.15,5.66-5.79,6.44-5.54,6.75-5.69,6.11c-.89-.2-1.37-.71-.94-1.49,2.7-2.69,4.16-5.78,4.37-9.27,1.8-5.03,4.88-8.04,9.26-9.02.2-.78.39-1.21,1.43-1.29l-.82-1.24c1.71-3.31,4.67-6.04,7.96-7.76.64-3.12,1.79-6.19,3.44-9.21-.19-4.89,2.27-5.44,6.55-4.99,8.73,2.83,17.57,5.02,26.81,5.4,2.07.72,3.12,1.41,2.11,3.61Z"/>
          <path class="cls-22" d="M576.06,825.39c.33-2.39,3.63-.62,2.71,1.41-.65-.17-1.58-.37-2.43-.02-1.91,8.34-5.52,15.89-8.74,23.73l-8.93,21.75c-3.51,8.55-5.61,17.02-7.78,25.98-8.5,35.25,4.31,52.72,6.74,82.85l-.04,21.41-1.42,9.59c-.87,5.85-3.96,15.54-7.87,15.69-1.79.07-3.05.04-4.12-1.3,1.17.29,2.37.69,3.78.61,1.7-.09,2.74-1.41,2.47-3.1l-3.43-21.59-1.45-15.21c-.92-9.71-3.17-19.15-6.01-28.06-4.16-14.09-7.65-31.38-6.33-46.36.87-9.82,2.66-19.82,6.3-29.05,1.79-8.86,5.65-17.16,9.9-25.09l3.27-7.7,3.45-5.77,7.72-11.19,7.04-7.04c1.36-1.36,3.72-1.23,5.17-1.54Z"/>
          <path class="cls-16" d="M539.55,959.14l-3.14-6.92-2.22-12.22-.6-7.74-1.09-4.91-.77-6.36c-.41-3.36-1.16-5.49.06-8.88l1.65-4.59-1.25-4.36.95-5.53c1.75-3.87,3.79-7.35,4.28-11.42,3.03-2.94,1.62-7.56,3.13-10.71l3.56-7.47c1.61-3.37,2.93-6.84,5.3-9.4-5.99,14.09-11.39,28.44-13.65,44.01-1.18,8.09-2.22,15.81-1.62,23.86l.64,8.51,4.77,24.12Z"/>
        </g>
      </g>
    </g>
  </g>
</svg>