<?xml version="1.0" encoding="utf-8"?>
<!-- Generator: Adobe Illustrator 27.5.0, SVG Export Plug-In . SVG Version: 6.00 Build 0)  -->
<svg version="1.1" id="Layer_1" xmlns="http://www.w3.org/2000/svg" xmlns:xlink="http://www.w3.org/1999/xlink" x="0px" y="0px"
	 viewBox="0 0 178.944 178.944" style="enable-background:new 0 0 178.944 178.944;" xml:space="preserve">
<g>
	<g>
		<circle style="fill:#FFFEF2;stroke:#CBCCCE;stroke-miterlimit:10;" cx="89.472" cy="89.472" r="86.303"/>
		<path style="fill:#DEDFE0;" d="M29.656,42.645c-1.289-0.442-2.687-0.367-4.035,0.015c-1.957,2.032-3.796,4.184-5.453,6.464
			c-2.932,4.036-6.397,9.216-6.35,14.419c0.011,1.248,0.467,4.07,2.104,4.212c1.824,0.158,3.77-2.741,4.685-3.955
			c1.732-2.298,3.222-4.768,4.776-7.186c1.428-2.221,2.996-4.086,4.837-5.981c1.069-1.1,2.585-2.523,2.62-4.178
			C32.875,44.785,31.14,43.154,29.656,42.645z"/>
		<path style="fill:#DEDFE0;" d="M102.813,18.21c-0.014-0.071-0.037-0.138-0.056-0.207c-0.032-0.018-0.054-0.034-0.087-0.052
			c-0.735-0.4-1.503-0.726-2.291-1.005c-1.806-0.638-3.709-1.081-5.623-1.203c-1.383-0.088-2.988-0.043-4.137,0.483
			c-1.103,0.505-1.562,1.203-1.528,2.383c0.042,1.457,0.747,3.054,1.846,4.019c0.952,0.836,2.215,1.125,3.489,1.097
			c2.655-0.059,5.555-1.434,7.351-3.392c0.352-0.384,0.608-0.716,0.856-1.258c0.015-0.045,0.081-0.213,0.092-0.25
			c0.031-0.11,0.06-0.218,0.081-0.33C102.762,18.725,102.76,17.941,102.813,18.21z"/>
		<path style="fill:#DEDFE0;" d="M123.169,32.105c-0.002-0.066-0.008-0.132-0.013-0.198c-0.025-0.142-0.06-0.282-0.105-0.42
			c-0.019-0.059-0.041-0.117-0.063-0.175c-0.006-0.013-0.012-0.026-0.018-0.039c-0.068-0.138-0.144-0.271-0.229-0.398
			c-0.003-0.004-0.006-0.009-0.009-0.013c-0.233,0.034-0.48,0.001-0.702-0.091c0,0-0.002,0-0.002-0.001
			c-0.007-0.003-0.015-0.003-0.022-0.006c-0.011-0.005-0.005-0.003-0.012-0.006c-0.013-0.004-0.013-0.004-0.045-0.016
			c-0.069-0.025-0.137-0.051-0.207-0.075c-0.15-0.052-0.301-0.098-0.454-0.139c-0.152-0.041-0.306-0.077-0.461-0.107
			c-0.071-0.014-0.142-0.027-0.214-0.039c-0.039-0.007-0.247-0.032-0.12-0.02c-0.05-0.005-0.117-0.011-0.137-0.013
			c-0.071-0.007-0.142-0.012-0.213-0.017c-0.152-0.01-0.305-0.016-0.458-0.016c-0.281-0.002-0.56,0.018-0.84,0.044
			c-0.018,0.002-0.035,0.004-0.048,0.005c-0.006,0.001-0.013,0.002-0.018,0.003c-0.064,0.01-0.128,0.021-0.192,0.034
			c-0.125,0.024-0.248,0.051-0.371,0.082c-0.128,0.033-0.255,0.07-0.381,0.111c-0.056,0.019-0.112,0.038-0.167,0.059
			c-0.008,0.003-0.015,0.006-0.023,0.009c-0.184,0.105-0.38,0.183-0.558,0.303c-0.01,0.007-0.02,0.014-0.031,0.021
			c-0.027,0.021-0.051,0.043-0.067,0.057c-0.056,0.051-0.106,0.112-0.16,0.166c-0.019,0.029-0.037,0.058-0.054,0.089
			c-0.004,0.008-0.009,0.017-0.013,0.026c-0.005,0.024-0.014,0.052-0.02,0.082c0,0.018,0,0.036,0,0.054
			c0.019,0.063,0.037,0.128,0.051,0.189c0.024,0.043,0.046,0.087,0.071,0.129c0.033,0.055,0.069,0.107,0.104,0.159
			c0.091,0.093,0.172,0.195,0.265,0.286c0.125,0.122,0.258,0.232,0.391,0.344c0.022,0.017,0.045,0.033,0.067,0.049
			c0.073,0.053,0.147,0.104,0.221,0.154c0.295,0.198,0.599,0.375,0.919,0.53c0.115,0.056,0.259,0.104,0.374,0.17
			c0.015,0.006,0.029,0.012,0.044,0.018c0.058,0.023,0.116,0.045,0.175,0.067c0.442,0.163,0.887,0.263,1.346,0.354
			c0.046,0.004,0.092,0.008,0.138,0.012c0.092,0.006,0.185,0.01,0.277,0.011c0.096,0.001,0.192-0.001,0.287-0.007
			c0.025-0.002,0.08-0.007,0.131-0.012c0.055-0.009,0.134-0.023,0.164-0.03c0.076-0.017,0.151-0.036,0.225-0.058
			c0.065-0.019,0.127-0.043,0.191-0.065c0.013-0.006,0.026-0.012,0.039-0.019c0.121-0.061,0.231-0.134,0.343-0.208
			c0.009-0.008,0.018-0.015,0.027-0.023c0.049-0.044,0.097-0.09,0.143-0.138c0.035-0.036,0.066-0.074,0.098-0.112
			c0.008-0.011,0.016-0.023,0.024-0.034c0.069-0.105,0.126-0.215,0.182-0.327c0.002-0.006,0.005-0.012,0.007-0.018
			c0.021-0.061,0.041-0.123,0.058-0.186c0.018-0.068,0.034-0.137,0.048-0.206C123.156,32.361,123.173,32.233,123.169,32.105z"/>
		<path style="fill:#DEDFE0;" d="M66.958,42.237c-0.158-0.034-0.399-0.112-0.576-0.106c-0.009,0-0.015,0.002-0.025,0
			c-0.061-0.007-0.122-0.014-0.183-0.021c-0.127-0.014-0.254-0.025-0.381-0.036c-0.258-0.021-0.517-0.036-0.776-0.046
			c-0.564-0.021-1.129-0.019-1.693,0.007c-0.292,0.013-0.583,0.033-0.874,0.06c-0.143,0.013-0.286,0.03-0.429,0.045
			c-0.029,0.003-0.083,0.011-0.118,0.016c-0.031,0.004-0.062,0.009-0.093,0.014c-0.452,0.069-0.902,0.16-1.341,0.29
			c-0.104,0.031-0.207,0.064-0.309,0.1c-0.02,0.007-0.082,0.03-0.136,0.051c-0.05,0.022-0.141,0.062-0.166,0.075
			c-0.081,0.041-0.16,0.084-0.237,0.131c-0.033,0.02-0.064,0.042-0.096,0.063c0.052-0.022,0.045-0.052-0.017,0.013
			c-0.023,0.024-0.049,0.049-0.075,0.071c-0.02,0.017-0.005,0.008-0.016,0.02c-0.004,0.007-0.006,0.01-0.01,0.018
			c0.004,0.019,0.01,0.038,0.018,0.056c0.042,0.065,0.079,0.139,0.118,0.205c0.003,0.001,0.022,0.028,0.061,0.088
			c0.166,0.186,0.335,0.363,0.522,0.529c0.062,0.055,0.125,0.109,0.189,0.162c-0.002-0.002,0.061,0.049,0.102,0.082
			c0.042,0.032,0.114,0.086,0.112,0.086c0.058,0.042,0.116,0.083,0.175,0.123c0.239,0.161,0.489,0.292,0.745,0.423
			c0.02,0.01,0.014,0.009,0.023,0.014c0.008,0.003,0.004,0,0.015,0.005c0.06,0.022,0.12,0.046,0.18,0.067
			c0.119,0.042,0.239,0.079,0.36,0.111c0.131,0.035,0.264,0.061,0.396,0.089c0.048,0.01,0.096,0.015,0.144,0.024
			c-0.055-0.01-0.075-0.014-0.097-0.017c-0.04-0.007-0.051-0.009,0,0c0.036,0.006,0.083,0.014,0.107,0.015
			c0.249,0.016,0.495,0.027,0.744,0.014c0.06-0.003,0.312-0.035,0.297-0.029c0.073-0.012,0.146-0.023,0.219-0.038
			c0.235-0.049,0.467-0.114,0.694-0.192c0.073-0.025,0.454-0.188,0.162-0.055c0.102-0.047,0.204-0.092,0.305-0.142
			c0.208-0.104,0.409-0.221,0.603-0.348c0.091-0.059,0.178-0.124,0.266-0.186c0.08-0.071,0.086-0.073,0.054-0.044
			c0.022-0.017,0.043-0.035,0.064-0.053c0.166-0.142,0.325-0.293,0.473-0.453c0.067-0.072,0.129-0.149,0.194-0.223
			c0.056-0.084,0.072-0.101,0.064-0.085c0.003-0.005,0.007-0.01,0.01-0.015c0.113-0.162,0.215-0.332,0.304-0.509
			c0.014-0.029,0.028-0.058,0.042-0.087c0.025-0.078,0.055-0.154,0.078-0.232c0.008-0.03,0.014-0.06,0.021-0.09
			C67.1,42.275,67.03,42.252,66.958,42.237z"/>
		<path style="fill:#DEDFE0;" d="M33.783,74.869c-0.845,0.179-1.612,0.46-2.329,0.809c-3.281,1.597-6.339,4.264-8.252,7.381
			c-0.813,1.325-1.411,2.728-1.311,4.176c0.039,0.561,0.306,1.187,0.743,1.867c0.214,0.333,0.465,0.636,0.773,0.901
			c0.08,0.069,0.152,0.127,0.326,0.232c0.064,0.039,0.429,0.216,0.316,0.171c0.651,0.257,1.093,0.235,1.694,0.089
			c0.783-0.191,1.427-0.547,2.134-1.039c1.599-1.113,2.899-2.701,3.951-4.324c1.147-1.77,2.066-3.703,2.559-5.759
			c0.364-1.517,0.463-3.213-0.122-4.551C34.103,74.835,33.938,74.836,33.783,74.869z"/>
		<path style="fill:#DEDFE0;" d="M72.683,99.898c-1.787,0.024-3.585,0.313-5.208,0.772c-1.301,0.368-2.66,0.918-3.51,1.77
			c-0.375,0.376-0.512,0.619-0.632,1.109c-0.005,0.019-0.005,0.013-0.008,0.023c0,0.012,0.002,0.007,0.001,0.027
			c-0.002,0.056-0.006,0.112-0.006,0.168c-0.001,0.071,0.004,0.142,0.008,0.214c0.001,0.014-0.001,0.005-0.001,0.012
			c0.002,0.009,0.002,0.005,0.004,0.017c0.025,0.121,0.053,0.241,0.09,0.36c0.068,0.222,0.082,0.232,0.12,0.31
			c0.795,1.614,2.516,2.84,4.06,3.736c0.703,0.408,1.419,0.75,2.213,0.929c0.515,0.116,0.954,0.111,1.45-0.029
			c0.036-0.01,0.045-0.012,0.06-0.016c0.059-0.027,0.12-0.054,0.176-0.088c0.103-0.062,0.205-0.122,0.304-0.193
			c-0.07,0.05,0.016-0.004,0.127-0.123c0.079-0.085,0.157-0.169,0.232-0.257c0.014-0.027,0.145-0.211,0.173-0.257
			c0.077-0.127,0.145-0.258,0.213-0.39c0.024-0.047,0.046-0.097,0.068-0.145c0.005-0.011,0.01-0.023,0.013-0.03
			c0.059-0.15,0.111-0.302,0.159-0.455c0.415-1.332,0.457-2.565,0.388-4.031C73.119,102.154,72.936,101.037,72.683,99.898z"/>
		<path style="fill:#BABCBD;" d="M150.256,29.107c3.548,5.234,5.955,10.949,5.075,17.789c-0.091,0.707-0.588,1.138-1.317,1.003
			c-0.857-0.158-1.725,0.115-2.596,0.41c0.617,0.575,1.195,1.189,1.708,1.877c3.633,4.876,2.981,11.222,1.604,16.78
			c-0.785,3.167-2.071,6.264-1.857,9.583c0.18,2.787,1.399,5.349,2.131,8.01c0.792,2.876,1.32,6.412,0.347,9.3
			c-0.989,2.934-3.276,5.13-5.625,7.03c-2.601,2.104-5.15,4.466-8.156,5.983c-2.836,1.431-6.158,2.252-9.339,2.279
			c-3.638,0.031-7.845-0.615-11.211,1.119c-2.404,1.239-5.179,2.992-6.585,5.372c-0.549,0.929-0.883,2.268,0,3.119
			c0.642,0.619,1.72,0.629,2.554,0.665c1.878,0.081,4.169-0.056,5.422,1.635c2.001,2.702,0.103,6.019-2.008,7.937
			c-2.672,2.428-6.132,4.054-9.573,5.059c-2.935,0.857-6.659,1.562-9.547,0.168c-2.433-1.174-2.817-3.61-2.315-5.937
			c-2.296,0.636-3.91,2.372-3.88,5.028c0.033,2.976,1.892,5.687,4.491,7.038c0.538,0.28,0.597,0.932,0.373,1.423
			c-1.891,4.146-6.891,7.181-11.392,5.362c-1.82-0.736-2.26-2.725-3.378-4.137c-1.742-2.202-5.325-2.172-7.867-2.341
			c-3.81-0.254-7.474-1.27-11.239-1.816c-2.897-0.421-5.452-0.004-7.708,1.969c-1.454,1.272-2.746,2.815-3.755,4.461
			c-0.575,0.938-0.977,2.067-1.75,2.87c-1.866,1.939-5.357,1.649-7.689,0.962c-3.201-0.943-6.283-2.214-8.997-4.171
			c-3.787-2.732-6.981-6.154-10.345-9.368c-2.948-2.816-6.27-5.917-10.146-7.419c14.359,25.964,42.011,43.553,73.781,43.553
			c46.539,0,84.267-37.728,84.267-84.267C173.739,64.791,164.79,44.249,150.256,29.107z"/>
		<path style="opacity:0.6;fill:#C6CAC9;" d="M89.472,3.169c-47.664,0-86.303,38.639-86.303,86.303
			c0,47.664,38.639,86.303,86.303,86.303c47.664,0,86.303-38.639,86.303-86.303C175.775,41.808,137.136,3.169,89.472,3.169z
			 M130.158,106.905c-5.718,12.594-14.923,23.601-26.785,30.816c-12.682,7.713-28.134,10.895-42.852,9.119
			c-13.837-1.67-26.818-8.038-36.074-18.546c-9.412-10.686-14.332-24.604-15.116-38.721c-0.8-14.404,1.796-29.075,7.915-42.171
			c5.967-12.772,15.684-23.899,28.864-29.367c10.369-6.075,22.678-8.967,34.569-9.198c7.578-0.147,15.207,0.761,22.28,3.591
			c6.661,2.665,12.651,6.81,17.58,12.017c10.308,10.89,15.439,25.373,16.688,40.122C138.448,78.974,136.145,93.716,130.158,106.905z
			"/>
		<path style="fill:#C6CAC9;" d="M174.684,75.785c-0.095,2.44-0.234,4.877-0.468,7.296c-1.152,11.959-3.645,24.218-9.461,34.845
			c-4.806,8.78-11.643,16.296-19.592,22.335c-8.192,6.223-17.54,10.858-27.292,14.078c-9.932,3.279-20.356,5.1-30.805,5.491
			c-10.201,0.382-20.508-0.608-30.385-3.226c-10.459-2.773-20.304-7.475-28.529-14.576c-8.28-7.149-14.515-16.374-18.601-26.487
			c-3.967-9.818-5.897-20.402-6.235-30.97c-0.091,1.623-0.147,3.256-0.147,4.902c0,47.664,38.639,86.303,86.303,86.303
			c47.664,0,86.303-38.639,86.303-86.303C175.775,84.813,175.394,80.244,174.684,75.785z"/>
	</g>
	<path style="fill:#CCCCC5;" d="M118.963,90.746c-1.752-2.22-5.331-0.909-6.923,0.846c-0.25,0.276-0.466,0.581-0.664,0.899
		c-0.348,0.401-0.651,0.836-0.88,1.34c-0.27,0.595-0.41,1.26-0.469,1.908c-0.107,1.188,0.085,2.46,0.535,3.565
		c0.419,1.029,1.03,2.156,2.046,2.71c1.605,0.874,3.448,0.235,4.647-1.04c1.344-1.43,1.961-3.455,2.321-5.339
		c0.14-0.733,0.2-1.481,0.155-2.226C119.675,92.491,119.557,91.499,118.963,90.746z"/>
	<path style="fill:#CCCCC5;" d="M128.585,92.018c-0.053-0.115-0.105-0.23-0.158-0.345c-0.051-0.077-0.137-0.103-0.203-0.158
		c-0.003-0.01,0.003-0.02,0-0.03c-0.039-0.084-0.077-0.169-0.116-0.253c-0.082-0.125-0.191-0.21-0.328-0.255
		c-0.085-0.054-0.178-0.082-0.28-0.082c-0.158-0.035-0.318-0.032-0.478,0.011c-0.112,0.036-0.224,0.073-0.337,0.109
		c-0.226,0.1-0.423,0.242-0.596,0.418c0.064-0.055,0.127-0.109,0.191-0.164c-0.141,0.12-0.292,0.226-0.442,0.333
		c-0.075,0.054-0.15,0.108-0.222,0.166c-0.143,0.113-0.279,0.235-0.417,0.355c-0.038,0.033-0.076,0.066-0.112,0.101
		c-0.042,0.054-0.085,0.109-0.127,0.163c-0.134,0.148-0.231,0.318-0.293,0.51c-0.012,0.058-0.024,0.116-0.036,0.174
		c-0.04,0.111-0.048,0.225-0.022,0.34c0.007,0.084,0.006,0.14,0.026,0.211c0.011,0.04,0.026,0.08,0.042,0.119
		c0.054,0.132,0.111,0.268,0.182,0.393c0.021,0.036,0.044,0.07,0.07,0.102c0.007,0.009,0.015,0.018,0.023,0.027
		c0.041,0.041,0.082,0.081,0.123,0.122c0.072,0.098,0.167,0.163,0.284,0.195l0.16,0.075c0.125,0.018,0.249,0.036,0.374,0.054
		c0.009,0,0.017,0.001,0.026,0.001c0.018,0,0.036,0,0.055-0.001c0.072-0.004,0.176-0.017,0.22-0.022
		c0.052-0.005,0.155-0.01,0.228-0.023c0.015-0.003,0.03-0.006,0.045-0.01c0.074-0.02,0.208-0.067,0.226-0.073
		c0.008-0.003,0.156-0.045,0.227-0.074c0.013-0.005,0.025-0.011,0.038-0.017c0.058-0.028,0.373-0.206,0.429-0.242
		c0.007-0.004,0.014-0.008,0.02-0.013c0.013-0.009,0.024-0.018,0.036-0.028c0.071-0.057,0.313-0.262,0.377-0.324
		c0.007-0.007,0.014-0.013,0.021-0.02c0.009-0.01,0.018-0.02,0.027-0.03c0.106-0.126,0.21-0.263,0.308-0.395
		c0.038-0.051,0.072-0.104,0.11-0.154c-0.027,0.035-0.055,0.07-0.082,0.105c0.099-0.108,0.179-0.228,0.229-0.367
		c0.048-0.066,0.081-0.136,0.099-0.213c0.028-0.135,0.056-0.27,0.084-0.405C128.607,92.275,128.596,92.146,128.585,92.018z"/>
	<path style="fill:#CCCCC5;" d="M129.17,75.376c-0.015-0.097-0.039-0.192-0.076-0.283c-0.081-0.202-0.166-0.43-0.3-0.61
		c-0.023-0.031-0.048-0.059-0.074-0.087c-0.124-0.134-0.256-0.273-0.4-0.387c-0.168-0.133-0.433-0.235-0.602-0.306
		c-0.067-0.028-0.133-0.052-0.204-0.067c-0.227-0.048-0.466-0.09-0.7-0.095c-0.205-0.005-0.414,0.014-0.62,0.047
		c-0.008-0.008-0.016-0.016-0.025-0.024c-0.142-0.1-0.297-0.154-0.467-0.162c-0.325-0.047-0.623,0.015-0.93,0.137
		c-1.124,0.444-2.008,1.408-2.461,2.517c-0.144,0.352-0.227,0.752-0.229,1.133c-0.002,0.353,0.031,0.729,0.146,1.066
		c0.233,0.688,0.633,1.287,1.245,1.695c0.715,0.477,1.59,0.628,2.429,0.457c0.265-0.054,0.533-0.137,0.777-0.255
		c0.208-0.101,0.413-0.22,0.608-0.342c0.048-0.03,0.092-0.063,0.136-0.099c0.183-0.148,0.372-0.299,0.537-0.468
		c0.164-0.168,0.301-0.365,0.441-0.552c0.083-0.109,0.152-0.224,0.213-0.346c0.143-0.285,0.289-0.571,0.38-0.878
		c0.089-0.297,0.149-0.605,0.199-0.91C129.256,76.167,129.228,75.763,129.17,75.376z"/>
	<path style="fill:#CCCCC5;" d="M142.528,84.65c-1.597,0-3.092,2.839-0.973,2.839C143.152,87.49,144.647,84.65,142.528,84.65z"/>
	<path style="fill:#CCCCC5;" d="M144.668,123.958c-0.343-0.613-1.323-0.747-1.929-0.581c-0.812,0.223-1.594,0.565-2.249,1.104
		c-0.673,0.553-1.287,1.176-1.693,1.958c-0.267,0.514-0.505,1.051-0.617,1.62c-0.091,0.209-0.192,0.415-0.255,0.631
		c-0.251,0.853-0.298,1.713,0.147,2.511c0.44,0.788,1.428,1.131,2.282,1.159c1.174,0.038,2.348-0.574,3.131-1.423
		c0.599-0.65,1.039-1.449,1.302-2.29C145.246,127.185,145.446,125.348,144.668,123.958z"/>
	<path style="fill:#CCCCC5;" d="M149.783,120.423c-1.675,0-3.242,2.977-1.02,2.977C150.437,123.4,152.005,120.423,149.783,120.423z"
		/>
	<path style="fill:#CCCCC5;" d="M125.141,140.261c-1.287,0-2.492,2.288-0.784,2.288
		C125.644,142.549,126.849,140.261,125.141,140.261z"/>
	<g>
		<path style="fill:#CCCCC5;" d="M32.438,115.008c-0.256-0.747-0.616-1.486-1.068-2.136c-0.415-0.596-0.941-1.182-1.551-1.579
			c-0.71-0.462-1.567-0.666-2.407-0.558c-0.402-0.075-0.829-0.023-1.202,0.144c-0.441,0.197-0.806,0.518-1.107,0.895
			c-0.006,0.005-0.012,0.009-0.018,0.014c-0.01,0.013-0.017,0.027-0.027,0.04c-0.063,0.084-0.147,0.15-0.201,0.241
			c0.068-0.088,0.137-0.176,0.205-0.264c-0.578,0.487-1.034,1.107-1.23,1.821c-0.264,0.962-0.068,1.93,0.59,2.69
			c0.108,0.125,0.227,0.252,0.35,0.379c0.004,0.016,0.006,0.033,0.01,0.049c0.212,0.821,0.513,1.606,0.887,2.367
			c0.301,0.612,0.715,1.209,1.28,1.606c1.079,0.758,2.496,0.469,3.523-0.231c0.556-0.379,0.996-0.887,1.369-1.441
			c0.417-0.619,0.728-1.311,0.839-2.05C32.778,116.347,32.65,115.625,32.438,115.008z"/>
		<path style="fill:#CCCCC5;" d="M25.142,111.702c-0.027,0.034-0.053,0.069-0.08,0.103c0.007-0.006,0.016-0.011,0.023-0.017
			C25.107,111.761,25.119,111.728,25.142,111.702z"/>
	</g>
	<path style="fill:#CCCCC5;" d="M37.565,123.813c-1.752,0-3.392,3.115-1.067,3.115C38.25,126.928,39.89,123.813,37.565,123.813z"/>
	<path style="fill:#CCCCC5;" d="M31.44,128.97c-1.256,0-2.432,2.233-0.765,2.233C31.932,131.203,33.107,128.97,31.44,128.97z"/>
	<path style="fill:#CCCCC5;" d="M20.943,96.888c-0.171-0.661-0.447-1.298-0.758-1.904c-0.263-0.512-0.617-0.947-1.063-1.315
		c-0.544-0.449-1.463-0.289-2.043-0.037c-0.222,0.098-0.424,0.224-0.615,0.366c-0.151,0.018-0.304,0.061-0.449,0.123
		c-0.483,0.208-0.93,0.554-1.212,0.997c-0.174,0.274-0.312,0.575-0.43,0.877c-0.224,0.571-0.32,1.186-0.328,1.798
		c-0.008,0.625,0.046,1.277,0.218,1.88c0.156,0.545,0.403,1.115,0.799,1.53c0.362,0.38,0.653,0.583,1.139,0.786
		c0.332,0.139,0.714,0.186,1.07,0.197c1.078,0.034,2.14-0.449,2.879-1.222C21.211,99.856,21.309,98.305,20.943,96.888z"/>
	<path style="fill:#CCCCC5;" d="M42.855,134.858c-0.205-0.506-0.449-1.03-0.77-1.478c-0.161-0.225-0.349-0.418-0.546-0.611
		c-0.199-0.196-0.395-0.382-0.629-0.534c-0.143-0.066-0.286-0.133-0.429-0.199c-0.256-0.078-0.513-0.094-0.772-0.046
		c-0.192,0-0.376,0.038-0.551,0.117c-0.3,0.077-0.576,0.21-0.827,0.399c-0.058,0.042-0.112,0.088-0.168,0.131
		c-0.042,0.015-0.086,0.023-0.127,0.042c-0.275,0.122-0.517,0.292-0.725,0.508c-0.19,0.196-0.331,0.421-0.423,0.677
		c-0.052,0.251-0.091,0.481-0.111,0.713c-0.008,0.039-0.016,0.077-0.024,0.115c-0.01,0.125,0.01,0.242,0.03,0.359
		c0.003,0.031-0.004,0.058,0.001,0.09c0.028,0.185,0.074,0.367,0.142,0.541c0.103,0.264,0.22,0.534,0.38,0.769
		c0.159,0.235,0.373,0.44,0.586,0.623c0.437,0.376,1.025,0.533,1.587,0.573c0.855,0.06,1.669-0.304,2.377-0.74
		c0.14-0.12,0.28-0.24,0.42-0.36c0.186-0.18,0.327-0.388,0.421-0.625C42.838,135.63,42.987,135.182,42.855,134.858z"/>
</g>
</svg>
