<svg xmlns="http://www.w3.org/2000/svg" id="terrainSvg" viewBox="0 150 666.667 150" 
          preserveAspectRatio="xMidYMax" aria-hidden="true" 
          style="position:absolute;inset:0;width:100%;height:100%;z-index:4;overflow:hidden">
            <defs>
              <linearGradient x1="0" y1="0" x2="1" y2="0" gradientUnits="userSpaceOnUse" gradientTransform="matrix(0,5000,5000,0,2500,0)" spreadMethod="pad" id="linearGradient36">
                <stop style="stop-opacity:1;stop-color:#1C1210" offset="0" id="stop26" />
                <stop style="stop-opacity:1;stop-color:#1C1210" offset="0.375207" id="stop28" />
                <stop style="stop-opacity:1;stop-color:#1C1210" offset="0.567026" id="stop30" />
                <stop style="stop-opacity:1;stop-color:#1C1210" offset="0.829696" id="stop32" />
                <stop style="stop-opacity:1;stop-color:#1C1210" offset="1" id="stop34" />
              </linearGradient>
              <linearGradient x1="0" y1="0" x2="1" y2="0" gradientUnits="userSpaceOnUse" gradientTransform="matrix(0,2794.73,2794.73,0,2500,0)" spreadMethod="pad" id="linearGradient66">
                <stop style="stop-opacity:1;stop-color:#A048E8" offset="0" id="stop60" />
                <stop style="stop-opacity:1;stop-color:#A048E8" offset="0.477265" id="stop62" />
                <stop style="stop-opacity:1;stop-color:#7828C8" offset="1" id="stop64" />
              </linearGradient>
              <linearGradient x1="0" y1="0" x2="1" y2="0" gradientUnits="userSpaceOnUse" gradientTransform="matrix(0,3142.57,3142.57,0,2500,0)" spreadMethod="pad" id="linearGradient86">
                <stop style="stop-opacity:1;stop-color:#7B2FBE" offset="0" id="stop78" />
                <stop style="stop-opacity:1;stop-color:#7B2FBE" offset="0.410508" id="stop80" />
                <stop style="stop-opacity:1;stop-color:#5C1E9A" offset="0.693204" id="stop82" />
                <stop style="stop-opacity:1;stop-color:#461480" offset="1" id="stop84" />
              </linearGradient>
              <linearGradient x1="0" y1="0" x2="1" y2="0" gradientUnits="userSpaceOnUse" gradientTransform="matrix(0,2128.52,2128.52,0,2500,0)" spreadMethod="pad" id="linearGradient104">
                <stop style="stop-opacity:1;stop-color:#3C1068" offset="0" id="stop98" />
                <stop style="stop-opacity:1;stop-color:#3C1068" offset="0.535074" id="stop100" />
                <stop style="stop-opacity:1;stop-color:#461480" offset="1" id="stop102" />
              </linearGradient>
              <linearGradient x1="0" y1="0" x2="1" y2="0" gradientUnits="userSpaceOnUse" gradientTransform="matrix(0,1121.3,1121.3,0,2500,0)" spreadMethod="pad" id="linearGradient132">
                <stop style="stop-opacity:1;stop-color:#280C44" offset="0" id="stop128" />
                <stop style="stop-opacity:1;stop-color:#280C44" offset="1" id="stop130" />
              </linearGradient>
              

            </defs>

            <g id="g8" transform="matrix(1.3333333,0,0,-1.3333333,0,666.66667)">
              <g id="g10" transform="scale(0.1)">
                <g id="d-l1" opacity="0" display="none">
                  <g id="g14">
                    <g id="g20">
                      <path d="M 0,0 V 5000 H 5000 V 0 Z m 2524,2658 v -1 h 6 v 1 h 2 v 1 h 2 v 1 h 1 v 2 h 1 v 1 h 1 v 4 h 1 v 2 h -1 v 3 h -1 v 1 h -1 v 1 h -1 v 1 h -1 v 1 h -1 v 1 h -3 v 1 h -4 v -1 h -2 v -1 h -2 v -1 h -1 v -1 h -1 v -2 h -1 v -2 h -1 v -6 h 1 v -2 h 1 v -1 h 1 v -1 h 1 v -1 h 1 v -1 z m 167,174 v -1 h 2 v 1 h 3 v 1 h 1 v 1 h 1 v 1 h 1 v 7 h -1 v 1 h -1 v 1 h -1 v 1 h -2 v 1 h -4 v -1 h -2 v -1 h -1 v -1 h -1 v -2 h -1 v -5 h 1 v -2 h 1 v -1 h 2 v -1 z m -837,57 v -1 h 3 v 1 h 1 v 2 h 1 v 1 h -1 v 1 h -1 v 1 h -3 v -1 h -1 v -1 h -1 v -2 h 1 v -1 z m -80,24 v -1 h 3 v 1 h 1 v 1 h 1 v 4 h -1 v 1 h -2 v 1 h -1 v -1 h -2 v -1 h -1 v -4 h 1 v -1 z m 1825,141 v -1 h 48 v 1 h 14 v 1 h 10 v 1 h 8 v 1 h 8 v 1 h 7 v 1 h 5 v 1 h 6 v 1 h 5 v 1 h 5 v 1 h 4 v 1 h 5 v 1 h 4 v 1 h 4 v 1 h 4 v 1 h 4 v 1 h 3 v 1 h 4 v 1 h 3 v 1 h 4 v 1 h 3 v 1 h 3 v 1 h 3 v 1 h 3 v 1 h 3 v 1 h 3 v 1 h 2 v 1 h 3 v 1 h 3 v 1 h 2 v 1 h 3 v 1 h 2 v 1 h 3 v 1 h 2 v 1 h 3 v 1 h 2 v 1 h 2 v 1 h 2 v 1 h 3 v 1 h 2 v 1 h 2 v 1 h 2 v 1 h 2 v 1 h 3 v 1 h 2 v 1 h 2 v 1 h 2 v 1 h 1 v 1 h 2 v 1 h 2 v 1 h 2 v 1 h 2 v 1 h 2 v 1 h 2 v 1 h 2 v 1 h 2 v 1 h 1 v 1 h 2 v 1 h 2 v 1 h 2 v 1 h 1 v 1 h 2 v 1 h 2 v 1 h 1 v 1 h 2 v 1 h 2 v 1 h 1 v 1 h 2 v 1 h 1 v 1 h 2 v 1 h 1 v 1 h 2 v 1 h 2 v 1 h 1 v 1 h 2 v 1 h 1 v 1 h 2 v 1 h 1 v 1 h 1 v 1 h 2 v 1 h 1 v 1 h 2 v 1 h 1 v 1 h 1 v 1 h 2 v 1 h 1 v 1 h 2 v 1 h 1 v 1 h 1 v 1 h 2 v 1 h 1 v 1 h 1 v 1 h 1 v 1 h 2 v 1 h 1 v 1 h 1 v 1 h 2 v 1 h 1 v 1 h 1 v 1 h 1 v 1 h 2 v 1 h 1 v 1 h 1 v 1 h 1 v 1 h 1 v 1 h 1 v 1 h 2 v 1 h 1 v 1 h 1 v 1 h 1 v 1 h 1 v 1 h 1 v 1 h 1 v 1 h 2 v 1 h 1 v 1 h 1 v 1 h 1 v 1 h 1 v 1 h 1 v 1 h 1 v 1 h 1 v 1 h 1 v 1 h 1 v 1 h 1 v 1 h 1 v 1 h 1 v 1 h 1 v 1 h 1 v 1 h 1 v 1 h 1 v 1 h 1 v 1 h 1 v 1 h 1 v 1 h 1 v 1 h 1 v 1 h 1 v 1 h 1 v 1 h 1 v 1 h 1 v 1 h 1 v 1 h 1 v 1 h 1 v 1 h 1 v 1 h 1 v 1 h 1 v 1 h 1 v 2 h 1 v 1 h 1 v 1 h 1 v 1 h 1 v 1 h 1 v 1 h 1 v 1 h 1 v 2 h 1 v 1 h 1 v 1 h 1 v 1 h 1 v 1 h 1 v 1 h 1 v 2 h 1 v 1 h 1 v 1 h 1 v 1 h 1 v 2 h 1 v 1 h 1 v 1 h 1 v 2 h 1 v 1 h 1 v 1 h 1 v 1 h 1 v 2 h 1 v 1 h 1 v 1 h 1 v 2 h 1 v 1 h 1 v 1 h 1 v 2 h 1 v 1 h 1 v 2 h 1 v 1 h 1 v 2 h 1 v 1 h 1 v 1 h 1 v 2 h 1 v 1 h 1 v 2 h 1 v 1 h 1 v 2 h 1 v 1 h 1 v 2 h 1 v 2 h 1 v 1 h 1 v 2 h 1 v 1 h 1 v 2 h 1 v 1 h 1 v 2 h 1 v 2 h 1 v 2 h 1 v 1 h 1 v 2 h 1 v 2 h 1 v 2 h 1 v 1 h 1 v 2 h 1 v 2 h 1 v 2 h 1 v 2 h 1 v 2 h 1 v 1 h 1 v 2 h 1 v 2 h 1 v 2 h 1 v 2 h 1 v 2 h 1 v 2 h 1 v 2 h 1 v 3 h 1 v 2 h 1 v 2 h 1 v 2 h 1 v 2 h 1 v 3 h 1 v 2 h 1 v 2 h 1 v 2 h 1 v 3 h 1 v 3 h 1 v 2 h 1 v 3 h 1 v 2 h 1 v 3 h 1 v 2 h 1 v 3 h 1 v 3 h 1 v 3 h 1 v 3 h 1 v 3 h 1 v 3 h 1 v 3 h 1 v 3 h 1 v 4 h 1 v 3 h 1 v 4 h 1 v 3 h 1 v 4 h 1 v 4 h 1 v 5 h 1 v 4 h 1 v 4 h 1 v 5 h 1 v 5 h 1 v 6 h 1 v 6 h 1 v 6 h 1 v 8 h 1 v 7 h 1 v 10 h 1 v 14 h 1 v 52 h -1 v 13 h -1 v 10 h -1 v 8 h -1 v 8 h -1 v 6 h -1 v 6 h -1 v 5 h -1 v 6 h -1 v 4 h -1 v 5 h -1 v 4 h -1 v 4 h -1 v 5 h -1 v 3 h -1 v 4 h -1 v 3 h -1 v 4 h -1 v 3 h -1 v 4 h -1 v 3 h -1 v 3 h -1 v 2 h -1 v 3 h -1 v 3 h -1 v 3 h -1 v 3 h -1 v 3 h -1 v 2 h -1 v 3 h -1 v 2 h -1 v 3 h -1 v 3 h -1 v 2 h -1 v 3 h -1 v 2 h -1 v 2 h -1 v 2 h -1 v 2 h -1 v 3 h -1 v 2 h -1 v 2 h -1 v 2 h -1 v 2 h -1 v 2 h -1 v 2 h -1 v 2 h -1 v 2 h -1 v 2 h -1 v 2 h -1 v 2 h -1 v 2 h -1 v 2 h -1 v 2 h -1 v 1 h -1 v 2 h -1 v 2 h -1 v 2 h -1 v 1 h -1 v 2 h -1 v 2 h -1 v 2 h -1 v 1 h -1 v 2 h -1 v 2 h -1 v 1 h -1 v 2 h -1 v 1 h -1 v 2 h -1 v 1 h -1 v 2 h -1 v 2 h -1 v 1 h -1 v 2 h -1 v 1 h -1 v 2 h -1 v 1 h -1 v 2 h -1 v 1 h -1 v 1 h -1 v 2 h -1 v 1 h -1 v 2 h -1 v 1 h -1 v 1 h -1 v 2 h -1 v 1 h -1 v 2 h -1 v 1 h -1 v 1 h -1 v 1 h -1 v 2 h -1 v 1 h -1 v 1 h -1 v 2 h -1 v 1 h -1 v 1 h -1 v 1 h -1 v 2 h -1 v 1 h -1 v 1 h -1 v 1 h -1 v 1 h -1 v 2 h -1 v 1 h -1 v 1 h -1 v 1 h -1 v 1 h -1 v 1 h -1 v 2 h -1 v 1 h -1 v 1 h -1 v 1 h -1 v 1 h -1 v 1 h -1 v 1 h -1 v 1 h -1 v 1 h -1 v 1 h -1 v 2 h -1 v 1 h -1 v 1 h -1 v 1 h -1 v 1 h -1 v 1 h -1 v 1 h -1 v 1 h -1 v 1 h -1 v 1 h -1 v 1 h -1 v 1 h -1 v 1 h -1 v 1 h -1 v 1 h -1 v 1 h -1 v 1 h -1 v 1 h -1 v 1 h -1 v 1 h -1 v 1 h -2 v 1 h -1 v 1 h -1 v 1 h -1 v 1 h -1 v 1 h -1 v 1 h -1 v 1 h -1 v 1 h -1 v 1 h -2 v 1 h -1 v 1 h -1 v 1 h -1 v 1 h -1 v 1 h -1 v 1 h -1 v 1 h -2 v 1 h -1 v 1 h -1 v 1 h -1 v 1 h -2 v 1 h -1 v 1 h -1 v 1 h -1 v 1 h -2 v 1 h -1 v 1 h -1 v 1 h -1 v 1 h -2 v 1 h -1 v 1 h -1 v 1 h -2 v 1 h -1 v 1 h -1 v 1 h -2 v 1 h -1 v 1 h -2 v 1 h -1 v 1 h -1 v 1 h -2 v 1 h -1 v 1 h -2 v 1 h -1 v 1 h -2 v 1 h -1 v 1 h -2 v 1 h -1 v 1 h -2 v 1 h -1 v 1 h -2 v 1 h -1 v 1 h -2 v 1 h -2 v 1 h -1 v 1 h -2 v 1 h -1 v 1 h -2 v 1 h -2 v 1 h -2 v 1 h -1 v 1 h -2 v 1 h -2 v 1 h -2 v 1 h -1 v 1 h -2 v 1 h -2 v 1 h -2 v 1 h -2 v 1 h -2 v 1 h -2 v 1 h -2 v 1 h -1 v 1 h -2 v 1 h -2 v 1 h -2 v 1 h -2 v 1 h -3 v 1 h -2 v 1 h -2 v 1 h -2 v 1 h -2 v 1 h -3 v 1 h -2 v 1 h -2 v 1 h -2 v 1 h -3 v 1 h -2 v 1 h -3 v 1 h -3 v 1 h -2 v 1 h -3 v 1 h -2 v 1 h -3 v 1 h -3 v 1 h -3 v 1 h -3 v 1 h -3 v 1 h -3 v 1 h -3 v 1 h -3 v 1 h -3 v 1 h -4 v 1 h -4 v 1 h -3 v 1 h -4 v 1 h -4 v 1 h -4 v 1 h -4 v 1 h -5 v 1 h -4 v 1 h -5 v 1 h -6 v 1 h -5 v 1 h -6 v 1 h -8 v 1 h -7 v 1 h -9 v 1 h -13 v 1 h -19 v 1 h -24 v -1 h -18 v -1 h -14 v -1 h -8 v -1 h -8 v -1 h -7 v -1 h -6 v -1 h -5 v -1 h -6 v -1 h -5 v -1 h -5 v -1 h -4 v -1 h -4 v -1 h -5 v -1 h -4 v -1 h -3 v -1 h -4 v -1 h -3 v -1 h -4 v -1 h -3 v -1 h -3 v -1 h -3 v -1 h -3 v -1 h -3 v -1 h -3 v -1 h -3 v -1 h -3 v -1 h -3 v -1 h -3 v -1 h -2 v -1 h -3 v -1 h -2 v -1 h -3 v -1 h -2 v -1 h -3 v -1 h -2 v -1 h -2 v -1 h -3 v -1 h -2 v -1 h -2 v -1 h -2 v -1 h -2 v -1 h -3 v -1 h -2 v -1 h -2 v -1 h -2 v -1 h -2 v -1 h -2 v -1 h -2 v -1 h -2 v -1 h -2 v -1 h -2 v -1 h -1 v -1 h -2 v -1 h -2 v -1 h -2 v -1 h -2 v -1 h -1 v -1 h -2 v -1 h -2 v -1 h -2 v -1 h -1 v -1 h -2 v -1 h -2 v -1 h -1 v -1 h -2 v -1 h -2 v -1 h -1 v -1 h -2 v -1 h -1 v -1 h -2 v -1 h -1 v -1 h -2 v -1 h -2 v -1 h -1 v -1 h -2 v -1 h -1 v -1 h -1 v -1 h -2 v -1 h -1 v -1 h -2 v -1 h -1 v -1 h -2 v -1 h -1 v -1 h -1 v -1 h -2 v -1 h -1 v -1 h -2 v -1 h -1 v -1 h -1 v -1 h -1 v -1 h -2 v -1 h -1 v -1 h -1 v -1 h -2 v -1 h -1 v -1 h -1 v -1 h -1 v -1 h -2 v -1 h -1 v -1 h -1 v -1 h -1 v -1 h -2 v -1 h -1 v -1 h -1 v -1 h -1 v -1 h -1 v -1 h -1 v -1 h -1 v -1 h -2 v -1 h -1 v -1 h -1 v -1 h -1 v -1 h -1 v -1 h -1 v -1 h -1 v -1 h -2 v -1 h -1 v -1 h -1 v -1 h -1 v -1 h -1 v -1 h -1 v -1 h -1 v -1 h -1 v -1 h -1 v -1 h -1 v -1 h -1 v -1 h -1 v -1 h -1 v -1 h -1 v -1 h -1 v -1 h -1 v -1 h -1 v -1 h -1 v -1 h -1 v -1 h -1 v -1 h -1 v -1 h -1 v -1 h -1 v -1 h -1 v -1 h -1 v -1 h -1 v -1 h -1 v -1 h -1 v -2 h -1 v -1 h -1 v -1 h -1 v -1 h -1 v -1 h -1 v -1 h -1 v -1 h -1 v -2 h -1 v -1 h -1 v -1 h -1 v -1 h -1 v -1 h -1 v -1 h -1 v -1 h -1 v -2 h -1 v -1 h -1 v -1 h -1 v -1 h -1 v -2 h -1 v -1 h -1 v -1 h -1 v -2 h -1 v -1 h -1 v -1 h -1 v -1 h -1 v -2 h -1 v -1 h -1 v -1 h -1 v -2 h -1 v -1 h -1 v -1 h -1 v -2 h -1 v -1 h -1 v -2 h -1 v -1 h -1 v -1 h -1 v -2 h -1 v -1 h -1 v -2 h -1 v -1 h -1 v -1 h -1 v -2 h -1 v -2 h -1 v -1 h -1 v -2 h -1 v -1 h -1 v -2 h -1 v -1 h -1 v -2 h -1 v -1 h -1 v -2 h -1 v -2 h -1 v -1 h -1 v -2 h -1 v -2 h -1 v -2 h -1 v -1 h -1 v -2 h -1 v -2 h -1 v -1 h -1 v -2 h -1 v -2 h -1 v -2 h -1 v -2 h -1 v -2 h -1 v -2 h -1 v -2 h -1 v -2 h -1 v -1 h -1 v -2 h -1 v -2 h -1 v -2 h -1 v -2 h -1 v -3 h -1 v -2 h -1 v -2 h -1 v -2 h -1 v -2 h -1 v -3 h -1 v -2 h -1 v -2 h -1 v -3 h -1 v -2 h -1 v -3 h -1 v -2 h -1 v -3 h -1 v -2 h -1 v -3 h -1 v -2 h -1 v -3 h -1 v -3 h -1 v -3 h -1 v -3 h -1 v -3 h -1 v -3 h -1 v -3 h -1 v -3 h -1 v -4 h -1 v -3 h -1 v -4 h -1 v -3 h -1 v -4 h -1 v -4 h -1 v -4 h -1 v -5 h -1 v -4 h -1 v -4 h -1 v -6 h -1 v -5 h -1 v -6 h -1 v -6 h -1 v -8 h -1 v -7 h -1 v -10 h -1 v -13 h -1 v -21 h -1 v -14 h 1 v -22 h 1 v -13 h 1 v -9 h 1 v -8 h 1 v -8 h 1 v -5 h 1 v -6 h 1 v -6 h 1 v -5 h 1 v -4 h 1 v -5 h 1 v -4 h 1 v -4 h 1 v -5 h 1 v -3 h 1 v -4 h 1 v -3 h 1 v -4 h 1 v -3 h 1 v -4 h 1 v -3 h 1 v -3 h 1 v -3 h 1 v -2 h 1 v -3 h 1 v -3 h 1 v -3 h 1 v -3 h 1 v -2 h 1 v -3 h 1 v -2 h 1 v -3 h 1 v -2 h 1 v -3 h 1 v -2 h 1 v -3 h 1 v -2 h 1 v -2 h 1 v -2 h 1 v -2 h 1 v -3 h 1 v -2 h 1 v -2 h 1 v -2 h 1 v -2 h 1 v -2 h 1 v -2 h 1 v -2 h 1 v -2 h 1 v -2 h 1 v -2 h 1 v -2 h 1 v -2 h 1 v -2 h 1 v -1 h 1 v -2 h 1 v -2 h 1 v -1 h 1 v -2 h 1 v -2 h 1 v -2 h 1 v -1 h 1 v -2 h 1 v -2 h 1 v -1 h 1 v -2 h 1 v -2 h 1 v -1 h 1 v -2 h 1 v -1 h 1 v -2 h 1 v -1 h 1 v -2 h 1 v -1 h 1 v -2 h 1 v -2 h 1 v -1 h 1 v -1 h 1 v -2 h 1 v -1 h 1 v -2 h 1 v -1 h 1 v -1 h 1 v -2 h 1 v -1 h 1 v -2 h 1 v -1 h 1 v -1 h 1 v -2 h 1 v -1 h 1 v -1 h 1 v -1 h 1 v -2 h 1 v -1 h 1 v -1 h 1 v -2 h 1 v -1 h 1 v -1 h 1 v -1 h 1 v -2 h 1 v -1 h 1 v -1 h 1 v -1 h 1 v -1 h 1 v -1 h 1 v -2 h 1 v -1 h 1 v -1 h 1 v -1 h 1 v -1 h 1 v -1 h 1 v -2 h 1 v -1 h 1 v -1 h 1 v -1 h 1 v -1 h 1 v -1 h 1 v -1 h 1 v -1 h 1 v -1 h 1 v -1 h 1 v -1 h 1 v -1 h 1 v -1 h 1 v -1 h 1 v -2 h 1 v -1 h 1 v -1 h 1 v -1 h 1 v -1 h 1 v -1 h 1 v -1 h 2 v -1 h 1 v -1 h 1 v -1 h 1 v -1 h 1 v -1 h 1 v -1 h 1 v -1 h 1 v -1 h 1 v -1 h 1 v -1 h 1 v -1 h 1 v -1 h 1 v -1 h 1 v -1 h 2 v -1 h 1 v -1 h 1 v -1 h 1 v -1 h 1 v -1 h 1 v -1 h 1 v -1 h 2 v -1 h 1 v -1 h 1 v -1 h 1 v -1 h 1 v -1 h 1 v -1 h 2 v -1 h 1 v -1 h 1 v -1 h 2 v -1 h 1 v -1 h 1 v -1 h 1 v -1 h 2 v -1 h 1 v -1 h 1 v -1 h 1 v -1 h 2 v -1 h 1 v -1 h 2 v -1 h 1 v -1 h 1 v -1 h 2 v -1 h 1 v -1 h 2 v -1 h 1 v -1 h 1 v -1 h 2 v -1 h 1 v -1 h 2 v -1 h 1 v -1 h 2 v -1 h 1 v -1 h 2 v -1 h 1 v -1 h 2 v -1 h 2 v -1 h 1 v -1 h 2 v -1 h 1 v -1 h 2 v -1 h 1 v -1 h 2 v -1 h 2 v -1 h 2 v -1 h 1 v -1 h 2 v -1 h 2 v -1 h 2 v -1 h 1 v -1 h 2 v -1 h 2 v -1 h 2 v -1 h 2 v -1 h 2 v -1 h 1 v -1 h 2 v -1 h 2 v -1 h 2 v -1 h 2 v -1 h 2 v -1 h 2 v -1 h 2 v -1 h 3 v -1 h 2 v -1 h 2 v -1 h 2 v -1 h 2 v -1 h 3 v -1 h 2 v -1 h 2 v -1 h 3 v -1 h 2 v -1 h 3 v -1 h 2 v -1 h 3 v -1 h 2 v -1 h 3 v -1 h 2 v -1 h 3 v -1 h 3 v -1 h 3 v -1 h 3 v -1 h 3 v -1 h 3 v -1 h 3 v -1 h 4 v -1 h 3 v -1 h 4 v -1 h 3 v -1 h 4 v -1 h 3 v -1 h 5 v -1 h 4 v -1 h 4 v -1 h 5 v -1 h 4 v -1 h 6 v -1 h 6 v -1 h 5 v -1 h 7 v -1 h 8 v -1 h 7 v -1 h 11 v -1 z m 1252,7 v -1 h 4 v 2 h 1 v 2 h -1 v 1 h -1 v 1 h -2 v -1 h -2 v -4 z m -4130,75 v -1 h 1 v 1 h 3 v 1 h 2 v 1 h 1 v 1 h 1 v 2 h 1 v 1 h 1 v 8 h -1 v 2 h -1 v 1 h -1 v 1 h -1 v 1 h -2 v 1 h -8 v -1 h -2 v -1 h -1 v -1 h -1 v -2 h -1 v -1 h -1 v -8 h 1 v -2 h 1 v -1 h 1 v -1 h 1 v -1 h 2 v -1 z m 750,82 v -1 h 4 v 1 h 1 v 4 h -1 v 1 h -4 v -1 h -1 v -4 z m 844,29 v -1 h 2 v 1 h 2 v 1 h 2 v 2 h 1 v 2 h 1 v 1 h -1 v 3 h -1 v 1 h -1 v 1 h -1 v 1 h -6 v -1 h -1 v -1 h -1 v -1 h -1 v -6 h 1 v -1 h 1 v -1 h 1 v -1 z m -475,65 v -1 h 7 v 1 h 2 v 1 h 1 v 1 h 1 v 1 h 1 v 1 h 1 v 3 h 1 v 6 h -1 v 1 h -1 v 2 h -1 v 1 h -1 v 1 h -2 v 1 h -3 v 1 h -3 v -1 h -3 v -1 h -1 v -1 h -1 v -1 h -1 v -1 h -1 v -1 h -1 v -4 h -1 v -2 h 1 v -3 h 1 v -2 h 1 v -1 h 1 v -1 h 1 v -1 z m 2642,17 v -1 h 1 v 1 h 1 v 1 h 1 v 1 h 1 v 1 h -1 v 2 h -1 v 1 h -3 v -1 h -1 v -1 h -1 v -2 h 1 v -2 z m -1836,160 v -1 h 6 v 1 h 2 v 1 h 1 v 1 h 1 v 1 h 1 v 2 h 1 v 6 h -1 v 2 h -1 v 1 h -1 v 1 h -1 v 1 h -2 v 1 h -6 v -1 h -1 v -1 h -2 v -1 h -1 v -2 h -1 v -2 h -1 v -5 h 1 v -2 h 1 v -1 h 1 v -1 h 1 v -1 z m -1132,111 v -1 h 4 v 1 h 1 v 1 h 1 v 4 h -1 v 1 h -1 v 1 h -4 v -1 h -1 v -2 h -1 v -2 h 1 v -2 z m 2838,14 v -1 h 4 v 1 h 1 v 4 h -1 v 1 h -3 v -1 h -1 v -1 h -1 v -2 h 1 z m -3977,5 v -1 h 1 v 1 h 4 v 1 h 1 v 1 h 2 v 2 h 1 v 1 h 1 v 3 h 1 v 4 h -1 v 3 h -1 v 1 h -1 v 1 h -1 v 1 h -1 v 1 h -2 v 1 h -7 v -1 h -2 v -1 h -1 v -1 h -1 v -1 h -1 v -1 h -1 v -3 h -1 v -5 h 1 v -2 h 1 v -2 h 2 v -1 h 1 v -1 h 2 v -1 z m 737,49 v -1 h 4 v 1 h 1 v 1 h 1 v 3 h -1 v 2 h -2 v 1 h -3 v -1 h -1 v -1 h -1 v -4 h 1 v -1 z m 1156,7 v -1 h 6 v 1 h 2 v 1 h 1 v 1 h 1 v 1 h 1 v 1 h 1 v 7 h -1 v 2 h -1 v 1 h -1 v 1 h -1 v 1 h -2 v 1 h -5 v -1 h -2 v -1 h -2 v -2 h -1 v -1 h -1 v -3 h -1 v -3 h 1 v -2 h 1 v -2 h 1 v -1 h 1 v -1 z m -1371,41 v -1 h 9 v 1 h 3 v 1 h 2 v 1 h 1 v 1 h 2 v 1 h 1 v 2 h 1 v 1 h 1 v 1 h 1 v 2 h 1 v 3 h 1 v 10 h -1 v 3 h -1 v 1 h -1 v 2 h -1 v 1 h -1 v 1 h -1 v 1 h -1 v 1 h -1 v 1 h -3 v 1 h -2 v 1 h -4 v 1 h -3 v -1 h -4 v -1 h -3 v -1 h -1 v -1 h -2 v -1 h -1 v -1 h -1 v -1 h -1 v -2 h -1 v -1 h -1 v -2 h -1 v -4 h -1 v -8 h 1 v -3 h 1 v -2 h 1 v -1 h 1 v -1 h 1 v -1 h 1 v -1 h 1 v -1 h 1 v -1 h 2 v -1 h 2 v -1 z m 3804,69 v -1 h 7 v 1 h 2 v 1 h 1 v 2 h 1 v 1 h 1 v 3 h 1 v 1 h -1 v 4 h -1 v 1 h -1 v 1 h -1 v 1 h -1 v 1 h -3 v 1 h -3 v -1 h -3 v -1 h -1 v -1 h -1 v -1 h -1 v -2 h -1 v -3 h -1 v -1 h 1 v -3 h 1 v -2 h 1 v -1 h 1 v -1 z m -3407,139 v -1 h 2 v 1 h 2 v 2 h 1 v 3 h -1 v 1 h -1 v 1 h -4 v -1 h -1 v -1 h -1 v -4 h 1 v -1 z m -874,12 v -1 h 6 v 1 h 2 v 1 h 1 v 2 h 1 v 6 h -1 v 1 h -1 v 1 h -1 v 1 h -2 v 1 h -4 v -1 h -2 v -1 h -1 v -2 h -1 v -2 h -1 v -3 h 1 v -2 h 1 v -1 h 1 v -1 z m 1930,39 v -1 h 3 v 1 h 1 v 1 h 1 v 2 h -1 v 1 h -1 v 1 h -3 v -1 h -1 v -1 h -1 v -2 h 1 v -1 z m -757,36 v -1 h 4 v 1 h 1 v 4 h -1 v 1 h -4 v -1 h -1 v -4 z m 1512,20 v -1 h 6 v 1 h 2 v 1 h 1 v 2 h 1 v 6 h -1 v 1 h -1 v 1 h -1 v 1 h -1 v 1 h -5 v -1 h -2 v -1 h -1 v -1 h -1 v -2 h -1 v -4 h 1 v -2 h 1 v -1 h 1 v -1 z m -1592,4 v -1 h 4 v 1 h 1 v 1 h 1 v 3 h -1 v 1 h -1 v 1 h -4 v -1 h -1 v -1 h -1 v -2 h 1 v -2 z m 2257,27 v -1 h 4 v 1 h 2 v 1 h 1 v 1 h 1 v 1 h 1 v 6 h -1 v 2 h -1 v 1 h -2 v 1 h -6 v -1 h -2 v -1 h -1 v -2 h -1 v -5 h 1 v -2 h 1 v -1 h 1 v -1 z m -1707,18 v -1 h 8 v 1 h 1 v 1 h 2 v 2 h 1 v 1 h 1 v 2 h 1 v 7 h -1 v 2 h -1 v 1 h -1 v 1 h -1 v 1 h -2 v 1 h -3 v 1 h -2 v -1 h -4 v -1 h -1 v -1 h -1 v -1 h -1 v -1 h -1 v -2 h -1 v -3 h -1 v -1 h 1 v -4 h 1 v -2 h 1 v -1 h 1 v -1 h 1 v -1 z m 2720,5 v -1 h 4 v 2 h 1 v 2 h -1 v 1 h -1 v 1 h -3 v -1 h -1 v -4 z m -283,104 v -1 h 1 v 1 h 3 v 1 h 2 v 1 h 1 v 1 h 1 v 1 h 1 v 2 h 1 v 8 h -1 v 2 h -1 v 1 h -1 v 1 h -1 v 1 h -2 v 1 h -8 v -1 h -1 v -1 h -2 v -1 h -1 v -2 h -1 v -1 h -1 v -8 h 1 v -2 h 1 v -1 h 1 v -1 h 1 v -1 h 2 v -1 z m -3951,7 v -1 h 1 v 1 h 3 v 1 h 1 v 1 h 1 v 2 h 1 v 6 h -1 v 1 h -1 v 1 h -1 v 1 h -2 v 1 h -3 v -1 h -2 v -1 h -2 v -2 h -1 v -2 h -1 v -3 h 1 v -2 h 1 v -1 h 1 v -1 h 1 v -1 z m 2609,0 v -1 h 3 v 1 h 1 v 1 h 1 v 3 h -1 v 1 h -4 v -1 h -1 v -4 z m -928,58 v -1 h 4 v 1 h 2 v 1 h 1 v 1 h 1 v 2 h 1 v 4 h -1 v 3 h -2 v 1 h -1 v 1 h -2 v 1 h -2 v -1 h -3 v -1 h -1 v -1 h -1 v -1 h -1 v -7 h 1 v -1 h 1 v -1 h 1 v -1 z m 1409,47 v -1 h 7 v 1 h 3 v 1 h 2 v 1 h 2 v 1 h 1 v 1 h 1 v 1 h 1 v 1 h 1 v 1 h 1 v 1 h 1 v 2 h 1 v 2 h 1 v 10 h -1 v 4 h -1 v 1 h -1 v 2 h -1 v 1 h -1 v 1 h -1 v 1 h -1 v 1 h -1 v 1 h -2 v 1 h -2 v 1 h -4 v 1 h -5 v -1 h -3 v -1 h -3 v -1 h -2 v -1 h -1 v -1 h -1 v -1 h -1 v -1 h -1 v -1 h -1 v -2 h -1 v -1 h -1 v -3 h -1 v -9 h 1 v -4 h 1 v -1 h 1 v -2 h 1 v -1 h 1 v -1 h 1 v -1 h 1 v -1 h 1 v -1 h 2 v -1 h 1 v -1 z m -1124,7 v -1 h 2 v 1 h 1 v 1 h 1 v 3 h -1 v 1 h -1 v 1 h -1 v -1 h -2 v -1 h -1 v -3 h 1 v -1 z m 270,14 v -1 h 7 v 1 h 4 v 1 h 1 v 1 h 2 v 1 h 1 v 1 h 1 v 1 h 1 v 1 h 1 v 1 h 1 v 2 h 1 v 1 h 1 v 4 h 1 v 9 h -1 v 3 h -1 v 1 h -1 v 2 h -1 v 1 h -1 v 1 h -1 v 1 h -1 v 1 h -1 v 1 h -2 v 1 h -2 v 1 h -4 v 1 h -5 v -1 h -4 v -1 h -2 v -1 h -2 v -1 h -1 v -1 h -1 v -1 h -1 v -1 h -1 v -2 h -1 v -1 h -1 v -1 h -1 v -4 h -1 v -10 h 1 v -2 h 1 v -2 h 1 v -1 h 1 v -1 h 1 v -1 h 1 v -1 h 1 v -1 h 1 v -1 h 2 v -1 h 2 v -1 z m -2349,20 v -1 h 2 v 1 h 1 v 1 h 1 v 3 h -1 v 1 h -1 v 1 h -2 v -1 h -1 v -1 h -1 v -3 h 1 v -1 z m 4227,22 v -1 h 4 v 1 h 2 v 1 h 1 v 1 h 1 v 1 h 1 v 6 h -1 v 2 h -1 v 1 h -2 v 1 h -6 v -1 h -2 v -2 h -1 v -1 h -1 v -5 h 1 v -2 h 1 v -1 h 1 v -1 z m -534,13 v -1 h 4 v 1 h 1 v 1 h 1 v 2 h -1 v 2 h -1 v 1 h -4 v -1 h -1 v -1 h -1 v -3 h 1 v -1 z m -3067,2 v -1 h 4 v 1 h 3 v 1 h 1 v 1 h 1 v 1 h 1 v 1 h 1 v 2 h 1 v 7 h -1 v 2 h -1 v 1 h -1 v 1 h -1 v 1 h -1 v 1 h -2 v 1 h -6 v -1 h -2 v -1 h -2 v -1 h -1 v -2 h -1 v -1 h -1 v -9 h 1 v -1 h 1 v -1 h 1 v -1 h 1 v -1 h 1 v -1 z m 518,55 v -1 h 7 v 1 h 2 v 1 h 1 v 1 h 1 v 1 h 1 v 2 h 1 v 3 h 1 v 3 h -1 v 3 h -1 v 1 h -1 v 1 h -1 v 1 h -1 v 1 h -2 v 1 h -8 v -1 h -1 v -1 h -2 v -2 h -1 v -1 h -1 v -2 h -1 v -6 h 1 v -2 h 1 v -2 h 1 v -1 h 2 v -1 z m -1430,13 v -1 h 5 v 1 h 2 v 1 h 2 v 1 h 1 v 2 h 1 v 1 h 1 v 3 h 1 v 4 h -1 v 2 h -1 v 2 h -1 v 1 h -1 v 1 h -2 v 1 h -2 v 1 h -5 v -1 h -3 v -1 h -1 v -1 h -1 v -1 h -1 v -2 h -1 v -2 h -1 v -5 h 1 v -2 h 1 v -2 h 1 v -1 h 1 v -1 h 2 v -1 z m 2237,145 v -1 h 2 v 1 h 1 v 1 h 1 v 3 h -1 v 1 h -1 v 1 h -2 v -1 h -1 v -1 h -1 v -3 h 1 v -1 z m 957,6 v -1 h 5 v 1 h 1 v 1 h 1 v 1 h 1 v 1 h 1 v 6 h -1 v 1 h -1 v 1 h -1 v 1 h -2 v 1 h -5 v -1 h -1 v -1 h -1 v -1 h -1 v -1 h -1 v -6 h 1 v -1 h 1 v -1 h 1 v -1 z m 646,14 v -1 h 5 v 1 h 1 v 1 h 1 v 1 h 1 v 1 h 1 v 6 h -1 v 2 h -1 v 1 h -2 v 1 h -6 v -1 h -1 v -1 h -1 v -1 h -1 v -3 h -1 v -3 h 1 v -2 h 1 v -1 h 1 v -1 z m -3676,10 v -1 h 6 v 1 h 2 v 1 h 1 v 1 h 1 v 3 h 1 v 2 h -1 v 2 h -1 v 2 h -1 v 1 h -2 v 1 h -5 v -1 h -2 v -1 h -1 v -1 h -1 v -2 h -1 v -4 h 1 v -2 h 1 v -1 h 1 v -1 z m 1540,47 v -1 h 3 v 1 h 2 v 1 h 1 v 1 h 1 v 1 h 1 v 5 h -1 v 2 h -1 v 1 h -2 v 1 h -5 v -1 h -1 v -1 h -1 v -1 h -1 v -2 h -1 v -3 h 1 v -2 h 1 v -1 h 1 v -1 z m -1254,7 v -1 h 4 v 2 h 1 v 2 h -1 v 1 h -1 v 1 h -3 v -1 h -1 v -4 z m 2854,29 v -1 h 3 v 1 h 2 v 1 h 2 v 1 h 1 v 2 h 1 v 5 h -1 v 2 h -1 v 1 h -1 v 1 h -2 v 1 h -4 v -1 h -2 v -1 h -1 v -1 h -1 v -1 h -1 v -7 h 1 v -1 h 1 v -1 h 1 v -1 z m 927,25 v -1 h 1 v 1 h 4 v 1 h 1 v 1 h 2 v 2 h 1 v 1 h 1 v 3 h 1 v 4 h -1 v 3 h -1 v 1 h -1 v 1 h -1 v 1 h -1 v 1 h -2 v 1 h -7 v -1 h -2 v -1 h -1 v -1 h -1 v -1 h -1 v -1 h -1 v -3 h -1 v -5 h 1 v -2 h 1 v -2 h 2 v -1 h 1 v -1 h 2 v -1 z m -548,115 v -1 h 1 v 1 h 3 v 1 h 2 v 1 h 1 v 1 h 1 v 1 h 1 v 2 h 1 v 3 h 1 v 1 h -1 v 4 h -1 v 2 h -1 v 1 h -1 v 1 h -1 v 1 h -2 v 1 h -8 v -1 h -1 v -1 h -2 v -2 h -1 v -1 h -1 v -2 h -1 v -7 h 1 v -1 h 1 v -2 h 1 v -1 h 1 v -1 h 2 v -1" style="fill:url(#linearGradient36);fill-opacity:1;fill-rule:nonzero;stroke:none" id="path38" />
                    </g>
                  </g>
                </g>
                <g id="d-l2">
                  <g id="g42">
                    <g id="g48" transform="matrix(899.2,0,0,899.2,3171.9,3045.9)">
                      </g>
                  </g>
                </g>
                <g id="d-l3">
                  <g id="g54">
                    <path d="m 4876.39,2438.55 -29.45,196.84 -88.31,14.05 v 121.86 l -110.38,23.43 -456.28,-23.43 -121.43,-192.16 -33.12,-196.83 -154.53,-73.62 h -138.27 v 121 l -198.69,60.22 h -51.88 l -14.46,108.89 -45.45,8.15 v 70.62 l -56.82,13.59 -234.83,-13.59 -62.5,-111.36 -17.04,-114.09 -79.53,-42.66 h -71.16 v 70.12 l -102.27,34.91 h -130.01 l -91.55,-105.03 -141.91,-34.43 h -316 l -144.67,-242.65 -368.87,-1.48 -373.95,-92.93 -222.3,124.18 L 809.883,2141.84 779.336,1979.55 512.75,1840.26 280.836,1881.98 0,1746.93 V 0 h 5000 v 2443.24 l -123.61,-4.69" style="fill:url(#linearGradient66);fill-opacity:1;fill-rule:nonzero;stroke:none" id="path68" />
                  </g>
                </g>
                <g id="d-l4">
                  <g id="g72">
                    <path d="m 5000,1548.88 -1864.42,78.35 -221.14,-93.26 -570.94,218.89 -366.94,5.72 -143.9,164.5 h -545.29 l -141.16,132.79 -91.06,405.18 H 925.813 L 824.094,2326.41 v -270.54 h -70.793 l -79.121,164.6 -16.953,440.09 -62.168,429.62 -233.606,52.39 -56.508,-52.39 V 2817.73 L 259.73,2786.29 244.656,2346.22 0,2356.69 V 0 h 5000 v 1548.88" style="fill:url(#linearGradient86);fill-opacity:1;fill-rule:nonzero;stroke:none" id="path88" />
                  </g>
                </g>
                <g id="d-l5">
                  <g id="g92">
                    <path d="m 4939.85,1331.25 -47.86,94.78 -145.26,114.05 -114.01,489.47 -247.89,98.97 h -120.27 l -23.2,-155.53 h -112.61 l -107.33,-112.66 v -191.91 l -331.66,-107.92 -237.8,35.86 -578.4,-253.02 -189.84,21.47 -301.81,31.53 -219.26,-66.94 -197.57,-0.62 -149.61,85.23 -182.75,-84.61 -214.78,-0.62 -334.36,-80.71 -197.572,30.65 -324,110.69 -17.953,162.36 H 373.301 L 217.289,1411.04 112.449,1424.06 0,1412.84 V 0 h 5000 v 1297.31 l -60.15,33.94" style="fill:url(#linearGradient104);fill-opacity:1;fill-rule:nonzero;stroke:none" id="path106" />
                  </g>
                </g>
                <g id="d-l6"><path d="m 64.9766,1410.46 0.3125,1.01 0.4414,0.79 -0.2266,-0.78 -0.5273,-1.02" style="fill:#3E1A54;fill-opacity:1;fill-rule:nonzero;stroke:none" id="path108" />
                <path d="m 219.977,1533.77 0.511,0.87 z M 49.5391,2061.38 c -1.6133,-30.45 3.3945,-61.99 3.6172,-91.76 0.2187,-29.64 0.5195,-59.28 0.5585,-88.93 0.0391,-27.34 -0.0117,-54.66 -0.0703,-81.99 -0.1172,-54.67 -0.3203,-109.34 -0.2109,-164 0.0273,-14.99 -2.6367,-226.66 5.4961,-226.93 H 217.094 c 0,0 -1.735,60.57 0,92.23 0.547,11.08 1.422,21.89 2.801,32.89 26.632,-9.31 58.734,0.25 75.933,22.62 21.735,28.26 18.16,70.21 22.766,103.45 2.64,19.06 1.683,38.76 4.254,58.08 2.605,19.58 5.218,39.48 2.218,59 -2.992,19.52 -12.429,38.97 -29.136,49.52 -42.36,26.72 -73.442,-21.08 -72.969,-58.92 0.293,-23.89 -0.359,-47.77 -1.539,-71.62 -1.035,-20.93 1.367,-45.29 -1.277,-65.42 -0.844,-6.39 -5.825,-12.74 -12.274,-12.79 -6.047,-0.05 -10.984,5.45 -12.402,11.32 -6.875,28.51 -0.817,67.39 -0.219,96.84 0.707,35.01 2.527,69.98 5.156,104.91 4.266,56.68 -1.593,111.68 5.903,168.35 4.55,34.43 7.621,70.42 -4.204,103.08 -11.832,32.66 -42.636,60.93 -77.308,58.86 -33.9884,-2.02 -60.8829,-32.39 -70.0509,-65.18 -3.0664,-10.94 -4.5977,-22.2 -5.207,-33.61" style="fill:#3E1A54;fill-opacity:1;fill-rule:nonzero;stroke:none" id="path110" />
                <path d="m 1323.25,1648.09 0.12,40.52 0.25,81.03 0.12,40.52 0.06,20.25 c 0.05,1.68 -0.11,3.38 0.25,5.15 0.35,1.74 1.21,3.38 2.4,4.79 2.35,2.84 6.28,4.53 10.21,4.52 4.5,0.02 8.94,-2.23 11.14,-5.77 1.13,-1.75 1.7,-3.77 1.7,-5.78 l 0.02,-5.79 0.06,-23.13 0.12,-46.28 0.25,-92.56 0.03,-11.57 c 0.04,-1.95 -0.11,-3.87 0.27,-5.6 0.37,-1.76 1.15,-3.46 2.28,-4.96 2.26,-2.98 5.93,-5.07 9.9,-5.57 3.97,-0.55 8.14,0.43 11.26,2.65 3.15,2.19 5.2,5.57 5.5,9.11 0.11,3.65 -0.02,7.65 -0.02,11.47 l -0.17,23.13 -0.68,92.56 -1.43,185.12 -0.44,92.56 -0.04,11.57 -0.02,5.78 c 0.04,2.18 0.24,4.48 0.9,6.65 2.36,8.82 10.3,16.11 20.03,18.64 9.68,2.6 20.85,0.35 28.2,-5.96 3.75,-3.04 6.45,-7.05 8.03,-11.36 0.67,-2.18 1.24,-4.41 1.27,-6.68 0.12,-2.25 0.05,-3.95 0.08,-5.95 0.2,-34.61 -5.52,-68.77 -7.48,-103.17 -5.09,-88.75 7.31,-178.17 6.74,-267.06 l -0.54,-92.56 -0.28,-46.28 -0.02,-5.72 c 0.03,-1.49 0.48,-2.96 1.36,-4.23 1.71,-2.59 5.02,-4.23 8.4,-4.12 3.38,0.02 6.62,1.82 8.23,4.49 0.79,1.38 1.22,2.76 1.18,4.45 l 0.03,5.78 c 5.92,185.44 0.69,369.95 0.25,555.36 l -0.64,185.11 -0.21,46.28 -0.11,23.15 -0.02,5.78 c 0.04,2.1 0.21,4.41 0.93,6.52 1.3,4.28 4.04,8.21 7.76,11.13 7.41,6.02 18.84,7.52 27.91,3.69 9.16,-3.63 15.34,-12.48 15.12,-21.36 -3.55,-139.21 -4.33,-277.39 1.41,-416.53 l 0.39,-185.12 -0.08,-169.37 c 0,-6.07 5.5,-10.99 12.28,-10.99 6.86,0 12.38,5.02 12.27,11.15 -1.65,89.89 -2.45,179.79 -3.11,269.69 l -0.28,71.39 -0.14,35.71 -0.07,17.85 -0.03,8.92 -0.02,4.47 c 0.02,1.45 -0.09,2.89 0.16,4.96 0.96,7.66 7.97,14.32 16.55,15.52 8.47,1.43 17.74,-2.64 21.51,-9.63 1,-1.71 1.65,-3.59 1.97,-5.49 0.2,-0.93 0.19,-1.95 0.24,-2.83 l -0.01,-2.23 -0.03,-8.93 -0.06,-17.85 -0.22,-71.39 -1.24,-142.81 -0.74,-71.39 c -0.02,-5.87 -0.2,-12.09 -0.09,-17.67 0.48,-5.28 4.23,-10.27 9.65,-12.59 5.32,-2.43 12.1,-2.12 17.14,0.77 5.15,2.83 8.39,8.08 8.33,13.53 0.25,49.32 5.12,97.85 3.79,147.13 -2.53,93.78 -4.86,187.46 -5.6,281.26 l -0.27,35.7 -0.14,17.85 c -0.02,0.66 -0.01,1.61 0.08,2.63 0.13,0.99 0.35,1.95 0.67,2.9 0.65,1.89 1.74,3.65 3.15,5.17 2.81,3.03 7.04,5.03 11.47,5.36 4.39,0.38 9,-0.91 12.38,-3.49 3.42,-2.54 5.66,-6.36 6.02,-10.35 0.09,-1.09 0.08,-1.83 0.09,-2.54 l 0.01,-2.24 0.04,-4.46 0.06,-8.92 0.2,-35.7 c 0.51,-142.97 5.81,-285.52 0.47,-428.4 l -0.03,-17.85 -0.01,-4.46 c -0.07,-1.53 -0.07,-3.41 -0.41,-5.07 -0.49,-3.43 -1.69,-6.78 -3.41,-9.85 -3.39,-6.23 -9.09,-11.33 -15.91,-14.52 -19.54,-9.31 -37.85,-2.61 -44.35,-29.05 -4.37,-17.79 0.74,-38.01 0.07,-56.33 -0.59,-16.15 -0.26,-32.36 -0.39,-48.51 -0.59,-71.55 -0.62,-106.07 -0.25,-177.7 l -76.94,0.27 0.82,88.39 c 0.17,6.93 0.1,13.01 -1.98,19.18 -1.93,6.08 -5.38,11.78 -9.97,16.62 -9.14,9.73 -22.98,15.83 -37.28,16.2 -7.61,0.15 -15.76,1.17 -23.08,3.73 -7.39,2.5 -14.22,6.27 -20.03,11.02 -11.67,9.48 -19.02,23.02 -20.06,37.03 -0.38,13.8 0.07,27.09 0.06,40.66 l 0.16,20.26 0.07,10.13 c 0.03,3.45 0.15,6.62 -0.73,9.71 -1.63,6.17 -6.23,11.69 -12.41,14.89 -3.08,1.61 -6.53,2.66 -10.08,3.05 -3.38,0.26 -7.73,0.19 -11.43,1.33 -7.62,2 -14.15,6.92 -17.69,13.22 -1.8,3.14 -2.85,6.6 -3.12,10.11 -0.21,3.52 -0.04,6.79 -0.08,10.2" style="fill:#38164C;fill-opacity:1;fill-rule:nonzero;stroke:none" id="path112" />
                <path d="m 1056.23,1337.82 c 0,0 54.28,-18.16 108.57,-51.31 -87.33,62.83 -135.22,150.38 -135.22,150.38 0,0 94.49,-70.01 151.47,-136.09 -65.92,99.16 -88.39,226.89 -88.39,226.89 0,0 86.53,-104.74 127.44,-237.58 -34.73,157.36 7.24,312.36 11.36,311.64 0.94,-0.16 29.79,-179.18 4.91,-293.74 50.72,139.98 125.14,213.52 125.14,213.52 0,0 -13.15,-101.3 -83.89,-195.28 49.44,52.79 98.79,83.11 98.79,83.11 l 0.85,-0.36 c 0,0 -26.37,-56.94 -110.23,-117.13 80.68,51.1 137.54,75.88 137.54,75.88 0,0 -59.68,-63.42 -149.33,-93.28 l -78.48,-12.67 c -47.02,10.37 -120.53,76.02 -120.53,76.02" style="fill:#38164C;fill-opacity:1;fill-rule:nonzero;stroke:none" id="path114" />
                <path d="m 3183.16,1544.93 c 0,0 46.75,-2.89 94.81,-14.02 -78.13,23.13 -125.55,65.01 -125.55,65.01 0,0 84.7,-26.14 137.84,-55.02 -63.44,45.9 -93.19,113.21 -93.19,113.21 0,0 81.08,-46.28 126.61,-113.98 -42.51,81.99 -20.97,172.73 -17.48,172.86 0.79,0.03 40.28,-94.64 29.47,-160.89 30.12,83.62 85.71,133.79 85.71,133.79 0,0 -2.19,-57.42 -52.94,-118.36 36.58,35.5 75.04,58.63 75.04,58.63 l 0.73,-0.09 c 0,0 -17.02,-34.76 -81.62,-78.83 62.73,38.66 107.92,59.72 107.92,59.72 0,0 -44.19,-42.68 -116.22,-70.83 l -64.23,-17.24 c -40.04,-0.45 -106.9,26.04 -106.9,26.04" style="fill:#3E1A54;fill-opacity:1;fill-rule:nonzero;stroke:none" id="path116" />
                <path d="m 3469.62,1921.88 c 3.13,55.54 0.15,112.06 0.06,167.68 -0.03,11.15 0.02,22.61 4.16,32.96 4.14,10.35 13.43,19.44 24.56,19.91 11.91,0.49 22.39,-9.05 26.86,-20.1 4.48,-11.06 4.25,-23.37 3.95,-35.28 -1.23,-49.57 -2.68,-99.13 -3.7,-148.69 -0.36,-17.19 -0.11,-37.41 20.57,-42.83 13.26,-3.47 27.09,4.88 32.23,17.1 10.48,24.9 1.83,71.43 2.18,98.44 0.95,72.86 1.89,145.72 2.85,218.58 0.23,18.82 3.78,42.34 21.78,47.86 13.54,4.15 28.19,-5.75 34.3,-18.54 6.11,-12.78 5.82,-27.57 5.42,-41.74 -3.51,-122.54 -7.02,-245.08 -10.52,-367.62 -0.32,-11.15 -0.56,-22.74 3.96,-32.94 4.53,-10.2 15.3,-18.55 26.28,-16.5 16.88,3.16 20.9,25.19 21.11,42.36 0.66,52.12 1.3,104.24 1.96,156.37 0.16,13.94 0.47,28.42 6.65,40.9 6.18,12.5 20.1,22.33 33.66,19.15 10.36,-2.44 17.96,-11.82 21.26,-21.94 3.3,-10.12 3.05,-21.01 2.77,-31.65 -1.68,-63.31 -3.36,-126.64 -5.04,-189.96 -0.4,-15.08 -0.86,-30.51 -6.2,-44.63 -5.34,-14.13 -16.58,-26.95 -31.36,-29.99 -18.43,-3.8 -39.16,7.74 -55.62,-1.38 -14.83,-8.23 -17.22,-28.2 -17.86,-45.16 -1.85,-49.38 -3.7,-98.77 -5.56,-148.14 -21.58,-0.05 -43.15,-0.09 -64.73,-0.14 3.46,76.97 6.93,153.94 10.39,230.9 0.79,17.56 0.52,37.73 -12.79,49.21 -13.33,11.49 -33.37,8.79 -50.31,13.54 -34.69,9.73 -45.58,50.73 -43.27,82.27" style="fill:#3E1A54;fill-opacity:1;fill-rule:nonzero;stroke:none" id="path118" />
                <g id="g120">
                  <g id="g122">
                    <path d="m 0,1025.98 726.832,-41.91 181.273,41.38 387.875,-10.67 159.95,10.18 249.3,74.72 825.17,-73.7 253.81,-1.02 557.2,-133.358 329.25,50.66 189.96,83.718 379.91,36.93 h 284.54 L 4785.06,995.641 5000,1121.3 V 0 H 0 v 1025.98" style="fill:url(#linearGradient132);fill-opacity:1;fill-rule:nonzero;stroke:none" id="path134" />
                  </g>
                </g>
                <path d="m 4853.84,1004.56 c 0.07,-0.01 0.03,0.41 -0.43,1.38 l -0.62,1.09 0.33,-1.07 0.72,-1.4" style="fill:#280C44;fill-opacity:1;fill-rule:nonzero;stroke:none" id="path136" />
                <path d="m 4719.49,1175.73 0.71,-1.2 z m 143.51,605.8 c -3.71,8.49 -9.88,18.06 -19.36,25.46 -9.53,7.37 -20.37,11.71 -32.15,12.76 -11.61,0.98 -22.42,-1.45 -31.48,-5.43 -9.07,-4.07 -16.87,-9.53 -23.34,-16.5 -6.52,-6.65 -12.06,-16.14 -14.91,-23.91 -3.09,-8.12 -4.67,-16.14 -5.29,-23.42 -1.24,-14.74 0.1,-26.23 0.67,-36.85 2.9,-43.66 6.74,-87.32 10.03,-130.98 6.89,-87.27 8.94,-174.77 6.85,-261.87 -0.28,-10.4 -1.59,-19.59 -5.54,-25.47 -3.38,-5.57 -10.86,-9.47 -15.29,-8.61 -2.15,0.28 -4.44,1.35 -5.55,2.78 -1.31,1.44 -2.74,3.75 -3.71,7.25 -0.99,3.42 -1.62,7.6 -1.7,11.99 -0.08,2.2 -0.01,4.48 0.08,6.76 l 0.57,7.57 10.39,130.87 c 0.93,10.91 1.65,21.82 2.36,32.72 0.63,10.91 1.73,24.07 -1.21,39.76 -1.59,7.97 -3.95,15.79 -8.87,24.4 -4.92,8.33 -11.07,15.37 -18.55,21.16 -7.42,5.81 -16.35,10.43 -26.71,12.94 -10.33,2.43 -22.38,2.33 -33.19,-1.2 -10.85,-3.45 -20.14,-9.62 -27.21,-16.87 -7.07,-7.26 -12.4,-15.66 -16,-24.81 -6.76,-17.5 -6.64,-32.93 -7.07,-44.06 l -1.74,-65.54 -2.69,-131.02 c 0,-10.73 -0.48,-21.83 0.5,-35.87 1.03,-13.87 3.68,-29.79 12.19,-46.4 8.34,-15.88 20.97,-30.35 39.08,-39.91 8.82,-4.72 19.6,-7.92 29.18,-8.86 9.5,-1.04 17.47,-0.52 24.09,0.08 11.44,1.27 19.93,2.31 23.33,2.28 0.77,-2.83 1.58,-7.4 1.82,-12.64 l 1.59,-32.12 c 2.38,-43.64 0,-127.13 0,-127.13 h 138 c 11.21,0.38 7.54,292.14 7.58,312.8 0.25,129.33 -0.74,258.68 -0.29,388.02 0.09,26.09 4.2,55.45 -6.46,79.87" style="fill:#280C44;fill-opacity:1;fill-rule:nonzero;stroke:none" id="path138" />
                <path d="m 4517.34,1647.48 -0.22,76.48 -0.47,152.96 -0.22,76.48 -0.12,38.24 c -0.09,3.17 0.22,6.37 -0.47,9.71 -0.65,3.29 -2.29,6.39 -4.53,9.04 -4.44,5.37 -11.86,8.54 -19.28,8.53 -8.49,0.04 -16.87,-4.21 -21.02,-10.9 -2.14,-3.29 -3.21,-7.12 -3.22,-10.9 l -0.03,-10.91 -0.11,-43.69 -0.24,-87.35 -0.46,-174.71 -0.06,-21.84 c -0.06,-3.67 0.22,-7.31 -0.51,-10.57 -0.7,-3.34 -2.17,-6.54 -4.3,-9.35 -4.27,-5.63 -11.2,-9.56 -18.69,-10.53 -7.49,-1.04 -15.36,0.81 -21.25,5.01 -5.94,4.13 -9.82,10.52 -10.38,17.2 -0.2,6.88 0.04,14.44 0.04,21.64 l 0.32,43.67 1.3,174.71 2.67,349.43 0.84,174.71 0.08,21.83 0.04,10.92 c -0.09,4.1 -0.46,8.47 -1.72,12.55 -4.44,16.65 -19.42,30.42 -37.79,35.18 -18.26,4.92 -39.37,0.66 -53.23,-11.24 -7.08,-5.74 -12.18,-13.32 -15.16,-21.44 -1.28,-4.11 -2.32,-8.34 -2.4,-12.62 -0.23,-4.24 -0.08,-7.45 -0.15,-11.22 -0.38,-65.32 10.41,-129.8 14.13,-194.75 9.59,-167.52 -13.8,-336.3 -12.72,-504.1 l 1.01,-174.7 0.53,-87.36 0.04,-10.8 c -0.07,-2.81 -0.92,-5.59 -2.58,-8 -3.22,-4.88 -9.47,-7.98 -15.85,-7.77 -6.37,0.03 -12.49,3.46 -15.54,8.49 -1.49,2.58 -2.29,5.21 -2.22,8.39 l -0.06,10.93 c -11.16,350.02 -1.29,698.27 -0.46,1048.26 l 1.2,349.43 0.4,87.35 0.2,43.68 0.05,10.92 c -0.08,3.97 -0.4,8.32 -1.77,12.31 -2.45,8.07 -7.63,15.48 -14.65,21.01 -13.97,11.36 -35.56,14.19 -52.68,6.95 -17.29,-6.82 -28.95,-23.55 -28.53,-40.31 6.69,-262.76 8.17,-523.6 -2.68,-786.24 l -0.72,-349.42 0.14,-319.7 c 0.01,-11.44 -10.36,-20.74 -23.17,-20.74 -12.95,-0.01 -23.38,9.46 -23.16,21.04 3.12,169.69 4.63,339.38 5.87,509.07 l 0.53,134.76 0.26,67.39 0.13,33.7 0.07,16.84 0.02,8.42 c -0.02,2.75 0.18,5.47 -0.3,9.36 -1.8,14.49 -15.05,27.05 -31.24,29.31 -15.98,2.71 -33.47,-4.98 -40.6,-18.18 -1.88,-3.23 -3.11,-6.76 -3.71,-10.35 -0.38,-1.76 -0.38,-3.7 -0.44,-5.35 l 0.01,-4.21 0.04,-16.85 0.11,-33.69 0.42,-134.77 2.36,-269.55 1.38,-134.77 c 0.04,-11.07 0.39,-22.82 0.18,-33.33 -0.91,-9.99 -8,-19.41 -18.22,-23.77 -10.04,-4.58 -22.84,-4.02 -32.36,1.45 -9.72,5.32 -15.82,15.26 -15.71,25.53 -0.47,93.09 -9.67,184.71 -7.16,277.71 4.78,177.04 9.18,353.85 10.57,530.91 l 0.51,67.39 0.27,33.7 c 0.03,1.23 0.02,3.03 -0.17,4.96 -0.23,1.84 -0.65,3.67 -1.25,5.47 -1.24,3.55 -3.28,6.89 -5.95,9.74 -5.3,5.74 -13.28,9.5 -21.64,10.13 -8.3,0.71 -16.99,-1.71 -23.38,-6.57 -6.46,-4.81 -10.68,-12.01 -11.36,-19.54 -0.17,-2.06 -0.15,-3.45 -0.16,-4.81 l -0.04,-4.21 -0.06,-8.43 -0.13,-16.84 -0.36,-67.38 c -0.96,-269.86 -10.97,-538.94 -0.89,-808.64 l 0.05,-33.69 0.03,-8.43 c 0.13,-2.9 0.12,-6.42 0.76,-9.56 0.93,-6.47 3.19,-12.79 6.45,-18.61 6.39,-11.74 17.16,-21.38 30.01,-27.39 36.9,-17.58 71.46,-4.92 83.72,-54.83 8.25,-33.59 -1.39,-71.76 -0.12,-106.34 1.12,-30.47 0.49,-61.08 0.75,-91.56 1.09,-135.07 1.16,-200.22 0.46,-335.42 l 145.22,0.51 -1.54,166.83 c -0.31,13.08 -0.19,24.57 3.73,36.21 3.64,11.48 10.15,22.23 18.83,31.37 17.24,18.37 43.37,29.88 70.38,30.58 14.34,0.3 29.73,2.21 43.55,7.05 13.95,4.71 26.84,11.82 37.8,20.79 22.03,17.88 35.9,43.45 37.88,69.89 0.71,26.07 -0.13,51.15 -0.12,76.76 l -0.29,38.25 -0.15,19.12 c -0.05,6.51 -0.28,12.5 1.39,18.31 3.07,11.67 11.75,22.07 23.42,28.11 5.81,3.05 12.33,5.02 19.04,5.76 6.36,0.49 14.57,0.38 21.57,2.5 14.37,3.79 26.7,13.07 33.39,24.96 3.39,5.93 5.36,12.48 5.89,19.09 0.38,6.65 0.07,12.82 0.13,19.25" style="fill:#280C44;fill-opacity:1;fill-rule:nonzero;stroke:none" id="path140" />
                <path d="m 4159.21,1229.57 c 0,0 -42.49,-53.66 -73.41,-135.79 39.03,141.13 10.48,271.36 10.48,271.36 0,0 -39.37,-129.12 -44.48,-257.71 -13.86,176.51 -88.91,331.41 -88.91,331.41 0,0 -14.74,-154.78 50.51,-372.58 -90.68,245.85 -234.46,400.1 -238.37,397.96 -0.89,-0.49 78.08,-219.42 200.96,-377.83 -171.24,180.04 -303.67,239.58 -303.67,239.58 0,0 74.51,-128.38 234.68,-234.19 -105.03,55.69 -189.81,74.75 -189.81,74.75 l -0.9,-1.02 c 0,0 73.43,-75.07 234.63,-125.73 -150.25,37.4 -245.67,44.31 -245.67,44.31 0,0 129.14,-72.84 277.49,-67.64 l 113.8,28.27 c 46.51,46.44 62.67,184.85 62.67,184.85" style="fill:#280C44;fill-opacity:1;fill-rule:nonzero;stroke:none" id="path142" />
                <path d="m 333.34,1129.01 c 0,0 57.805,-42.69 109.824,-103.28 -80.004,108.83 -103.32,231.92 -103.32,231.92 0,0 85.761,-120.18 128.258,-221.15 -40.387,143.93 -17.805,305.19 -17.805,305.19 0,0 62.832,-158.57 60.305,-333.05 19.394,201.36 129.488,370.27 134.125,367.81 1.058,-0.57 -33.743,-225.53 -107.77,-352.73 114.731,147.56 232.066,206.61 232.066,206.61 0,0 -54.902,-115.9 -175.742,-200.77 79.461,43.91 150.137,61.03 150.137,61.03 l 0.875,-0.76 c 0,0 -53.523,-57.8 -176.969,-97.248 116.137,29.828 193.621,37.408 193.621,37.408 0,0 -95.8,-52.638 -214.425,-53.638 L 447.891,991.59 C 395.73,1022.16 333.34,1129.01 333.34,1129.01" style="fill:#280C44;fill-opacity:1;fill-rule:nonzero;stroke:none" id="path144" />
                <path d="m 2044.99,1117.35 c 0,0 42.26,-20.2 82.65,-48.52 -63.77,50.72 -92.04,107.32 -92.04,107.32 0,0 68.73,-55.97 107.17,-102.67 -41.62,66.33 -43.97,139.88 -43.97,139.88 0,0 57.83,-73.29 74.67,-153.11 -8.68,91.94 45.28,168 48.57,166.81 0.75,-0.27 1.88,-102.84 -32.96,-160.21 59.25,66.24 129.59,91.92 129.59,91.92 0,0 -23.55,-52.42 -93.44,-89.89 47.22,19.2 91.54,26.23 91.54,26.23 l 0.65,-0.36 c 0,0 -28.81,-25.85 -105.21,-42.5 72.65,12.33 122.43,14.93 122.43,14.93 0,0 -56.96,-23.01 -134.3,-22.12 l -66,8.09 c -37.29,14.59 -89.35,64.2 -89.35,64.2" style="fill:#280C44;fill-opacity:1;fill-rule:nonzero;stroke:none" id="path146" />
                <path d="m 333.938,1057.69 c 0,0 -27.083,-15.63 -52.543,-39.29 39.918,43.15 56.023,95.23 56.023,95.23 0,0 -42.961,-47.77 -66.281,-89.35 24.508,60.27 22.633,131.1 22.633,131.1 0,0 -34.926,-65.5 -42.368,-141.07 1.465,88.03 -37.879,166.45 -40.007,165.61 -0.481,-0.2 3.562,-99.17 29.347,-157.8 -42.39,69.43 -90.238,100.7 -90.238,100.7 0,0 18.07,-52.81 66.168,-95.42 -32.207,22.88 -61.938,33.74 -61.938,33.74 l -0.414,-0.29 c 0,0 20.321,-27.61 71.766,-50.71 -48.758,18.58 -81.891,25.66 -81.891,25.66 0,0 38.848,-27.46 90.09,-33.69 l 43.395,1.76 c 24.05,10.68 56.258,53.82 56.258,53.82" style="fill:#280C44;fill-opacity:1;fill-rule:nonzero;stroke:none" id="path148" />
                <path d="m 1107.16,1520.07 c 3.38,-46.05 -12.53,-105.92 -63.16,-120.11 -24.74,-6.95 -53.996,-2.99 -73.457,-19.78 -19.434,-16.75 -19.824,-46.2 -18.672,-71.85 5.059,-112.36 10.117,-224.72 15.176,-337.1 -31.504,0.071 -63.008,0.129 -94.512,0.2 -2.711,72.1 -5.418,144.19 -8.121,216.29 -0.934,24.75 -4.418,53.91 -26.078,65.92 -24.023,13.33 -54.281,-3.53 -81.188,2.02 -21.589,4.44 -38,23.16 -45.796,43.79 -7.805,20.61 -8.481,43.13 -9.063,65.17 -2.445,92.44 -4.894,184.89 -7.348,277.33 -0.41,15.53 -0.769,31.42 4.047,46.2 4.817,14.78 15.907,28.48 31.035,32.03 19.805,4.66 40.118,-9.71 49.149,-27.95 9.027,-18.23 9.461,-39.36 9.715,-59.72 0.949,-76.09 1.894,-152.19 2.843,-228.29 0.313,-25.08 6.192,-57.22 30.829,-61.84 16.019,-3 31.754,9.19 38.359,24.08 6.605,14.89 6.262,31.82 5.797,48.1 -5.121,178.91 -10.246,357.82 -15.367,536.72 -0.59,20.68 -1,42.27 7.914,60.93 8.922,18.67 30.304,33.15 50.078,27.07 26.273,-8.06 31.453,-42.39 31.805,-69.86 1.382,-106.38 2.773,-212.76 4.152,-319.13 0.516,-39.46 -12.113,-107.38 3.18,-143.72 7.507,-17.85 27.711,-30.04 47.058,-24.97 30.195,7.91 30.565,37.43 30.045,62.54 -1.51,72.36 -3.61,144.71 -5.41,217.07 -0.44,17.4 -0.78,35.38 5.75,51.51 6.53,16.14 21.83,30.08 39.23,29.34 16.26,-0.68 29.81,-13.95 35.86,-29.06 6.05,-15.11 6.11,-31.84 6.08,-48.11 -0.13,-81.22 -4.5,-163.74 0.07,-244.82" style="fill:#280C44;fill-opacity:1;fill-rule:nonzero;stroke:none" id="path150" />
        
              </g>
            </g>
          </g>
        </svg>
